<svg width="50" height="50" fill="none" xmlns="http://www.w3.org/2000/svg"><path fill-rule="evenodd" clip-rule="evenodd" d="M34.336 32.506l2.73-6.554a.683.683 0 10-1.26-.534l-2.777 6.686-2.798-6.686a.683.683 0 10-1.26.534l3.048 7.317a10.685 10.685 0 012.317-.763zm-6.319 14.63a15.824 15.824 0 01-2.025-2.735h-11.93a2.7 2.7 0 01-2.734-2.734H8.594c0 3.076 2.392 5.468 5.469 5.468h13.954zM25 15.69c0 2.307 1.794 4.102 4.102 4.102h9.57v2.734h2.734V17.4c0-1.025-.512-2.136-1.282-2.905l-9.826-9.827c-.77-.769-1.88-1.282-2.905-1.282h-13.33a5.452 5.452 0 00-5.47 5.47v13.671h2.735V8.854c0-1.452 1.196-2.734 2.735-2.734H25v9.57zm3.332-9.143l9.913 9.912c.13.13.21.311.28.465.021.048.041.093.061.133h-9.484a1.35 1.35 0 01-1.368-1.367V6.205c.04.02.086.04.133.062.154.069.335.15.465.28zm-.152 25.877c-.128.77-.534 1.389-1.196 1.752-.534.3-1.154.406-1.795.406-1.324 0-2.691-.491-3.375-.769a.66.66 0 01-.363-.876.676.676 0 01.897-.384c1.645.683 3.204.833 3.973.427.3-.171.449-.427.513-.79.171-.92-.384-1.218-2.2-1.752-1.517-.427-3.59-1.026-3.183-3.269a2.322 2.322 0 011.09-1.645c.96-.64 2.456-.683 4.4-.17a.7.7 0 01.491.833.7.7 0 01-.833.491c-1.944-.513-2.884-.3-3.332-.021-.257.192-.428.427-.47.726-.171.919.384 1.218 2.2 1.752 1.517.427 3.589 1.025 3.183 3.29zm-8.14-.427c.47 0 .663.427.663.684 0 .491-1.431 1.901-3.525 1.901-2.926 0-4.678-2.52-4.678-4.785 0-2.222 1.709-4.785 4.678-4.785 2.137 0 3.525 1.431 3.525 1.901 0 .256-.213.683-.683.683-.258 0-.462-.173-.715-.39-.417-.355-.97-.827-2.127-.827-2.093 0-3.31 1.816-3.31 3.418 0 1.58 1.195 3.418 3.31 3.418 1.17-.014 1.728-.482 2.147-.834.254-.213.458-.384.716-.384zm16.418 1.857c-2.804 0-5.04 1.282-6.636 2.776-1.593 1.458-2.642 3.216-3.154 4.446l-.007.017a1.687 1.687 0 000 1.18l.009.022c.511 1.195 1.56 2.95 3.15 4.44 1.6 1.497 3.837 2.744 6.638 2.744 2.77 0 5.007-1.248 6.606-2.745 1.59-1.489 2.638-3.244 3.15-4.439l.01-.022a1.687 1.687 0 000-1.18l-.008-.017c-.512-1.23-1.56-2.988-3.154-4.447-1.595-1.492-3.831-2.775-6.604-2.775zm-5.211 4.288c1.334-1.242 3.069-2.205 5.211-2.205 2.11 0 3.844.963 5.18 2.205a12.024 12.024 0 012.581 3.525 12.024 12.024 0 01-2.582 3.525c-1.335 1.242-3.07 2.204-5.179 2.204-2.142 0-3.877-.963-5.211-2.204-1.254-1.166-2.124-2.552-2.556-3.525.432-.974 1.302-2.36 2.556-3.525zm5.211-1.163c-2.601 0-4.687 2.124-4.687 4.688a4.675 4.675 0 004.687 4.687c2.564 0 4.688-2.086 4.688-4.687 0-2.567-2.121-4.688-4.688-4.688zm-2.604 4.688a2.584 2.584 0 012.604-2.605 2.605 2.605 0 010 5.209 2.584 2.584 0 01-2.604-2.604z" fill="#fff"/></svg>