<svg width="50" height="50" fill="none" xmlns="http://www.w3.org/2000/svg"><path fill-rule="evenodd" clip-rule="evenodd" d="M8.594 8.854a5.452 5.452 0 015.469-5.469h13.33c1.025 0 2.136.513 2.905 1.282l9.826 9.827c.77.769 1.282 1.88 1.282 2.905v16.136a10.795 10.795 0 00-2.734-1.006V19.792h-9.57c-2.308 0-4.102-1.795-4.102-4.102V6.12H14.062c-1.538 0-2.734 1.282-2.734 2.734v32.813a2.7 2.7 0 002.735 2.734h11.929c.51.87 1.183 1.825 2.025 2.734H14.063c-3.077 0-5.47-2.392-5.47-5.468V8.854zm29.65 7.605l-9.912-9.912c-.13-.13-.31-.211-.465-.28l-.133-.062v9.485c0 .77.598 1.367 1.368 1.367h9.484c-.02-.04-.04-.085-.061-.133-.07-.154-.15-.334-.28-.465z" fill="#fff"/><path fill-rule="evenodd" clip-rule="evenodd" d="M36.458 33.854c-2.804 0-5.04 1.282-6.636 2.776-1.593 1.458-2.642 3.216-3.154 4.446l-.007.017a1.687 1.687 0 000 1.18l.009.022c.511 1.195 1.56 2.95 3.15 4.44 1.6 1.497 3.837 2.744 6.638 2.744 2.77 0 5.007-1.248 6.606-2.745 1.59-1.489 2.638-3.244 3.15-4.439l.01-.022a1.687 1.687 0 000-1.18l-.008-.017c-.512-1.23-1.56-2.988-3.154-4.447-1.595-1.492-3.831-2.775-6.604-2.775zm-5.211 4.288c1.334-1.242 3.069-2.205 5.211-2.205 2.11 0 3.844.963 5.18 2.205a12.024 12.024 0 012.581 3.525 12.024 12.024 0 01-2.582 3.525c-1.335 1.242-3.07 2.204-5.179 2.204-2.142 0-3.877-.963-5.211-2.204-1.254-1.166-2.124-2.552-2.556-3.525.432-.974 1.302-2.36 2.556-3.525zm5.211-1.163c-2.601 0-4.687 2.124-4.687 4.688a4.675 4.675 0 004.687 4.687c2.564 0 4.688-2.086 4.688-4.687 0-2.567-2.121-4.688-4.688-4.688zm-2.604 4.688a2.584 2.584 0 012.604-2.605 2.605 2.605 0 010 5.209 2.584 2.584 0 01-2.604-2.604z" fill="#fff"/></svg>