<svg width="50" height="50" fill="none" xmlns="http://www.w3.org/2000/svg"><path fill-rule="evenodd" clip-rule="evenodd" d="M41.666 6.25H8.334c-1.15 0-2.083.933-2.083 2.083v33.334c0 1.15.933 2.083 2.083 2.083h33.334c1.15 0 2.083-.933 2.083-2.083V8.333c0-1.15-.933-2.083-2.084-2.083zM8.334 4.167a4.167 4.167 0 00-4.167 4.166v33.334a4.167 4.167 0 004.167 4.166h33.334a4.167 4.167 0 004.166-4.166V8.333a4.167 4.167 0 00-4.166-4.166H8.332z" fill="#fff"/><path d="M17.448 21.375v7.812a.67.67 0 01-.651.651.656.656 0 01-.651-.651v-5.676L13.42 27.58c-.244.366-.834.366-1.079 0l-2.705-4.07v5.657a.656.656 0 01-.651.65.643.643 0 01-.651-.65v-7.813c0-.285.183-.529.447-.61.285-.082.57.02.733.264l3.377 5.046 3.357-5.046a.647.647 0 01.732-.264.66.66 0 01.468.63zm8.829 6.876a4.522 4.522 0 001.119-2.99c0-2.503-2.055-4.558-4.558-4.558-2.482 0-4.557 2.055-4.557 4.557 0 2.523 2.035 4.558 4.537 4.558a4.58 4.58 0 002.442-.712l.956 1.139a.617.617 0 00.508.244c.428 0 .651-.387.651-.65a.657.657 0 00-.162-.428l-.936-1.16zm-3.439.265a3.239 3.239 0 01-3.255-3.256 3.234 3.234 0 013.256-3.234c1.79 0 3.255 1.464 3.255 3.234 0 .753-.265 1.425-.672 1.974l-1.444-1.73a.617.617 0 00-.509-.244c-.427 0-.63.387-.63.651 0 .163.04.306.142.428l1.444 1.75a3.246 3.246 0 01-1.587.427zm11.954-7.141a.67.67 0 01-.651.65h-2.604v7.162c0 .346-.306.63-.651.63a.639.639 0 01-.651-.63v-7.161H27.63a.656.656 0 01-.65-.651c0-.367.284-.651.65-.651h6.51c.347 0 .652.284.652.65zm8.021 0a.67.67 0 01-.651.65h-2.605v7.162c0 .346-.305.63-.65.63a.638.638 0 01-.652-.63v-7.161h-2.604a.656.656 0 01-.65-.651c0-.367.284-.651.65-.651h6.51c.346 0 .652.284.652.65z" fill="#fff"/></svg>