<svg width="50" height="50" fill="none" xmlns="http://www.w3.org/2000/svg"><path fill-rule="evenodd" clip-rule="evenodd" d="M18.186 8.705a.558.558 0 100-1.115.558.558 0 000 1.115zm0 1.116a1.673 1.673 0 100-3.346 1.673 1.673 0 000 3.346z" fill="#fff"/><path fill-rule="evenodd" clip-rule="evenodd" d="M12.54 8.357a6.274 6.274 0 016.273-6.274h9.585a6.274 6.274 0 016.274 6.274v9.585a6.274 6.274 0 01-6.274 6.274H17.942a4.183 4.183 0 00-4.183 4.182v5.228c0 .578-.468 1.046-1.045 1.046H8.357a6.274 6.274 0 01-6.274-6.274v-7.842a6.274 6.274 0 016.274-6.274h13.767v-1.394h-8.539a1.046 1.046 0 01-1.046-1.046V8.357zm6.273-4.182a4.182 4.182 0 00-4.182 4.182v2.44h8.539c.577 0 1.046.468 1.046 1.045v3.486c0 .577-.469 1.046-1.046 1.046H8.357a4.183 4.183 0 00-4.182 4.182v7.842a4.182 4.182 0 004.182 4.183h3.311v-4.183a6.274 6.274 0 016.274-6.273h10.456a4.183 4.183 0 004.183-4.183V8.357a4.183 4.183 0 00-4.183-4.182h-9.585zm13.001 37.119a.558.558 0 100 1.116.558.558 0 000-1.116zm0-1.115a1.673 1.673 0 100 3.346 1.673 1.673 0 000-3.346z" fill="#fff"/><path fill-rule="evenodd" clip-rule="evenodd" d="M37.46 41.643a6.274 6.274 0 01-6.274 6.273h-9.584a6.274 6.274 0 01-6.274-6.273v-9.585a6.274 6.274 0 016.274-6.274h10.456a4.183 4.183 0 004.182-4.182v-5.229c0-.577.468-1.045 1.046-1.045h4.357a6.274 6.274 0 016.273 6.274v7.842a6.274 6.274 0 01-6.273 6.274H27.875v1.394h8.54c.577 0 1.045.468 1.045 1.045v3.486zm-6.274 4.182a4.183 4.183 0 004.183-4.182v-2.44h-8.54a1.046 1.046 0 01-1.045-1.046v-3.485c0-.578.468-1.046 1.046-1.046h14.813a4.183 4.183 0 004.182-4.182v-7.842a4.183 4.183 0 00-4.182-4.183h-3.311v4.183a6.274 6.274 0 01-6.274 6.273H21.602a4.183 4.183 0 00-4.183 4.183v9.585a4.183 4.183 0 004.183 4.182h9.584z" fill="#fff"/></svg>