<svg width="50" height="50" fill="none" xmlns="http://www.w3.org/2000/svg"><path fill-rule="evenodd" clip-rule="evenodd" d="M39.783 14.152L30.64 5.009c-1.026-1.025-2.393-1.624-3.846-1.624H14.062a5.452 5.452 0 00-5.468 5.47v32.812c0 3.076 2.392 5.468 5.469 5.468h13.954a15.824 15.824 0 01-2.025-2.734h-11.93a2.7 2.7 0 01-2.734-2.734V8.854c0-1.452 1.196-2.734 2.735-2.734H25v9.57c0 2.307 1.794 4.102 4.102 4.102h9.57v12.737c.994.217 1.907.57 2.734 1.005V17.998c0-1.452-.598-2.82-1.623-3.845zM32.926 32.9c-.457.162-.893.352-1.308.564H18.164a1.35 1.35 0 01-1.367-1.368c0-.683.598-1.367 1.367-1.367h13.672c.684 0 1.367.684 1.367 1.367 0 .304-.106.58-.277.804zm-4.89 3.298a15.11 15.11 0 00-2.038 2.734h-7.834a1.35 1.35 0 01-1.367-1.367c0-.683.598-1.367 1.367-1.367h9.872zm-.302-29.822a2.15 2.15 0 011.026.598l9.057 9.058c.342.342.513.683.599 1.025h-9.314a1.35 1.35 0 01-1.368-1.367V6.376zM16.797 26.628a1.35 1.35 0 001.367 1.367h13.672c.684 0 1.367-.598 1.367-1.367 0-.684-.684-1.368-1.367-1.368H18.164c-.769 0-1.367.684-1.367 1.368z" fill="#fff"/><path fill-rule="evenodd" clip-rule="evenodd" d="M36.458 33.854c-2.804 0-5.04 1.282-6.636 2.776-1.593 1.458-2.642 3.216-3.154 4.446l-.007.017a1.687 1.687 0 000 1.18l.009.022c.511 1.195 1.56 2.95 3.15 4.44 1.6 1.497 3.837 2.744 6.638 2.744 2.77 0 5.007-1.248 6.606-2.745 1.59-1.489 2.638-3.244 3.15-4.439l.01-.022a1.687 1.687 0 000-1.18l-.008-.017c-.512-1.23-1.56-2.988-3.154-4.447-1.595-1.492-3.831-2.775-6.604-2.775zm-5.211 4.288c1.334-1.242 3.069-2.205 5.211-2.205 2.11 0 3.844.963 5.18 2.205a12.024 12.024 0 012.581 3.525 12.024 12.024 0 01-2.582 3.525c-1.335 1.242-3.07 2.204-5.179 2.204-2.142 0-3.877-.963-5.211-2.204-1.254-1.166-2.124-2.552-2.556-3.525.432-.974 1.302-2.36 2.556-3.525zm5.211-1.163c-2.601 0-4.687 2.124-4.687 4.688a4.675 4.675 0 004.687 4.687c2.564 0 4.688-2.086 4.688-4.687 0-2.567-2.121-4.688-4.688-4.688zm-2.604 4.688a2.584 2.584 0 012.604-2.605 2.605 2.605 0 010 5.209 2.584 2.584 0 01-2.604-2.604z" fill="#fff"/></svg>