<svg width="50" height="50" fill="none" xmlns="http://www.w3.org/2000/svg"><path d="M42.188 40.495a1.302 1.302 0 11-2.604 0 1.302 1.302 0 012.604 0zm-3.386 0a1.302 1.302 0 11-2.604 0 1.302 1.302 0 012.604 0zm-3.385 0a1.302 1.302 0 11-2.604 0 1.302 1.302 0 012.604 0zM19.792 9.245a1.302 1.302 0 11-2.605 0 1.302 1.302 0 012.605 0zm-3.907 0a1.302 1.302 0 11-2.604 0 1.302 1.302 0 012.604 0zm-3.905 0a1.302 1.302 0 11-2.605 0 1.302 1.302 0 012.604 0z" fill="#fff"/><path fill-rule="evenodd" clip-rule="evenodd" d="M5.625 13.151c0-.633.513-1.146 1.146-1.146h36.458a1.146 1.146 0 010 2.292H6.771a1.146 1.146 0 01-1.146-1.146zm20.677 9.271c.633 0 1.146.513 1.146 1.146v18.229a1.146 1.146 0 01-2.292 0v-18.23c0-.632.513-1.145 1.146-1.145z" fill="#fff"/><path d="M9.375 6.328h31.25a2.917 2.917 0 012.916 2.917v18.229a2.917 2.917 0 01-2.916 2.917h-9.948a1.146 1.146 0 000 2.291h9.948a5.208 5.208 0 005.208-5.208V9.244a5.208 5.208 0 00-5.208-5.208H9.375a5.208 5.208 0 00-5.208 5.209v18.229a5.208 5.208 0 005.208 5.208h12.552a1.146 1.146 0 000-2.291H9.375a2.917 2.917 0 01-2.917-2.917V9.244a2.917 2.917 0 012.917-2.916zM23.073 35.13c0-.633-.513-1.146-1.146-1.146H6.77a2.604 2.604 0 00-2.604 2.605V44.4a2.604 2.604 0 002.604 2.604h36.458a2.604 2.604 0 002.604-2.604v-7.813a2.604 2.604 0 00-2.604-2.604H30.677a1.146 1.146 0 000 2.292h12.552c.173 0 .313.14.313.313V44.4c0 .173-.14.313-.313.313H6.771a.312.312 0 01-.313-.313v-7.813c0-.172.14-.312.313-.312h15.156c.633 0 1.146-.513 1.146-1.146z" fill="#fff"/><path fill-rule="evenodd" clip-rule="evenodd" d="M25.492 21.455a1.146 1.146 0 011.62 0l3.907 3.907a1.146 1.146 0 01-1.62 1.62l-3.097-3.096-3.096 3.096a1.146 1.146 0 01-1.62-1.62l3.906-3.907zm-3.906 16.146a1.146 1.146 0 011.62 0l3.096 3.096 3.096-3.096a1.146 1.146 0 011.62 1.62l-3.906 3.907a1.146 1.146 0 01-1.62 0l-3.906-3.906a1.146 1.146 0 010-1.62z" fill="#fff"/></svg>