<svg width="50" height="50" viewBox="0 0 50 50" fill="none" xmlns="http://www.w3.org/2000/svg">
<path fill-rule="evenodd" clip-rule="evenodd" d="M32.488 29.8566L34.9832 23.8683C35.1327 23.5265 34.9618 23.1206 34.62 22.9711C34.2568 22.8215 33.8723 22.9924 33.7228 23.3342L30.9457 30.0206L28.1472 23.3342C27.9977 22.9924 27.6132 22.8215 27.25 22.9711C26.9082 23.1206 26.7373 23.5265 26.8868 23.8683L30.0838 31.541C30.8022 30.8778 31.6102 30.3096 32.488 29.8566ZM26.904 42.3177H11.979C10.4409 42.3177 9.24463 41.1214 9.24463 39.5833H6.51025C6.51025 42.6595 8.90283 45.0521 11.979 45.0521H28.0161C27.529 44.2062 27.1519 43.2884 26.904 42.3177ZM27.0181 17.7083C24.7109 17.7083 22.9165 15.9139 22.9165 13.6068V4.03644H11.979C10.4409 4.03644 9.24463 5.31818 9.24463 6.77081V20.4427H6.51025V6.77081C6.51025 3.78009 8.90283 1.30206 11.979 1.30206H25.3091C26.3345 1.30206 27.4453 1.81476 28.2144 2.5838L38.041 12.4105C38.8101 13.1795 39.3228 14.2903 39.3228 15.3157V20.4427H36.5884V17.7083H27.0181ZM36.1611 14.3758L26.249 4.46368C26.1185 4.33313 25.938 4.25244 25.7839 4.18353C25.7363 4.16223 25.6912 4.14206 25.6509 4.12189V13.6068C25.6509 14.3758 26.249 14.9739 27.0181 14.9739H36.5029C36.4828 14.9336 36.4626 14.8885 36.4413 14.8409L36.4413 14.8409C36.3724 14.6868 36.2917 14.5063 36.1611 14.3758ZM24.9001 32.0928C25.5624 31.7296 25.9683 31.1101 26.0964 30.3411C26.5023 28.0766 24.4302 27.4785 22.9135 27.0513C21.0977 26.5172 20.5422 26.2181 20.7131 25.2995C20.7559 25.0005 20.9268 24.7655 21.1831 24.5732C21.6317 24.2955 22.5717 24.0819 24.5156 24.5946C24.8788 24.68 25.2419 24.4664 25.3488 24.1033C25.4342 23.7401 25.2206 23.3769 24.8574 23.2701C22.9135 22.7574 21.4181 22.8002 20.4568 23.441C19.8586 23.8042 19.4741 24.4023 19.3673 25.0859C18.9614 27.329 21.0336 27.9271 22.5503 28.3544C24.3661 28.8884 24.9215 29.1875 24.7506 30.1061C24.6865 30.4692 24.537 30.7256 24.2379 30.8965C23.4689 31.3024 21.9094 31.1528 20.2645 30.4692C19.9014 30.3197 19.5168 30.4906 19.3673 30.8537C19.2178 31.1955 19.3887 31.6014 19.7305 31.7296C20.4141 32.0073 21.7812 32.4986 23.1057 32.4986C23.7466 32.4986 24.3661 32.3918 24.9001 32.0928ZM18.6196 30.5974C18.6196 30.3411 18.4274 29.9138 17.9574 29.9138C17.6992 29.9138 17.4958 30.0845 17.2413 30.2982C16.8222 30.65 16.2646 31.1182 15.0948 31.1315C12.98 31.1315 11.7837 29.2943 11.7837 27.7135C11.7837 26.1113 13.0013 24.2955 15.0948 24.2955C16.2517 24.2955 16.8044 24.7673 17.2216 25.1236C17.4747 25.3396 17.678 25.5132 17.936 25.5132C18.406 25.5132 18.6196 25.0859 18.6196 24.8296C18.6196 24.3596 17.2311 22.9283 15.0948 22.9283C12.1255 22.9283 10.4165 25.4918 10.4165 27.7135C10.4165 29.9779 12.1682 32.4986 15.0948 32.4986C17.1884 32.4986 18.6196 31.0887 18.6196 30.5974Z" fill="white"/>
<path fill-rule="evenodd" clip-rule="evenodd" d="M37.5002 30.7292C32.5888 30.7292 28.646 34.7072 28.646 39.5834C28.646 44.4934 32.5901 48.4375 37.5002 48.4375C42.3763 48.4375 46.3543 44.4947 46.3543 39.5834C46.3543 34.7059 42.3777 30.7292 37.5002 30.7292ZM30.7293 39.5834C30.7293 35.8656 33.7529 32.8125 37.5002 32.8125C41.2164 32.8125 44.271 35.8671 44.271 39.5834C44.271 43.3307 41.2179 46.3542 37.5002 46.3542C33.7514 46.3542 30.7293 43.3322 30.7293 39.5834ZM35.0182 35.6203C35.4182 35.356 35.9569 35.3597 36.353 35.6316L41.0213 38.4845C41.3936 38.7007 41.6668 39.1235 41.6668 39.5834C41.6668 40.0636 41.4043 40.4924 41.0213 40.7148L36.3263 43.5837C35.9915 43.7751 35.456 43.8674 35.0184 43.5791C34.5719 43.3381 34.3752 42.8849 34.3752 42.4479V36.7188C34.3752 36.3011 34.5812 35.8563 35.0182 35.6203ZM36.4585 41.0591V38.1335L38.8467 39.5864L36.4585 41.0591Z" fill="white"/>
</svg>
