<svg width="50" height="50" viewBox="0 0 50 50" fill="none" xmlns="http://www.w3.org/2000/svg">
<path fill-rule="evenodd" clip-rule="evenodd" d="M39.7827 14.152L30.6396 5.00897C29.6143 3.98358 28.2471 3.38544 26.7944 3.38544H14.0625C10.9863 3.38544 8.59375 5.86346 8.59375 8.85419V41.6667C8.59375 44.7429 10.9863 47.1354 14.0625 47.1354H28.017C27.1749 46.2256 26.5013 45.2716 25.9919 44.4011H14.0625C12.5244 44.4011 11.3281 43.2048 11.3281 41.6667V8.85419C11.3281 7.40155 12.5244 6.11981 14.0625 6.11981H25V15.6901C25 17.9973 26.7944 19.7917 29.1016 19.7917H38.6719V32.5292C39.6657 32.746 40.5788 33.0985 41.4062 33.5345V17.9973C41.4062 16.5446 40.8081 15.1774 39.7827 14.152ZM32.9264 32.9C32.4692 33.0624 32.0328 33.2524 31.6176 33.4636H18.1641C17.395 33.4636 16.7969 32.8654 16.7969 32.0964C16.7969 31.4128 17.395 30.7292 18.1641 30.7292H31.8359C32.5195 30.7292 33.2031 31.4128 33.2031 32.0964C33.2031 32.3995 33.0969 32.6761 32.9264 32.9ZM28.0362 36.1979C27.1892 37.0973 26.5115 38.0512 25.9984 38.9323H18.1641C17.395 38.9323 16.7969 38.3342 16.7969 37.5651C16.7969 36.8815 17.395 36.1979 18.1641 36.1979H28.0362ZM27.7344 6.37616C28.0762 6.46161 28.418 6.63251 28.7598 6.9743L37.8174 16.0319C38.1592 16.3737 38.3301 16.7155 38.4155 17.0573H29.1016C28.3325 17.0573 27.7344 16.4592 27.7344 15.6901V6.37616ZM16.7969 26.6276C16.7969 27.3967 17.395 27.9948 18.1641 27.9948H31.8359C32.5195 27.9948 33.2031 27.3967 33.2031 26.6276C33.2031 25.944 32.5195 25.2604 31.8359 25.2604H18.1641C17.395 25.2604 16.7969 25.944 16.7969 26.6276Z" fill="white"/>
<path fill-rule="evenodd" clip-rule="evenodd" d="M36.4582 33.8542C33.6538 33.8542 31.4175 35.1364 29.8218 36.6295C28.2287 38.0878 27.18 39.8459 26.6675 41.0757L26.6672 41.0756L26.6606 41.0932C26.5187 41.4715 26.5187 41.8944 26.6606 42.2727L26.6601 42.2729L26.6696 42.295C27.1815 43.4897 28.2291 45.2454 29.8197 46.7344C31.4194 48.232 33.6567 49.4792 36.4582 49.4792C39.228 49.4792 41.4653 48.2312 43.0641 46.7344C44.6547 45.2454 45.7022 43.4897 46.2142 42.295L46.2147 42.2952L46.2232 42.2727C46.3651 41.8944 46.3651 41.4715 46.2232 41.0932L46.2235 41.0931L46.2163 41.0757C45.7038 39.8459 44.6551 38.0878 43.062 36.6295C41.4672 35.1373 39.231 33.8542 36.4582 33.8542ZM31.2465 38.1418C32.581 36.9004 34.3157 35.9375 36.4582 35.9375C38.5671 35.9375 40.3018 36.8995 41.6373 38.1418C42.8853 39.3027 43.7568 40.6846 44.2194 41.6667C43.7568 42.6488 42.8853 44.0307 41.6373 45.1916C40.3018 46.4339 38.5671 47.3959 36.4582 47.3959C34.3157 47.3959 32.581 46.4329 31.2465 45.1916C29.993 44.0255 29.1227 42.6399 28.6908 41.6667C29.1227 40.6934 29.993 39.3078 31.2465 38.1418ZM36.4582 36.9792C33.8567 36.9792 31.7707 39.103 31.7707 41.6667C31.7707 44.2655 33.8593 46.3542 36.4582 46.3542C39.0218 46.3542 41.1457 44.2682 41.1457 41.6667C41.1457 39.1004 39.0245 36.9792 36.4582 36.9792ZM33.854 41.6667C33.854 40.2255 34.9915 39.0625 36.4582 39.0625C37.8958 39.0625 39.0623 40.2291 39.0623 41.6667C39.0623 43.1043 37.8958 44.2709 36.4582 44.2709C34.9915 44.2709 33.854 43.1079 33.854 41.6667Z" fill="white"/>
</svg>
