<svg width="50" height="50" viewBox="0 0 50 50" fill="none" xmlns="http://www.w3.org/2000/svg">
<path d="M36.8407 24.528C40.5328 24.528 43.6196 27.6148 43.6196 31.307C43.6196 31.9728 43.4986 32.578 43.317 33.1833C45.7986 34.5149 47.4933 37.057 47.4933 40.0228C47.4933 44.3202 43.9828 47.7702 39.7459 47.7702H17.4722C12.63 47.7702 8.75635 43.8965 8.75635 39.0544C8.75635 35.3017 11.1774 32.0333 14.5669 30.8833C14.809 25.1938 19.4695 20.6543 25.2196 20.6543C28.7906 20.6543 31.9985 22.4701 33.9354 25.1938C34.7828 24.7701 35.7512 24.528 36.8407 24.528ZM34.7222 26.9491C33.8749 27.3727 32.8459 27.0701 32.3012 26.3438C30.7275 24.1043 28.1248 22.5911 25.2196 22.5911C20.4985 22.5911 16.6853 26.2833 16.5037 30.9438C16.4432 31.7307 15.959 32.3964 15.1722 32.6991C12.5695 33.607 10.6932 36.1491 10.6932 39.0544C10.6932 42.807 13.7195 45.8333 17.4722 45.8333H39.7459C42.9538 45.8333 45.5565 43.2307 45.5565 40.0228C45.5565 37.8438 44.2854 35.907 42.4091 34.9386C41.6223 34.4543 41.1986 33.5464 41.4407 32.6385C41.5617 32.2149 41.6828 31.7912 41.6828 31.307C41.6828 28.6438 39.5038 26.4648 36.8407 26.4648C36.0538 26.4648 35.388 26.6464 34.7222 26.9491Z" fill="white"/>
<path fill-rule="evenodd" clip-rule="evenodd" d="M25.2199 20.8627C19.5827 20.8627 15.0128 25.313 14.7754 30.8922L14.7693 31.0347L14.6342 31.0806C11.3286 32.2021 8.96501 35.3917 8.96501 39.0544C8.96501 43.7815 12.7454 47.5619 17.4725 47.5619H39.7463C43.8691 47.5619 47.2853 44.2041 47.2853 40.0228C47.2853 37.1401 45.6386 34.6653 43.2188 33.3669L43.0689 33.2864L43.1178 33.1234C43.2956 32.5308 43.4116 31.9465 43.4116 31.307C43.4116 27.7299 40.418 24.7363 36.841 24.7363C35.7834 24.7363 34.8469 24.9711 34.0289 25.3801L33.8693 25.4599L33.7659 25.3145C31.8657 22.6424 28.7194 20.8627 25.2199 20.8627ZM14.366 30.7328C14.6834 24.9995 19.4048 20.446 25.2199 20.446C28.7997 20.446 32.0192 22.2346 34.0023 24.9304C34.8402 24.54 35.7871 24.3197 36.841 24.3197C40.6482 24.3197 43.8283 27.4998 43.8283 31.307C43.8283 31.9387 43.7233 32.5155 43.564 33.0812C46.0267 34.4666 47.702 37.0335 47.702 40.0228C47.702 44.4363 44.0971 47.9785 39.7463 47.9785H17.4725C12.5153 47.9785 8.54834 44.0116 8.54834 39.0544C8.54834 35.2615 10.9632 31.9512 14.366 30.7328ZM16.2961 30.9317C16.4841 26.1611 20.3884 22.3828 25.2199 22.3828C28.1976 22.3828 30.8606 23.9327 32.4701 26.2213C32.9605 26.8728 33.8812 27.1369 34.6294 26.7627L34.6363 26.7593L34.6364 26.7594C35.3234 26.4471 36.0186 26.2565 36.841 26.2565C39.6192 26.2565 41.8914 28.5288 41.8914 31.307C41.8914 31.8204 41.7636 32.2679 41.6442 32.6858L41.6423 32.6923C41.4272 33.4989 41.7988 34.3147 42.5122 34.7572C44.4496 35.7604 45.7651 37.7641 45.7651 40.0228C45.7651 43.3458 43.0692 46.0417 39.7463 46.0417H17.4725C13.6048 46.0417 10.4852 42.9221 10.4852 39.0544C10.4852 36.0608 12.4169 33.4413 15.1007 32.5035C15.8104 32.2293 16.2406 31.6346 16.2961 30.9317ZM25.2199 22.7995C20.6106 22.7995 16.8895 26.4033 16.7122 30.9519L16.7119 30.9598L16.7118 30.9598C16.645 31.8279 16.1081 32.5624 15.2473 32.8935L15.2411 32.8959L15.2411 32.8958C12.7213 33.7748 10.9019 36.2386 10.9019 39.0544C10.9019 42.692 13.8349 45.625 17.4725 45.625H39.7463C42.8391 45.625 45.3485 43.1157 45.3485 40.0228C45.3485 37.9265 44.1252 36.0586 42.3139 35.1237L42.2999 35.1165L42.3002 35.116C41.4441 34.5891 40.9712 33.5916 41.2397 32.5849L41.2407 32.5813L41.2407 32.5813C41.3626 32.1547 41.4748 31.7579 41.4748 31.307C41.4748 28.7589 39.3891 26.6732 36.841 26.6732C36.091 26.6732 35.4555 26.8452 34.8122 27.1372C33.8673 27.6073 32.7336 27.2672 32.1348 26.4688L32.131 26.4636L32.131 26.4636C30.5929 24.2747 28.0515 22.7995 25.2199 22.7995Z" fill="white"/>
<path d="M25.2062 34.375C25.2062 33.0078 26.3171 31.8685 27.7127 31.8685C29.0799 31.8685 30.2192 33.0078 30.2192 34.375C30.2192 35.7707 29.0799 36.8815 27.7127 36.8815C26.3171 36.8815 25.2062 35.7707 25.2062 34.375ZM27.7127 32.7799C26.8297 32.7799 26.1177 33.5205 26.1177 34.375C26.1177 35.258 26.8297 35.97 27.7127 35.97C28.5672 35.97 29.3078 35.258 29.3078 34.375C29.3078 33.5205 28.5672 32.7799 27.7127 32.7799ZM22.2725 33.6629L21.1331 32.609C20.8198 32.3242 20.7344 31.8685 20.9622 31.4982L21.8167 29.9886C22.0161 29.6183 22.4718 29.4474 22.8706 29.5898L24.3517 30.0456C24.7505 29.7607 25.1777 29.5044 25.605 29.3335L25.9468 27.8239C26.0322 27.3966 26.4025 27.0833 26.8297 27.0833H28.5672C28.9945 27.0833 29.3647 27.3966 29.4502 27.8239L29.792 29.3335C30.2192 29.5044 30.6465 29.7607 31.0452 30.0456L32.5264 29.5898C32.9251 29.4474 33.3809 29.6183 33.5802 29.9886L34.4347 31.4982C34.6626 31.8685 34.5771 32.3242 34.2638 32.609L33.1245 33.6629C33.153 33.8908 33.1815 34.1471 33.1815 34.375C33.1815 34.6313 33.153 34.8877 33.1245 35.1155L34.2638 36.1694C34.5771 36.4542 34.6626 36.91 34.4347 37.2803L33.5802 38.7899C33.3809 39.1601 32.9251 39.331 32.5264 39.1886L31.0452 38.7329C30.6465 39.0177 30.2192 39.2456 29.792 39.445L29.4502 40.9546C29.3647 41.3818 28.9945 41.6666 28.5672 41.6666H26.8297C26.4025 41.6666 26.0322 41.3818 25.9468 40.9546L25.605 39.445C25.1777 39.2456 24.7505 39.0177 24.3517 38.7329L22.8706 39.1886C22.4718 39.331 22.0161 39.1601 21.8167 38.7899L20.9622 37.2803C20.7344 36.91 20.8198 36.4542 21.1331 36.1694L22.2725 35.1155C22.244 34.8877 22.244 34.6313 22.244 34.375C22.244 34.1471 22.244 33.8908 22.2725 33.6629ZM24.9214 30.7861L24.5511 31.0709L22.6143 30.4443L21.7313 31.9539L23.2409 33.3211L23.1839 33.7768C23.1554 33.9762 23.1554 34.1756 23.1554 34.375C23.1554 34.6028 23.1554 34.8022 23.1839 35.0016L23.2409 35.4573L21.7313 36.8245L22.6143 38.3341L24.5511 37.7075L24.9214 37.9923C25.2347 38.2487 25.5765 38.4481 25.9753 38.5905L26.4025 38.7899L26.8297 40.7552H28.5672L28.9945 38.7899L29.4217 38.5905C29.8205 38.4481 30.1623 38.2487 30.4756 37.9923L30.8459 37.7075L32.7827 38.3341L33.6657 36.8245L32.1561 35.4573L32.213 35.0016C32.2415 34.8022 32.27 34.6028 32.27 34.375C32.27 34.1756 32.2415 33.9762 32.213 33.7768L32.1561 33.3211L33.6657 31.9539L32.7827 30.4443L30.8459 31.0709L30.4756 30.7861C30.1623 30.5298 29.8205 30.3304 29.4217 30.1595L28.9945 29.9886L28.5672 27.9948H26.8297L26.4025 29.9886L25.9753 30.1595C25.5765 30.3304 25.2347 30.5298 24.9214 30.7861Z" fill="white"/>
<path fill-rule="evenodd" clip-rule="evenodd" d="M25.4372 27.7146C25.5719 27.0585 26.1453 26.5625 26.8295 26.5625H28.5669C29.2511 26.5625 29.8246 27.0585 29.9592 27.7146L30.2415 28.9613C30.5504 29.1059 30.8507 29.2833 31.1336 29.4734L32.3631 29.095C32.9942 28.8763 33.7122 29.1421 34.0356 29.7363L34.8835 31.2343C35.2452 31.8317 35.096 32.5546 34.6158 32.9927L33.6719 33.8658C33.6889 34.0307 33.702 34.2072 33.702 34.375C33.702 34.5612 33.6888 34.7445 33.6718 34.9126L34.6158 35.7858C35.096 36.2238 35.2452 36.9468 34.8835 37.5442L34.0356 39.0422C33.7122 39.6364 32.9942 39.9021 32.3631 39.6834L31.1316 39.3045C30.8397 39.4957 30.5401 39.6599 30.244 39.8057L29.9592 41.0639C29.8198 41.7434 29.2268 42.1875 28.5669 42.1875H26.8295C26.1696 42.1875 25.5766 41.7434 25.4372 41.0639L25.1524 39.8057C24.8563 39.6599 24.5567 39.4957 24.2648 39.3045L23.0333 39.6834C22.4022 39.9021 21.6842 39.6364 21.3608 39.0422L20.5129 37.5442C20.1512 36.9468 20.3005 36.2238 20.7806 35.7857L21.732 34.9057C21.7228 34.7293 21.7229 34.552 21.7229 34.3916L21.7229 34.3609C21.7229 34.2176 21.7228 34.0467 21.732 33.8727L20.7806 32.9927C20.3005 32.5547 20.1512 31.8317 20.5129 31.2343L21.3608 29.7363C21.6842 29.1421 22.4022 28.8763 23.0333 29.095L24.2628 29.4734C24.5457 29.2833 24.8461 29.1059 25.155 28.9613L25.4372 27.7146ZM27.2505 28.5156L26.8533 30.3691L26.1744 30.6407C25.8158 30.7949 25.5193 30.9696 25.2509 31.1892L25.2388 31.1991L24.6512 31.6509L22.8521 31.0688L22.3941 31.8518L23.791 33.1169L23.6993 33.8505C23.6769 34.0072 23.676 34.1696 23.676 34.375C23.676 34.6101 23.6769 34.7717 23.6992 34.928L23.7005 34.937L23.791 35.6616L22.3941 36.9267L22.8521 37.7097L24.6512 37.1276L25.2511 37.5891C25.5209 37.8098 25.8107 37.9788 26.1502 38.1L26.1731 38.1082L26.8563 38.427L27.2492 40.2344H28.1472L28.5401 38.427L29.2233 38.1082L29.2463 38.1C29.5857 37.9788 29.8757 37.81 30.1455 37.5892L30.1576 37.5793L30.7452 37.1276L32.5443 37.7097L33.0023 36.9267L31.6054 35.6616L31.6971 34.928C31.726 34.7258 31.7489 34.5609 31.7489 34.375C31.7489 34.2189 31.7266 34.0564 31.6972 33.8505L31.6959 33.8415L31.6054 33.1169L33.0023 31.8518L32.5443 31.0688L30.7452 31.6509L30.1453 31.1894C29.8769 30.9698 29.5806 30.7949 29.222 30.6407L28.5431 30.3691L28.1459 28.5156H27.2505ZM24.6851 34.375C24.6851 32.724 26.0253 31.3477 27.7124 31.3477C29.3673 31.3477 30.7398 32.7202 30.7398 34.375C30.7398 36.0622 29.3634 37.4023 27.7124 37.4023C26.0291 37.4023 24.6851 36.0583 24.6851 34.375ZM27.7124 33.3008C27.1231 33.3008 26.6382 33.8021 26.6382 34.375C26.6382 34.9703 27.1171 35.4492 27.7124 35.4492C28.2853 35.4492 28.7867 34.9643 28.7867 34.375C28.7867 33.8082 28.2793 33.3008 27.7124 33.3008Z" fill="white"/>
<path d="M10.8563 22.1354C5.99992 22.1354 2.0835 20.7647 2.0835 19.0023V5.21645C2.0835 3.49323 5.99992 2.08331 10.8563 2.08331C15.6735 2.08331 19.6291 3.49323 19.6291 5.21645V19.0023C19.6291 20.7647 15.6735 22.1354 10.8563 22.1354ZM18.3758 5.25562C18.3366 5.21645 18.2975 5.13812 18.1017 4.98147C17.8275 4.74648 17.3184 4.47233 16.6134 4.19818C15.2035 3.68905 13.167 3.33657 10.8563 3.33657C8.50643 3.33657 6.46989 3.68905 5.05998 4.19818C4.35502 4.47233 3.84589 4.74648 3.57174 4.98147C3.37592 5.13812 3.33675 5.21645 3.33675 5.25562V9.25037C3.88505 9.64201 4.78583 10.0337 5.99992 10.347C7.37067 10.6603 9.01556 10.8561 10.8563 10.8561C12.6578 10.8561 14.3027 10.6603 15.6735 10.347C16.8876 10.0337 17.7884 9.64201 18.3758 9.25037V5.25562ZM18.3758 10.6994C17.6709 11.0519 16.8484 11.3261 15.9476 11.5611C14.4986 11.9135 12.7362 12.1094 10.8563 12.1094C8.93724 12.1094 7.17485 11.9135 5.72577 11.5611C4.82499 11.3261 4.00254 11.0519 3.33675 10.6994V14.2634C3.88505 14.655 4.78583 15.0467 5.99992 15.36C7.37067 15.6733 9.01556 15.8691 10.8563 15.8691C12.6578 15.8691 14.3027 15.6733 15.6735 15.36C16.8876 15.0467 17.7884 14.655 18.3758 14.2634V10.6994ZM3.57174 19.2764C3.84589 19.5114 4.35502 19.7855 5.05998 20.0597C6.46989 20.5688 8.50643 20.8821 10.8563 20.8821C13.167 20.8821 15.2035 20.5688 16.6134 20.0597C17.3184 19.7855 17.8275 19.5114 18.1017 19.2764C18.2975 19.1198 18.3366 19.0414 18.3758 19.0023V15.7125C17.6709 16.0649 16.8484 16.3391 15.9476 16.5741C14.4986 16.9266 12.7362 17.1224 10.8563 17.1224C8.93724 17.1224 7.17485 16.9266 5.72577 16.5741C4.82499 16.3391 4.00254 16.0649 3.33675 15.7125V19.0023C3.33675 19.0414 3.37592 19.1198 3.57174 19.2764Z" fill="white"/>
<path fill-rule="evenodd" clip-rule="evenodd" d="M17.8302 5.29786C17.6113 5.11028 17.1573 4.85729 16.4668 4.5884C15.1118 4.09996 13.1269 3.75328 10.856 3.75328C8.54545 3.75328 6.56058 4.10009 5.20592 4.5884C4.5154 4.85729 4.06142 5.11028 3.84257 5.29786L3.83185 5.30706C3.79825 5.33394 3.77243 5.35594 3.75309 5.37378V9.02757C4.25779 9.34244 5.04239 9.66923 6.09809 9.94211C7.43495 10.2472 9.04656 10.4395 10.856 10.4395C12.6259 10.4395 14.2375 10.2473 15.5747 9.94211C16.6291 9.66954 17.4202 9.34143 17.9588 9.0205V5.41085C17.934 5.38576 17.897 5.35159 17.841 5.30687L17.8302 5.29786ZM18.3755 5.25566C18.3657 5.24586 18.3559 5.23363 18.3437 5.21833C18.307 5.17243 18.2482 5.099 18.1013 4.98151C17.8272 4.74652 17.3181 4.47237 16.6131 4.19822C15.2032 3.68909 13.1666 3.33661 10.856 3.33661C8.5061 3.33661 6.46956 3.68909 5.05965 4.19822C4.3547 4.47237 3.84556 4.74652 3.57141 4.98151C3.37559 5.13816 3.33643 5.21649 3.33643 5.25566V9.25041C3.88473 9.64205 4.7855 10.0337 5.99959 10.347C7.37034 10.6603 9.01524 10.8561 10.856 10.8561C12.6575 10.8561 14.3024 10.6603 15.6732 10.347C16.8872 10.0337 17.788 9.64205 18.3755 9.25041V5.25566ZM16.0458 11.966C14.5587 12.3277 12.7625 12.5261 10.856 12.5261C8.91064 12.5261 7.11436 12.3278 5.62696 11.966L5.62025 11.9643C4.95674 11.7912 4.32204 11.594 3.75309 11.3553V14.0406C4.25779 14.3555 5.0424 14.6823 6.09811 14.9551C7.43496 15.2602 9.04657 15.4525 10.856 15.4525C12.6259 15.4525 14.2374 15.2603 15.5746 14.9551C16.6291 14.6826 17.4202 14.3545 17.9588 14.0335V11.3454C17.3705 11.5875 16.7283 11.788 16.0525 11.9643L16.0458 11.966ZM17.9588 10.8932C18.1018 10.8313 18.2408 10.7668 18.3755 10.6995V14.2634C17.788 14.6551 16.8872 15.0467 15.6732 15.36C14.3024 15.6733 12.6575 15.8692 10.856 15.8692C9.01524 15.8692 7.37034 15.6733 5.99959 15.36C4.7855 15.0467 3.88473 14.6551 3.33643 14.2634V10.6995C3.46928 10.7698 3.60838 10.837 3.75309 10.9014C4.33358 11.1598 5.00442 11.373 5.72544 11.5611C7.17452 11.9136 8.93691 12.1094 10.856 12.1094C12.7358 12.1094 14.4982 11.9136 15.9473 11.5611C16.676 11.371 17.3534 11.1553 17.9588 10.8932ZM3.84257 18.9601C4.06143 19.1477 4.51543 19.4007 5.20599 19.6696C6.55619 20.1562 8.53922 20.4655 10.856 20.4655C13.1331 20.4655 15.1162 20.1563 16.4668 19.6696C17.1573 19.4007 17.6113 19.1477 17.8302 18.9601L17.8409 18.9509C17.8968 18.9062 17.934 18.8722 17.9588 18.8471V16.3585C17.3705 16.6006 16.7283 16.801 16.0525 16.9773L16.0458 16.979C14.5587 17.3408 12.7625 17.5391 10.856 17.5391C8.91064 17.5391 7.11436 17.3408 5.62696 16.979L5.62025 16.9773C4.95674 16.8043 4.32204 16.607 3.75309 16.3683V18.8842C3.77243 18.902 3.7981 18.9242 3.8317 18.9511L3.84257 18.9601ZM3.33643 19.0023C3.33643 19.0415 3.37559 19.1198 3.57141 19.2764C3.84556 19.5114 4.3547 19.7856 5.05965 20.0597C6.46956 20.5689 8.5061 20.8822 10.856 20.8822C13.1666 20.8822 15.2032 20.5689 16.6131 20.0597C17.3181 19.7856 17.8272 19.5114 18.1013 19.2764C18.2482 19.159 18.307 19.0855 18.3437 19.0396C18.3559 19.0243 18.3657 19.0121 18.3755 19.0023V15.7125C18.2408 15.7798 18.1018 15.8443 17.9588 15.9062C17.3534 16.1683 16.676 16.384 15.9473 16.5741C14.4982 16.9266 12.7358 17.1224 10.856 17.1224C8.93691 17.1224 7.17452 16.9266 5.72544 16.5741C5.00442 16.386 4.33358 16.1728 3.75309 15.9145C3.60838 15.8501 3.46928 15.7828 3.33643 15.7125V19.0023ZM2.50124 20.5529C2.00624 20.1324 1.6665 19.6105 1.6665 19.0023V5.21649C1.6665 4.61544 2.00907 4.09842 2.50201 3.68174C2.997 3.26333 3.68882 2.90471 4.50798 2.61143C6.14992 2.02358 8.3928 1.66669 10.856 1.66669C13.2999 1.66669 15.5425 2.02366 17.1889 2.61129C18.0102 2.90445 18.7054 3.26285 19.2033 3.68083C19.6987 4.09672 20.0454 4.6139 20.0454 5.21649V19.0023C20.0454 19.6121 19.7016 20.1341 19.2041 20.5538C18.7054 20.9745 18.0094 21.3319 17.1878 21.6226C15.541 22.2053 13.2985 22.5521 10.856 22.5521C8.39413 22.5521 6.15136 22.2053 4.50906 21.6224C3.68967 21.3316 2.99697 20.974 2.50124 20.5529ZM2.08317 19.0023C2.08317 20.7647 5.99959 22.1354 10.856 22.1354C15.6732 22.1354 19.6287 20.7647 19.6287 19.0023V5.21649C19.6287 3.49327 15.6732 2.08335 10.856 2.08335C5.99959 2.08335 2.08317 3.49327 2.08317 5.21649V19.0023Z" fill="white"/>
<path fill-rule="evenodd" clip-rule="evenodd" d="M28.9048 11.2098C27.2029 9.84226 24.8664 9.35102 22.9301 9.3759C22.3548 9.38329 21.8825 8.92296 21.8751 8.34771C21.8677 7.77246 22.328 7.30013 22.9033 7.29274C25.1336 7.26408 28.0054 7.81448 30.2098 9.58584C32.0976 11.1028 33.3837 13.4252 33.4459 16.7306L34.8385 15.8012C35.317 15.4819 35.9638 15.611 36.2831 16.0895C36.6025 16.568 36.4734 17.2148 35.9949 17.5341L32.8699 19.6196C32.5198 19.8532 32.0635 19.8532 31.7135 19.6196L28.5885 17.5341C28.1099 17.2148 27.9809 16.568 28.3002 16.0895C28.6196 15.611 29.2664 15.4819 29.7449 15.8012L31.3653 16.8826C31.3422 14.0652 30.2746 12.3105 28.9048 11.2098Z" fill="white"/>
</svg>
