<svg width="50" height="50" viewBox="0 0 50 50" fill="none" xmlns="http://www.w3.org/2000/svg">
<path d="M42.1877 40.4948C42.1877 41.214 41.6047 41.7969 40.8856 41.7969C40.1665 41.7969 39.5835 41.214 39.5835 40.4948C39.5835 39.7757 40.1665 39.1927 40.8856 39.1927C41.6047 39.1927 42.1877 39.7757 42.1877 40.4948Z" fill="white"/>
<path d="M38.8024 40.4948C38.8024 41.214 38.2194 41.7969 37.5003 41.7969C36.7812 41.7969 36.1982 41.214 36.1982 40.4948C36.1982 39.7757 36.7812 39.1927 37.5003 39.1927C38.2194 39.1927 38.8024 39.7757 38.8024 40.4948Z" fill="white"/>
<path d="M35.4167 40.4948C35.4167 41.214 34.8337 41.7969 34.1146 41.7969C33.3955 41.7969 32.8125 41.214 32.8125 40.4948C32.8125 39.7757 33.3955 39.1927 34.1146 39.1927C34.8337 39.1927 35.4167 39.7757 35.4167 40.4948Z" fill="white"/>
<path d="M19.7917 9.24477C19.7917 9.96389 19.2087 10.5469 18.4896 10.5469C17.7705 10.5469 17.1875 9.96389 17.1875 9.24477C17.1875 8.52565 17.7705 7.94269 18.4896 7.94269C19.2087 7.94269 19.7917 8.52565 19.7917 9.24477Z" fill="white"/>
<path d="M15.8854 9.24477C15.8854 9.96389 15.3025 10.5469 14.5833 10.5469C13.8642 10.5469 13.2812 9.96389 13.2812 9.24477C13.2812 8.52565 13.8642 7.94269 14.5833 7.94269C15.3025 7.94269 15.8854 8.52565 15.8854 9.24477Z" fill="white"/>
<path d="M11.9792 9.24477C11.9792 9.96389 11.3962 10.5469 10.6771 10.5469C9.95796 10.5469 9.375 9.96389 9.375 9.24477C9.375 8.52565 9.95796 7.94269 10.6771 7.94269C11.3962 7.94269 11.9792 8.52565 11.9792 9.24477Z" fill="white"/>
<path fill-rule="evenodd" clip-rule="evenodd" d="M5.625 13.1511C5.625 12.5183 6.13801 12.0052 6.77083 12.0052H43.2292C43.862 12.0052 44.375 12.5183 44.375 13.1511C44.375 13.7839 43.862 14.2969 43.2292 14.2969H6.77083C6.13801 14.2969 5.625 13.7839 5.625 13.1511Z" fill="white"/>
<path fill-rule="evenodd" clip-rule="evenodd" d="M26.3021 22.4219C26.9349 22.4219 27.4479 22.9349 27.4479 23.5677V41.7969C27.4479 42.4297 26.9349 42.9427 26.3021 42.9427C25.6693 42.9427 25.1562 42.4297 25.1562 41.7969V23.5677C25.1562 22.9349 25.6693 22.4219 26.3021 22.4219Z" fill="white"/>
<path d="M9.37484 6.3281H40.6248C42.2357 6.3281 43.5415 7.63394 43.5415 9.24477V27.4739C43.5415 29.0848 42.2357 30.3906 40.6248 30.3906H30.6768C30.044 30.3906 29.531 30.9036 29.531 31.5364C29.531 32.1693 30.044 32.6823 30.6768 32.6823H40.6248C43.5013 32.6823 45.8332 30.3504 45.8332 27.4739V9.24477C45.8332 6.36829 43.5013 4.03644 40.6248 4.03644H9.37484C6.49835 4.03644 4.1665 6.36829 4.1665 9.24477V27.4739C4.1665 30.3504 6.49835 32.6823 9.37484 32.6823H21.9268C22.5596 32.6823 23.0727 32.1693 23.0727 31.5364C23.0727 30.9036 22.5596 30.3906 21.9268 30.3906H9.37484C7.76401 30.3906 6.45817 29.0848 6.45817 27.4739V9.24477C6.45817 7.63394 7.76401 6.3281 9.37484 6.3281Z" fill="white"/>
<path d="M23.0727 35.1302C23.0727 34.4974 22.5596 33.9844 21.9268 33.9844H6.77067C5.33243 33.9844 4.1665 35.1503 4.1665 36.5885V44.401C4.1665 45.8393 5.33243 47.0052 6.77067 47.0052H43.229C44.6672 47.0052 45.8332 45.8393 45.8332 44.401V36.5885C45.8332 35.1503 44.6672 33.9844 43.229 33.9844H30.6768C30.044 33.9844 29.531 34.4974 29.531 35.1302C29.531 35.763 30.044 36.276 30.6768 36.276H43.229C43.4016 36.276 43.5415 36.416 43.5415 36.5885V44.401C43.5415 44.5736 43.4016 44.7135 43.229 44.7135H27.6895C27.6895 44.7135 26.7973 44.7135 26.3006 44.7135H24.9142H6.77067C6.59808 44.7135 6.45817 44.5736 6.45817 44.401V36.5885C6.45817 36.416 6.59808 36.276 6.77067 36.276H21.9268C22.5596 36.276 23.0727 35.763 23.0727 35.1302Z" fill="white"/>
<path fill-rule="evenodd" clip-rule="evenodd" d="M25.4919 21.4554C25.9393 21.0079 26.6648 21.0079 27.1123 21.4554L31.0186 25.3616C31.466 25.8091 31.466 26.5346 31.0186 26.9821C30.5711 27.4295 29.8456 27.4295 29.3981 26.9821L26.3021 23.886L23.2061 26.9821C22.7586 27.4295 22.0331 27.4295 21.5856 26.9821C21.1381 26.5346 21.1381 25.8091 21.5856 25.3616L25.4919 21.4554Z" fill="white"/>
<path fill-rule="evenodd" clip-rule="evenodd" d="M21.5856 37.6012C22.0331 37.1538 22.7586 37.1538 23.2061 37.6012L26.3021 40.6973L29.3981 37.6012C29.8456 37.1538 30.5711 37.1538 31.0186 37.6012C31.466 38.0487 31.466 38.7742 31.0186 39.2217L27.1123 43.1279C26.6648 43.5754 25.9393 43.5754 25.4919 43.1279L21.5856 39.2217C21.1381 38.7742 21.1381 38.0487 21.5856 37.6012Z" fill="white"/>
</svg>
