<svg width="50" height="50" fill="none" xmlns="http://www.w3.org/2000/svg"><path d="M27.5 27.5L24 22l-1 .5-9 14 13.5-9z" fill="#E75F63"/><path d="M24.984 1.986a1 1 0 00-.17.018c-12.54.1-22.705 10.262-22.81 22.8a1 1 0 000 .38c.099 12.54 10.262 22.707 22.8 22.812.126.024.255.024.38 0 12.54-.099 22.707-10.262 22.812-22.8a.998.998 0 000-.38C47.897 12.272 37.728 2.103 25.184 2.004a1 1 0 00-.2-.018zM24 4.026V5a1 1 0 102 0v-.975C36.813 4.531 45.47 13.187 45.975 24H45a1 1 0 100 2h.975C45.469 36.813 36.813 45.47 26 45.975V45a.999.999 0 00-1.717-.71A1 1 0 0024 45v.975C13.187 45.469 4.53 36.813 4.025 26H5a1 1 0 100-2h-.975C4.531 13.187 13.187 4.53 24 4.025zM36.965 12a1 1 0 00-.526.172l-14.322 9.676a.999.999 0 00-.27.27L12.173 36.44a1 1 0 001.389 1.388l14.324-9.676a1 1 0 00.27-.27l9.673-14.321A1.001 1.001 0 0036.965 12zM23.396 23.396l3.208 3.207-9.885 6.678 6.677-9.884z" fill="#000"/></svg>