<svg width="50" height="50" fill="none" xmlns="http://www.w3.org/2000/svg"><path fill-rule="evenodd" clip-rule="evenodd" d="M9.85 2.85v44.3h30.3V15.66L27.278 2.85H9.85zm-1.7-.75a.95.95 0 01.95-.95h18.488c.251 0 .492.1.67.277L41.57 14.674c.18.178.28.42.28.673V47.9a.95.95 0 01-.95.95H9.1a.95.95 0 01-.95-.95V2.1z" fill="#000"/><path fill-rule="evenodd" clip-rule="evenodd" d="M27.85 14.15V2h-1.7v12.9c0 .525.425.95.95.95H41v-1.7H27.85z" fill="#000"/><path d="M17 38a1 1 0 011-1h14a1 1 0 011 1v2a1 1 0 01-1 1H18a1 1 0 01-1-1v-2z" fill="#8EB0FC"/><path fill-rule="evenodd" clip-rule="evenodd" d="M16.15 38A1.85 1.85 0 0118 36.15h14A1.85 1.85 0 0133.85 38v2A1.85 1.85 0 0132 41.85H18A1.85 1.85 0 0116.15 40v-2zm1.85-.15a.15.15 0 00-.15.15v2c0 .083.067.15.15.15h14a.15.15 0 00.15-.15v-2a.15.15 0 00-.15-.15H18z" fill="#000"/><path d="M23.322 34.963h3.355a.1.1 0 00.1-.1v-8.502a.1.1 0 01.166-.075l3.764 3.32a.1.1 0 00.137-.003l2.082-2.067a.1.1 0 00-.002-.144l-7.856-7.365a.1.1 0 00-.137 0l-7.856 7.365a.1.1 0 00-.002.144l2.082 2.067a.1.1 0 00.137.004l3.764-3.321a.1.1 0 01.166.075v8.502a.1.1 0 00.1.1z" fill="#8EB0FC"/><path fill-rule="evenodd" clip-rule="evenodd" d="M27.628 34.863a.95.95 0 01-.95.95h-3.356a.95.95 0 01-.95-.95v-6.84l-2.517 2.221-.563-.637.563.637a.95.95 0 01-1.298-.038l.599-.603-.6.603-2.082-2.067a.95.95 0 01.02-1.367l7.856-7.365a.95.95 0 011.3 0l-.582.62.581-.62 7.856 7.365a.95.95 0 01.02 1.367l-2.082 2.067a.95.95 0 01-1.298.038l.554-.627-.554.627-2.517-2.221v6.84zm-1.7-.75V26.36a.95.95 0 011.578-.712l3.237 2.856 1.033-1.025L25 21.128l-6.776 6.352 1.032 1.025 3.237-2.856.563.637-.563-.637a.95.95 0 011.579.712v7.752h1.855zm-8.255-7.18l-.53.532.53-.532zm14.654 0l.529.532-.529-.532z" fill="#000"/></svg>