<svg width="50" height="50" fill="none" xmlns="http://www.w3.org/2000/svg"><circle cx="25" cy="25" r="22" fill="#CFD1DA"/><path d="M25 2C12.31 2 2 12.31 2 25s10.31 23 23 23 23-10.31 23-23S37.69 2 25 2zm0 2c11.61 0 21 9.39 21 21s-9.39 21-21 21S4 36.61 4 25 13.39 4 25 4zm-8.193 11.998c-5.037 0-5.488 4.525-5.514 5.625h2.129c.032-.758.388-3.709 3.385-3.709 2.807 0 3.193 1.914 3.193 2.871 0 .48-.29 2.873-3.389 2.873h-.87v1.819c.386-.096.773-.096 1.257-.096.483 0 3.775.096 3.775 3.351 0 3.16-3.388 3.448-3.87 3.448-1.717 0-3.704-1.032-3.764-3.807H11c.019 1.382.444 5.627 5.902 5.627C17.967 34 23 33.714 23 28.639c0-3.16-2.13-4.119-3.193-4.31v-.097c.678-.382 2.42-1.531 2.42-3.543 0-.765-.193-4.691-5.42-4.691zM26 16v18h5.506C36.858 34 40 30.67 40 24.994 40 19.331 36.845 16 31.506 16H26zm2 2h3.506C36.874 18 38 21.803 38 24.994 38 28.19 36.874 32 31.506 32H28V18z" fill="#000"/></svg>