<svg width="50" height="50" fill="none" xmlns="http://www.w3.org/2000/svg"><path fill-rule="evenodd" clip-rule="evenodd" d="M47.914 27.006l-1.993-.172a21.293 21.293 0 000-3.668l1.993-.172a23.312 23.312 0 010 4.012zm-.26-6.002l-1.97.345a20.841 20.841 0 00-.944-3.533l1.879-.685a22.831 22.831 0 011.035 3.873zm-1.804-5.727l-1.812.847a20.973 20.973 0 00-1.833-3.169l1.637-1.148a22.975 22.975 0 012.008 3.47zm-3.23-5.061l-1.532 1.286a21.15 21.15 0 00-2.59-2.59l1.286-1.532a23.145 23.145 0 012.836 2.836zm-4.427-4.058l-1.148 1.637a20.975 20.975 0 00-3.169-1.833l.847-1.812c1.218.57 2.38 1.242 3.47 2.008zM32.87 3.38l-.685 1.88a20.83 20.83 0 00-3.533-.945l.345-1.97A22.83 22.83 0 0132.87 3.38zm-5.863-1.295l-.172 1.993a21.297 21.297 0 00-3.668 0l-.172-1.993a23.305 23.305 0 014.012 0zm-6.002.26l.345 1.97a20.832 20.832 0 00-3.533.945l-.685-1.88a22.83 22.83 0 013.873-1.035zM15.277 4.15l.847 1.812a20.975 20.975 0 00-3.169 1.833l-1.148-1.637a22.975 22.975 0 013.47-2.008zm-5.061 3.23l1.286 1.532a21.147 21.147 0 00-2.59 2.59L7.38 10.216a23.14 23.14 0 012.836-2.836zm-4.058 4.427l1.637 1.148a20.975 20.975 0 00-1.833 3.169l-1.812-.847a22.975 22.975 0 012.008-3.47zM3.38 17.13l1.88.685a20.83 20.83 0 00-.945 3.533l-1.97-.345A22.833 22.833 0 013.38 17.13zm-1.295 5.863a23.305 23.305 0 000 4.012l1.993-.172a21.297 21.297 0 010-3.668l-1.993-.172zm.26 6.002l1.97-.345c.213 1.217.531 2.398.945 3.534l-1.88.684a22.83 22.83 0 01-1.035-3.873zm1.804 5.727l1.812-.847a20.975 20.975 0 001.833 3.169l-1.637 1.148a22.975 22.975 0 01-2.008-3.47zm3.23 5.061l1.532-1.286a21.142 21.142 0 002.59 2.59l-1.286 1.532a23.146 23.146 0 01-2.836-2.836zm4.427 4.058l1.148-1.637a21.011 21.011 0 003.169 1.833l-.847 1.812a22.975 22.975 0 01-3.47-2.008zm5.324 2.777l.685-1.88c1.135.414 2.316.732 3.533.945l-.345 1.97a22.831 22.831 0 01-3.873-1.035zm5.863 1.295l.172-1.993a21.293 21.293 0 003.668 0l.172 1.993a23.312 23.312 0 01-4.012 0zm6.002-.26l-.345-1.97a20.845 20.845 0 003.534-.944l.684 1.879a22.831 22.831 0 01-3.873 1.035zm5.727-1.804l-.847-1.812a20.973 20.973 0 003.169-1.833l1.148 1.637a22.975 22.975 0 01-3.47 2.008zm5.061-3.23l-1.286-1.532a21.144 21.144 0 002.59-2.59l1.532 1.286a23.15 23.15 0 01-2.836 2.836zm4.058-4.427l-1.637-1.148a21.011 21.011 0 001.833-3.169l1.812.847a22.975 22.975 0 01-2.008 3.47zm2.777-5.324l-1.88-.685c.414-1.135.732-2.316.945-3.533l1.97.345a22.831 22.831 0 01-1.035 3.873z" fill="#000"/><path fill-rule="evenodd" clip-rule="evenodd" d="M25 4C13.402 4 4 13.402 4 25H2C2 12.297 12.297 2 25 2s23 10.297 23 23h-2c0-11.598-9.402-21-21-21z" fill="#000"/><rect x="26" y="22" width="16" height="6" rx="3" fill="#EBB803"/><path fill-rule="evenodd" clip-rule="evenodd" d="M25 25a4 4 0 014-4h10a4 4 0 010 8H29a4 4 0 01-4-4zm4-2a2 2 0 100 4h10a2 2 0 100-4H29z" fill="#000"/></svg>