<svg width="50" height="50" fill="none" xmlns="http://www.w3.org/2000/svg"><circle cx="25" cy="25" r="2" fill="#8EB0FC"/><path d="M25 2C12.309 2 2 12.309 2 25s10.309 23 23 23 23-10.309 23-23S37.691 2 25 2zm0 2c11.61 0 21 9.39 21 21s-9.39 21-21 21S4 36.61 4 25 13.39 4 25 4zm0 4c-.55 0-1 .45-1 1s.45 1 1 1 1-.45 1-1-.45-1-1-1zm-6.125 1.219a.903.903 0 00-.375.062 1.016 1.016 0 00-.563 1.313c.211.511.801.773 1.313.562.512-.21.773-.8.563-1.312a1.038 1.038 0 00-.938-.625zm12.25 0a1.04 1.04 0 00-.938.625c-.21.511.051 1.101.563 1.312.512.211 1.07-.05 1.281-.562A1 1 0 0031.5 9.28a.903.903 0 00-.375-.062zm-17.438 3.469c-.257 0-.523.085-.718.28a1.03 1.03 0 000 1.438c.39.39 1.047.39 1.437 0 .39-.39.39-1.047 0-1.437a1.008 1.008 0 00-.719-.281zm22.626 0c-.258 0-.524.085-.72.28a1.03 1.03 0 000 1.438 1.03 1.03 0 001.438 0c.39-.39.39-1.047 0-1.437a1.008 1.008 0 00-.718-.281zM34 16l-4.938 1.031 1.25 1.219-4.062 4.063c-.387-.18-.8-.313-1.25-.313-1.645 0-3 1.355-3 3 0 .46.125.89.313 1.281l-3 3A3.067 3.067 0 0018.155 29a2.966 2.966 0 00-.718.063h-.094a1.013 1.013 0 00.468 1.968 1.09 1.09 0 01.594.032c.094.25.285.453.532.562a1.1 1.1 0 01.03.563 1.002 1.002 0 001.97.374 3.011 3.011 0 00-.25-1.843l3.03-3.032a2.95 2.95 0 001.282.313c1.645 0 3-1.355 3-3 0-.45-.133-.863-.313-1.25l4.063-4.063 1.219 1.25L34 16zm-23.781 1.875c-.39.004-.778.242-.938.625-.21.512.051 1.102.563 1.313.511.21 1.101-.051 1.312-.563.211-.512-.05-1.102-.562-1.313a.903.903 0 00-.375-.062zm29.562 0a.903.903 0 00-.375.063c-.511.21-.773.8-.562 1.312.21.512.8.773 1.312.563.512-.211.774-.801.563-1.313a1.038 1.038 0 00-.938-.625zM9 24c-.55 0-1 .45-1 1s.45 1 1 1 1-.45 1-1-.45-1-1-1zm16 0a1.01 1.01 0 01.75.313c.16.175.25.421.25.687 0 .563-.438 1-1 1-.563 0-1-.438-1-1 0-.563.438-1 1-1zm16 0c-.55 0-1 .45-1 1s.45 1 1 1 1-.45 1-1-.45-1-1-1zm-30.781 6.125a.903.903 0 00-.375.063c-.512.21-.774.8-.563 1.312a1 1 0 001.313.531c.511-.21.773-.77.562-1.281a1.038 1.038 0 00-.937-.625zm29.562 0c-.39.004-.777.242-.937.625-.211.512.05 1.07.562 1.281a1 1 0 001.313-.531 1.016 1.016 0 00-.563-1.313.902.902 0 00-.375-.062zm-26.093 5.188c-.258 0-.524.085-.72.28a1.03 1.03 0 000 1.438 1.03 1.03 0 001.438 0c.39-.39.39-1.047 0-1.437a1.008 1.008 0 00-.719-.282zm22.624 0c-.257 0-.523.085-.718.28a1.03 1.03 0 000 1.438c.39.39 1.047.39 1.437 0 .39-.39.39-1.047 0-1.437a1.008 1.008 0 00-.718-.282zM18.875 38.78a.995.995 0 00-.906.625 1 1 0 00.531 1.313 1.016 1.016 0 001.313-.563c.21-.511-.051-1.101-.563-1.312a.903.903 0 00-.375-.063zm12.25 0a.903.903 0 00-.375.063c-.512.21-.773.8-.563 1.312.211.512.801.774 1.313.563.512-.211.773-.801.563-1.313a1.038 1.038 0 00-.938-.625z" fill="#000"/></svg>