<svg width="50" height="50" fill="none" xmlns="http://www.w3.org/2000/svg"><path d="M35 5H15v4h-4V5H3v8h44V5h-8v4h-4V5z" fill="#5FBAA8"/><path d="M12 0c-1.094 0-2 .906-2 2v2H4c-.523 0-1.055.191-1.43.57C2.191 4.945 2 5.477 2 6v40c0 .523.191 1.055.57 1.434.375.375.907.566 1.43.566h42c.523 0 1.055-.191 1.434-.566.375-.38.566-.91.566-1.434V6c0-.523-.191-1.055-.566-1.43-.38-.379-.91-.57-1.434-.57h-6V2c0-1.094-.906-2-2-2h-2c-1.094 0-2 .906-2 2v2H16V2c0-1.094-.906-2-2-2h-2zm0 2h2v6h-2V2zm24 0h2v6h-2V2zM4 6h6v2c0 1.094.906 2 2 2h2c1.094 0 2-.906 2-2V6h18v2c0 1.094.906 2 2 2h2c1.094 0 2-.906 2-2V6h6v7H4V6zm0 9h42v31H4V15z" fill="#000"/><path d="M19.256 24.7v1.205h-4.548c.05-.456.197-.887.443-1.293.247-.41.733-.951 1.46-1.625.584-.545.943-.915 1.075-1.108.179-.268.268-.533.268-.795 0-.289-.079-.51-.236-.665-.154-.157-.367-.235-.641-.235-.271 0-.487.081-.647.245-.16.163-.252.434-.277.812l-1.293-.129c.077-.714.319-1.227.725-1.537.407-.311.915-.467 1.524-.467.668 0 1.193.18 1.574.54.382.36.573.808.573 1.344 0 .305-.055.596-.166.873-.108.274-.28.561-.517.863-.157.2-.44.488-.85.863-.41.376-.67.625-.78.748a2.305 2.305 0 00-.263.36h2.576zm3.075-5.592c.656 0 1.168.234 1.538.702.44.554.66 1.473.66 2.757 0 1.28-.222 2.2-.665 2.76-.366.462-.877.693-1.533.693-.659 0-1.19-.252-1.593-.757-.403-.508-.605-1.411-.605-2.71 0-1.275.222-2.192.665-2.752.367-.462.877-.693 1.533-.693zm0 1.076a.643.643 0 00-.42.152c-.123.099-.219.277-.286.536-.09.335-.134.9-.134 1.695 0 .794.04 1.34.12 1.639.08.295.18.492.3.59a.655.655 0 00.42.148.656.656 0 00.42-.147c.123-.102.219-.282.287-.54.089-.333.133-.896.133-1.69 0-.795-.04-1.34-.12-1.635-.08-.299-.181-.497-.304-.596a.625.625 0 00-.416-.152zm7.452 4.516v1.205h-4.548c.05-.456.197-.887.444-1.293.246-.41.732-.951 1.459-1.625.584-.545.943-.915 1.075-1.108.179-.268.268-.533.268-.795 0-.289-.078-.51-.235-.665-.154-.157-.368-.235-.642-.235-.27 0-.486.081-.646.245-.16.163-.253.434-.277.812l-1.293-.129c.077-.714.318-1.227.725-1.537.406-.311.914-.467 1.523-.467.668 0 1.193.18 1.575.54.382.36.572.808.572 1.344 0 .305-.055.596-.166.873-.108.274-.28.561-.517.863-.157.2-.44.488-.85.863-.409.376-.67.625-.78.748a2.312 2.312 0 00-.263.36h2.576zm5.264 0v1.205h-4.548c.05-.456.197-.887.443-1.293.247-.41.733-.951 1.46-1.625.584-.545.943-.915 1.075-1.108.179-.268.268-.533.268-.795 0-.289-.078-.51-.235-.665-.154-.157-.368-.235-.642-.235-.271 0-.487.081-.647.245-.16.163-.252.434-.277.812l-1.293-.129c.077-.714.319-1.227.725-1.537.407-.311.915-.467 1.524-.467.668 0 1.193.18 1.575.54.381.36.572.808.572 1.344 0 .305-.055.596-.166.873-.108.274-.28.561-.517.863-.157.2-.44.488-.85.863-.41.376-.67.625-.78.748a2.305 2.305 0 00-.263.36h2.576zM22.64 32.1v-1.298h2.55v1.297h-2.55zm-3.384 8.6v1.205h-4.548c.05-.456.197-.887.443-1.293.247-.41.733-.951 1.46-1.625.584-.545.943-.915 1.075-1.108.179-.268.268-.533.268-.795 0-.289-.079-.51-.236-.665-.154-.156-.367-.235-.641-.235-.271 0-.487.082-.647.245-.16.163-.252.434-.277.812l-1.293-.129c.077-.714.319-1.227.725-1.538.407-.31.915-.466 1.524-.466.668 0 1.193.18 1.574.54.382.36.573.808.573 1.344 0 .305-.055.596-.166.873-.108.274-.28.561-.517.863-.157.2-.44.488-.85.864-.41.375-.67.624-.78.748a2.305 2.305 0 00-.263.36h2.576zm3.075-5.592c.656 0 1.168.234 1.538.702.44.554.66 1.473.66 2.756 0 1.281-.222 2.201-.665 2.762-.366.461-.877.692-1.533.692-.659 0-1.19-.252-1.593-.757-.403-.508-.605-1.411-.605-2.71 0-1.275.222-2.192.665-2.752.367-.462.877-.693 1.533-.693zm0 1.076a.643.643 0 00-.42.152c-.123.099-.219.277-.286.536-.09.336-.134.9-.134 1.694 0 .795.04 1.341.12 1.64.08.295.18.492.3.59a.655.655 0 00.42.148.656.656 0 00.42-.147c.123-.102.219-.282.287-.54.089-.333.133-.896.133-1.69 0-.795-.04-1.34-.12-1.635-.08-.299-.181-.497-.304-.596a.625.625 0 00-.416-.152zm7.452 4.516v1.205h-4.548c.05-.456.197-.887.444-1.293.246-.41.732-.951 1.459-1.625.584-.545.943-.915 1.075-1.108.179-.268.268-.533.268-.795 0-.289-.078-.51-.235-.665-.154-.156-.368-.235-.642-.235-.27 0-.486.082-.646.245-.16.163-.253.434-.277.812l-1.293-.129c.077-.714.318-1.227.725-1.538.406-.31.914-.466 1.523-.466.668 0 1.193.18 1.575.54.382.36.572.808.572 1.344 0 .305-.055.596-.166.873-.108.274-.28.561-.517.863-.157.2-.44.488-.85.864-.409.375-.67.624-.78.748a2.312 2.312 0 00-.263.36h2.576zm.837-.591l1.255-.153c.04.32.148.565.323.734.176.17.388.254.637.254a.868.868 0 00.675-.304c.184-.203.276-.477.276-.822 0-.326-.087-.585-.263-.776a.839.839 0 00-.642-.286c-.166 0-.364.032-.595.097l.143-1.058c.35.01.619-.066.803-.226a.82.82 0 00.278-.646c0-.228-.068-.41-.204-.545a.73.73 0 00-.54-.203.782.782 0 00-.568.23c-.157.154-.252.38-.286.675l-1.196-.203c.083-.41.208-.736.374-.98a1.7 1.7 0 01.702-.576 2.352 2.352 0 011.011-.213c.637 0 1.148.203 1.533.61.317.332.476.708.476 1.126 0 .594-.325 1.068-.975 1.422.388.084.697.27.928.559.234.29.351.639.351 1.048 0 .594-.217 1.1-.65 1.52-.435.418-.975.627-1.621.627-.613 0-1.12-.175-1.524-.526-.403-.354-.637-.816-.702-1.385z" fill="#000"/></svg>