<svg width="50" height="50" viewBox="0 0 50 50" fill="none" xmlns="http://www.w3.org/2000/svg">
<path d="M23.8892 20.6462L18.4204 13.8102C18.0786 13.4684 17.9932 12.8703 18.2495 12.4431C18.5059 11.9304 18.9331 11.5886 19.5312 11.5886H30.4688C30.9814 11.5886 31.4087 11.9304 31.665 12.4431C31.9214 12.8703 31.8359 13.4684 31.4941 13.8102L26.0254 20.6462C25.769 20.988 25.3418 21.1589 25 21.1589C24.5728 21.1589 24.1455 20.988 23.8892 20.6462ZM25 17.6555L27.5635 14.3229H22.3511L25 17.6555ZM29.1016 33.4636C29.6143 33.4636 30.0415 33.8054 30.2979 34.2326L33.0322 39.7014C33.2031 40.1286 33.2031 40.6413 32.9468 41.0685C32.6904 41.4958 32.2632 41.6667 31.8359 41.6667H18.0786C17.6514 41.6667 17.2241 41.4958 16.9678 41.0685C16.7114 40.6413 16.7114 40.1286 16.8823 39.7014L19.6167 34.2326C19.873 33.8054 20.3003 33.4636 20.813 33.4636H29.1016ZM29.6143 38.9323L28.2471 36.1979H21.6675L20.3003 38.9323H29.6143ZM9.96094 47.1354C9.19189 47.1354 8.59375 46.5373 8.59375 45.7682C8.59375 45.0847 9.19189 44.4011 9.96094 44.4011H11.3281V40.6413C11.3281 37.9069 12.1826 35.258 13.8062 33.1218L19.7876 25.2604L13.8062 17.4846C12.1826 15.2629 11.3281 12.6994 11.3281 9.96503V6.11981H9.96094C9.19189 6.11981 8.59375 5.52167 8.59375 4.75262C8.59375 4.06903 9.19189 3.38544 9.96094 3.38544H40.0391C40.7227 3.38544 41.4062 4.06903 41.4062 4.75262C41.4062 5.52167 40.7227 6.11981 40.0391 6.11981H38.6719V9.96503C38.6719 12.6994 37.7319 15.2629 36.1084 17.4846L30.127 25.2604L36.1084 33.1218C37.7319 35.258 38.6719 37.9069 38.6719 40.6413V44.4011H40.0391C40.7227 44.4011 41.4062 45.0847 41.4062 45.7682C41.4062 46.5373 40.7227 47.1354 40.0391 47.1354H9.96094ZM35.9375 40.6413C35.9375 38.5051 35.1685 36.4543 33.8867 34.8307L27.3071 26.1149C26.8799 25.6022 26.8799 24.9186 27.3071 24.4914L33.8867 15.7756C35.1685 14.152 35.9375 12.1013 35.9375 9.96503V6.11981H14.0625V9.96503C14.0625 12.1013 14.7461 14.152 16.0278 15.7756L22.6074 24.4914C23.0347 24.9186 23.0347 25.6022 22.6074 26.1149L16.0278 34.8307C14.7461 36.4543 14.0625 38.5051 14.0625 40.6413V44.4011H35.9375V40.6413Z" fill="black"/>
</svg>
