<svg width="50" height="50" viewBox="0 0 50 50" fill="none" xmlns="http://www.w3.org/2000/svg">
<path fill-rule="evenodd" clip-rule="evenodd" d="M41.6668 6.25002H8.33342C7.18282 6.25002 6.25008 7.18276 6.25008 8.33335V41.6667C6.25008 42.8173 7.18282 43.75 8.33342 43.75H41.6668C42.8173 43.75 43.7501 42.8173 43.7501 41.6667V8.33335C43.7501 7.18276 42.8173 6.25002 41.6668 6.25002ZM8.33342 4.16669C6.03223 4.16669 4.16675 6.03217 4.16675 8.33335V41.6667C4.16675 43.9679 6.03223 45.8334 8.33342 45.8334H41.6668C43.9679 45.8334 45.8334 43.9679 45.8334 41.6667V8.33335C45.8334 6.03217 43.9679 4.16669 41.6668 4.16669H8.33342Z" fill="black"/>
<path d="M17.4478 21.3745V29.187C17.4478 29.5329 17.1427 29.8381 16.7968 29.8381C16.4306 29.8381 16.1458 29.5329 16.1458 29.187V23.5107L13.4195 27.5798C13.1754 27.946 12.5854 27.946 12.3412 27.5798L9.63534 23.5107V29.1667C9.63534 29.5329 9.33016 29.8177 8.98429 29.8177C8.61808 29.8177 8.33325 29.5329 8.33325 29.1667V21.3542C8.33325 21.0693 8.51636 20.8252 8.78084 20.7438C9.06567 20.6624 9.3505 20.7642 9.51326 21.0083L12.8905 26.0539L16.2475 21.0083C16.4102 20.7642 16.6951 20.6624 16.9799 20.7438C17.2444 20.8252 17.4478 21.0693 17.4478 21.3745Z" fill="black"/>
<path d="M26.2766 28.2511C26.9683 27.4577 27.3955 26.4201 27.3955 25.2604C27.3955 22.758 25.3407 20.7031 22.8383 20.7031C20.3562 20.7031 18.281 22.758 18.281 25.2604C18.281 27.7832 20.3155 29.8177 22.8179 29.8177C23.7131 29.8177 24.5472 29.5532 25.2593 29.1056L26.2155 30.245C26.3376 30.4077 26.5207 30.4891 26.7242 30.4891C27.1514 30.4891 27.3752 30.1025 27.3752 29.8381C27.3752 29.6753 27.3142 29.5329 27.2124 29.4108L26.2766 28.2511ZM22.8383 28.5156C21.0275 28.5156 19.583 27.0711 19.583 25.2604C19.583 23.4701 21.0275 22.0256 22.8383 22.0256C24.6286 22.0256 26.0935 23.4904 26.0935 25.2604C26.0935 26.0132 25.829 26.6846 25.4221 27.2339L23.9776 25.5046C23.8555 25.3418 23.6724 25.2604 23.469 25.2604C23.0417 25.2604 22.8383 25.647 22.8383 25.9115C22.8383 26.0742 22.8789 26.2166 22.9807 26.3387L24.4252 28.0884C23.9572 28.3529 23.4079 28.5156 22.8383 28.5156Z" fill="black"/>
<path d="M34.7916 21.3745C34.7916 21.7204 34.4864 22.0256 34.1405 22.0256H31.5364V29.187C31.5364 29.5329 31.2312 29.8177 30.8853 29.8177C30.5191 29.8177 30.2343 29.5329 30.2343 29.187V22.0256H27.6301C27.2639 22.0256 26.9791 21.7204 26.9791 21.3745C26.9791 21.0083 27.2639 20.7235 27.6301 20.7235H34.1405C34.4864 20.7235 34.7916 21.0083 34.7916 21.3745Z" fill="black"/>
<path d="M42.8124 21.3745C42.8124 21.7204 42.5072 22.0256 42.1614 22.0256H39.5572V29.187C39.5572 29.5329 39.252 29.8177 38.9062 29.8177C38.54 29.8177 38.2551 29.5329 38.2551 29.187V22.0256H35.651C35.2847 22.0256 34.9999 21.7204 34.9999 21.3745C34.9999 21.0083 35.2847 20.7235 35.651 20.7235H42.1614C42.5072 20.7235 42.8124 21.0083 42.8124 21.3745Z" fill="black"/>
</svg>
