<svg width="50" height="50" viewBox="0 0 50 50" fill="none" xmlns="http://www.w3.org/2000/svg">
<path fill-rule="evenodd" clip-rule="evenodd" d="M18.1859 8.70546C18.4939 8.70546 18.7436 8.45578 18.7436 8.14779C18.7436 7.8398 18.4939 7.59013 18.1859 7.59013C17.8779 7.59013 17.6283 7.8398 17.6283 8.14779C17.6283 8.45578 17.8779 8.70546 18.1859 8.70546ZM18.1859 9.82079C19.1099 9.82079 19.8589 9.07177 19.8589 8.14779C19.8589 7.22382 19.1099 6.47479 18.1859 6.47479C17.262 6.47479 16.5129 7.22382 16.5129 8.14779C16.5129 9.07177 17.262 9.82079 18.1859 9.82079Z" fill="black"/>
<path fill-rule="evenodd" clip-rule="evenodd" d="M12.5395 8.35707C12.5395 4.89217 15.3484 2.08331 18.8133 2.08331H28.3982C31.8631 2.08331 34.6719 4.89217 34.6719 8.35707V17.942C34.6719 21.4069 31.8631 24.2157 28.3982 24.2157H17.9419C15.632 24.2157 13.7594 26.0883 13.7594 28.3982V33.6264C13.7594 34.2038 13.2913 34.672 12.7138 34.672H8.35701C4.89211 34.672 2.08325 31.8631 2.08325 28.3982V20.556C2.08325 17.0911 4.89211 14.2823 8.35701 14.2823H22.1244V12.8881H13.5851C13.0077 12.8881 12.5395 12.42 12.5395 11.8425V8.35707ZM18.8133 4.17456C16.5033 4.17456 14.6308 6.04713 14.6308 8.35707V10.7969H23.17C23.7475 10.7969 24.2157 11.265 24.2157 11.8425V15.3279C24.2157 15.9054 23.7475 16.3735 23.17 16.3735H8.35701C6.04707 16.3735 4.1745 18.2461 4.1745 20.556V28.3982C4.1745 30.7082 6.04707 32.5807 8.35701 32.5807H11.6682V28.3982C11.6682 24.9333 14.477 22.1245 17.9419 22.1245H28.3982C30.7081 22.1245 32.5807 20.2519 32.5807 17.942V8.35707C32.5807 6.04713 30.7081 4.17456 28.3982 4.17456H18.8133Z" fill="black"/>
<path fill-rule="evenodd" clip-rule="evenodd" d="M31.8141 41.2944C31.5061 41.2944 31.2564 41.5441 31.2564 41.8521C31.2564 42.1601 31.5061 42.4098 31.8141 42.4098C32.1221 42.4098 32.3717 42.1601 32.3717 41.8521C32.3717 41.5441 32.1221 41.2944 31.8141 41.2944ZM31.8141 40.1791C30.8901 40.1791 30.1411 40.9281 30.1411 41.8521C30.1411 42.7761 30.8901 43.5251 31.8141 43.5251C32.738 43.5251 33.4871 42.7761 33.4871 41.8521C33.4871 40.9281 32.738 40.1791 31.8141 40.1791Z" fill="black"/>
<path fill-rule="evenodd" clip-rule="evenodd" d="M37.4602 41.6427C37.4602 45.1076 34.6514 47.9165 31.1865 47.9165L21.6016 47.9165C18.1367 47.9165 15.3278 45.1076 15.3278 41.6427L15.3278 32.0578C15.3278 28.5929 18.1367 25.7841 21.6016 25.7841L32.0579 25.7841C34.3678 25.7841 36.2404 23.9115 36.2404 21.6016L36.2404 16.3735C36.2404 15.796 36.7085 15.3278 37.286 15.3278L41.6428 15.3278C45.1077 15.3278 47.9165 18.1367 47.9165 21.6016L47.9165 29.4438C47.9165 32.9087 45.1077 35.7175 41.6428 35.7175L27.8753 35.7175L27.8753 37.1117L36.4146 37.1117C36.9921 37.1117 37.4602 37.5798 37.4602 38.1573L37.4602 41.6427ZM31.1865 45.8253C33.4964 45.8253 35.369 43.9527 35.369 41.6427L35.369 39.203L26.8297 39.203C26.2522 39.203 25.7841 38.7348 25.7841 38.1573L25.7841 34.6719C25.7841 34.0944 26.2522 33.6263 26.8297 33.6263L41.6428 33.6263C43.9527 33.6263 45.8253 31.7537 45.8253 29.4438L45.8253 21.6016C45.8253 19.2917 43.9527 17.4191 41.6428 17.4191L38.3316 17.4191L38.3316 21.6016C38.3316 25.0665 35.5227 27.8753 32.0579 27.8753L21.6016 27.8753C19.2917 27.8753 17.4191 29.7479 17.4191 32.0578L17.4191 41.6427C17.4191 43.9527 19.2917 45.8253 21.6016 45.8253L31.1865 45.8253Z" fill="black"/>
</svg>
