<svg width="50" height="50" fill="none" xmlns="http://www.w3.org/2000/svg"><path fill-rule="evenodd" clip-rule="evenodd" d="M49 27H1v19h48V27zM10 41l-3-3.5V35l3-2.5 3.5 2.5-.5 2.5-3 3.5z" fill="#CFD1DA"/><path d="M2 2C.907 2 0 2.907 0 4v18c0 1.093.907 2 2 2h46c1.093 0 2-.907 2-2V4c0-1.093-.907-2-2-2H2zm0 2h46v18H2V4zm6 10a2 2 0 100 4 2 2 0 000-4zm8 0a2 2 0 100 4 2 2 0 000-4zm8 0a2 2 0 100 4 2 2 0 000-4zM2 26c-1.093 0-2 .907-2 2v18c0 1.093.907 2 2 2h46c1.093 0 2-.907 2-2V28c0-1.093-.907-2-2-2H2zm0 2h46v18H2V28z" fill="#000"/><rect x="19" y="36" width="22" height="2" rx="1" fill="#000"/><path d="M10.091 37.321c.72 0 1.302-.575 1.302-1.284 0-.71-.583-1.285-1.302-1.285-.719 0-1.301.575-1.301 1.285 0 .709.582 1.284 1.301 1.284z" fill="#000"/><path d="M10.09 32C7.768 32 6 33.743 6 36.128c0 1.652 1.255 3.487 3.858 5.688l.233.184.232-.184c2.604-2.155 3.859-4.036 3.859-5.688 0-2.339-1.767-4.128-4.091-4.128zm0 7.844c-1.998-1.88-2.416-3.073-2.416-3.716 0-1.422 1.022-2.477 2.417-2.477 1.395 0 2.417 1.055 2.417 2.523 0 .642-.418 1.79-2.417 3.67z" fill="#000"/></svg>