<svg width="50" height="50" fill="none" xmlns="http://www.w3.org/2000/svg"><path fill="#8EB0FC" d="M1 14h47v22H1z"/><path d="M4 12c-2.2 0-4 1.8-4 4v18c0 2.2 1.8 4 4 4h42c2.2 0 4-1.8 4-4V16c0-2.2-1.8-4-4-4H4zm0 2h42c1.117 0 2 .883 2 2v18c0 1.117-.883 2-2 2H4c-1.117 0-2-.883-2-2V16c0-1.117.883-2 2-2zm29.527 8.309c-1.691 0-2.78 1.136-2.78 2.968 0 1.836 1.077 2.973 2.78 2.973 1.692 0 2.77-1.137 2.77-2.973 0-1.832-1.078-2.968-2.77-2.968zm-26.613.156v5.633h2.703c1.207 0 1.973-.637 1.973-1.625 0-.72-.574-1.293-1.309-1.332v-.075a1.212 1.212 0 001.047-1.199c0-.875-.66-1.402-1.785-1.402H6.914zm6.102 0v3.687c0 1.266.964 2.098 2.43 2.098 1.464 0 2.425-.832 2.425-2.098v-3.687h-1.433V26c0 .656-.356 1.047-.993 1.047-.636 0-.996-.39-.996-1.047v-3.535h-1.433zm6.28 0v1.148h1.626v4.485h1.426v-4.485h1.633v-1.148h-4.684zm5.794 0v1.148h1.625v4.485h1.43v-4.485h1.628v-1.148H25.09zm12.672 0v5.633h1.36v-3.203h.073l2.356 3.203h1.136v-5.633h-1.359v3.172h-.074l-2.348-3.172h-1.144zM8.348 23.473h.812c.488 0 .774.242.774.644 0 .399-.305.645-.829.645h-.757v-1.29zm25.175.023c.79 0 1.317.695 1.317 1.781 0 1.09-.524 1.785-1.317 1.785-.8 0-1.32-.695-1.32-1.785 0-1.086.527-1.78 1.32-1.78zM8.348 25.63h.855c.598 0 .93.258.93.719 0 .476-.324.742-.918.742h-.867V25.63z" fill="#000"/></svg>