<svg width="50" height="50" fill="none" xmlns="http://www.w3.org/2000/svg"><path fill-rule="evenodd" clip-rule="evenodd" d="M44.526 17.426c-.603-.444-1.557-.603-2.3-.572H30.845c-2.499.816-3.322 2.506-4.227 4.364-.119.243-.238.489-.364.736-.454.899-.443 1.404-.354 1.744.084.318.236.555.462.906.083.128.175.272.278.442.094.155.308.397.664.745.2.195.406.389.628.596.174.163.356.334.552.521.424.406.869.85 1.252 1.31.378.453.733.962.938 1.502.632 1.666 1.435 3.632 2.205 4.774.213.316.788.656 1.644.656.817 0 1.803-.322 2.69-1.198.454-.448 1.078-1.273 1.8-2.376a58.115 58.115 0 002.252-3.792c1.528-2.79 2.963-5.832 3.67-7.929.255-.754.251-1.273.158-1.624a1.43 1.43 0 00-.566-.805zm2.208.368c.202.757.14 1.628-.189 2.605-.754 2.232-2.241 5.374-3.79 8.202a59.72 59.72 0 01-2.32 3.906c-.734 1.12-1.44 2.073-2.029 2.655-1.2 1.185-2.614 1.688-3.884 1.688-1.232 0-2.431-.484-3.053-1.405-.9-1.333-1.766-3.489-2.386-5.121-.108-.285-.327-.626-.653-1.017a14.885 14.885 0 00-1.122-1.17c-.164-.157-.339-.32-.513-.484-.24-.225-.479-.449-.681-.647-.35-.342-.71-.718-.928-1.078a10.653 10.653 0 00-.166-.26c-.256-.395-.604-.931-.764-1.536-.223-.845-.108-1.783.48-2.946.111-.218.221-.448.336-.685.909-1.893 2.056-4.28 5.39-5.309a.849.849 0 01.25-.038h11.463c.927-.035 2.32.139 3.359.902.544.401.996.97 1.2 1.738zm-29.129 7.358c.994-.033 1.901.361 2.566.84.563.406 1.832 1.341 2.883 2.34.52.495 1.028 1.045 1.364 1.583.294.47.663 1.263.246 2.015-.093.17-.18.323-.26.464-.526.933-.75 1.33-.75 2.146 0 .607-.297 1.088-.713 1.422-.391.313-.896.51-1.416.638-1.046.257-2.433.302-3.922.198-1.38-.095-2.292-.662-2.758-1.503-.411-.74-.394-1.549-.262-2.1 0-.01 0-.025-.002-.041a1.377 1.377 0 00-.031-.182 3.297 3.297 0 00-.184-.54 4.992 4.992 0 00-.711-1.177 2.084 2.084 0 01-.485-1.042c-.058-.398.015-.778.145-1.131.245-.663.773-1.417 1.428-2.302.811-1.097 1.827-1.594 2.862-1.628zm.057 1.699c-.474.016-1.023.225-1.553.94-.687.93-1.053 1.486-1.2 1.88-.064.176-.062.262-.057.299.005.03.02.09.11.198.393.472.732 1.048.966 1.594.218.508.41 1.138.341 1.676a.837.837 0 01-.024.12c-.07.256-.072.627.086.912.126.227.444.567 1.39.633 1.416.098 2.6.042 3.398-.154.402-.099.639-.218.758-.313a.278.278 0 00.074-.078c0-.002.002-.005.002-.018 0-1.287.453-2.079.983-3.008l.208-.366a1.209 1.209 0 00-.167-.35c-.223-.357-.609-.79-1.095-1.252-.961-.915-2.15-1.793-2.706-2.193-.453-.327-.998-.537-1.514-.52zM6.778 20.98c-.95-.18-2-.146-2.664-.057a.85.85 0 01-.228-1.684c.796-.108 2.036-.152 3.21.07 1.127.215 2.474.733 3.053 1.994.494 1.075.96 2.1 1.275 3.008.308.887.52 1.798.383 2.612-.084.499-.372.966-.634 1.334a18.21 18.21 0 01-.745.95l-.169.205c-.31.382-.58.728-.773 1.05-.2.332-.255.54-.255.655 0 .077.014.121.097.207.093.097.194.169.354.283l.25.182c.27.2.636.496.879.951.258.484.326 1.048.195 1.699-.202.999-.913 2.086-1.603 2.967a20.038 20.038 0 01-2.039 2.218.85.85 0 01-1.153-1.248 18.342 18.342 0 001.854-2.019c.674-.86 1.158-1.678 1.275-2.255.067-.334.012-.485-.03-.562-.056-.106-.162-.216-.39-.386a8.58 8.58 0 00-.128-.091 5.092 5.092 0 01-.687-.558 1.943 1.943 0 01-.574-1.388c0-.575.242-1.105.497-1.53.262-.437.602-.867.913-1.249l.19-.231c.25-.304.472-.576.657-.836.243-.34.328-.539.343-.63.062-.37-.024-.937-.313-1.774-.283-.816-.712-1.762-1.214-2.855-.218-.474-.828-.842-1.826-1.032z" fill="#000"/><path fill-rule="evenodd" clip-rule="evenodd" d="M45 10.7H5a.3.3 0 00-.3.3v27a.3.3 0 00.3.3h40a.3.3 0 00.3-.3V11a.3.3 0 00-.3-.3zM5 9a2 2 0 00-2 2v27a2 2 0 002 2h40a2 2 0 002-2V11a2 2 0 00-2-2H5z" fill="#000"/><path fill-rule="evenodd" clip-rule="evenodd" d="M27 9.15c.47 0 .85.38.85.85 0 .979-.22 1.886-1.07 2.437-.725.47-1.752.549-2.899.549-.441 0-.8.272-1.091.944-.29.67-.398 1.515-.398 2.089 0 2.3-.98 4.258-2.788 4.708-.955.238-1.87.145-2.615-.411-.715-.534-1.127-1.39-1.344-2.365-.186-.834-.453-1.651-.845-2.288-.385-.626-.85-1.015-1.433-1.144-.19-.042-.288-.007-.398.07-.161.114-.33.317-.58.663l-.103.147c-.204.289-.46.649-.755.955-.364.379-.846.738-1.5.883-1.288.285-2.556.02-3.646-.392-1.09-.414-2.081-1.007-2.826-1.458a.85.85 0 11.882-1.454c.75.455 1.619.97 2.547 1.322.928.352 1.837.508 2.676.322.223-.05.424-.175.643-.403.199-.205.368-.443.574-.734l.127-.178c.24-.334.557-.762.98-1.061a2.126 2.126 0 011.747-.342c1.17.26 1.973 1.035 2.513 1.914.535.868.852 1.895 1.056 2.808.173.773.443 1.18.703 1.373.23.172.582.274 1.186.123.687-.17 1.5-1.087 1.5-3.058 0-.72.126-1.816.537-2.765.41-.947 1.222-1.968 2.651-1.968 1.193 0 1.726-.115 1.975-.276.124-.08.294-.241.294-1.01 0-.47.38-.85.85-.85z" fill="#000"/><path d="M48 36.83l-7.149 6.85L34 36.83V19.553L40.851 13 48 19.553V36.83z" fill="#00BA88"/><path fill-rule="evenodd" clip-rule="evenodd" d="M40.263 12.386a.85.85 0 011.162-.013l7.15 6.554a.85.85 0 01.275.626V36.83a.85.85 0 01-.262.614l-7.149 6.85a.85.85 0 01-1.19-.012L33.4 37.43a.85.85 0 01-.25-.601V19.553a.85.85 0 01.263-.614l6.851-6.553zm.6 1.778l-6.013 5.752v16.562l6.014 6.013 6.286-6.024v-16.54l-6.287-5.763z" fill="#000"/><path fill-rule="evenodd" clip-rule="evenodd" d="M37.271 15.229a.85.85 0 011.202 0l2.378 2.378 2.378-2.378a.85.85 0 011.202 1.202l-2.979 2.979a.85.85 0 01-1.202 0l-2.979-2.98a.85.85 0 010-1.201zm10.734 3.128a.85.85 0 010 1.202l-6.553 6.553a.85.85 0 01-1.202 0l-6.404-6.404a.85.85 0 111.202-1.203l5.803 5.804 5.952-5.953a.85.85 0 011.202 0zm.596 6.106a.85.85 0 010 1.202l-7.149 7.149a.85.85 0 01-1.202 0l-6.851-6.851A.85.85 0 1134.6 24.76l6.25 6.25 6.548-6.548a.85.85 0 011.202 0zm0 6.404a.85.85 0 010 1.202l-7.149 7.15a.85.85 0 01-1.202 0l-6.851-6.852a.85.85 0 111.202-1.202l6.25 6.25 6.548-6.548a.85.85 0 011.202 0z" fill="#000"/><path fill-rule="evenodd" clip-rule="evenodd" d="M40.851 12.3c.47 0 .85.38.85.85v30.382a.85.85 0 01-1.7 0V13.15c0-.47.38-.85.85-.85z" fill="#000"/></svg>