<svg width="50" height="50" fill="none" xmlns="http://www.w3.org/2000/svg"><path d="M18 21l-8 4.295v2.39L18 32v-2.794l-5.582-2.744L18 23.815V21z" fill="#EBB803"/><path fill-rule="evenodd" clip-rule="evenodd" d="M18.872 19.541A1.7 1.7 0 0119.7 21v2.815a1.7 1.7 0 01-.972 1.536l-2.401 1.139 2.423 1.19a1.7 1.7 0 01.95 1.526V32a1.7 1.7 0 01-2.507 1.496l-8-4.316a1.7 1.7 0 01-.893-1.496v-2.389a1.7 1.7 0 01.896-1.498l8-4.295a1.7 1.7 0 011.676.039zm-6.455 6.921L18 23.815V21l-8 4.295v2.39L18 32v-2.794l-5.583-2.744z" fill="#000"/><path d="M27 20h-1.47L23 33h1.441L27 20z" fill="#EBB803"/><path fill-rule="evenodd" clip-rule="evenodd" d="M28.313 18.92a1.7 1.7 0 01.355 1.408l-2.559 13a1.7 1.7 0 01-1.668 1.372H23a1.7 1.7 0 01-1.669-2.025l2.53-13a1.7 1.7 0 011.668-1.375H27a1.7 1.7 0 011.314.62zM24.44 33H23l2.53-13H27l-2.56 13z" fill="#000"/><path d="M32 21v2.777l5.584 2.697L32 29.203V32l8-4.33v-2.372L32 21z" fill="#EBB803"/><path fill-rule="evenodd" clip-rule="evenodd" d="M31.127 19.54a1.7 1.7 0 011.677-.038l8 4.298a1.7 1.7 0 01.896 1.498v2.371a1.7 1.7 0 01-.89 1.495l-8 4.331A1.7 1.7 0 0130.3 32v-2.797c0-.65.37-1.243.953-1.528l2.44-1.192-2.433-1.175a1.7 1.7 0 01-.96-1.531V21a1.7 1.7 0 01.827-1.46zm6.456 6.934L32 29.203V32l8-4.33v-2.372L32 21v2.777l5.583 2.697z" fill="#000"/><path fill-rule="evenodd" clip-rule="evenodd" d="M3.7 10.854V41.3h42.6V10.973H19.912a2.7 2.7 0 01-1.885-.767l-1.52-1.483-10.612-.022L3.7 10.854zm1.21-3.567A1 1 0 015.611 7l11.182.023a1 1 0 01.696.284l1.724 1.68a1 1 0 00.698.285H47a1 1 0 011 1V42a1 1 0 01-1 1H3a1 1 0 01-1-1V10.56a1 1 0 01.3-.714l2.61-2.56z" fill="#000"/></svg>