<svg width="50" height="50" fill="none" xmlns="http://www.w3.org/2000/svg"><path d="M11 20L1 29.5V44h47.5V34H38l-8-4.5h-6.5l-3.5-5-5 1-4-5.5z" fill="#5FBAA8"/><path d="M0 5v40h50V5H0zm2 2h46v26H37.32l-7-5h-5.906l-4.086-4.086-4.867.977-4.305-6.461L2 27.586V7zm35.5 6a4.516 4.516 0 00-4.5 4.5c0 2.473 2.027 4.5 4.5 4.5s4.5-2.027 4.5-4.5-2.027-4.5-4.5-4.5zm0 2c1.39 0 2.5 1.11 2.5 2.5S38.89 20 37.5 20 35 18.89 35 17.5s1.11-2.5 2.5-2.5zm-26.656 6.57l3.695 5.54 5.133-1.024L23.586 30h6.094l7 5H48v8H2V30.414l8.844-8.844z" fill="#000"/></svg>