<svg width="50" height="50" fill="none" xmlns="http://www.w3.org/2000/svg"><path d="M11.5 40.5c-1.97-.788-7.332 1.269-8.45 1.968a.093.093 0 00-.042.093l.483 3.87a.1.1 0 00.078.084l4.419.982a.1.1 0 00.024.003l37.928-.998a.1.1 0 00.087-.056l.962-1.925a.1.1 0 00.011-.045v-5.938a.1.1 0 00-.026-.067c-4-4.473-9.982-4.965-13.974-1.971-4 3-4.36-3-8-3-2 0-2.5 5-4 4.5s-2-1-3.5 1.5-3.5 2-6 1z" fill="#D9D9D9"/><path d="M17.344 20.2c.192 0 .352.064.48.192a.651.651 0 01.192.48c0 .184-.064.34-.192.468a.675.675 0 01-.48.18h-4.08c-.208 0-.372-.064-.492-.192a.69.69 0 01-.18-.492c0-.2.072-.376.216-.528l2.616-2.796c.288-.312.52-.628.696-.948.176-.328.264-.632.264-.912 0-.248-.06-.472-.18-.672-.12-.2-.276-.36-.468-.48s-.4-.18-.624-.18c-.232 0-.468.08-.708.24-.24.152-.452.356-.636.612-.096.128-.192.208-.288.24a.84.84 0 01-.264.048.75.75 0 01-.492-.192.627.627 0 01-.216-.468.69.69 0 01.132-.396 3.737 3.737 0 011.404-1.128c.4-.184.784-.276 1.152-.276.544 0 1.012.112 1.404.336.392.224.696.532.912.924.216.392.324.836.324 1.332 0 .336-.064.68-.192 1.032-.12.344-.288.68-.504 1.008a7.44 7.44 0 01-.744.948l-1.62 1.728-.132-.108h2.7zm5.522 1.32a.685.685 0 01-.504-.204.74.74 0 01-.204-.528v-5.64l.252.06-2.316 2.868-.06-.156h4.068c.192 0 .352.064.48.192a.651.651 0 01.192.48c0 .184-.064.34-.192.468a.675.675 0 01-.48.18h-5.064c-.168 0-.332-.068-.492-.204a.65.65 0 01-.228-.504c0-.176.06-.336.18-.48l3.792-4.644a.633.633 0 01.252-.204.722.722 0 01.348-.084c.208 0 .376.072.504.216a.7.7 0 01.204.516v6.936a.718.718 0 01-.732.732zm-12.03-1.32c.192 0 .352.064.48.192a.651.651 0 01.192.48c0 .184-.064.34-.192.468a.675.675 0 01-.48.18h-4.08c-.208 0-.372-.064-.492-.192a.69.69 0 01-.18-.492c0-.2.072-.376.216-.528l2.616-2.796c.288-.312.52-.628.696-.948.176-.328.264-.632.264-.912 0-.248-.06-.472-.18-.672-.12-.2-.276-.36-.468-.48s-.4-.18-.624-.18c-.232 0-.468.08-.708.24-.24.152-.452.356-.636.612-.096.128-.192.208-.288.24a.84.84 0 01-.264.048.75.75 0 01-.492-.192A.627.627 0 016 14.8a.69.69 0 01.132-.396 3.737 3.737 0 011.404-1.128c.4-.184.784-.276 1.152-.276.544 0 1.012.112 1.404.336.392.224.696.532.912.924.216.392.324.836.324 1.332 0 .336-.064.68-.192 1.032-.12.344-.288.68-.504 1.008a7.44 7.44 0 01-.744.948l-1.62 1.728-.132-.108h2.7z" fill="#000"/><path fill-rule="evenodd" clip-rule="evenodd" d="M45 3.7H5A1.3 1.3 0 003.7 5v40A1.3 1.3 0 005 46.3h40a1.3 1.3 0 001.3-1.3V5A1.3 1.3 0 0045 3.7zM5 2a3 3 0 00-3 3v40a3 3 0 003 3h40a3 3 0 003-3V5a3 3 0 00-3-3H5z" fill="#000"/><path fill-rule="evenodd" clip-rule="evenodd" d="M21.931 38.694c-.353.195-.77.255-1.2.112a20.15 20.15 0 01-.466-.162c-.174-.062-.31-.111-.461-.153-.219-.06-.303-.053-.348-.041-.042.01-.157.05-.37.275-.219.23-.494.607-.857 1.212-.869 1.448-1.976 2.141-3.301 2.224-1.215.076-2.507-.377-3.744-.872-.293-.117-.834-.158-1.614-.064-.749.09-1.606.29-2.454.54a25.02 25.02 0 00-2.325.816c-.684.28-1.146.51-1.32.626a.85.85 0 01-.942-1.414c.326-.218.927-.503 1.618-.786a26.669 26.669 0 012.487-.872c.901-.266 1.857-.492 2.733-.598.845-.102 1.742-.109 2.449.174 1.263.505 2.221.802 3.006.753.675-.042 1.318-.349 1.95-1.401.386-.645.736-1.144 1.08-1.507.35-.37.734-.641 1.192-.756.455-.113.87-.043 1.215.053.198.055.44.141.67.222l.236.083c.033-.033.074-.082.123-.15.22-.303.437-.76.715-1.347l.041-.087c.275-.58.608-1.272 1.022-1.816.411-.539 1.037-1.108 1.934-1.108 1.174 0 2.067.494 2.773 1.092.477.405.927.916 1.31 1.352.145.165.28.32.405.453.513.552.89.838 1.265.919.321.069.844.024 1.737-.646 4.383-3.287 10.877-2.687 15.145 2.115a.85.85 0 11-1.27 1.13c-3.732-4.198-9.238-4.598-12.855-1.885-1.107.83-2.13 1.16-3.114.948-.932-.2-1.622-.852-2.154-1.425a27.815 27.815 0 01-.53-.592c-.347-.395-.66-.751-1.039-1.072-.51-.433-1.027-.689-1.673-.689-.103 0-.29.056-.582.439-.288.378-.55.905-.837 1.512l-.068.143c-.248.526-.53 1.124-.848 1.563-.177.244-.415.512-.734.688z" fill="#000"/><path d="M11.922 28.167c.116 0 .212.037.29.11a.369.369 0 01.116.279.361.361 0 01-.116.27.418.418 0 01-.29.105H9.457a.397.397 0 01-.298-.112.39.39 0 01-.108-.284c0-.116.043-.218.13-.306l1.58-1.618a2.82 2.82 0 00.421-.549c.107-.19.16-.365.16-.527a.718.718 0 00-.109-.39.836.836 0 00-.283-.277.72.72 0 00-.377-.104.793.793 0 00-.428.139 1.366 1.366 0 00-.384.354.383.383 0 01-.333.167.464.464 0 01-.298-.111.357.357 0 01-.13-.271c0-.079.027-.155.08-.23a2.191 2.191 0 01.848-.653c.242-.106.474-.159.696-.159.329 0 .611.065.848.194.237.13.42.308.551.535.13.227.196.484.196.771 0 .194-.039.393-.116.597-.073.2-.174.394-.305.584-.13.19-.28.372-.449.548l-.979 1-.08-.062h1.632zm3.336.763a.423.423 0 01-.305-.117.419.419 0 01-.123-.306v-3.264l.152.035-1.4 1.66-.035-.09h2.457c.116 0 .213.036.29.11a.369.369 0 01.116.278.36.36 0 01-.116.27.418.418 0 01-.29.105h-3.06c-.1 0-.2-.04-.296-.118a.37.37 0 01-.138-.292c0-.102.036-.194.109-.277l2.29-2.688a.38.38 0 01.153-.118.451.451 0 01.21-.049c.126 0 .227.042.305.125a.396.396 0 01.123.3v4.013c0 .12-.044.222-.13.305a.432.432 0 01-.312.119zm2.45-2.222a1.08 1.08 0 01-.616-.18 1.24 1.24 0 01-.42-.486 1.505 1.505 0 01-.153-.68c0-.255.05-.485.152-.688a1.24 1.24 0 01.42-.486c.18-.12.385-.181.617-.181.237 0 .442.06.616.18.18.12.317.283.414.487.101.203.152.433.152.687 0 .25-.053.477-.16.68a1.297 1.297 0 01-.427.487 1.02 1.02 0 01-.595.18zm0-.618c.145 0 .256-.07.334-.208a1.01 1.01 0 00.123-.52c0-.21-.039-.383-.116-.522a.37.37 0 00-.34-.208c-.146 0-.26.07-.342.208a1.01 1.01 0 00-.123.521c0 .208.039.382.116.52a.385.385 0 00.348.21zm3.11 2.91c-.222 0-.423-.06-.602-.18a1.296 1.296 0 01-.427-.487 1.448 1.448 0 01-.16-.68c0-.255.051-.484.152-.688a1.24 1.24 0 01.421-.486c.179-.12.384-.18.616-.18.237 0 .442.06.616.18.18.12.317.283.414.486.101.204.152.433.152.688 0 .25-.053.477-.16.68a1.296 1.296 0 01-.427.486 1.02 1.02 0 01-.595.181zm0-.618c.145 0 .256-.07.334-.208a1.01 1.01 0 00.123-.521 1.06 1.06 0 00-.116-.521.37.37 0 00-.34-.208c-.146 0-.26.07-.341.208a1.01 1.01 0 00-.124.52c0 .21.039.383.116.522a.385.385 0 00.348.208zm-3.023.562a.439.439 0 01-.246-.09.299.299 0 01-.13-.25c0-.06.023-.13.072-.208l2.885-4.174c.087-.11.186-.166.297-.166.082 0 .165.03.247.09.087.06.13.143.13.25 0 .06-.024.13-.072.208l-2.886 4.174c-.087.11-.186.166-.297.166z" fill="#000"/><path d="M6 26.4c0-.22.18-.4.4-.4h2.2a.4.4 0 010 .8H6.4a.4.4 0 01-.4-.4z" fill="#000"/></svg>