<svg width="50" height="50" fill="none" xmlns="http://www.w3.org/2000/svg"><path d="M47 31.5H3V45l2.5 2h40l1.5-3V31.5z" fill="#5FBAA8"/><path d="M19.4 42.2c.192 0 .352.064.48.192a.651.651 0 01.192.48c0 .184-.064.34-.192.468a.675.675 0 01-.48.18h-4.08c-.208 0-.372-.064-.492-.192a.69.69 0 01-.18-.492c0-.2.072-.376.216-.528l2.616-2.796c.288-.312.52-.628.696-.948.176-.328.264-.632.264-.912 0-.248-.06-.472-.18-.672-.12-.2-.276-.36-.468-.48s-.4-.18-.624-.18c-.232 0-.468.08-.708.24-.24.152-.452.356-.636.612-.096.128-.192.208-.288.24a.84.84 0 01-.264.048.75.75 0 01-.492-.192.627.627 0 01-.216-.468.69.69 0 01.132-.396 3.737 3.737 0 011.404-1.128c.4-.184.784-.276 1.152-.276.544 0 1.012.112 1.404.336.392.224.696.532.912.924.216.392.324.836.324 1.332 0 .336-.064.68-.192 1.032-.12.344-.288.68-.504 1.008a7.44 7.44 0 01-.744.948l-1.62 1.728-.132-.108h2.7zm5.522 1.32a.685.685 0 01-.504-.204.74.74 0 01-.204-.528v-5.64l.252.06-2.316 2.868-.06-.156h4.068c.192 0 .352.064.48.192a.651.651 0 01.192.48c0 .184-.064.34-.192.468a.675.675 0 01-.48.18h-5.064c-.168 0-.332-.068-.492-.204a.65.65 0 01-.228-.504c0-.176.06-.336.18-.48l3.792-4.644a.633.633 0 01.252-.204.722.722 0 01.348-.084c.208 0 .376.072.504.216a.7.7 0 01.204.516v6.936a.718.718 0 01-.732.732zm4.056-3.84a1.73 1.73 0 01-1.02-.312 2.118 2.118 0 01-.696-.84 2.695 2.695 0 01-.252-1.176c0-.44.084-.836.252-1.188.168-.352.4-.632.696-.84a1.73 1.73 0 011.02-.312c.392 0 .732.104 1.02.312.296.208.524.488.684.84.168.352.252.748.252 1.188 0 .432-.088.824-.264 1.176a2.213 2.213 0 01-.708.84 1.638 1.638 0 01-.984.312zm0-1.068c.24 0 .424-.12.552-.36.136-.24.204-.54.204-.9s-.064-.66-.192-.9-.316-.36-.564-.36c-.24 0-.428.12-.564.36-.136.24-.204.54-.204.9s.064.66.192.9c.136.24.328.36.576.36zm5.148 5.028c-.368 0-.7-.104-.996-.312a2.213 2.213 0 01-.708-.84 2.593 2.593 0 01-.264-1.176c0-.44.084-.836.252-1.188.168-.352.4-.632.696-.84a1.73 1.73 0 011.02-.312c.392 0 .732.104 1.02.312.296.208.524.488.684.84.168.352.252.748.252 1.188 0 .432-.088.824-.264 1.176a2.213 2.213 0 01-.708.84 1.638 1.638 0 01-.984.312zm0-1.068c.24 0 .424-.12.552-.36.136-.24.204-.54.204-.9s-.064-.66-.192-.9-.316-.36-.564-.36c-.24 0-.428.12-.564.36-.136.24-.204.54-.204.9s.064.66.192.9c.136.24.328.36.576.36zm-5.004.972a.707.707 0 01-.408-.156.523.523 0 01-.216-.432c0-.104.04-.224.12-.36l4.776-7.212c.144-.192.308-.288.492-.288a.67.67 0 01.408.156.503.503 0 01.216.432c0 .104-.04.224-.12.36l-4.776 7.212c-.144.192-.308.288-.492.288z" fill="#000"/><path fill-rule="evenodd" clip-rule="evenodd" d="M46.5 32.4h-43v-1.8h43v1.8zM43.64 9.367a.9.9 0 01-.007 1.272L31.765 22.396a.9.9 0 01-1.169.084l-6.451-4.775-5.784 6.669a.9.9 0 01-.578.304L7.102 25.894a.9.9 0 11-.204-1.788l10.333-1.177 6.1-7.032a.9.9 0 011.215-.134l6.5 4.811 11.32-11.213a.9.9 0 011.273.006z" fill="#000"/><path fill-rule="evenodd" clip-rule="evenodd" d="M44 3.8H6A2.2 2.2 0 003.8 6v38A2.2 2.2 0 006 46.2h38a2.2 2.2 0 002.2-2.2V6A2.2 2.2 0 0044 3.8zM6 2a4 4 0 00-4 4v38a4 4 0 004 4h38a4 4 0 004-4V6a4 4 0 00-4-4H6z" fill="#000"/></svg>