<svg width="50" height="50" fill="none" xmlns="http://www.w3.org/2000/svg"><path fill="#8EB0FC" d="M3 8h4v4H3zm0 10h4v4H3zm0 10h4v4H3zm0 10h4v4H3z"/><path d="M2.812 7A1 1 0 002 8v4c0 .55.45 1 1 1h4c.55 0 1-.45 1-1V8c0-.55-.45-1-1-1H2.812zM4 9h2v2H4V9zm6.719 0c-.551.078-.938.59-.86 1.14.078.551.59.938 1.14.86h36c.36.004.696-.184.88-.496a1.01 1.01 0 000-1.008c-.184-.312-.52-.5-.88-.496H10.72zm-7.907 8A1 1 0 002 18v4c0 .55.45 1 1 1h4c.55 0 1-.45 1-1v-4c0-.55-.45-1-1-1H2.812zM4 19h2v2H4v-2zm6.719 0c-.551.078-.938.59-.86 1.14.078.551.59.938 1.14.86h36c.36.004.696-.184.88-.496a1.01 1.01 0 000-1.008c-.184-.312-.52-.5-.88-.496H10.72zm-7.907 8A1 1 0 002 28v4c0 .55.45 1 1 1h4c.55 0 1-.45 1-1v-4c0-.55-.45-1-1-1H2.812zM4 29h2v2H4v-2zm6.719 0c-.551.078-.938.59-.86 1.14.078.551.59.938 1.14.86h36c.36.004.696-.184.88-.496a1.01 1.01 0 000-1.008c-.184-.312-.52-.5-.88-.496H10.72zm-7.907 8A1 1 0 002 38v4c0 .55.45 1 1 1h4c.55 0 1-.45 1-1v-4c0-.55-.45-1-1-1H2.812zM4 39h2v2H4v-2zm6.719 0c-.551.078-.938.59-.86 1.14.078.551.59.938 1.14.86h36c.36.004.696-.184.88-.496a1.01 1.01 0 000-1.008c-.184-.312-.52-.5-.88-.496H10.72z" fill="#000"/></svg>