<svg width="50" height="50" fill="none" xmlns="http://www.w3.org/2000/svg"><g clip-path="url(#clip0)"><path d="M12.5 9L2 4 1 41l11.5 6L25 41l13 6 11-6.5V3L38 9 25.5 3l-13 6z" fill="#fff"/><path d="M.875 2A.998.998 0 000 3v38a.993.993 0 00.563.906l12 6c.277.133.597.133.875 0l11.593-5.812 12.563 5.812a.998.998 0 00.875-.031l11-6c.324-.172.527-.508.531-.875V3a.997.997 0 00-1.469-.875L37.97 7.875 25.406 2.094a.996.996 0 00-.843 0L13 7.875 1.438 2.094A1.002 1.002 0 00.875 2zM26 4.531l11 5.094v35.813l-11-5.063V4.531zM2 4.625l10 5v35.75l-10-5V4.625zm22 0v35.75l-10 5V9.625l10-5zm24 .063v35.718l-9 4.907V9.593l9-4.905z" fill="#000"/><path fill-rule="evenodd" clip-rule="evenodd" d="M32.268 30.293L40.463 18v-4.098l-1.365-4.78-6.147-4.098-5.463 1.366-3.415 2.732-2.049 6.83c.228 1.365.82 4.097 1.366 4.097.547 0 4.78 6.829 6.83 10.244h2.048zm-.683-10.927a4.78 4.78 0 100-9.561 4.78 4.78 0 000 9.56z" fill="#EBB803"/><path fill-rule="evenodd" clip-rule="evenodd" d="M31.599 9.223c-2.932 0-5.326 2.396-5.326 5.345 0 2.947 2.391 5.373 5.326 5.373 2.931 0 5.324-2.396 5.324-5.345 0-2.947-2.39-5.373-5.325-5.373zm-3.06 5.373c0-1.67 1.375-3.05 3.06-3.05 1.687 0 3.06 1.356 3.06 3.022 0 1.67-1.376 3.05-3.06 3.05-1.688 0-3.06-1.356-3.06-3.022z" fill="#000"/><path fill-rule="evenodd" clip-rule="evenodd" d="M31.599 4C25.784 4 21.027 8.893 21 14.895v.005c.027 2.242.674 4.434 1.944 6.293.025.052.066.13.137.21l7.227 9.956.032.034c.328.4.791.607 1.259.607.482 0 .937-.246 1.253-.602l.038-.04 7.197-9.953a1.1 1.1 0 00.219-.295 11.226 11.226 0 001.865-6.214C42.17 8.921 37.44 4 31.599 4zm-6.842 15.826a8.858 8.858 0 01-1.492-4.902c.026-4.771 3.786-8.6 8.334-8.6 4.573 0 8.307 3.855 8.307 8.6 0 1.755-.502 3.43-1.482 4.899a.445.445 0 00-.095.14l-6.73 9.308-6.75-9.343-.003-.002a.39.39 0 00-.089-.1z" fill="#000"/></g><defs><clipPath id="clip0"><path fill="#fff" d="M0 0h50v50H0z"/></clipPath></defs></svg>