<svg width="50" height="50" fill="none" xmlns="http://www.w3.org/2000/svg"><g clip-path="url(#clip0_1713_1993)"><path fill-rule="evenodd" clip-rule="evenodd" d="M22 42.3c11.211 0 20.3-9.089 20.3-20.3S33.211 1.7 22 1.7 1.7 10.789 1.7 22 10.789 42.3 22 42.3zm0 1.7c12.15 0 22-9.85 22-22S34.15 0 22 0 0 9.85 0 22s9.85 22 22 22z" fill="#000"/><path d="M26.402 10.115L22.208 21.44c-.04.105.1.185.171.098l7.55-9.227a.1.1 0 00-.025-.148l-3.355-2.097a.1.1 0 00-.147.05z" fill="#8EB0FC"/><path fill-rule="evenodd" clip-rule="evenodd" d="M26.879 11.274l-2.315 6.25 4.167-5.093-1.852-1.157zM25.605 9.82a.95.95 0 011.394-.476l3.355 2.097a.95.95 0 01.232 1.407l-.658-.538.658.538-7.55 9.227-.657-.538.658.538c-.68.83-1.999.074-1.626-.932L25.605 9.82z" fill="#000"/><path d="M23.973 32.879l-2.35-10.816c-.025-.11-.183-.103-.198.008l-1.41 10.816a.1.1 0 00.099.113h3.762a.1.1 0 00.097-.121z" fill="#8EB0FC"/><path fill-rule="evenodd" clip-rule="evenodd" d="M20.582 21.961c.138-1.056 1.644-1.12 1.87-.079l2.352 10.816a.95.95 0 01-.928 1.152h-3.762a.95.95 0 01-.942-1.073l1.41-10.816zm1.127 4.504l-.741 5.685h1.977l-1.236-5.685z" fill="#000"/><path d="M18.07 5.126l3.833 16.46c.024.102-.107.167-.174.086L11.079 8.77a.1.1 0 01.03-.152l6.817-3.56a.1.1 0 01.143.067z" fill="#8EB0FC"/><path fill-rule="evenodd" clip-rule="evenodd" d="M17.532 4.306a.95.95 0 011.365.627l-.82.191.82-.191 3.834 16.46c.228.977-1.019 1.594-1.658.82L10.423 9.312a.95.95 0 01.293-1.447l6.816-3.559zm-.07 1.955l-5.139 2.683 8.028 9.723-2.89-12.406z" fill="#000"/><path d="M33.124 35.906l-10.61-13.264c-.074-.092.045-.213.139-.142l13.263 10.17a.1.1 0 01.015.143l-2.652 3.095a.1.1 0 01-.155-.002z" fill="#8EB0FC"/><path fill-rule="evenodd" clip-rule="evenodd" d="M27.031 26.928l6.192 7.74 1.547-1.806-7.739-5.934zm8.367 6.415h.001l.456-.595-.456.596zm-1.61 2.031l-.585.47.585-.47zm-11.938-12.2c-.7-.877.43-2.03 1.32-1.348l-.517.674m.517-.674l13.263 10.168a.95.95 0 01.144 1.373l-2.653 3.095a.95.95 0 01-1.463-.025L21.85 23.173" fill="#000"/><path d="M8.49 15.066l13.256 6.944a.1.1 0 01-.028.187L7.137 24.974a.1.1 0 01-.118-.112l1.326-9.72a.1.1 0 01.145-.076z" fill="#8EB0FC"/><path fill-rule="evenodd" clip-rule="evenodd" d="M7.502 15.026a.95.95 0 011.382-.713l13.256 6.944c.797.417.621 1.606-.263 1.774L7.296 25.81l-.16-.835.16.835a.95.95 0 01-1.12-1.062l1.326-9.72zm1.54 1.289l-1.04 7.629 11.443-2.18-10.403-5.449z" fill="#000"/><path d="M50 36.5C50 43.956 43.956 50 36.5 50S23 43.956 23 36.5 29.044 23 36.5 23 50 29.044 50 36.5z" fill="#fff"/><path fill-rule="evenodd" clip-rule="evenodd" d="M36.5 48.3c6.517 0 11.8-5.283 11.8-11.8s-5.283-11.8-11.8-11.8-11.8 5.283-11.8 11.8 5.283 11.8 11.8 11.8zm0 1.7C43.956 50 50 43.956 50 36.5S43.956 23 36.5 23 23 29.044 23 36.5 29.044 50 36.5 50z" fill="#000"/><path d="M44.94 39.948h0c.42-.404.672-.942.832-1.624.04-.172.067-.33.097-.516l.041-.243v-.88a1.01 1.01 0 01-.033-.19m-.938 3.453l1.785-3.517m-1.785 3.517c-.288.277-.582.405-.913.411-1.929.037-3.854.035-5.789.033-.714-.001-1.429-.002-2.146 0m8.848-.444l-8.848.443m9.786-3.895v-.003l.847-.062m-.847.065s0 0 0 0l.847-.065m-.847.065a5.129 5.129 0 00-.274-1.242m1.121 1.177a5.968 5.968 0 00-.316-1.447m-.805.27s0 0 0 0l.805-.27m-.805.27l.805-.27m-.805.27c-.434-1.288-1.428-2.145-2.642-2.366a16.37 16.37 0 01-.312 1.914l3.76.182M36.09 40.39s0 0 0 0v.476-.476zm-2.882 3.135h0c.115.623.398.993.912 1.209.629.264 1.31.377 2.053.408l-2.965-1.617zm0 0c-.3-1.617-.246-3.203.201-4.769h0m-.201 4.769l.201-4.769m0 0a3.1 3.1 0 01.326-.724m-.326.724l.326-.724m2.549-.428h0c-.723-.03-1.366-.022-1.977.12l1.977-.12zm0 0l.478.022c.678.032 1.402.067 2.12.036h0m-2.599-.058l2.6.058m0 0c.553-.024 1.166-.1 1.772-.347l-1.773.347zm-5.148.37c.075-.127.2-.221.572-.308l-.572.308zm1.27 3.891a.92.92 0 00.953.643h1.076l.939.001c.813 0 1.628 0 2.443-.002a20.85 20.85 0 01-.084 1.71c-.02.013-.048.03-.09.053h0c-.608.341-1.288.537-2.043.67h0a9.414 9.414 0 01-2.026.144l-1.168-3.219zm6.066.64a.04.04 0 00-.003 0h.002zm-.416-5.248c1.184-.485 1.754-1.457 1.993-2.514l-1.993 2.514z" fill="#EBB803" stroke="#000" stroke-width="1.7"/><path d="M27.85 35.398l.04-.237c.03-.182.057-.338.096-.507h0c.155-.662.406-1.182.822-1.572l-.958 2.316zm0 0v.905c.011.044.025.106.033.178v.002c.087.83.329 1.576.766 2.232.508.761 1.159 1.215 1.985 1.383.101-.727.218-1.517.454-2.29h0c.32-1.045 1.007-1.826 2.084-2.197l-5.322-.213zm9.662-2.791c-.773.002-1.543.002-2.31 0-1.79 0-3.571-.003-5.357.034h0c-.39.008-.726.15-1.036.44l8.703-.474zm0 0c.022.003.084.011.149.013a.994.994 0 00.415-.071.916.916 0 00.52-.552l.001-.002a1.38 1.38 0 00.067-.486 3.247 3.247 0 00-.007-.134v-.002a1.87 1.87 0 01-.004-.068.899.899 0 00-.615-.824.959.959 0 00-.246-.046l-.065-.002m-.215 2.174l.22-2.173h-.005m0 0a5.924 5.924 0 00-.142-.001H36.49c-1.09 0-2.18-.001-3.272.002.006-.56.017-1.095.064-1.631h0a.368.368 0 01.014-.082.378.378 0 01.084-.056l4.347 1.767zm-.28-2.576h0a9.273 9.273 0 00-2.022.144l2.022-.144zm0 0c.743.03 1.425.143 2.058.405h0m-2.058-.405l2.058.405m0 0c.53.22.813.615.937 1.313l-.937-1.313zm1.017 4.468h0c.117-1.07.105-2.118-.08-3.155l.08 3.155zm0 0a7.75 7.75 0 01-.41 1.817l.41-1.817zm-1.336 2.578h0c.278-.042.457-.128.583-.23.125-.103.246-.262.344-.53l-.927.76zm0 0a9.262 9.262 0 01-1.777.089h0m1.777-.089l-1.777.089m0 0l-.546-.025m.546.025l-.546-.025m0 0c-.688-.032-1.422-.067-2.148-.034l2.148.034zm-6.28 5.221a.725.725 0 01.136-.2l.381.053h0l.337.047-.337-.048h0l-.516.148zm6.906-7.99h.003-.003zm-4.196-3.879l.002-.002-.002.002zm-.734 1.712h.002s0 0 0 0h-.002zm.82-1.77c.621-.333 1.302-.532 2.046-.665l-2.045.665zm1.336 6.672a5.446 5.446 0 00-1.543.272l1.543-.272z" fill="#8EB0FC" stroke="#000" stroke-width="1.7"/></g><defs><clipPath id="clip0_1713_1993"><path fill="#fff" d="M0 0h50v50H0z"/></clipPath></defs></svg>