<svg width="50" height="50" fill="none" xmlns="http://www.w3.org/2000/svg"><path d="M25 2C12.309 2 2 12.309 2 25s10.309 23 23 23 23-10.309 23-23S37.691 2 25 2zm0 2c11.61 0 21 9.39 21 21s-9.39 21-21 21S4 36.61 4 25 13.39 4 25 4z" fill="#000"/><path fill-rule="evenodd" clip-rule="evenodd" d="M25 10c-8.273 0-15 6.79-15 15.19a15.22 15.22 0 007.171 12.96l-1.055 1.7A17.222 17.222 0 018 25.19C8 15.709 15.6 8 25 8s17 7.708 17 17.19a17.222 17.222 0 01-8.116 14.66l-1.055-1.7A15.222 15.222 0 0040 25.19C40 16.79 33.273 10 25 10z" fill="#000"/><circle cx="25" cy="25" r="3" fill="#000"/><path d="M33 19l1.424 2.467-14.8 8.545h-2.492l1.068-2.467L33 19z" fill="#000"/><circle cx="25" cy="25" r="2" fill="#E75F63"/></svg>