<svg width="50" height="50" fill="none" xmlns="http://www.w3.org/2000/svg"><path d="M9 4a2 2 0 012-2h10a2 2 0 012 2v10a2 2 0 01-2 2H11a2 2 0 01-2-2V4z" fill="#5FBAA8"/><path fill-rule="evenodd" clip-rule="evenodd" d="M21 3.7H11a.3.3 0 00-.3.3v10a.3.3 0 00.3.3h10a.3.3 0 00.3-.3V4a.3.3 0 00-.3-.3zM11 2a2 2 0 00-2 2v10a2 2 0 002 2h10a2 2 0 002-2V4a2 2 0 00-2-2H11z" fill="#000"/><path d="M9 20a2 2 0 012-2h10a2 2 0 012 2v10a2 2 0 01-2 2H11a2 2 0 01-2-2V20z" fill="#5FBAA8"/><path fill-rule="evenodd" clip-rule="evenodd" d="M21 19.7H11a.3.3 0 00-.3.3v10a.3.3 0 00.3.3h10a.3.3 0 00.3-.3V20a.3.3 0 00-.3-.3zM11 18a2 2 0 00-2 2v10a2 2 0 002 2h10a2 2 0 002-2V20a2 2 0 00-2-2H11z" fill="#000"/><path d="M9 36a2 2 0 012-2h10a2 2 0 012 2v10a2 2 0 01-2 2H11a2 2 0 01-2-2V36z" fill="#5FBAA8"/><path fill-rule="evenodd" clip-rule="evenodd" d="M21 35.7H11a.3.3 0 00-.3.3v10a.3.3 0 00.3.3h10a.3.3 0 00.3-.3V36a.3.3 0 00-.3-.3zM11 34a2 2 0 00-2 2v10a2 2 0 002 2h10a2 2 0 002-2V36a2 2 0 00-2-2H11zm7.576-26.625a.85.85 0 01.049 1.202l-2.696 2.92a.95.95 0 01-1.396 0l-1.158-1.254a.85.85 0 111.25-1.153l.606.657 2.144-2.324a.85.85 0 011.201-.048zm0 16a.85.85 0 01.049 1.202l-2.696 2.92a.95.95 0 01-1.396 0l-1.158-1.254a.85.85 0 111.25-1.153l.606.657 2.144-2.323a.85.85 0 011.201-.049z" fill="#000"/><path fill-rule="evenodd" clip-rule="evenodd" d="M18.576 39.375a.85.85 0 01.049 1.202l-2.696 2.92a.95.95 0 01-1.396 0l-1.158-1.254a.85.85 0 111.25-1.153l.606.657 2.144-2.324a.85.85 0 011.201-.048zM25.15 9c0-.47.38-.85.85-.85h15a.85.85 0 010 1.7H26a.85.85 0 01-.85-.85zm0 16c0-.47.38-.85.85-.85h15a.85.85 0 010 1.7H26a.85.85 0 01-.85-.85zm0 16c0-.47.38-.85.85-.85h15a.85.85 0 010 1.7H26a.85.85 0 01-.85-.85z" fill="#000"/></svg>