<svg width="50" height="50" fill="none" xmlns="http://www.w3.org/2000/svg"><rect x="5" y="23" width="5" height="15" rx="2.5" fill="#EBB803"/><rect x="25" y="22" width="5" height="16" rx="2.5" fill="#EBB803"/><rect x="15" y="13" width="5" height="25" rx="2.5" fill="#EBB803"/><rect x="34" y="13" width="5" height="25" rx="2.5" fill="#EBB803"/><path fill-rule="evenodd" clip-rule="evenodd" d="M4 25.579C4 23.602 5.567 22 7.5 22s3.5 1.602 3.5 3.579v9.842C11 37.398 9.433 39 7.5 39S4 37.398 4 35.421V25.58zm3.5-1.79c-.966 0-1.75.802-1.75 1.79v9.842c0 .988.784 1.79 1.75 1.79s1.75-.802 1.75-1.79V25.58c0-.988-.784-1.79-1.75-1.79zM4 16.5a3.5 3.5 0 117 0 3.5 3.5 0 01-7 0zm3.5-1.75a1.75 1.75 0 100 3.5 1.75 1.75 0 000-3.5zM4 7.5a3.5 3.5 0 117 0 3.5 3.5 0 01-7 0zm3.5-1.75a1.75 1.75 0 100 3.5 1.75 1.75 0 000-3.5zM14 7.5a3.5 3.5 0 117 0 3.5 3.5 0 01-7 0zm3.5-1.75a1.75 1.75 0 100 3.5 1.75 1.75 0 000-3.5zM24 7.5a3.5 3.5 0 117 0 3.5 3.5 0 01-7 0zm3.5-1.75a1.75 1.75 0 100 3.5 1.75 1.75 0 000-3.5zM33 7.5a3.5 3.5 0 117 0 3.5 3.5 0 01-7 0zm3.5-1.75a1.75 1.75 0 100 3.5 1.75 1.75 0 000-3.5zM24 16.5a3.5 3.5 0 117 0 3.5 3.5 0 01-7 0zm3.5-1.75a1.75 1.75 0 100 3.5 1.75 1.75 0 000-3.5zM14 15.6c0-1.988 1.567-3.6 3.5-3.6s3.5 1.612 3.5 3.6v19.8c0 1.988-1.567 3.6-3.5 3.6S14 37.388 14 35.4V15.6zm3.5-1.8c-.966 0-1.75.806-1.75 1.8v19.8c0 .994.784 1.8 1.75 1.8s1.75-.806 1.75-1.8V15.6c0-.994-.784-1.8-1.75-1.8zM24 24.6c0-1.988 1.567-3.6 3.5-3.6s3.5 1.612 3.5 3.6v10.8c0 1.988-1.567 3.6-3.5 3.6S24 37.388 24 35.4V24.6zm3.5-1.8c-.966 0-1.75.806-1.75 1.8v10.8c0 .994.784 1.8 1.75 1.8s1.75-.806 1.75-1.8V24.6c0-.994-.784-1.8-1.75-1.8zm5.5-7.2c0-1.988 1.567-3.6 3.5-3.6s3.5 1.612 3.5 3.6v19.8c0 1.988-1.567 3.6-3.5 3.6S33 37.388 33 35.4V15.6zm3.5-1.8c-.967 0-1.75.806-1.75 1.8v19.8c0 .994.783 1.8 1.75 1.8s1.75-.806 1.75-1.8V15.6c0-.994-.783-1.8-1.75-1.8z" fill="#000"/><path d="M50 36.5C50 43.956 43.956 50 36.5 50S23 43.956 23 36.5 29.044 23 36.5 23 50 29.044 50 36.5z" fill="#fff"/><path fill-rule="evenodd" clip-rule="evenodd" d="M36.5 48.3c6.517 0 11.8-5.283 11.8-11.8s-5.283-11.8-11.8-11.8-11.8 5.283-11.8 11.8 5.283 11.8 11.8 11.8zm0 1.7C43.956 50 50 43.956 50 36.5S43.956 23 36.5 23 23 29.044 23 36.5 29.044 50 36.5 50z" fill="#000"/><path d="M46.76 37.639c-.052.293-.092.59-.16.88-.182.774-.49 1.484-1.072 2.042-.416.4-.907.637-1.486.648-2.65.05-5.3.028-7.95.032-.265 0-.367.154-.28.414.028.084.09.061.142.062.36.002.72 0 1.08 0 1.345 0 2.69.003 4.033-.003.16 0 .205.044.205.207-.002.824-.014 1.646-.096 2.468-.037.366-.246.53-.517.682-.723.405-1.506.623-2.312.765-.73.128-1.467.187-2.208.156-.806-.033-1.595-.158-2.347-.473-.816-.343-1.26-.976-1.42-1.839-.32-1.736-.265-3.456.221-5.156.094-.328.238-.632.411-.924.254-.428.663-.598 1.111-.703.727-.168 1.464-.173 2.205-.141.842.035 1.683.094 2.526.058.508-.022 1.011-.09 1.488-.285.853-.349 1.288-1.04 1.486-1.915.179-.79.288-1.591.348-2.4.013-.18.062-.235.248-.232 1.839.037 3.384 1.194 3.992 3.002.159.47.278.95.316 1.447.003.037.024.073.036.108v1.1z" fill="#EBB803"/><path d="M27 35.323c.052-.288.092-.578.159-.862.178-.764.49-1.458 1.068-2 .451-.422.984-.657 1.6-.67 2.573-.053 5.145-.026 7.717-.034.086 0 .22.05.249-.036.04-.117.015-.258.01-.388-.001-.053-.051-.049-.089-.05h-.154c-1.666 0-3.331-.003-4.997.003-.16.001-.203-.042-.2-.204.008-.785.004-1.568.072-2.352.034-.397.21-.634.544-.813.724-.388 1.498-.61 2.296-.752.73-.13 1.467-.188 2.207-.157.805.034 1.594.157 2.348.47.867.359 1.288 1.046 1.45 1.95.2 1.128.211 2.259.087 3.396a8.595 8.595 0 01-.455 2.014c-.28.77-.802 1.19-1.597 1.311-.646.099-1.29.124-1.94.098-.873-.035-1.747-.098-2.622-.06a4.61 4.61 0 00-1.304.228c-.798.274-1.3.834-1.548 1.642-.243.795-.35 1.617-.464 2.437l-.031.213c-.043.313-.044.324-.344.303-1.332-.09-2.373-.705-3.12-1.824-.526-.789-.806-1.67-.904-2.615-.006-.05-.025-.1-.038-.15v-1.099z" fill="#8EB0FC"/><path d="M36.091 40.391c-.27 0-.703.08-.976.485-.262.389-.19.809-.109 1.048m1.085-1.533l-1.085 1.533s0 0 0 0m1.085-1.533h2.147c1.934.003 3.86.005 5.788-.032.332-.006.626-.134.913-.41h0c.422-.405.674-.943.834-1.625.04-.172.066-.33.096-.516l.041-.243v-.88a1.005 1.005 0 01-.033-.189m-9.786 3.895s0 0 0 0v.476l9.786-4.37m-10.871 5.427a.92.92 0 00.953.643h.001a142.31 142.31 0 00.837 0h.238l.939.001c.813 0 1.628 0 2.443-.002m-5.411-.642l5.411.642m0 0a20.85 20.85 0 01-.084 1.71c-.02.013-.048.03-.089.053h0c-.608.341-1.288.537-2.044.67h0a9.414 9.414 0 01-2.025.144c-.744-.031-1.425-.144-2.054-.408-.514-.216-.797-.586-.912-1.21h0c-.299-1.616-.246-3.202.202-4.768h0c.068-.239.177-.475.325-.724.075-.127.2-.221.572-.308.612-.142 1.255-.15 1.977-.12h0l.479.022c.677.032 1.4.067 2.119.036h0c.554-.024 1.167-.1 1.773-.347l-.239 5.25zm-3.076-5.47s0 0 0 0l.012-.293a78.626 78.626 0 01-.532-.024h0l-.5-.023a10.123 10.123 0 00-1.541.03s0 0 0 0c-.222.024-.444.06-.664.111-.158.037-.31.081-.452.142 0 0 0 0 0 0a1.348 1.348 0 00-.66.56l4.337-.503zm0 0l.012-.293c.497.02.995.032 1.493.011.189-.008.377-.023.563-.048m-2.068.33l2.068-.33m-2.068.33c.502.02 1.007.012 1.516-.035 0 0 0 0 0 0a9.81 9.81 0 00.586-.072l-.034-.223m-2.068.33l2.068-.33m-11.559-.463c.011.044.025.106.033.178v.002c.087.83.329 1.576.766 2.232l-.799-2.412zm0 0v-.905l.04-.237c.03-.182.057-.338.096-.507h0c.155-.662.406-1.182.822-1.572l-.958 3.22zm9.662-3.696c-.773.002-1.543.002-2.31 0-1.79 0-3.571-.003-5.357.034h0c-.39.008-.726.15-1.036.44l8.703-.474zm0 0c.022.003.084.011.149.013a.994.994 0 00.415-.071.916.916 0 00.52-.552l.001-.002a1.38 1.38 0 00.067-.486 3.24 3.24 0 00-.007-.133v-.003a1.856 1.856 0 01-.004-.068.899.899 0 00-.615-.824.959.959 0 00-.246-.046l-.065-.002m-.215 2.174l-2.288-1.7c.775.002 1.548.002 2.317 0h.019c.074.001.142.01.161.013 0 0 0 0 0 0l.01-.486h-.004m0 0a5.924 5.924 0 00-.142-.001H36.49c-1.09 0-2.18-.001-3.272.002m4.509-.002h.007l-.012.487h.003l.021.003-4.528-.488m0 0c.006-.56.017-1.095.064-1.631h0a.368.368 0 01.014-.082.378.378 0 01.084-.056l-.162 1.768zm12.66 6.061a5.13 5.13 0 00-.275-1.242c-.434-1.288-1.427-2.145-2.642-2.366a16.37 16.37 0 01-.312 1.914l3.228 1.694zm-8.431-8.639h0a9.273 9.273 0 00-2.022.145l2.022-.144zm0 0c.743.031 1.425.144 2.058.406h0m-2.058-.405l2.058.405m0 0c.53.22.813.615.937 1.313l-.937-1.313zm1.017 4.468h0c.117-1.07.105-2.118-.08-3.155l.08 3.155zm0 0a7.75 7.75 0 01-.41 1.817l.41-1.817zm.55 9.833h-.003.003zm-4.21-7.19c-.687-.033-1.42-.068-2.147-.035l5.398-.79c-.098.268-.22.427-.344.53-.126.102-.305.188-.583.23h0a9.262 9.262 0 01-1.777.089h0l-.546-.025zm-2.147-.035a5.446 5.446 0 00-1.543.272l1.543-.272zm-1.543.272c-1.077.37-1.764 1.152-2.084 2.198h0c-.236.772-.353 1.562-.454 2.289-.826-.168-1.477-.622-1.985-1.383l4.523-3.104zm3.629.61l-.457-.02 4.7-1.763s0 0 0 0c-.04.134-.084.267-.132.4-.178.49-.455.838-.837 1.058 0 0 0 0 0 0a2.169 2.169 0 01-.76.253c-.165.026-.33.046-.494.062l-.011-.246s0 0 0 0l.01.246c-.48.046-.96.055-1.445.036a73.409 73.409 0 01-.574-.026h0zm.688-3.617h.003-.003zm-4.196-3.879l.002-.002-.002.002zm-.732 1.711s0 0 0 0h0zm8.095 6.88c1.184-.485 1.754-1.457 1.993-2.514l-1.993 2.514zm-7.276-8.65c.62-.332 1.3-.531 2.045-.664l-2.045.665z" stroke="#000" stroke-width="1.7"/></svg>