<svg width="50" height="50" fill="none" xmlns="http://www.w3.org/2000/svg"><path fill="#E75F63" d="M15 41h20v4H15z"/><circle cx="25" cy="27" r="4" fill="#E75F63"/><path d="M24.984 3.986a1 1 0 00-.17.018 22.864 22.864 0 00-11.14 2.984 1 1 0 00-.34.196 23.137 23.137 0 00-8.146 8.146 1 1 0 00-.202.348 22.868 22.868 0 00-2.982 11.127 1 1 0 00.004.4c.044 5 1.683 9.63 4.44 13.387a1 1 0 101.613-1.184c-.234-.318-.45-.65-.664-.98l1.75-1.028a1 1 0 10-1.014-1.724l-1.754 1.031A20.855 20.855 0 014.04 28H6a1 1 0 100-2H4.025c.145-3.1.971-6.014 2.315-8.62l1.705.985a1 1 0 101-1.73L7.34 15.65a21.043 21.043 0 016.31-6.31l.985 1.705a1 1 0 101.73-1l-.984-1.705A20.882 20.882 0 0124 6.025V8a1.002 1.002 0 001.386.937A1 1 0 0026 8V6.025c3.101.145 6.016.972 8.62 2.315l-.985 1.705a1 1 0 101.73 1l.985-1.705a21.03 21.03 0 016.31 6.31l-1.705.985a.998.998 0 00-.135 1.684 1 1 0 001.135.046l1.705-.984A20.887 20.887 0 0145.975 26H44a1 1 0 100 2h1.959a20.855 20.855 0 01-2.338 8.707l-1.754-1.031a1 1 0 10-1.014 1.724l1.75 1.028c-.215.33-.43.662-.663.98a.998.998 0 00.214 1.399 1 1 0 001.399-.215 22.908 22.908 0 004.44-13.381 1 1 0 00.003-.395 22.87 22.87 0 00-2.99-11.154l-.002-.004a1 1 0 00-.18-.308 23.13 23.13 0 00-8.164-8.17l-.004-.004a1 1 0 00-.324-.184 22.87 22.87 0 00-11.145-2.988h-.003a1 1 0 00-.2-.018zm13.791 14.657l-11.048 4.18A4.954 4.954 0 0025 22c-2.751 0-5 2.252-5 5s2.249 5 5 5 5-2.252 5-5c0-.03-.003-.058-.004-.088L39 19l-.225-.357zM25 24c1.671 0 3 1.33 3 3 0 1.668-1.33 3-3 3s-3-1.332-3-3 1.33-3 3-3zM14.998 40a1 1 0 00-1 1v3.998a1 1 0 001 1h20.004a1 1 0 001-1V41a1 1 0 00-1-1H14.998zm1 2h18.004v1.998H15.998V42z" fill="#000"/></svg>