<svg width="50" height="50" fill="none" xmlns="http://www.w3.org/2000/svg"><path d="M28 26.5c-2.8 2.4-4.833 1-5.5 0-1.2-1.6.167-3.333 1-4l15.5-6c-2.5 2.333-8.2 7.6-11 10z" fill="#E75F63"/><path d="M25 2C12.354 2 2 12.354 2 25c0 12.645 10.354 23 23 23 12.645 0 23-10.355 23-23C48 12.354 37.645 2 25 2zm0 2c11.554 0 21 9.445 21 21 0 11.554-9.446 21-21 21-11.555 0-21-9.446-21-21C4 13.445 13.445 4 25 4zm-.016 1.879A1 1 0 0024 6.895v2.058a1 1 0 102 0V6.895a1 1 0 00-1.016-1.016zM15.893 8.3a1 1 0 00-.795 1.525l1.074 1.791a1 1 0 101.715-1.03l-1.075-1.79a1 1 0 00-.92-.496zm18.185 0a1 1 0 00-.89.496l-1.075 1.79a1 1 0 101.715 1.03l1.074-1.79a1 1 0 00-.824-1.526zM9.36 14.844a1 1 0 00-.455 1.863l1.791 1.074a.998.998 0 001.534-.701 1 1 0 00-.506-1.014l-1.791-1.074a1 1 0 00-.573-.148zM40.027 15a1.002 1.002 0 00-.386.066l-15.989 6.162a1 1 0 00-.466.372C21.931 22.267 21 23.475 21 25a4 4 0 004 4c.69 0 1.258-.32 1.82-.62a1 1 0 00.69-.24l13.144-11.384A1 1 0 0040.027 15zm-5.01 3.992l-8.699 7.535a1.019 1.019 0 00-.08.055c-.34.263-.748.418-1.238.418-1.19 0-2-.81-2-2 0-.943.53-1.616 1.33-1.88a.985.985 0 00.152-.067l10.536-4.06zM7 23.894a1 1 0 100 2h2.06a1 1 0 100-2H7zm33.94 0a1 1 0 100 2H43a1 1 0 100-2h-2.06zm-29.704 7.963a1 1 0 00-.54.149l-1.792 1.076a1.001 1.001 0 101.03 1.715l1.79-1.076a1 1 0 00-.488-1.864zm27.498 0a1 1 0 00-.459 1.864l1.791 1.076a1 1 0 101.03-1.715l-1.791-1.076a1 1 0 00-.57-.149z" fill="#000"/></svg>