<svg width="50" height="50" fill="none" xmlns="http://www.w3.org/2000/svg"><path d="M17.5 32.5L5 24.5H3l9-14 13-6 15.5 6 6 12.5-7 14.5-14.5 9-7.5-14z" fill="#CFD1DA"/><path d="M25 2c-.977 0-1.779.762-1.84 1.725L13.126 8.727a1.85 1.85 0 00-1.006-.287c-1.017 0-1.84.823-1.84 1.84 0 .327.108.625.259.891L3.898 22.24H3.84a1.839 1.839 0 100 3.68c.327 0 .625-.108.891-.259L15.8 32.303v.057c0 .995.794 1.808 1.782 1.84l5.866 10.982a1.854 1.854 0 00-.288.978 1.839 1.839 0 003.68.029L38.8 39.46c.27.158.586.259.92.259 1.017 0 1.84-.823 1.84-1.84 0-.41-.147-.787-.374-1.093l5.175-11.816c.92-.1 1.639-.862 1.639-1.811s-.719-1.71-1.639-1.811l-4.255-9.976c.227-.306.374-.683.374-1.093 0-1.017-.823-1.84-1.84-1.84-.41 0-.787.147-1.093.374L26.811 3.58A1.83 1.83 0 0025 2zm1.121 3.306L38.83 10.54c.115.82.758 1.448 1.581 1.552l4.284 9.976a1.838 1.838 0 00-.374 1.093c0 .41.147.787.374 1.093L39.52 36.07c-.913.1-1.625.848-1.639 1.782L25.92 44.58a1.862 1.862 0 00-.863-.259l-5.864-10.983c.176-.283.287-.618.287-.977 0-1.017-.823-1.84-1.84-1.84-.327 0-.625.108-.891.259L5.68 24.137v-.057c0-.334-.1-.65-.259-.92l6.641-11.04h.058c.978 0 1.779-.762 1.84-1.725l10.005-5.031a1.862 1.862 0 002.156-.058z" fill="#000"/><g clip-path="url(#clip0_1903_2520)"><path d="M30 47V30h17v17H30zm10.098-2.98c.016.034.027.058.04.081.219.402.514.736.892.995.454.31.96.475 1.505.534a3.78 3.78 0 001.603-.145c.989-.322 1.527-1.084 1.513-2.126-.01-.773-.328-1.378-.96-1.82a5.902 5.902 0 00-.976-.536c-.326-.147-.657-.284-.978-.441a1.625 1.625 0 01-.394-.276c-.295-.28-.291-.972.298-1.136.42-.116.796-.019 1.084.328.079.094.144.2.222.308l1.233-.791c-.005-.016-.007-.026-.012-.035-.265-.46-.611-.836-1.11-1.042-.602-.248-1.227-.273-1.854-.123-.618.149-1.103.489-1.403 1.063-.192.368-.246.764-.218 1.174.032.47.178.895.486 1.258.286.337.648.574 1.042.76.396.189.803.355 1.2.542.161.076.32.169.46.278.25.19.326.457.254.757-.067.281-.272.447-.535.524-.659.193-1.253.078-1.742-.428-.13-.134-.236-.292-.36-.448l-1.29.746zm-5.641.173c.265.552.647.98 1.205 1.222.728.316 1.476.326 2.222.073.575-.194.964-.593 1.18-1.16.135-.358.176-.731.176-1.11V37.9c0-.031-.003-.062-.005-.093h-1.597v.125l-.001 5.22c0 .14-.009.28-.029.418-.033.225-.11.441-.328.545-.341.163-.688.165-1.013-.052-.168-.111-.276-.278-.38-.446-.042-.068-.082-.138-.127-.213l-1.303.788z" fill="#fff"/><path d="M30 47V30h17v17H30zm10.098-2.98c.016.034.027.058.04.081.219.402.514.736.892.995.454.31.96.475 1.505.534a3.78 3.78 0 001.603-.145c.989-.322 1.527-1.084 1.513-2.126-.01-.773-.328-1.378-.96-1.82a5.902 5.902 0 00-.976-.536c-.326-.147-.657-.284-.978-.441a1.625 1.625 0 01-.394-.276c-.295-.28-.291-.972.298-1.136.42-.116.796-.019 1.084.328.079.094.144.2.222.308l1.233-.791c-.005-.016-.007-.026-.012-.035-.265-.46-.611-.836-1.11-1.042-.602-.248-1.227-.273-1.854-.123-.618.149-1.103.489-1.403 1.063-.192.368-.246.764-.218 1.174.032.47.178.895.486 1.258.286.337.648.574 1.042.76.396.189.803.355 1.2.542.161.076.32.169.46.278.25.19.326.457.254.757-.067.281-.272.447-.535.524-.659.193-1.253.078-1.742-.428-.13-.134-.236-.292-.36-.448l-1.29.746zm-5.641.173c.265.552.647.98 1.205 1.222.728.316 1.476.326 2.222.073.575-.194.964-.593 1.18-1.16.135-.358.176-.731.176-1.11V37.9c0-.031-.003-.062-.005-.093h-1.597v.125l-.001 5.22c0 .14-.009.28-.029.418-.033.225-.11.441-.328.545-.341.163-.688.165-1.013-.052-.168-.111-.276-.278-.38-.446-.042-.068-.082-.138-.127-.213l-1.303.788z" fill="#EBB803"/><path d="M40.098 44.02l1.29-.745c.124.156.23.314.36.448.489.506 1.083.62 1.742.428.262-.077.467-.243.535-.524.072-.3-.004-.566-.253-.757a2.553 2.553 0 00-.462-.278c-.396-.187-.803-.353-1.199-.541-.394-.187-.756-.424-1.042-.762-.308-.362-.454-.787-.486-1.257-.029-.41.026-.806.218-1.174.3-.574.785-.914 1.403-1.063.627-.15 1.251-.125 1.853.123.5.206.846.582 1.11 1.042.006.009.007.02.013.035l-1.233.791c-.078-.108-.143-.214-.222-.309-.288-.346-.664-.443-1.084-.327-.59.164-.593.857-.298 1.136.115.11.252.206.394.276.321.157.652.294.978.44.34.153.67.322.975.536.633.443.95 1.048.96 1.822.014 1.04-.523 1.803-1.512 2.125a3.793 3.793 0 01-1.603.145 3.226 3.226 0 01-1.505-.534 2.827 2.827 0 01-.893-.995c-.013-.023-.023-.047-.039-.08zm-5.641.173l1.303-.788.128.213c.103.168.211.335.379.446.325.217.672.215 1.013.052.218-.104.295-.32.328-.545.02-.138.029-.279.029-.418.002-1.74 0-3.48 0-5.22v-.125h1.598c.002.03.005.062.005.093v5.317c0 .379-.04.752-.177 1.11-.215.567-.604.965-1.179 1.16-.746.253-1.494.243-2.222-.073-.558-.242-.94-.67-1.205-1.222z" fill="#000"/></g><path stroke="#000" stroke-width="1.7" d="M29.15 29.15h18.7v18.7h-18.7z"/><defs><clipPath id="clip0_1903_2520"><path fill="#fff" d="M30 30h17v17H30z"/></clipPath></defs></svg>