<svg width="50" height="50" viewBox="0 0 50 50" fill="none" xmlns="http://www.w3.org/2000/svg">
<path d="M15.155 27.9253L30.7867 2.55509C30.8468 2.45766 30.9969 2.52114 30.9688 2.63208L26.664 19.6451C26.6434 19.7266 26.7264 19.7956 26.8028 19.7604L32.757 17.0151C32.8474 16.9734 32.9366 17.0752 32.8834 17.1594L28.6866 23.7938C28.6377 23.871 28.7096 23.968 28.7978 23.9436L34.7517 22.2965C34.8396 22.2722 34.9115 22.3686 34.8631 22.446L18.7471 48.1676C18.6831 48.2697 18.5266 48.1924 18.5686 48.0796L25.2491 30.1584C25.2785 30.0796 25.2034 30.0019 25.1236 30.0287L18.4922 32.2524C18.403 32.2823 18.3256 32.1836 18.3759 32.1041L22.5803 25.4576C22.6318 25.3762 22.5498 25.2763 22.4599 25.3108L15.276 28.0711C15.1866 28.1054 15.1048 28.0067 15.155 27.9253Z" fill="#55C1F6"/>
<path fill-rule="evenodd" clip-rule="evenodd" d="M28.9455 7.16413L17.0431 26.4816L22.1553 24.5173C23.0091 24.1893 23.7879 25.139 23.2989 25.912L20.2221 30.7758L24.8536 29.2228C25.6112 28.9687 26.3249 29.7065 26.0458 30.4553L21.9387 41.4731L33.1181 23.6304L29.0246 24.7628C28.1873 24.9944 27.504 24.0736 27.9685 23.3393L30.8086 18.8495L27.1589 20.5323C26.4335 20.8668 25.6442 20.211 25.8402 19.4366L28.9455 7.16413ZM30.0633 2.1092C30.6336 1.18359 32.0598 1.78658 31.7931 2.84057L27.8736 18.3308L32.4013 16.2432C33.2608 15.8469 34.1079 16.8139 33.6019 17.6138L30.4437 22.6064L34.5252 21.4772C35.3606 21.2461 36.0438 22.1627 35.5836 22.8972L19.4676 48.6189C18.86 49.5886 17.3727 48.8548 17.7724 47.7827L23.9039 31.3343L18.7627 33.0582C17.915 33.3425 17.1799 32.4052 17.6578 31.6497L20.6522 26.916L15.581 28.8645C14.7326 29.1905 13.9547 28.2533 14.4315 27.4794L30.0633 2.1092ZM24.4527 29.862C24.4527 29.8619 24.4526 29.8622 24.4527 29.862Z" fill="white"/>
</svg>
