<svg width="50" height="50" viewBox="0 0 50 50" fill="none" xmlns="http://www.w3.org/2000/svg">
<g clip-path="url(#clip0_14_10)">
<mask id="mask0_14_10" style="mask-type:luminance" maskUnits="userSpaceOnUse" x="0" y="0" width="50" height="50">
<path d="M50 0H0V50H50V0Z" fill="white"/>
</mask>
<g mask="url(#mask0_14_10)">
<path d="M29.0195 33.4522C30.4765 33.4522 31.6577 32.271 31.6577 30.814C31.6577 29.357 30.4765 28.1758 29.0195 28.1758C27.5625 28.1758 26.3813 29.357 26.3813 30.814C26.3813 32.271 27.5625 33.4522 29.0195 33.4522Z" fill="#FF371A"/>
<path d="M16.3564 23.9548C17.8134 23.9548 18.9946 22.7736 18.9946 21.3166C18.9946 19.8596 17.8134 18.6784 16.3564 18.6784C14.8994 18.6784 13.7183 19.8596 13.7183 21.3166C13.7183 22.7736 14.8994 23.9548 16.3564 23.9548Z" fill="#FF371A"/>
<path d="M3.69334 38.7285C5.15035 38.7285 6.3315 37.5473 6.3315 36.0903C6.3315 34.6333 5.15035 33.4521 3.69334 33.4521C2.23632 33.4521 1.05518 34.6333 1.05518 36.0903C1.05518 37.5473 2.23632 38.7285 3.69334 38.7285Z" fill="#FF371A"/>
<path fill-rule="evenodd" clip-rule="evenodd" d="M49.2352 9C49.818 9 50.2905 9.47246 50.2905 10.0553V16.0247C50.2905 16.6075 49.818 17.08 49.2352 17.08C48.6524 17.08 48.1799 16.6075 48.1799 16.0247V12.6863L32.4293 29.3915C32.6122 29.8293 32.7132 30.3098 32.7132 30.814C32.7132 32.8538 31.0596 34.5074 29.0197 34.5074C26.9799 34.5074 25.3263 32.8538 25.3263 30.814C25.3263 30.4732 25.3725 30.1432 25.4588 29.8299L18.7792 24.1045C18.1307 24.6685 17.2835 25.01 16.3566 25.01C15.8776 25.01 15.42 24.9188 15 24.7529L6.71215 33.9617C7.13716 34.5633 7.38684 35.2976 7.38684 36.0903C7.38684 38.1301 5.73324 39.7837 3.69342 39.7837C1.6536 39.7837 0 38.1301 0 36.0903C0 34.0504 1.6536 32.3968 3.69342 32.3968C4.17229 32.3968 4.62987 32.488 5.04978 32.6539L13.3377 23.445C12.9128 22.8434 12.6632 22.1091 12.6632 21.3166C12.6632 19.2768 14.3168 17.6232 16.3566 17.6232C18.3964 17.6232 20.05 19.2768 20.05 21.3166C20.05 21.6573 20.0039 21.9872 19.9175 22.3005L26.5972 28.0259C27.2457 27.462 28.0928 27.1205 29.0197 27.1205C29.7821 27.1205 30.4905 27.3515 31.0788 27.7473L46.7649 11.1105H43.2657C42.6829 11.1105 42.2105 10.6381 42.2105 10.0553C42.2105 9.47246 42.6829 9 43.2657 9H49.2352ZM16.3566 22.8995C17.2308 22.8995 17.9395 22.1908 17.9395 21.3166C17.9395 20.4424 17.2308 19.7337 16.3566 19.7337C15.4824 19.7337 14.7737 20.4424 14.7737 21.3166C14.7737 22.1908 15.4824 22.8995 16.3566 22.8995ZM3.69342 37.6732C4.56763 37.6732 5.27632 36.9645 5.27632 36.0903C5.27632 35.2161 4.56763 34.5074 3.69342 34.5074C2.81921 34.5074 2.11053 35.2161 2.11053 36.0903C2.11053 36.9645 2.81921 37.6732 3.69342 37.6732ZM30.6026 30.814C30.6026 31.6882 29.8939 32.3968 29.0197 32.3968C28.1455 32.3968 27.4368 31.6882 27.4368 30.814C27.4368 29.9397 28.1455 29.2311 29.0197 29.2311C29.8939 29.2311 30.6026 29.9397 30.6026 30.814Z" fill="white"/>
</g>
</g>
<defs>
<clipPath id="clip0_14_10">
<rect width="50" height="50" fill="white"/>
</clipPath>
</defs>
</svg>
