<svg width="300" height="300" viewBox="0 0 300 300" fill="none" xmlns="http://www.w3.org/2000/svg">
<g opacity="0.58">
<g clip-path="url(#clip0_2117_4597)">
<rect width="195.776" height="10.7065" transform="translate(17 31)" fill="#404258"/>
<path fill-rule="evenodd" clip-rule="evenodd" d="M22.7355 37.5004C23.369 37.5004 23.8826 36.9868 23.8826 36.3532C23.8826 35.7197 23.369 35.2061 22.7355 35.2061C22.102 35.2061 21.5884 35.7197 21.5884 36.3532C21.5884 36.9868 22.102 37.5004 22.7355 37.5004Z" fill="#ED6A5E"/>
<path fill-rule="evenodd" clip-rule="evenodd" d="M26.5592 37.5004C27.1928 37.5004 27.7064 36.9869 27.7064 36.3533C27.7064 35.7198 27.1928 35.2062 26.5592 35.2062C25.9257 35.2062 25.4121 35.7198 25.4121 36.3533C25.4121 36.9869 25.9257 37.5004 26.5592 37.5004Z" fill="#F4BF4F"/>
<path fill-rule="evenodd" clip-rule="evenodd" d="M30.383 37.5004C31.0165 37.5004 31.5301 36.9869 31.5301 36.3533C31.5301 35.7198 31.0165 35.2062 30.383 35.2062C29.7494 35.2062 29.2358 35.7198 29.2358 36.3533C29.2358 36.9869 29.7494 37.5004 30.383 37.5004Z" fill="#61C554"/>
<path d="M68.3339 35.9326C68.3339 35.5028 68.3339 35.1861 68.3544 34.9358C68.3748 34.6867 68.4148 34.5118 68.4902 34.364C68.6276 34.0941 68.847 33.8748 69.1168 33.7373C69.2647 33.662 69.4396 33.6219 69.6887 33.6015C69.9389 33.5811 70.2556 33.581 70.6855 33.581H157.561C157.991 33.581 158.308 33.5811 158.558 33.6015C158.807 33.6219 158.982 33.662 159.13 33.7373C159.4 33.8748 159.619 34.0941 159.756 34.364C159.832 34.5118 159.872 34.6867 159.892 34.9358C159.913 35.1861 159.913 35.5028 159.913 35.9326V36.7739C159.913 37.2037 159.913 37.5204 159.892 37.7706C159.872 38.0198 159.832 38.1947 159.756 38.3425C159.619 38.6123 159.4 38.8317 159.13 38.9692C158.982 39.0445 158.807 39.0846 158.558 39.1049C158.308 39.1254 157.991 39.1255 157.561 39.1255H70.6855C70.2556 39.1255 69.9389 39.1254 69.6887 39.1049C69.4396 39.0846 69.2647 39.0445 69.1168 38.9692C68.847 38.8317 68.6276 38.6123 68.4902 38.3425C68.4148 38.1947 68.3748 38.0198 68.3544 37.7706C68.3339 37.5204 68.3339 37.2037 68.3339 36.7739V35.9326Z" fill="#404258"/>
<path d="M68.3339 35.9326C68.3339 35.5028 68.3339 35.1861 68.3544 34.9358C68.3748 34.6867 68.4148 34.5118 68.4902 34.364C68.6276 34.0941 68.847 33.8748 69.1168 33.7373C69.2647 33.662 69.4396 33.6219 69.6887 33.6015C69.9389 33.5811 70.2556 33.581 70.6855 33.581H157.561C157.991 33.581 158.308 33.5811 158.558 33.6015C158.807 33.6219 158.982 33.662 159.13 33.7373C159.4 33.8748 159.619 34.0941 159.756 34.364C159.832 34.5118 159.872 34.6867 159.892 34.9358C159.913 35.1861 159.913 35.5028 159.913 35.9326V36.7739C159.913 37.2037 159.913 37.5204 159.892 37.7706C159.872 38.0198 159.832 38.1947 159.756 38.3425C159.619 38.6123 159.4 38.8317 159.13 38.9692C158.982 39.0445 158.807 39.0846 158.558 39.1049C158.308 39.1254 157.991 39.1255 157.561 39.1255H70.6855C70.2556 39.1255 69.9389 39.1254 69.6887 39.1049C69.4396 39.0846 69.2647 39.0445 69.1168 38.9692C68.847 38.8317 68.6276 38.6123 68.4902 38.3425C68.4148 38.1947 68.3748 38.0198 68.3544 37.7706C68.3339 37.5204 68.3339 37.2037 68.3339 36.7739V35.9326Z" stroke="#404258" stroke-width="0.191188"/>
<rect x="17" y="41.7065" width="195.776" height="0.191188" fill="#404258"/>
<rect x="17" y="41.8977" width="195.776" height="115.718" fill="white"/>
</g>
<rect x="17" y="31" width="195.776" height="126.616" rx="3.059" stroke="#404258" stroke-width="1.064"/>
<rect x="78.7119" y="85.264" width="124.488" height="61.712" rx="3.192" fill="#007BFF" fill-opacity="0.5"/>
<rect x="161.704" y="101.224" width="32.984" height="31.92" rx="3.192" fill="#007BFF"/>
</g>
<g clip-path="url(#clip1_2117_4597)">
<rect x="87.2241" y="153.258" width="195.776" height="115.718" fill="white"/>
<mask id="mask0_2117_4597" style="mask-type:alpha" maskUnits="userSpaceOnUse" x="87" y="153" width="196" height="116">
<rect x="87.2241" y="153.258" width="195.776" height="115.718" fill="white"/>
</mask>
<g mask="url(#mask0_2117_4597)">
<rect x="87" y="153.488" width="196" height="115" rx="3.192" fill="#007BFF" fill-opacity="0.5"/>
</g>
<rect x="218" y="183.488" width="51" height="60" rx="3.192" fill="#007BFF"/>
</g>
<rect x="87.2241" y="153.258" width="195.776" height="115.718" stroke="#404258" stroke-width="1.06"/>
<path d="M235.752 132.194C235.752 115.527 223.387 104.825 215.968 104.416C246.634 104.416 251.003 124.841 251.415 132.194H261.72L243.584 150.168L225.448 132.194H235.752Z" fill="#EBB803"/>
<defs>
<clipPath id="clip0_2117_4597">
<rect x="17" y="31" width="195.776" height="126.616" rx="3.059" fill="white"/>
</clipPath>
<clipPath id="clip1_2117_4597">
<rect x="87.2241" y="153.258" width="195.776" height="115.718" fill="white"/>
</clipPath>
</defs>
</svg>
