<svg xmlns="http://www.w3.org/2000/svg" xmlns:xlink="http://www.w3.org/1999/xlink" height="60" width="600"><g fill="#464646"><path d="M18 36v6h6v-6h-6zm4 4h-2v-2h2v2zm14-22v6h6v-6h-6zm4 4h-2v-2h2v2z"/><path d="M23.142 39.145l-2.285-2.29 16-15.998 2.285 2.285zM100 24.565l-2.096 14.83L83.07 42 76 28.773 86.463 18zM140 20h20v20h-20zm81 10c0 6.078-4.926 11-11 11s-11-4.922-11-11c0-6.074 4.926-11 11-11s11 4.926 11 11zm49-11a9 9 0 00-9 9c0 4.971 5.001 12 9 14 4.001-2 9-9.029 9-14a9 9 0 00-9-9zm0 12.5a4.5 4.5 0 110-9 4.5 4.5 0 010 9z"/><g id="a" fill="#464646" fill-opacity="1"><path d="M337 30.156v6.011a3 3 0 01-3 3h-10a3 3 0 01-3-3v-10c0-1.657 1.345-3 3-3h6.345l3.19-3.17H324a6 6 0 00-6 6v10a6 6 0 006 6h10a6 6 0 006-6v-8.809l-3 2.968"/><path d="M338.72 24.637l-8.892 8.892H327V30.7l8.89-8.89z"/><path d="M338.697 17.826h4v4h-4z" transform="rotate(-134.99 340.703 19.817)"/></g><path d="M381 42h18V24h-18v18zm14-16h2v14h-2V26zm-4 0h2v14h-2V26zm-4 0h2v14h-2V26zm-4 0h2v14h-2V26zm12-6v-4h-10v4h-6v2h22v-2h-6zm-2 0h-6v-2h6v2z" id="b" fill="#464646" fill-opacity="1"/></g><g transform="translate(120)" fill="#bbb"><use xlink:href="#a" width="100%" height="100%"/><use xlink:href="#b" width="100%" height="100%"/></g><path d="M581.657 30c0 6.078-4.926 11-11 11s-11-4.922-11-11c0-6.074 4.926-11 11-11s11 4.926 11 11z" fill="none" stroke="#464646" stroke-width="2"/></svg>