<svg width="50" height="50" viewBox="0 0 50 50" fill="none" xmlns="http://www.w3.org/2000/svg">
<path fill-rule="evenodd" clip-rule="evenodd" d="M41.6665 6.25002H8.33317C7.18258 6.25002 6.24984 7.18276 6.24984 8.33335V41.6667C6.24984 42.8173 7.18258 43.75 8.33317 43.75H41.6665C42.8171 43.75 43.7498 42.8173 43.7498 41.6667V8.33335C43.7498 7.18276 42.8171 6.25002 41.6665 6.25002ZM8.33317 4.16669C6.03198 4.16669 4.1665 6.03217 4.1665 8.33335V41.6667C4.1665 43.9679 6.03199 45.8334 8.33317 45.8334H41.6665C43.9677 45.8334 45.8332 43.9679 45.8332 41.6667V8.33335C45.8332 6.03217 43.9677 4.16669 41.6665 4.16669H8.33317Z" fill="white"/>
<path d="M17.4481 21.3745V29.187C17.4481 29.5329 17.1429 29.8381 16.797 29.8381C16.4308 29.8381 16.146 29.5329 16.146 29.187V23.5107L13.4198 27.5798C13.1756 27.946 12.5856 27.946 12.3415 27.5798L9.63558 23.5107V29.1667C9.63558 29.5329 9.3304 29.8177 8.98454 29.8177C8.61833 29.8177 8.3335 29.5329 8.3335 29.1667V21.3542C8.3335 21.0693 8.5166 20.8252 8.78109 20.7438C9.06592 20.6624 9.35075 20.7642 9.51351 21.0083L12.8908 26.0539L16.2477 21.0083C16.4105 20.7642 16.6953 20.6624 16.9801 20.7438C17.2446 20.8252 17.4481 21.0693 17.4481 21.3745Z" fill="white"/>
<path d="M26.2768 28.2511C26.9685 27.4577 27.3958 26.4201 27.3958 25.2604C27.3958 22.758 25.3409 20.7031 22.8385 20.7031C20.3564 20.7031 18.2812 22.758 18.2812 25.2604C18.2812 27.7832 20.3157 29.8177 22.8182 29.8177C23.7133 29.8177 24.5475 29.5532 25.2596 29.1056L26.2158 30.245C26.3378 30.4077 26.521 30.4891 26.7244 30.4891C27.1517 30.4891 27.3754 30.1025 27.3754 29.8381C27.3754 29.6753 27.3144 29.5329 27.2127 29.4108L26.2768 28.2511ZM22.8385 28.5156C21.0278 28.5156 19.5833 27.0711 19.5833 25.2604C19.5833 23.4701 21.0278 22.0256 22.8385 22.0256C24.6289 22.0256 26.0937 23.4904 26.0937 25.2604C26.0937 26.0132 25.8292 26.6846 25.4223 27.2339L23.9778 25.5046C23.8558 25.3418 23.6726 25.2604 23.4692 25.2604C23.042 25.2604 22.8385 25.647 22.8385 25.9115C22.8385 26.0742 22.8792 26.2166 22.9809 26.3387L24.4254 28.0884C23.9575 28.3529 23.4082 28.5156 22.8385 28.5156Z" fill="white"/>
<path d="M34.7918 21.3745C34.7918 21.7204 34.4867 22.0256 34.1408 22.0256H31.5366V29.187C31.5366 29.5329 31.2314 29.8177 30.8856 29.8177C30.5194 29.8177 30.2345 29.5329 30.2345 29.187V22.0256H27.6304C27.2642 22.0256 26.9793 21.7204 26.9793 21.3745C26.9793 21.0083 27.2642 20.7235 27.6304 20.7235H34.1408C34.4867 20.7235 34.7918 21.0083 34.7918 21.3745Z" fill="white"/>
<path d="M42.8127 21.3745C42.8127 21.7204 42.5075 22.0256 42.1616 22.0256H39.5575V29.187C39.5575 29.5329 39.2523 29.8177 38.9064 29.8177C38.5402 29.8177 38.2554 29.5329 38.2554 29.187V22.0256H35.6512C35.285 22.0256 35.0002 21.7204 35.0002 21.3745C35.0002 21.0083 35.285 20.7235 35.6512 20.7235H42.1616C42.5075 20.7235 42.8127 21.0083 42.8127 21.3745Z" fill="white"/>
</svg>
