<svg width="50" height="50" fill="none" xmlns="http://www.w3.org/2000/svg"><path fill="#EBB803" d="M1 15h47v20H1z"/><path d="M2 14c-1.093 0-2 .907-2 2v18c0 1.093.907 2 2 2h46c1.093 0 2-.907 2-2V16c0-1.093-.907-2-2-2H2zm0 2h46v18H2V16z" fill="#000"/><path d="M9.723 29H8.076v-6.205a5.677 5.677 0 01-2.127 1.248v-1.494c.43-.14.897-.406 1.4-.797.505-.395.85-.854 1.038-1.377h1.336V29zm2.777-1.646h1.646v1.177c0 .477-.04.852-.123 1.125a1.672 1.672 0 01-.468.744c-.227.22-.516.391-.867.516l-.323-.68c.332-.109.569-.26.71-.45.14-.192.214-.454.222-.786H12.5v-1.646zm8.59.116V29h-5.772c.063-.578.25-1.125.563-1.64.312-.52.93-1.208 1.851-2.063.743-.692 1.198-1.16 1.366-1.406.226-.34.34-.676.34-1.008 0-.367-.1-.649-.3-.844-.195-.2-.466-.299-.814-.299-.344 0-.617.104-.82.31-.203.208-.32.552-.352 1.032l-1.64-.164c.097-.906.404-1.557.92-1.951.515-.395 1.16-.592 1.933-.592.848 0 1.514.229 1.998.686.485.457.727 1.025.727 1.705 0 .386-.07.756-.211 1.107a4.438 4.438 0 01-.656 1.096c-.2.254-.559.619-1.078 1.095-.52.477-.85.793-.99.95a2.933 2.933 0 00-.335.457h3.27zm3.902-7.095c.832 0 1.483.297 1.951.89.559.704.838 1.87.838 3.499 0 1.625-.281 2.793-.843 3.504-.465.585-1.114.878-1.946.878-.836 0-1.51-.32-2.021-.96-.512-.645-.768-1.791-.768-3.44 0-1.617.281-2.781.844-3.492.465-.586 1.113-.879 1.945-.879zm0 1.365a.814.814 0 00-.533.194c-.156.125-.277.351-.363.68-.114.425-.17 1.142-.17 2.15s.05 1.7.152 2.08c.102.375.229.625.381.75a.83.83 0 00.533.187.83.83 0 00.533-.187c.157-.13.278-.358.364-.686.113-.422.17-1.137.17-2.144 0-1.008-.051-1.7-.153-2.075-.101-.378-.23-.63-.386-.755a.792.792 0 00-.528-.194z" fill="#000"/></svg>