<svg width="50" height="50" viewBox="0 0 50 50" fill="none" xmlns="http://www.w3.org/2000/svg">
<path fill-rule="evenodd" clip-rule="evenodd" d="M0.833496 8.33331C0.833496 7.64296 1.39314 7.08331 2.0835 7.08331H22.9168C23.2484 7.08331 23.5663 7.21501 23.8007 7.44943L35.259 18.9078C35.7472 19.3959 35.7472 20.1874 35.259 20.6755L32.4971 23.4375L37.3424 28.2828C37.8305 28.7709 37.8305 29.5624 37.3424 30.0505C36.8542 30.5387 36.0628 30.5387 35.5746 30.0505L30.7293 25.2052L25.7263 30.2083L31.0924 35.5744C31.5805 36.0626 31.5805 36.854 31.0924 37.3422C30.6042 37.8304 29.8128 37.8304 29.3246 37.3422L23.9585 31.9761L20.6757 35.2589C20.1876 35.747 19.3961 35.747 18.9079 35.2589L7.44961 23.8005C7.21519 23.5661 7.0835 23.2482 7.0835 22.9166V17.7083C7.0835 17.018 7.64314 16.4583 8.3335 16.4583C9.02385 16.4583 9.5835 17.018 9.5835 17.7083V22.3989L19.7918 32.6072L32.6074 19.7916L22.3991 9.58331H2.0835C1.39314 9.58331 0.833496 9.02367 0.833496 8.33331ZM36.6163 15.7828C37.1044 15.2946 37.8959 15.2946 38.384 15.7828L43.5924 20.9911C43.8268 21.2255 43.9585 21.5435 43.9585 21.875V36.4583C43.9585 37.1487 43.3989 37.7083 42.7085 37.7083C42.0181 37.7083 41.4585 37.1487 41.4585 36.4583V22.3927L36.6163 17.5505C36.1281 17.0624 36.1281 16.2709 36.6163 15.7828ZM15.7829 35.5744C16.2711 35.0863 17.0626 35.0863 17.5507 35.5744L23.4346 41.4583H46.8752C47.5655 41.4583 48.1252 42.018 48.1252 42.7083C48.1252 43.3987 47.5655 43.9583 46.8752 43.9583H22.9168C22.5853 43.9583 22.2674 43.8266 22.0329 43.5922L15.7829 37.3422C15.2948 36.854 15.2948 36.0626 15.7829 35.5744Z" fill="white"/>
</svg>
