<svg width="50" height="50" fill="none" xmlns="http://www.w3.org/2000/svg"><path fill-rule="evenodd" clip-rule="evenodd" d="M.833 8.333c0-.69.56-1.25 1.25-1.25h20.834c.331 0 .65.132.884.366l11.458 11.459a1.25 1.25 0 010 1.767l-2.762 2.762 4.845 4.846a1.25 1.25 0 01-1.767 1.767l-4.846-4.845-5.003 5.003 5.366 5.366a1.25 1.25 0 01-1.767 1.768l-5.366-5.366-3.283 3.283a1.25 1.25 0 01-1.768 0L7.45 23.8a1.25 1.25 0 01-.367-.883v-5.209a1.25 1.25 0 012.5 0v4.69l10.209 10.21 12.815-12.816L22.4 9.583H2.083c-.69 0-1.25-.56-1.25-1.25zm35.783 7.45a1.25 1.25 0 011.768 0l5.208 5.208c.235.235.367.553.367.884v14.583a1.25 1.25 0 11-2.5 0V22.393l-4.843-4.843a1.25 1.25 0 010-1.767zM15.783 35.574a1.25 1.25 0 011.768 0l5.884 5.884h23.44a1.25 1.25 0 010 2.5H22.917a1.25 1.25 0 01-.884-.366l-6.25-6.25a1.25 1.25 0 010-1.768z" fill="#fff"/></svg>