<svg width="50" height="50" fill="none" xmlns="http://www.w3.org/2000/svg"><path d="M2.906 13.969a1.17 1.17 0 00-.125.031 1.002 1.002 0 00-.78 1v20c-.005.36.183.695.495.879.313.18.695.18 1.008 0 .312-.184.5-.52.496-.879V15a1 1 0 00-1.094-1.031zm44 0a1.17 1.17 0 00-.125.031 1.002 1.002 0 00-.78 1v20c-.005.36.183.695.495.879.313.18.695.18 1.008 0 .313-.184.5-.52.496-.879V15a1 1 0 00-1.094-1.031zM7 14c-.55 0-1 .45-1 1s.45 1 1 1 1-.45 1-1-.45-1-1-1zm4 0c-.55 0-1 .45-1 1s.45 1 1 1 1-.45 1-1-.45-1-1-1zm4 0c-.55 0-1 .45-1 1s.45 1 1 1 1-.45 1-1-.45-1-1-1zm4 0c-.55 0-1 .45-1 1s.45 1 1 1 1-.45 1-1-.45-1-1-1zm4 0c-.55 0-1 .45-1 1s.45 1 1 1 1-.45 1-1-.45-1-1-1zm4 0c-.55 0-1 .45-1 1s.45 1 1 1 1-.45 1-1-.45-1-1-1zm4 0c-.55 0-1 .45-1 1s.45 1 1 1 1-.45 1-1-.45-1-1-1zm4 0c-.55 0-1 .45-1 1s.45 1 1 1 1-.45 1-1-.45-1-1-1zm4 0c-.55 0-1 .45-1 1s.45 1 1 1 1-.45 1-1-.45-1-1-1zm4 0c-.55 0-1 .45-1 1s.45 1 1 1 1-.45 1-1-.45-1-1-1zM7 34c-.55 0-1 .45-1 1s.45 1 1 1 1-.45 1-1-.45-1-1-1zm4 0c-.55 0-1 .45-1 1s.45 1 1 1 1-.45 1-1-.45-1-1-1zm4 0c-.55 0-1 .45-1 1s.45 1 1 1 1-.45 1-1-.45-1-1-1zm4 0c-.55 0-1 .45-1 1s.45 1 1 1 1-.45 1-1-.45-1-1-1zm4 0c-.55 0-1 .45-1 1s.45 1 1 1 1-.45 1-1-.45-1-1-1zm4 0c-.55 0-1 .45-1 1s.45 1 1 1 1-.45 1-1-.45-1-1-1zm4 0c-.55 0-1 .45-1 1s.45 1 1 1 1-.45 1-1-.45-1-1-1zm4 0c-.55 0-1 .45-1 1s.45 1 1 1 1-.45 1-1-.45-1-1-1zm4 0c-.55 0-1 .45-1 1s.45 1 1 1 1-.45 1-1-.45-1-1-1zm4 0c-.55 0-1 .45-1 1s.45 1 1 1 1-.45 1-1-.45-1-1-1z" fill="#000"/><path fill-rule="evenodd" clip-rule="evenodd" d="M6.066 25.43a1 1 0 010-1.6l4.834-3.628a1 1 0 011.6.8v1.128h26v-1.128a1 1 0 011.6-.8l4.834 3.628a1 1 0 010 1.6L40.1 29.058a1 1 0 01-1.6-.8V27.13h-26v1.128a1 1 0 01-1.6.8L6.066 25.43z" fill="#E75F63"/><path fill-rule="evenodd" clip-rule="evenodd" d="M10.5 23.003L8.332 24.63l2.168 1.628V25.13h30v1.128l2.168-1.628-2.168-1.627v1.127h-30v-1.127zm33.234 2.427h-.001.001zm-37.668-1.6a1 1 0 000 1.6l4.834 3.628a1 1 0 001.6-.8V27.13h26v1.128a1 1 0 001.6.8l4.834-3.628a1 1 0 000-1.6L40.1 20.202a1 1 0 00-1.6.8v1.128h-26v-1.128a1 1 0 00-1.6-.8L6.066 23.83z" fill="#000"/></svg>