<svg width="300" height="300" fill="none" xmlns="http://www.w3.org/2000/svg"><g opacity=".58"><g clip-path="url(#clip0_2117_4593)"><path fill="#404258" d="M17 25.512h195.776v10.707H17z"/><path fill-rule="evenodd" clip-rule="evenodd" d="M22.735 32.012a1.147 1.147 0 100-2.294 1.147 1.147 0 000 2.294z" fill="#ED6A5E"/><path fill-rule="evenodd" clip-rule="evenodd" d="M26.56 32.012a1.147 1.147 0 100-2.294 1.147 1.147 0 000 2.294z" fill="#F4BF4F"/><path fill-rule="evenodd" clip-rule="evenodd" d="M30.383 32.012a1.147 1.147 0 100-2.294 1.147 1.147 0 000 2.294z" fill="#61C554"/><path d="M70.686 28.093h86.875c.43 0 .747 0 .997.02.249.02.424.06.572.136.27.138.489.357.626.627.076.148.116.323.136.572.021.25.021.567.021.997v.84c0 .43 0 .747-.021.998-.02.249-.06.424-.136.572-.137.27-.356.489-.626.626-.148.075-.323.116-.572.136-.25.02-.567.02-.997.02H70.685c-.43 0-.746 0-.996-.02s-.424-.06-.572-.136a1.433 1.433 0 01-.627-.627c-.075-.147-.115-.322-.136-.571-.02-.25-.02-.567-.02-.997v-.841c0-.43 0-.747.02-.997s.06-.424.136-.572c.138-.27.357-.49.627-.627.148-.075.323-.115.572-.136.25-.02.567-.02.997-.02z" fill="#404258"/><path d="M70.686 28.093h86.875c.43 0 .747 0 .997.02.249.02.424.06.572.136.27.138.489.357.626.627.076.148.116.323.136.572.021.25.021.567.021.997v.84c0 .43 0 .747-.021.998-.02.249-.06.424-.136.572-.137.27-.356.489-.626.626-.148.075-.323.116-.572.136-.25.02-.567.02-.997.02H70.685c-.43 0-.746 0-.996-.02s-.424-.06-.572-.136a1.433 1.433 0 01-.627-.627c-.075-.147-.115-.322-.136-.571-.02-.25-.02-.567-.02-.997v-.841c0-.43 0-.747.02-.997s.06-.424.136-.572c.138-.27.357-.49.627-.627.148-.075.323-.115.572-.136.25-.02.567-.02.997-.02z" stroke="#404258" stroke-width=".191"/><path fill="#404258" d="M17 36.218h195.776v.191H17z"/><path fill="#fff" d="M17 36.41h195.776v115.718H17z"/></g><rect x="17" y="25.512" width="195.776" height="126.616" rx="3.059" stroke="#404258" stroke-width="1.064"/><rect x="79" y="57" width="124" height="84" rx="3.192" fill="#007BFF" fill-opacity=".5"/><rect x="162" y="67" width="32.984" height="31.92" rx="3.192" fill="#007BFF"/></g><g clip-path="url(#clip1_2117_4593)"><path fill="#404258" d="M87.224 147.872H283v10.707H87.224z"/><path fill-rule="evenodd" clip-rule="evenodd" d="M92.96 154.372a1.147 1.147 0 100-2.293 1.147 1.147 0 000 2.293z" fill="#ED6A5E"/><path fill-rule="evenodd" clip-rule="evenodd" d="M96.783 154.373a1.148 1.148 0 100-2.295 1.148 1.148 0 000 2.295z" fill="#F4BF4F"/><path fill-rule="evenodd" clip-rule="evenodd" d="M100.607 154.373a1.147 1.147 0 100-2.294 1.147 1.147 0 000 2.294z" fill="#61C554"/><path d="M140.91 150.453h86.875c.43 0 .747 0 .997.021.249.02.424.06.572.135.27.138.489.357.627.627.075.148.115.323.135.572.021.25.021.567.021.997v.841c0 .43 0 .746-.021.997-.02.249-.06.424-.135.572a1.437 1.437 0 01-.627.626c-.148.076-.323.116-.572.136-.25.02-.567.021-.997.021H140.91c-.43 0-.747-.001-.997-.021-.249-.02-.424-.06-.572-.136a1.437 1.437 0 01-.627-.626c-.075-.148-.115-.323-.135-.572-.021-.251-.021-.567-.021-.997v-.841c0-.43 0-.747.021-.997.02-.249.06-.424.135-.572.138-.27.357-.489.627-.627.148-.075.323-.115.572-.135.25-.021.567-.021.997-.021z" fill="#404258"/><path d="M140.91 150.453h86.875c.43 0 .747 0 .997.021.249.02.424.06.572.135.27.138.489.357.627.627.075.148.115.323.135.572.021.25.021.567.021.997v.841c0 .43 0 .746-.021.997-.02.249-.06.424-.135.572a1.437 1.437 0 01-.627.626c-.148.076-.323.116-.572.136-.25.02-.567.021-.997.021H140.91c-.43 0-.747-.001-.997-.021-.249-.02-.424-.06-.572-.136a1.437 1.437 0 01-.627-.626c-.075-.148-.115-.323-.135-.572-.021-.251-.021-.567-.021-.997v-.841c0-.43 0-.747.021-.997.02-.249.06-.424.135-.572.138-.27.357-.489.627-.627.148-.075.323-.115.572-.135.25-.021.567-.021.997-.021z" stroke="#404258" stroke-width=".191"/><path fill="#404258" d="M87.224 158.579H283v.191H87.224z"/><path fill="#fff" d="M87.224 158.77H283v115.718H87.224z"/></g><rect x="87.224" y="147.872" width="195.776" height="126.616" rx="3.059" stroke="#404258" stroke-width="1.064"/><mask id="a" style="mask-type:alpha" maskUnits="userSpaceOnUse" x="87" y="158" width="196" height="117"><path fill="#fff" d="M87.224 158.77H283v115.718H87.224z"/></mask><g mask="url(#a)"><path fill="#007BFF" fill-opacity=".5" d="M87 158h196v134H87z"/></g><rect x="219" y="175" width="51" height="51" rx="3.192" fill="#007BFF"/><rect x="278" y="161" width="3" height="82" rx="1.5" fill="#fff" fill-opacity=".75"/><path d="M235.752 126.706c0-16.667-12.365-27.37-19.784-27.778 30.666 0 35.035 20.425 35.447 27.778h10.305l-18.136 17.974-18.136-17.974h10.304z" fill="#EBB803"/><defs><clipPath id="clip0_2117_4593"><rect x="17" y="25.512" width="195.776" height="126.616" rx="3.059" fill="#fff"/></clipPath><clipPath id="clip1_2117_4593"><rect x="87.224" y="147.872" width="195.776" height="126.616" rx="3.059" fill="#fff"/></clipPath></defs></svg>