<svg width="300" height="300" fill="none" xmlns="http://www.w3.org/2000/svg"><g opacity=".58"><g clip-path="url(#clip0_2117_4598)"><path fill="#404258" d="M17 25.512h195.776v10.707H17z"/><path fill-rule="evenodd" clip-rule="evenodd" d="M22.735 32.012a1.147 1.147 0 100-2.294 1.147 1.147 0 000 2.294z" fill="#ED6A5E"/><path fill-rule="evenodd" clip-rule="evenodd" d="M26.56 32.012a1.147 1.147 0 100-2.294 1.147 1.147 0 000 2.294z" fill="#F4BF4F"/><path fill-rule="evenodd" clip-rule="evenodd" d="M30.383 32.012a1.147 1.147 0 100-2.294 1.147 1.147 0 000 2.294z" fill="#61C554"/><path d="M68.334 30.445c0-.43 0-.747.02-.997s.06-.424.136-.572c.138-.27.357-.49.627-.627.148-.075.323-.115.572-.135.25-.02.567-.02.997-.02h86.875c.43 0 .747 0 .997.02.249.02.424.06.572.135.27.138.489.357.626.627.076.148.116.323.136.572.021.25.021.567.021.997v.84c0 .43 0 .747-.021.998-.02.249-.06.424-.136.572a1.43 1.43 0 01-.626.626c-.148.076-.323.116-.572.136-.25.02-.567.02-.997.02H70.685c-.43 0-.746 0-.996-.02s-.424-.06-.572-.136a1.434 1.434 0 01-.627-.626c-.075-.148-.115-.323-.136-.572-.02-.25-.02-.567-.02-.997v-.841z" fill="#404258"/><path d="M68.334 30.445c0-.43 0-.747.02-.997s.06-.424.136-.572c.138-.27.357-.49.627-.627.148-.075.323-.115.572-.135.25-.02.567-.02.997-.02h86.875c.43 0 .747 0 .997.02.249.02.424.06.572.135.27.138.489.357.626.627.076.148.116.323.136.572.021.25.021.567.021.997v.84c0 .43 0 .747-.021.998-.02.249-.06.424-.136.572a1.43 1.43 0 01-.626.626c-.148.076-.323.116-.572.136-.25.02-.567.02-.997.02H70.685c-.43 0-.746 0-.996-.02s-.424-.06-.572-.136a1.434 1.434 0 01-.627-.626c-.075-.148-.115-.323-.136-.572-.02-.25-.02-.567-.02-.997v-.841z" stroke="#404258" stroke-width=".191"/><path fill="#404258" d="M17 36.218h195.776v.191H17z"/><path fill="#fff" d="M17 36.41h195.776v115.718H17z"/></g><rect x="17" y="25.512" width="195.776" height="126.616" rx="3.059" stroke="#404258" stroke-width="1.064"/><rect x="78.712" y="79.776" width="124.488" height="61.712" rx="3.192" fill="#007BFF" fill-opacity=".5"/><rect x="161.704" y="95.736" width="32.984" height="31.92" rx="3.192" fill="#007BFF"/></g><g clip-path="url(#clip1_2117_4598)"><path fill="#404258" d="M87.224 147.872H283v10.707H87.224z"/><path fill-rule="evenodd" clip-rule="evenodd" d="M92.96 154.372a1.147 1.147 0 100-2.293 1.147 1.147 0 000 2.293z" fill="#ED6A5E"/><path fill-rule="evenodd" clip-rule="evenodd" d="M96.783 154.372a1.147 1.147 0 10.001-2.293 1.147 1.147 0 000 2.293z" fill="#F4BF4F"/><path fill-rule="evenodd" clip-rule="evenodd" d="M100.607 154.372a1.146 1.146 0 10.001-2.293 1.146 1.146 0 00-.001 2.293z" fill="#61C554"/><path d="M138.558 152.805c0-.43 0-.747.021-.997.02-.249.06-.424.135-.572.138-.27.357-.489.627-.627.148-.075.323-.115.572-.135.25-.021.567-.021.997-.021h86.875c.43 0 .747 0 .997.021.249.02.424.06.572.135.27.138.489.357.627.627.075.148.115.323.135.572.021.25.021.567.021.997v.841c0 .43 0 .746-.021.997-.02.249-.06.424-.135.572a1.437 1.437 0 01-.627.626c-.148.076-.323.116-.572.136-.25.02-.567.02-.997.02H140.91c-.43 0-.747 0-.997-.02-.249-.02-.424-.06-.572-.136a1.437 1.437 0 01-.627-.626c-.075-.148-.115-.323-.135-.572-.021-.251-.021-.567-.021-.997v-.841z" fill="#404258"/><path d="M138.558 152.805c0-.43 0-.747.021-.997.02-.249.06-.424.135-.572.138-.27.357-.489.627-.627.148-.075.323-.115.572-.135.25-.021.567-.021.997-.021h86.875c.43 0 .747 0 .997.021.249.02.424.06.572.135.27.138.489.357.627.627.075.148.115.323.135.572.021.25.021.567.021.997v.841c0 .43 0 .746-.021.997-.02.249-.06.424-.135.572a1.437 1.437 0 01-.627.626c-.148.076-.323.116-.572.136-.25.02-.567.02-.997.02H140.91c-.43 0-.747 0-.997-.02-.249-.02-.424-.06-.572-.136a1.437 1.437 0 01-.627-.626c-.075-.148-.115-.323-.135-.572-.021-.251-.021-.567-.021-.997v-.841z" stroke="#404258" stroke-width=".191"/><path fill="#404258" d="M87.224 158.579H283v.191H87.224z"/><path fill="#fff" d="M87.224 158.77H283v115.718H87.224z"/></g><rect x="87.224" y="147.872" width="195.776" height="126.616" rx="3.059" stroke="#404258" stroke-width="1.064"/><mask id="a" style="mask-type:alpha" maskUnits="userSpaceOnUse" x="87" y="158" width="196" height="117"><path fill="#fff" d="M87.224 158.77H283v115.718H87.224z"/></mask><g mask="url(#a)"><path fill="#007BFF" fill-opacity=".5" d="M87 177h196v97H87z"/></g><rect x="219" y="201" width="51" height="51" rx="3.192" fill="#007BFF"/><path d="M235.752 126.706c0-16.667-12.365-27.37-19.784-27.778 30.666 0 35.035 20.425 35.447 27.778h10.305l-18.136 17.974-18.136-17.974h10.304z" fill="#EBB803"/><path d="M110.427 170.616v-3.82c-.711.546-1.19.818-1.436.818a.434.434 0 01-.315-.138.461.461 0 01-.134-.328c0-.142.044-.247.134-.314.089-.068.248-.154.474-.261.339-.159.609-.327.811-.504.204-.176.384-.373.541-.592.157-.218.259-.352.307-.403.047-.05.137-.075.268-.075.149 0 .268.057.357.172.09.115.135.273.135.474v4.808c0 .562-.192.844-.576.844a.528.528 0 01-.411-.173c-.104-.114-.155-.284-.155-.508zm6.597-4.832l-1.176 4.841a5.073 5.073 0 01-.105.378.436.436 0 01-.134.214c-.059.053-.146.08-.26.08-.286 0-.429-.124-.429-.37 0-.064.028-.225.084-.483l1.172-4.841c.061-.257.12-.433.176-.529.056-.095.165-.142.328-.142.139 0 .246.033.319.1.075.068.113.16.113.277 0 .087-.029.245-.088.475zm3.813 4.417h2.192c.218 0 .385.045.5.134a.44.44 0 01.172.365.479.479 0 01-.139.349c-.089.095-.227.143-.411.143h-3.09c-.21 0-.374-.058-.492-.172a.567.567 0 01-.176-.412c0-.101.038-.234.113-.399.076-.168.159-.299.248-.394.372-.387.708-.717 1.008-.991.299-.277.513-.459.642-.546.23-.162.42-.325.571-.487.154-.165.27-.333.349-.504.081-.174.121-.343.121-.508a.89.89 0 00-.13-.479.867.867 0 00-.348-.331.988.988 0 00-.479-.118c-.367 0-.655.161-.865.483a2.252 2.252 0 00-.143.344 1.369 1.369 0 01-.222.433c-.081.1-.202.151-.361.151a.473.473 0 01-.349-.139.51.51 0 01-.138-.378c0-.193.043-.394.13-.604.087-.21.216-.4.386-.571.174-.171.392-.308.655-.412a2.51 2.51 0 01.932-.159c.429 0 .794.067 1.096.201a1.662 1.662 0 01.861.916 1.79 1.79 0 01-.135 1.587 2.95 2.95 0 01-.524.667c-.179.16-.48.412-.903.756-.42.344-.708.612-.865.802a2.305 2.305 0 00-.206.273z" fill="#050038"/><path fill-rule="evenodd" clip-rule="evenodd" d="M132.52 163.449a.679.679 0 01.96 0l4.071 4.071a.679.679 0 010 .96l-4.071 4.071a.679.679 0 01-.96-.959l3.592-3.592-3.592-3.592a.678.678 0 010-.959z" fill="#050038"/><path fill-rule="evenodd" clip-rule="evenodd" d="M96.32 168a.68.68 0 01.68-.68h7a.68.68 0 010 1.36h-7a.68.68 0 01-.68-.68z" fill="#5F5C80"/><path fill-rule="evenodd" clip-rule="evenodd" d="M128.32 168a.68.68 0 01.68-.68h7a.68.68 0 010 1.36h-7a.68.68 0 01-.68-.68z" fill="#050038"/><path fill-rule="evenodd" clip-rule="evenodd" d="M100.551 163.449a.678.678 0 00-.96 0l-4.07 4.071a.679.679 0 000 .96l4.07 4.071a.678.678 0 00.96-.959L96.96 168l3.591-3.592a.678.678 0 000-.959z" fill="#5F5C80"/><defs><clipPath id="clip0_2117_4598"><rect x="17" y="25.512" width="195.776" height="126.616" rx="3.059" fill="#fff"/></clipPath><clipPath id="clip1_2117_4598"><rect x="87.224" y="147.872" width="195.776" height="126.616" rx="3.059" fill="#fff"/></clipPath></defs></svg>