<svg width="50" height="50" fill="none" xmlns="http://www.w3.org/2000/svg"><path d="M15.155 27.925l15.632-25.37c.06-.097.21-.034.182.077l-4.305 17.013a.1.1 0 00.139.115l5.954-2.745c.09-.042.18.06.126.144l-4.196 6.635a.1.1 0 00.11.15l5.955-1.647a.1.1 0 01.111.149L18.747 48.168c-.064.102-.22.024-.178-.088l6.68-17.922a.1.1 0 00-.125-.13l-6.632 2.224a.1.1 0 01-.116-.148l4.204-6.646a.1.1 0 00-.12-.147l-7.184 2.76a.1.1 0 01-.121-.146z" fill="#3B9281"/><path fill-rule="evenodd" clip-rule="evenodd" d="M28.945 7.164L17.044 26.482l5.112-1.965c.854-.328 1.633.622 1.144 1.395l-3.077 4.864 4.632-1.553a.95.95 0 011.192 1.232L21.94 41.473 33.12 23.63l-4.094 1.133-.227-.82.227.82c-.838.231-1.521-.69-1.056-1.424l2.84-4.49-3.65 1.683-.356-.772.356.772a.95.95 0 01-1.319-1.095l3.105-12.273zM18.222 31.446h.001zm-3.25-4.168zm15.09-25.169c.57-.925 1.997-.322 1.73.732l-3.92 15.49 4.528-2.088c.86-.396 1.707.57 1.2 1.37l-.717-.454.718.455-3.158 4.992 4.081-1.129c.836-.23 1.519.686 1.059 1.42L19.468 48.62c-.608.97-2.095.236-1.696-.836l6.132-16.449-5.141 1.724c-.848.285-1.583-.653-1.105-1.408l.718.454-.718-.454 2.994-4.734-5.071 1.948c-.848.326-1.626-.61-1.15-1.385L30.063 2.11zm-5.61 27.753l.703.262-.703-.262zm4.952-5.614z" fill="#fff"/></svg>