<svg width="50" height="50" fill="none" xmlns="http://www.w3.org/2000/svg"><g clip-path="url(#clip0_2104_3535)"><circle cx="29.02" cy="30.814" r="2.638" fill="#4A6BB7"/><circle cx="16.356" cy="21.317" r="2.638" fill="#4A6BB7"/><circle cx="3.693" cy="36.09" r="2.638" fill="#4A6BB7"/><path fill-rule="evenodd" clip-rule="evenodd" d="M49.235 9c.583 0 1.056.472 1.056 1.055v5.97a1.055 1.055 0 01-2.111 0v-3.339L32.43 29.392a3.693 3.693 0 11-6.97.438l-6.68-5.725a3.68 3.68 0 01-2.423.905A3.68 3.68 0 0115 24.753l-8.288 9.209a3.693 3.693 0 11-1.662-1.308l8.288-9.209a3.693 3.693 0 116.58-1.145l6.68 5.726a3.68 3.68 0 012.422-.905c.762 0 1.47.23 2.059.626L46.765 11.11h-3.5a1.055 1.055 0 110-2.11h5.97zM16.357 22.9a1.583 1.583 0 100-3.166 1.583 1.583 0 000 3.165zM3.693 37.672a1.583 1.583 0 100-3.166 1.583 1.583 0 000 3.166zm26.91-6.859a1.583 1.583 0 11-3.166 0 1.583 1.583 0 013.166 0z" fill="#fff"/></g><defs><clipPath id="clip0_2104_3535"><path fill="#fff" d="M0 0h50v50H0z"/></clipPath></defs></svg>