<svg width="50" height="50" fill="none" xmlns="http://www.w3.org/2000/svg"><path fill-rule="evenodd" clip-rule="evenodd" d="M19.49 14.225a.85.85 0 011.162-.305l13.193 7.71 4.702-2.756a.85.85 0 01.86 1.467l-5.131 3.008a.85.85 0 01-.859 0l-13.623-7.961a.85.85 0 01-.305-1.163zm22.7 6.195a.85.85 0 01-.31 1.162l-6.695 3.868 5.105 2.977a.85.85 0 01-.857 1.469l-6.369-3.716a.85.85 0 01.003-1.47l7.962-4.6a.85.85 0 011.16.31zm-24.915-4.863a.85.85 0 011.168-.282l9 5.5a.85.85 0 01.009 1.445l-7.13 4.477a.85.85 0 01-.882.014l-9.369-5.477a.85.85 0 11.858-1.468l8.924 5.217 5.533-3.473-7.83-4.785a.85.85 0 01-.281-1.168zm9.23 8.101a.85.85 0 01.864-.01l10.792 6.192a.85.85 0 01.428.737v3.155a.85.85 0 01-1.7 0v-2.663l-9.93-5.697-3.277 1.989 9.517 5.304a.85.85 0 01.436.743V37a.85.85 0 11-1.7 0v-3.093l-10.357-5.772a.85.85 0 01-.027-1.47l4.954-3.007z" fill="#fff"/><path fill-rule="evenodd" clip-rule="evenodd" d="M6.752 21.597a.85.85 0 011.15-.346l7.062 3.8a.85.85 0 01.031 1.48L9.75 29.645V32a.85.85 0 01-1.7 0v-2.838c0-.3.158-.578.416-.731l4.37-2.595-5.739-3.087a.85.85 0 01-.345-1.152zm9.846 4.538a.85.85 0 01.876-.003l13.623 8.138a.85.85 0 01.414.73v3a.85.85 0 11-1.7 0v-2.518l-12.77-7.628-4.991 3.025v3.236a.85.85 0 01-1.7 0V30.4a.85.85 0 01.41-.727l5.838-3.538z" fill="#fff"/><path fill-rule="evenodd" clip-rule="evenodd" d="M24.4 11.263a.85.85 0 01.83-.009l23 12.562a.85.85 0 01.026 1.477l-23 13.623a.85.85 0 01-.856.006L1.577 25.83a.85.85 0 010-1.475L24.4 11.263zm.433 1.711L3.708 25.092l21.108 12.109 21.289-12.61-21.272-11.617z" fill="#fff"/><path fill-rule="evenodd" clip-rule="evenodd" d="M48 23.712c.47 0 .85.38.85.85V28a.85.85 0 01-.413.729l-23.177 13.9a.85.85 0 01-.86.008L1.577 29.545a.85.85 0 01-.427-.737v-3.716a.85.85 0 111.7 0v3.223l21.963 12.6L47.15 27.518v-2.957c0-.47.38-.85.85-.85z" fill="#fff"/><path fill-rule="evenodd" clip-rule="evenodd" d="M24.15 42v-4h1.7v4h-1.7z" fill="#fff"/><path d="M33.5 25.5l.5-8 6.5 2.5 7.5-3.5v8l-8.5 4-6-3z" fill="#fff"/><path d="M34 25.5V17l7-4 7 2.5v9L40 29l-6-3.5z" fill="#C89000"/><path fill-rule="evenodd" clip-rule="evenodd" d="M40.64 12.23a.85.85 0 01.695-.011l7 3a.85.85 0 01.515.781v8.5a.85.85 0 01-.422.735l-7.902 4.602a.85.85 0 01-.836.011l-6.597-3.602a.85.85 0 01-.443-.746v-9c0-.33.191-.63.49-.77l7.5-3.5zm.375 1.701l-5.577 2.603 4.668 2.38 5.855-2.863-4.946-2.12zm6.135 3.43l-6.202 3.033v7.23l6.202-3.613v-6.65zM39.248 27.67v-7.286l-4.898-2.497v7.109l4.898 2.674z" fill="#fff"/></svg>