<svg width="50" height="50" fill="none" xmlns="http://www.w3.org/2000/svg"><path fill="#E75F63" d="M1 15h47v20H1z"/><path d="M2 14c-1.093 0-2 .907-2 2v18c0 1.093.907 2 2 2h46c1.093 0 2-.907 2-2V16c0-1.093-.907-2-2-2H2zm0 2h46v18H2V16z" fill="#fff"/><path d="M6.12 29v-8.494h1.729v7.051h4.3V29h-6.03zm6.876-3.19c0-.545.134-1.073.403-1.583s.648-.9 1.14-1.168a3.406 3.406 0 011.653-.404c.938 0 1.707.306 2.307.918.6.607.9 1.377.9 2.307 0 .939-.304 1.718-.912 2.337-.603.616-1.365.923-2.284.923a3.62 3.62 0 01-1.63-.385 2.652 2.652 0 01-1.174-1.128c-.269-.498-.403-1.104-.403-1.817zm1.682.088c0 .615.146 1.087.438 1.414.293.327.653.49 1.081.49.429 0 .787-.163 1.075-.49.292-.328.438-.803.438-1.426 0-.607-.146-1.075-.438-1.402a1.375 1.375 0 00-1.075-.49 1.39 1.39 0 00-1.08.49c-.293.327-.439.798-.439 1.414zM22.261 29H20.62v-6.204h1.525v.882c.26-.417.494-.692.7-.824a1.31 1.31 0 01.713-.198c.374 0 .735.103 1.081.31l-.508 1.43c-.277-.179-.534-.268-.771-.268a.902.902 0 00-.584.192c-.16.125-.287.353-.38.684-.09.331-.135 1.024-.135 2.08V29zm6.684-1.975l1.636.275c-.21.6-.544 1.057-1 1.373-.451.311-1.018.467-1.7.467-1.078 0-1.877-.352-2.395-1.057-.409-.565-.613-1.278-.613-2.138 0-1.029.269-1.833.806-2.413.538-.584 1.217-.877 2.039-.877.923 0 1.651.306 2.185.918.534.607.789 1.54.765 2.798h-4.113c.012.487.145.867.398 1.14.253.268.568.402.946.402.257 0 .473-.07.649-.21.175-.14.307-.366.397-.678zm.093-1.659c-.011-.475-.134-.835-.368-1.08a1.125 1.125 0 00-.853-.375c-.358 0-.654.131-.888.392-.233.26-.348.615-.344 1.063h2.453zm2.852-2.57h1.512v.847c.542-.658 1.186-.988 1.934-.988.397 0 .742.082 1.034.246.292.163.532.41.719.742.272-.331.566-.579.882-.742a2.164 2.164 0 011.01-.245c.456 0 .842.093 1.157.28.316.183.551.454.707.812.113.265.17.693.17 1.285V29h-1.642v-3.546c0-.616-.056-1.013-.17-1.192-.151-.234-.385-.35-.7-.35-.23 0-.446.07-.649.21-.203.14-.349.346-.438.62-.09.268-.134.694-.134 1.278V29H35.64v-3.4c0-.604-.03-.993-.088-1.169a.74.74 0 00-.274-.391c-.121-.086-.287-.128-.497-.128-.253 0-.48.068-.683.204a1.136 1.136 0 00-.439.59c-.085.257-.128.684-.128 1.28V29h-1.642v-6.204z" fill="#fff"/></svg>