<svg width="50" height="50" viewBox="0 0 50 50" fill="none" xmlns="http://www.w3.org/2000/svg">
<path fill-rule="evenodd" clip-rule="evenodd" d="M15.9601 1.84998C15.7668 1.84998 15.6101 2.00668 15.6101 2.19998V12.0127C15.6101 12.206 15.7668 12.3627 15.9601 12.3627H22.4401C22.4677 12.3627 22.4901 12.3851 22.4901 12.4127V20.5234C22.4901 20.551 22.4677 20.5734 22.4401 20.5734H7.3601C7.1668 20.5734 7.0101 20.7301 7.0101 20.9234V31.5872C7.0101 31.6148 6.98771 31.6372 6.9601 31.6372H2.2001C2.0068 31.6372 1.8501 31.7939 1.8501 31.9872V41.8C1.8501 41.9933 2.0068 42.15 2.2001 42.15H13.8401C14.0334 42.15 14.1901 41.9933 14.1901 41.8V31.9872C14.1901 31.7939 14.0334 31.6372 13.8401 31.6372H9.0801C9.05248 31.6372 9.0301 31.6148 9.0301 31.5872V22.6255C9.0301 22.5979 9.05248 22.5755 9.0801 22.5755H22.4401C22.4677 22.5755 22.4901 22.5979 22.4901 22.6255V31.5872C22.4901 31.6148 22.4677 31.6372 22.4401 31.6372H17.6801C17.4868 31.6372 17.3301 31.7939 17.3301 31.9872V41.8C17.3301 41.9933 17.4868 42.15 17.6801 42.15H29.3201C29.5134 42.15 29.6701 41.9933 29.6701 41.8V31.9872C29.6701 31.7939 29.5134 31.6372 29.3201 31.6372H24.5601C24.5325 31.6372 24.5101 31.6148 24.5101 31.5872V22.6255C24.5101 22.5979 24.5325 22.5755 24.5601 22.5755H37.9201C37.9477 22.5755 37.9701 22.5979 37.9701 22.6255V31.5872C37.9701 31.6148 37.9477 31.6372 37.9201 31.6372H33.1601C32.9668 31.6372 32.8101 31.7939 32.8101 31.9872V41.8C32.8101 41.9933 32.9668 42.15 33.1601 42.15H44.8001C44.9934 42.15 45.1501 41.9933 45.1501 41.8V31.9872C45.1501 31.7939 44.9934 31.6372 44.8001 31.6372H40.0401C40.0125 31.6372 39.9901 31.6148 39.9901 31.5872V20.9234C39.9901 20.7301 39.8334 20.5734 39.6401 20.5734H24.5601C24.5325 20.5734 24.5101 20.551 24.5101 20.5234V12.4127C24.5101 12.3851 24.5325 12.3627 24.5601 12.3627H31.0401C31.2334 12.3627 31.3901 12.206 31.3901 12.0127V2.19998C31.3901 2.00667 31.2334 1.84998 31.0401 1.84998H15.9601ZM17.6301 3.9021C17.6301 3.87449 17.6525 3.8521 17.6801 3.8521H29.3201C29.3477 3.8521 29.3701 3.87449 29.3701 3.9021V10.3106C29.3701 10.3382 29.3477 10.3606 29.3201 10.3606H23.7144C23.7107 10.3606 23.7051 10.3601 23.6971 10.3582C23.6105 10.3379 23.5203 10.3285 23.4288 10.3332C23.4072 10.3343 23.3843 10.3377 23.361 10.3445C23.3476 10.3484 23.3349 10.3526 23.3231 10.3567C23.3147 10.3597 23.3079 10.3606 23.3029 10.3606H17.6801C17.6525 10.3606 17.6301 10.3382 17.6301 10.3106V3.9021ZM3.8701 33.6893C3.8701 33.6617 3.89248 33.6393 3.9201 33.6393H12.1201C12.1477 33.6393 12.1701 33.6617 12.1701 33.6893V40.0979C12.1701 40.1255 12.1477 40.1479 12.1201 40.1479H3.9201C3.89248 40.1479 3.8701 40.1255 3.8701 40.0979V33.6893ZM19.3501 33.6893C19.3501 33.6617 19.3725 33.6393 19.4001 33.6393H27.6001C27.6277 33.6393 27.6501 33.6617 27.6501 33.6893V40.0979C27.6501 40.1255 27.6277 40.1479 27.6001 40.1479H19.4001C19.3725 40.1479 19.3501 40.1255 19.3501 40.0979V33.6893ZM34.8301 33.6893C34.8301 33.6617 34.8525 33.6393 34.8801 33.6393H43.0801C43.1077 33.6393 43.1301 33.6617 43.1301 33.6893V40.0979C43.1301 40.1255 43.1077 40.1479 43.0801 40.1479H34.8801C34.8525 40.1479 34.8301 40.1255 34.8301 40.0979V33.6893Z" fill="black"/>
<path d="M48 36.5C48 42.8513 42.8513 48 36.5 48C30.1487 48 25 42.8513 25 36.5C25 30.1487 30.1487 25 36.5 25C42.8513 25 48 30.1487 48 36.5Z" fill="#E75F63"/>
<path fill-rule="evenodd" clip-rule="evenodd" d="M36.5 46.5762C42.0649 46.5762 46.5762 42.0649 46.5762 36.5C46.5762 30.9351 42.0649 26.4238 36.5 26.4238C30.9351 26.4238 26.4238 30.9351 26.4238 36.5C26.4238 42.0649 30.9351 46.5762 36.5 46.5762ZM36.5 48C42.8513 48 48 42.8513 48 36.5C48 30.1487 42.8513 25 36.5 25C30.1487 25 25 30.1487 25 36.5C25 42.8513 30.1487 48 36.5 48Z" fill="black"/>
<path d="M39.826 35.1008C39.826 31.4696 36.875 30.5047 35.158 30.4762C31.5319 30.4762 30.4901 33.388 30.4901 35.1008C30.4901 35.8716 30.1101 38.7117 33.307 41.2669C36.1998 43.5792 40.1842 42.1711 41.15 41.2291C41.9226 40.4754 42.1917 40.8406 42.5941 41.0578C42.9116 41.2291 43.2425 41.7429 43.5644 41.486C43.8558 41.2534 42.8843 39.7254 42.8843 39.7254L41.9185 38.3551C41.5116 37.8413 41.1047 37.3274 40.8677 37.4987C40.5853 37.7029 40.7068 38.0126 40.8677 38.5264C41.0287 39.0402 41.0332 39.7254 39.826 39.9823C38.6187 40.2392 39.037 38.774 39.1016 38.5264C39.2581 37.9269 39.826 36.471 39.826 35.1008Z" fill="white"/>
<path fill-rule="evenodd" clip-rule="evenodd" d="M32.032 32.5761C31.4307 33.3698 31.2023 34.3655 31.2023 35.1007C31.2023 35.1796 31.1996 35.2683 31.1966 35.3664C31.1826 35.8279 31.1622 36.4971 31.3872 37.3287C31.6535 38.3129 32.275 39.5304 33.7517 40.7108C35.0069 41.714 36.516 41.9266 37.865 41.7617C38.538 41.6794 39.155 41.5044 39.6531 41.2992C40.1647 41.0886 40.5026 40.8663 40.6532 40.7194C41.0877 40.2956 41.5529 40.011 42.0913 40.072C42.1597 40.0797 42.224 40.0927 42.284 40.1089L41.6404 39.1958C41.6199 39.3474 41.5768 39.5045 41.5009 39.6611C41.2384 40.2029 40.6934 40.5256 39.9745 40.6786C39.5558 40.7677 39.105 40.7419 38.7462 40.4508C38.4052 40.1741 38.307 39.784 38.2791 39.5177C38.2281 39.031 38.3699 38.5067 38.4072 38.3687C38.4096 38.3596 38.4116 38.3522 38.4131 38.3466C38.457 38.1782 38.5185 37.9802 38.5869 37.7596C38.8126 37.0318 39.1144 36.0589 39.1144 35.1007C39.1144 33.5101 38.4832 32.575 37.715 32.0115C36.9143 31.424 35.906 31.2017 35.1523 31.1881C33.5626 31.1896 32.6085 31.8151 32.032 32.5761ZM42.8846 39.7253L43.4853 39.3434L43.4762 39.3291L42.4892 37.9287L42.457 37.888C42.2688 37.6503 42.0382 37.3589 41.8173 37.1513C41.706 37.0466 41.5447 36.9117 41.3465 36.8299C41.1251 36.7385 40.7745 36.6879 40.451 36.9217C40.3819 36.9717 40.3172 37.0291 40.2594 37.0943C40.4106 36.4807 40.5382 35.7758 40.5382 35.1007C40.5382 33.0602 39.6939 31.6973 38.5573 30.8635C37.4554 30.0551 36.1328 29.7804 35.1702 29.7644L35.1583 29.7643C33.1255 29.7643 31.7473 30.5941 30.8971 31.7162C30.071 32.8066 29.7785 34.1231 29.7785 35.1007C29.7785 35.1479 29.7763 35.2105 29.7736 35.287C29.7579 35.7305 29.7259 36.6401 30.0128 37.7006C30.3557 38.9679 31.1426 40.448 32.8628 41.823C34.5005 43.132 36.43 43.3715 38.0378 43.175C38.8432 43.0765 39.5842 42.8674 40.1952 42.6158C40.7927 42.3698 41.3151 42.0628 41.6473 41.7386C41.8018 41.588 41.8973 41.525 41.945 41.4998C41.9489 41.5019 41.9531 41.5043 41.9577 41.5069C41.9862 41.523 42.015 41.5407 42.0595 41.5683L42.0742 41.5774C42.1219 41.6069 42.1858 41.6462 42.2564 41.6843C42.2552 41.6836 42.2647 41.6888 42.2879 41.7061C42.3107 41.7231 42.3381 41.7454 42.375 41.7766C42.3856 41.7856 42.398 41.7962 42.4118 41.8081C42.4758 41.8629 42.5698 41.9435 42.6604 42.0091C42.7693 42.0879 42.9554 42.2086 43.195 42.252C43.4782 42.3033 43.7675 42.2349 44.0088 42.0424C44.2859 41.8212 44.3277 41.5131 44.3309 41.3582C44.3343 41.1918 44.2994 41.035 44.266 40.9178C44.1973 40.6764 44.0791 40.4159 43.9701 40.1989C43.8572 39.9742 43.7364 39.7611 43.6452 39.6064C43.5993 39.5284 43.5601 39.4638 43.532 39.4183L43.4988 39.3647L43.4894 39.3498L43.4867 39.3455L43.4853 39.3434C43.4853 39.3433 43.4853 39.3434 42.8846 39.7253ZM39.9998 38.023C39.9664 38.1318 39.9349 38.2322 39.9065 38.3226C39.8552 38.4859 39.8141 38.6167 39.7908 38.7062C39.7888 38.7138 39.7866 38.7219 39.7844 38.7305C39.7661 38.7996 39.7402 38.8982 39.7193 39.0172C39.7021 39.1159 39.6925 39.207 39.6917 39.283C39.9253 39.232 40.0599 39.1692 40.1331 39.1217C40.2017 39.0771 40.2166 39.0465 40.2195 39.0403C40.2301 39.0184 40.2507 38.9371 40.1887 38.7392C40.1803 38.7125 40.1712 38.6841 40.1617 38.6543C40.1034 38.4717 40.0285 38.2376 39.9998 38.023Z" fill="black"/>
</svg>
