<svg width="50" height="50" viewBox="0 0 50 50" fill="none" xmlns="http://www.w3.org/2000/svg">
<g clip-path="url(#clip0)">
<path d="M4 4V46H46V44H6V4H4ZM13 6C12.7348 6 12.4804 6.10536 12.2929 6.29289C12.1054 6.48043 12 6.73478 12 7C12 7.26522 12.1054 7.51957 12.2929 7.70711C12.4804 7.89464 12.7348 8 13 8C13.2652 8 13.5196 7.89464 13.7071 7.70711C13.8946 7.51957 14 7.26522 14 7C14 6.73478 13.8946 6.48043 13.7071 6.29289C13.5196 6.10536 13.2652 6 13 6ZM23 6C22.7348 6 22.4804 6.10536 22.2929 6.29289C22.1054 6.48043 22 6.73478 22 7C22 7.26522 22.1054 7.51957 22.2929 7.70711C22.4804 7.89464 22.7348 8 23 8C23.2652 8 23.5196 7.89464 23.7071 7.70711C23.8946 7.51957 24 7.26522 24 7C24 6.73478 23.8946 6.48043 23.7071 6.29289C23.5196 6.10536 23.2652 6 23 6ZM33 6C32.7348 6 32.4804 6.10536 32.2929 6.29289C32.1054 6.48043 32 6.73478 32 7C32 7.26522 32.1054 7.51957 32.2929 7.70711C32.4804 7.89464 32.7348 8 33 8C33.2652 8 33.5196 7.89464 33.7071 7.70711C33.8946 7.51957 34 7.26522 34 7C34 6.73478 33.8946 6.48043 33.7071 6.29289C33.5196 6.10536 33.2652 6 33 6ZM43 6C42.7348 6 42.4804 6.10536 42.2929 6.29289C42.1054 6.48043 42 6.73478 42 7C42 7.26522 42.1054 7.51957 42.2929 7.70711C42.4804 7.89464 42.7348 8 43 8C43.2652 8 43.5196 7.89464 43.7071 7.70711C43.8946 7.51957 44 7.26522 44 7C44 6.73478 43.8946 6.48043 43.7071 6.29289C43.5196 6.10536 43.2652 6 43 6ZM44.9805 13.9902C44.7207 13.998 44.4741 14.1066 44.293 14.293L33 25.5859L23.707 16.293C23.5195 16.1055 23.2652 16.0002 23 16.0002C22.7348 16.0002 22.4805 16.1055 22.293 16.293L8.29297 30.293C8.197 30.3851 8.12037 30.4955 8.06759 30.6176C8.0148 30.7397 7.98692 30.8712 7.98556 31.0042C7.98421 31.1373 8.00942 31.2692 8.0597 31.3924C8.10999 31.5156 8.18435 31.6275 8.27843 31.7216C8.37251 31.8156 8.48442 31.89 8.6076 31.9403C8.73077 31.9906 8.86275 32.0158 8.99579 32.0144C9.12883 32.0131 9.26026 31.9852 9.38239 31.9324C9.50452 31.8796 9.61489 31.803 9.70703 31.707L23 18.4141L32.293 27.707C32.4805 27.8945 32.7348 27.9998 33 27.9998C33.2652 27.9998 33.5195 27.8945 33.707 27.707L45.707 15.707C45.8515 15.5666 45.9502 15.3857 45.9902 15.1882C46.0302 14.9907 46.0095 14.7857 45.931 14.6001C45.8524 14.4145 45.7197 14.257 45.55 14.1482C45.3804 14.0393 45.1819 13.9843 44.9805 13.9902ZM13 16C12.7348 16 12.4804 16.1054 12.2929 16.2929C12.1054 16.4804 12 16.7348 12 17C12 17.2652 12.1054 17.5196 12.2929 17.7071C12.4804 17.8946 12.7348 18 13 18C13.2652 18 13.5196 17.8946 13.7071 17.7071C13.8946 17.5196 14 17.2652 14 17C14 16.7348 13.8946 16.4804 13.7071 16.2929C13.5196 16.1054 13.2652 16 13 16ZM33 16C32.7348 16 32.4804 16.1054 32.2929 16.2929C32.1054 16.4804 32 16.7348 32 17C32 17.2652 32.1054 17.5196 32.2929 17.7071C32.4804 17.8946 32.7348 18 33 18C33.2652 18 33.5196 17.8946 33.7071 17.7071C33.8946 17.5196 34 17.2652 34 17C34 16.7348 33.8946 16.4804 33.7071 16.2929C33.5196 16.1054 33.2652 16 33 16ZM23 26C22.7348 26 22.4804 26.1054 22.2929 26.2929C22.1054 26.4804 22 26.7348 22 27C22 27.2652 22.1054 27.5196 22.2929 27.7071C22.4804 27.8946 22.7348 28 23 28C23.2652 28 23.5196 27.8946 23.7071 27.7071C23.8946 27.5196 24 27.2652 24 27C24 26.7348 23.8946 26.4804 23.7071 26.2929C23.5196 26.1054 23.2652 26 23 26ZM43 26C42.7348 26 42.4804 26.1054 42.2929 26.2929C42.1054 26.4804 42 26.7348 42 27C42 27.2652 42.1054 27.5196 42.2929 27.7071C42.4804 27.8946 42.7348 28 43 28C43.2652 28 43.5196 27.8946 43.7071 27.7071C43.8946 27.5196 44 27.2652 44 27C44 26.7348 43.8946 26.4804 43.7071 26.2929C43.5196 26.1054 43.2652 26 43 26ZM13 36C12.7348 36 12.4804 36.1054 12.2929 36.2929C12.1054 36.4804 12 36.7348 12 37C12 37.2652 12.1054 37.5196 12.2929 37.7071C12.4804 37.8946 12.7348 38 13 38C13.2652 38 13.5196 37.8946 13.7071 37.7071C13.8946 37.5196 14 37.2652 14 37C14 36.7348 13.8946 36.4804 13.7071 36.2929C13.5196 36.1054 13.2652 36 13 36ZM23 36C22.7348 36 22.4804 36.1054 22.2929 36.2929C22.1054 36.4804 22 36.7348 22 37C22 37.2652 22.1054 37.5196 22.2929 37.7071C22.4804 37.8946 22.7348 38 23 38C23.2652 38 23.5196 37.8946 23.7071 37.7071C23.8946 37.5196 24 37.2652 24 37C24 36.7348 23.8946 36.4804 23.7071 36.2929C23.5196 36.1054 23.2652 36 23 36ZM33 36C32.7348 36 32.4804 36.1054 32.2929 36.2929C32.1054 36.4804 32 36.7348 32 37C32 37.2652 32.1054 37.5196 32.2929 37.7071C32.4804 37.8946 32.7348 38 33 38C33.2652 38 33.5196 37.8946 33.7071 37.7071C33.8946 37.5196 34 37.2652 34 37C34 36.7348 33.8946 36.4804 33.7071 36.2929C33.5196 36.1054 33.2652 36 33 36ZM43 36C42.7348 36 42.4804 36.1054 42.2929 36.2929C42.1054 36.4804 42 36.7348 42 37C42 37.2652 42.1054 37.5196 42.2929 37.7071C42.4804 37.8946 42.7348 38 43 38C43.2652 38 43.5196 37.8946 43.7071 37.7071C43.8946 37.5196 44 37.2652 44 37C44 36.7348 43.8946 36.4804 43.7071 36.2929C43.5196 36.1054 43.2652 36 43 36Z" fill="black"/>
<path d="M45.891 13.1935C46.5486 13.1017 47.1115 13.6646 47.0197 14.3222L45.7913 23.1212C45.6772 23.9387 44.6775 24.2737 44.0938 23.69L36.5232 16.1194C35.9395 15.5357 36.2745 14.536 37.092 14.4219L45.891 13.1935Z" fill="#E75F63"/>
<path fill-rule="evenodd" clip-rule="evenodd" d="M44.8557 15.3575L39.3573 16.1251L44.0881 20.8559L44.8557 15.3575ZM47.0197 14.3222C47.1115 13.6646 46.5486 13.1017 45.891 13.1935L37.092 14.4219C36.2745 14.536 35.9395 15.5357 36.5232 16.1194L44.0938 23.69C44.6775 24.2737 45.6772 23.9387 45.7913 23.1212L47.0197 14.3222Z" fill="black"/>
</g>
<defs>
<clipPath id="clip0">
<rect width="50" height="50" fill="white"/>
</clipPath>
</defs>
</svg>
