<svg width="50" height="50" viewBox="0 0 50 50" fill="none" xmlns="http://www.w3.org/2000/svg">
<rect x="6" y="26" width="6" height="17" rx="3" fill="#8EB0FC"/>
<rect x="28" y="26" width="6" height="17" rx="3" fill="#8EB0FC"/>
<rect x="17" y="15" width="6" height="28" rx="3" fill="#8EB0FC"/>
<rect x="38" y="15" width="6" height="28" rx="3" fill="#8EB0FC"/>
<path fill-rule="evenodd" clip-rule="evenodd" d="M5 29C5 26.7909 6.79086 25 9 25C11.2091 25 13 26.7909 13 29V40C13 42.2091 11.2091 44 9 44C6.79086 44 5 42.2091 5 40V29ZM9 27C7.89543 27 7 27.8954 7 29V40C7 41.1046 7.89543 42 9 42C10.1046 42 11 41.1046 11 40V29C11 27.8954 10.1046 27 9 27Z" fill="black"/>
<path fill-rule="evenodd" clip-rule="evenodd" d="M5 19C5 16.7909 6.79086 15 9 15C11.2091 15 13 16.7909 13 19C13 21.2091 11.2091 23 9 23C6.79086 23 5 21.2091 5 19ZM9 17C7.89543 17 7 17.8954 7 19C7 20.1046 7.89543 21 9 21C10.1046 21 11 20.1046 11 19C11 17.8954 10.1046 17 9 17Z" fill="black"/>
<path fill-rule="evenodd" clip-rule="evenodd" d="M5 9C5 6.79086 6.79086 5 9 5C11.2091 5 13 6.79086 13 9C13 11.2091 11.2091 13 9 13C6.79086 13 5 11.2091 5 9ZM9 7C7.89543 7 7 7.89543 7 9C7 10.1046 7.89543 11 9 11C10.1046 11 11 10.1046 11 9C11 7.89543 10.1046 7 9 7Z" fill="black"/>
<path fill-rule="evenodd" clip-rule="evenodd" d="M16 9C16 6.79086 17.7909 5 20 5C22.2091 5 24 6.79086 24 9C24 11.2091 22.2091 13 20 13C17.7909 13 16 11.2091 16 9ZM20 7C18.8954 7 18 7.89543 18 9C18 10.1046 18.8954 11 20 11C21.1046 11 22 10.1046 22 9C22 7.89543 21.1046 7 20 7Z" fill="black"/>
<path fill-rule="evenodd" clip-rule="evenodd" d="M27 9C27 6.79086 28.7909 5 31 5C33.2091 5 35 6.79086 35 9C35 11.2091 33.2091 13 31 13C28.7909 13 27 11.2091 27 9ZM31 7C29.8954 7 29 7.89543 29 9C29 10.1046 29.8954 11 31 11C32.1046 11 33 10.1046 33 9C33 7.89543 32.1046 7 31 7Z" fill="black"/>
<path fill-rule="evenodd" clip-rule="evenodd" d="M37 9C37 6.79086 38.7909 5 41 5C43.2091 5 45 6.79086 45 9C45 11.2091 43.2091 13 41 13C38.7909 13 37 11.2091 37 9ZM41 7C39.8954 7 39 7.89543 39 9C39 10.1046 39.8954 11 41 11C42.1046 11 43 10.1046 43 9C43 7.89543 42.1046 7 41 7Z" fill="black"/>
<path fill-rule="evenodd" clip-rule="evenodd" d="M27 19C27 16.7909 28.7909 15 31 15C33.2091 15 35 16.7909 35 19C35 21.2091 33.2091 23 31 23C28.7909 23 27 21.2091 27 19ZM31 17C29.8954 17 29 17.8954 29 19C29 20.1046 29.8954 21 31 21C32.1046 21 33 20.1046 33 19C33 17.8954 32.1046 17 31 17Z" fill="black"/>
<path fill-rule="evenodd" clip-rule="evenodd" d="M16 18C16 15.7909 17.7909 14 20 14C22.2091 14 24 15.7909 24 18V40C24 42.2091 22.2091 44 20 44C17.7909 44 16 42.2091 16 40V18ZM20 16C18.8954 16 18 16.8954 18 18V40C18 41.1046 18.8954 42 20 42C21.1046 42 22 41.1046 22 40V18C22 16.8954 21.1046 16 20 16Z" fill="black"/>
<path fill-rule="evenodd" clip-rule="evenodd" d="M27 28C27 25.7909 28.7909 24 31 24C33.2091 24 35 25.7909 35 28V40C35 42.2091 33.2091 44 31 44C28.7909 44 27 42.2091 27 40V28ZM31 26C29.8954 26 29 26.8954 29 28V40C29 41.1046 29.8954 42 31 42C32.1046 42 33 41.1046 33 40V28C33 26.8954 32.1046 26 31 26Z" fill="black"/>
<path fill-rule="evenodd" clip-rule="evenodd" d="M37 18C37 15.7909 38.7909 14 41 14C43.2091 14 45 15.7909 45 18V40C45 42.2091 43.2091 44 41 44C38.7909 44 37 42.2091 37 40V18ZM41 16C39.8954 16 39 16.8954 39 18V40C39 41.1046 39.8954 42 41 42C42.1046 42 43 41.1046 43 40V18C43 16.8954 42.1046 16 41 16Z" fill="black"/>
</svg>
