<svg width="50" height="50" viewBox="0 0 50 50" fill="none" xmlns="http://www.w3.org/2000/svg">
<rect x="15" y="41" width="20" height="4" fill="#E75F63"/>
<circle cx="25" cy="27" r="4" fill="#E75F63"/>
<path d="M24.9844 3.98633C24.9274 3.98733 24.8705 3.99321 24.8145 4.0039C20.7654 4.03612 16.9676 5.11833 13.6739 6.98828C13.5488 7.03033 13.4333 7.09671 13.334 7.18359C9.97759 9.16555 7.16959 11.9749 5.18753 15.3301C5.09765 15.4312 5.02921 15.5494 4.98635 15.6777C3.11847 18.9695 2.03783 22.7632 2.00393 26.8047C1.97823 26.937 1.97956 27.0732 2.00784 27.2051C2.05206 32.2057 3.69146 36.8359 6.44729 40.5918C6.60425 40.8057 6.83976 40.9486 7.10202 40.9888C7.36427 41.0291 7.6318 40.9636 7.84573 40.8066C8.05966 40.6497 8.20249 40.4142 8.24278 40.1519C8.28307 39.8897 8.21753 39.6221 8.06057 39.4082C7.82741 39.0904 7.6119 38.7586 7.39651 38.4277L9.14651 37.4004C9.33647 37.2924 9.48582 37.1251 9.57173 36.9242C9.65763 36.7232 9.67536 36.4997 9.62221 36.2877C9.56905 36.0758 9.44793 35.8871 9.27738 35.7505C9.10682 35.6138 8.89621 35.5368 8.67776 35.5312C8.48602 35.5262 8.29686 35.5763 8.13284 35.6758L6.37893 36.707C5.00687 34.0832 4.18851 31.1315 4.04104 28H6.00003C6.13254 28.0019 6.2641 27.9774 6.38707 27.928C6.51004 27.8786 6.62196 27.8052 6.71633 27.7122C6.8107 27.6191 6.88563 27.5082 6.93678 27.386C6.98793 27.2637 7.01427 27.1325 7.01427 27C7.01427 26.8675 6.98793 26.7363 6.93678 26.614C6.88563 26.4918 6.8107 26.3809 6.71633 26.2878C6.62196 26.1948 6.51004 26.1214 6.38707 26.072C6.2641 26.0226 6.13254 25.9981 6.00003 26H4.02542C4.17022 22.9002 4.99607 19.986 6.33987 17.3809L8.04495 18.3652C8.15879 18.4372 8.28599 18.4854 8.41892 18.507C8.55185 18.5286 8.68777 18.5231 8.81853 18.4909C8.94929 18.4587 9.07219 18.4004 9.17987 18.3195C9.28755 18.2386 9.37779 18.1368 9.44517 18.0202C9.51255 17.9036 9.55569 17.7746 9.572 17.6409C9.5883 17.5072 9.57745 17.3716 9.54007 17.2423C9.5027 17.1129 9.43958 16.9924 9.3545 16.888C9.26942 16.7836 9.16413 16.6975 9.04495 16.6348L7.33987 15.6504C8.96737 13.1205 11.12 10.9679 13.6504 9.33984L14.6348 11.0449C14.6975 11.1641 14.7836 11.2694 14.888 11.3545C14.9924 11.4395 15.1129 11.5027 15.2423 11.54C15.3717 11.5774 15.5073 11.5883 15.641 11.572C15.7746 11.5557 15.9036 11.5125 16.0202 11.4451C16.1368 11.3778 16.2386 11.2875 16.3195 11.1798C16.4004 11.0722 16.4587 10.9493 16.4909 10.8185C16.5231 10.6877 16.5286 10.5518 16.507 10.4189C16.4854 10.286 16.4372 10.1588 16.3653 10.0449L15.3809 8.33984C17.9844 6.99692 20.8993 6.1703 24 6.02539V8C23.9982 8.13251 24.0226 8.26407 24.072 8.38704C24.1215 8.51001 24.1948 8.62193 24.2879 8.7163C24.3809 8.81067 24.4918 8.8856 24.614 8.93675C24.7363 8.9879 24.8675 9.01424 25 9.01424C25.1326 9.01424 25.2638 8.9879 25.386 8.93675C25.5083 8.8856 25.6191 8.81067 25.7122 8.7163C25.8052 8.62193 25.8786 8.51001 25.928 8.38704C25.9774 8.26407 26.0019 8.13251 26 8V6.02539C29.1012 6.17022 32.0155 6.99725 34.6192 8.33984L33.6348 10.0449C33.5628 10.1588 33.5146 10.286 33.493 10.4189C33.4714 10.5518 33.4769 10.6877 33.5091 10.8185C33.5414 10.9493 33.5997 11.0722 33.6805 11.1798C33.7614 11.2875 33.8632 11.3778 33.9798 11.4451C34.0964 11.5125 34.2254 11.5557 34.3591 11.572C34.4928 11.5883 34.6284 11.5774 34.7578 11.54C34.8871 11.5027 35.0076 11.4395 35.112 11.3545C35.2164 11.2694 35.3026 11.1641 35.3653 11.0449L36.3496 9.33984C38.8805 10.9677 41.0326 13.1199 42.6602 15.6504L40.9551 16.6348C40.8359 16.6975 40.7306 16.7836 40.6456 16.888C40.5605 16.9924 40.4974 17.1129 40.46 17.2423C40.4226 17.3716 40.4117 17.5072 40.4281 17.6409C40.4444 17.7746 40.4875 17.9036 40.5549 18.0202C40.6223 18.1368 40.7125 18.2386 40.8202 18.3195C40.9279 18.4004 41.0508 18.4587 41.1815 18.4909C41.3123 18.5231 41.4482 18.5286 41.5811 18.507C41.7141 18.4854 41.8413 18.4372 41.9551 18.3652L43.6602 17.3809C45.003 19.9853 45.8299 22.8999 45.9746 26H44C43.8675 25.9981 43.736 26.0226 43.613 26.072C43.49 26.1214 43.3781 26.1948 43.2837 26.2878C43.1894 26.3809 43.1144 26.4918 43.0633 26.614C43.0121 26.7363 42.9858 26.8675 42.9858 27C42.9858 27.1325 43.0121 27.2637 43.0633 27.386C43.1144 27.5082 43.1894 27.6191 43.2837 27.7122C43.3781 27.8052 43.49 27.8786 43.613 27.928C43.736 27.9774 43.8675 28.0019 44 28H45.959C45.8115 31.1315 44.9932 34.0832 43.6211 36.707L41.8672 35.6758C41.7237 35.5885 41.5604 35.5388 41.3926 35.5312C41.3594 35.5296 41.3262 35.5296 41.293 35.5312C41.0769 35.5427 40.8704 35.6239 40.7044 35.7627C40.5385 35.9015 40.422 36.0904 40.3725 36.301C40.3229 36.5117 40.3431 36.7327 40.4298 36.9309C40.5165 37.1291 40.6652 37.2938 40.8535 37.4004L42.6035 38.4277C42.3882 38.7586 42.1726 39.0904 41.9395 39.4082C41.8617 39.5141 41.8056 39.6343 41.7744 39.7619C41.7431 39.8896 41.7373 40.0221 41.7572 40.152C41.7771 40.2818 41.8225 40.4065 41.8906 40.5188C41.9587 40.6312 42.0483 40.729 42.1543 40.8067C42.2602 40.8845 42.3804 40.9405 42.508 40.9718C42.6356 41.0031 42.7682 41.0089 42.898 40.9889C43.0279 40.969 43.1526 40.9236 43.2649 40.8555C43.3772 40.7873 43.4751 40.6977 43.5528 40.5918C46.3075 36.8374 47.9468 32.2093 47.9922 27.2109C48.0197 27.081 48.021 26.9469 47.9961 26.8164C47.9642 22.7631 46.8804 18.9603 45.0059 15.6621L45.0039 15.6582C44.963 15.5454 44.9022 15.4409 44.8242 15.3496C42.8404 11.9834 40.026 9.16533 36.6602 7.17968L36.6563 7.17578C36.5607 7.09481 36.4507 7.03253 36.3321 6.99218C33.0374 5.1209 29.2384 4.03646 25.1875 4.0039H25.1836C25.118 3.9914 25.0512 3.98551 24.9844 3.98633ZM38.7754 18.6426L27.7266 22.8223C26.9405 22.3064 26.0056 22 25 22C22.2487 22 20 24.2518 20 27C20 29.7482 22.2487 32 25 32C27.7514 32 30 29.7482 30 27C30 26.9704 29.9966 26.9416 29.9961 26.9121L39 19L38.7754 18.6426ZM25 24C26.671 24 28 25.3309 28 27C28 28.6678 26.6707 30 25 30C23.3294 30 22 28.6678 22 27C22 25.3322 23.3294 24 25 24ZM14.9981 40C14.7329 40 14.4785 40.1054 14.291 40.2929C14.1035 40.4804 13.9981 40.7348 13.9981 41V44.998C13.9981 45.2633 14.1035 45.5176 14.291 45.7051C14.4785 45.8927 14.7329 45.998 14.9981 45.998H35.002C35.2672 45.998 35.5215 45.8927 35.7091 45.7051C35.8966 45.5176 36.002 45.2633 36.002 44.998V41C36.002 40.7348 35.8966 40.4804 35.7091 40.2929C35.5215 40.1054 35.2672 40 35.002 40H14.9981ZM15.9981 42H34.002V43.998H15.9981V42Z" fill="black"/>
</svg>
