<svg width="50" height="50" viewBox="0 0 50 50" fill="none" xmlns="http://www.w3.org/2000/svg">
<path d="M17.5 32.5L5 24.5H3L12 10.5L25 4.5L40.5 10.5L46.5 23L39.5 37.5L25 46.5L17.5 32.5Z" fill="#EBB803"/>
<path d="M25 2C24.0225 2 23.2211 2.76188 23.16 3.725L13.1263 8.7275C12.8387 8.54063 12.4866 8.44 12.12 8.44C11.103 8.44 10.28 9.26297 10.28 10.28C10.28 10.607 10.3878 10.9053 10.5387 11.1713L3.8975 22.24C3.87953 22.24 3.85797 22.24 3.84 22.24C2.82297 22.24 2 23.063 2 24.08C2 25.097 2.82297 25.92 3.84 25.92C4.16703 25.92 4.46531 25.8122 4.73125 25.6613L15.8 32.3025C15.8 32.3205 15.8 32.342 15.8 32.36C15.8 33.3555 16.5942 34.1677 17.5825 34.2L23.4475 45.1825C23.2714 45.4664 23.16 45.8006 23.16 46.16C23.16 47.177 23.983 48 25 48C26.0063 48 26.8256 47.1914 26.84 46.1888L38.8 39.4613C39.0695 39.6194 39.3858 39.72 39.72 39.72C40.737 39.72 41.56 38.897 41.56 37.88C41.56 37.4703 41.4127 37.093 41.1863 36.7875L46.3613 24.9713C47.2812 24.8706 48 24.1088 48 23.16C48 22.2113 47.2812 21.4494 46.3613 21.3488L42.1063 11.3725C42.3327 11.067 42.48 10.6897 42.48 10.28C42.48 9.26297 41.657 8.44 40.64 8.44C40.2303 8.44 39.853 8.58734 39.5475 8.81375L26.8113 3.58125C26.6855 2.68641 25.9272 2 25 2ZM26.1213 5.30625L38.8288 10.5387C38.9438 11.3581 39.587 11.987 40.41 12.0913L44.6938 22.0675C44.4673 22.373 44.32 22.7503 44.32 23.16C44.32 23.5697 44.4673 23.947 44.6938 24.2525L39.5187 36.0688C38.6059 36.1694 37.8944 36.9169 37.88 37.8512L25.92 44.5788C25.6648 44.4314 25.3702 44.3308 25.0575 44.32L19.1925 33.3375C19.3686 33.0536 19.48 32.7194 19.48 32.36C19.48 31.343 18.657 30.52 17.64 30.52C17.313 30.52 17.0147 30.6278 16.7488 30.7788L5.68 24.1375C5.68 24.1195 5.68 24.098 5.68 24.08C5.68 23.7458 5.57938 23.4295 5.42125 23.16L12.0625 12.12C12.0805 12.12 12.102 12.12 12.12 12.12C13.0975 12.12 13.8989 11.3581 13.96 10.395L23.965 5.36375C24.2597 5.56141 24.6191 5.68 25 5.68C25.4205 5.68 25.8122 5.54344 26.1213 5.30625Z" fill="black"/>
</svg>
