<svg width="50" height="50" viewBox="0 0 50 50" fill="none" xmlns="http://www.w3.org/2000/svg">
<path d="M5 21L5 35.9677L5 37L38.5802 37L45 28.7419L38.5802 21L5 21Z" fill="#8EB0FC"/>
<path d="M3.49976 35.5002C3.49976 37.1452 4.85479 38.5002 6.49976 38.5002L23.4998 38.5002L23.4998 46.5002L21.4998 46.5002L21.4998 48.5002L27.4998 48.5002L27.4998 46.5002L25.4998 46.5002L25.4998 38.5002L39.4998 38.5002C39.6552 38.5003 39.8085 38.4641 39.9475 38.3946C40.0865 38.3251 40.2073 38.2242 40.3005 38.0998L46.3005 30.0998C46.4302 29.9268 46.5002 29.7164 46.5002 29.5002C46.5002 29.284 46.4302 29.0737 46.3005 28.9006L40.3005 20.9006C40.2073 20.7762 40.0865 20.6753 39.9475 20.6058C39.8085 20.5363 39.6552 20.5002 39.4998 20.5002L25.4998 20.5002L25.4998 4.50023L27.4998 4.50023L27.4998 2.50023L21.4998 2.50023L21.4998 4.50023L23.4998 4.50023L23.4998 20.5002L6.49975 20.5002C4.85478 20.5002 3.49975 21.8553 3.49975 23.5002L3.49976 35.5002ZM5.49976 35.5002L5.49975 23.5002C5.49975 22.9352 5.93472 22.5002 6.49975 22.5002L38.9998 22.5002L44.2498 29.5002L38.9998 36.5002L6.49976 36.5002C5.93473 36.5002 5.49976 36.0653 5.49976 35.5002Z" fill="black"/>
</svg>
