<svg width="50" height="50" viewBox="0 0 50 50" fill="none" xmlns="http://www.w3.org/2000/svg">
<rect x="5" y="6" width="40" height="11" fill="#EBB803"/>
<path d="M24.9843 3.98633C24.9359 3.98738 24.8876 3.99194 24.8398 4H4.99996C4.73475 4.00002 4.48041 4.10539 4.29288 4.29292C4.10535 4.48045 3.99999 4.73479 3.99996 5V17.832C3.98211 17.94 3.98211 18.0502 3.99996 18.1582V31.832C3.98211 31.94 3.98211 32.0502 3.99996 32.1582V45C3.99999 45.2652 4.10535 45.5195 4.29288 45.7071C4.48041 45.8946 4.73475 46 4.99996 46H24.832C24.94 46.0178 25.0502 46.0178 25.1582 46H45C45.2652 46 45.5195 45.8946 45.707 45.7071C45.8946 45.5195 45.9999 45.2652 46 45V32.168C46.0178 32.06 46.0178 31.9498 46 31.8418V18.168C46.0178 18.06 46.0178 17.9498 46 17.8418V5C45.9999 4.73479 45.8946 4.48045 45.707 4.29292C45.5195 4.10539 45.2652 4.00002 45 4H25.1543C25.0981 3.99061 25.0413 3.98604 24.9843 3.98633ZM5.99996 6H24V17H5.99996V6ZM26 6H44V17H26V6ZM5.99996 19H24V31H5.99996V19ZM26 19H44V31H26V19ZM5.99996 33H24V44H5.99996V33ZM26 33H44V44H26V33Z" fill="black"/>
</svg>
