<svg width="50" height="50" viewBox="0 0 50 50" fill="none" xmlns="http://www.w3.org/2000/svg">
<path fill-rule="evenodd" clip-rule="evenodd" d="M17.9601 3.84998C17.7668 3.84998 17.6101 4.00668 17.6101 4.19998V14.0127C17.6101 14.206 17.7668 14.3627 17.9601 14.3627H24.4401C24.4677 14.3627 24.4901 14.3851 24.4901 14.4127V22.5234C24.4901 22.551 24.4677 22.5734 24.4401 22.5734H9.3601C9.1668 22.5734 9.0101 22.7301 9.0101 22.9234V33.5872C9.0101 33.6148 8.98771 33.6372 8.9601 33.6372H4.2001C4.0068 33.6372 3.8501 33.7939 3.8501 33.9872V43.8C3.8501 43.9933 4.0068 44.15 4.2001 44.15H15.8401C16.0334 44.15 16.1901 43.9933 16.1901 43.8V33.9872C16.1901 33.7939 16.0334 33.6372 15.8401 33.6372H11.0801C11.0525 33.6372 11.0301 33.6148 11.0301 33.5872V24.6255C11.0301 24.5979 11.0525 24.5755 11.0801 24.5755H24.4401C24.4677 24.5755 24.4901 24.5979 24.4901 24.6255V33.5872C24.4901 33.6148 24.4677 33.6372 24.4401 33.6372H19.6801C19.4868 33.6372 19.3301 33.7939 19.3301 33.9872V43.8C19.3301 43.9933 19.4868 44.15 19.6801 44.15H31.3201C31.5134 44.15 31.6701 43.9933 31.6701 43.8V33.9872C31.6701 33.7939 31.5134 33.6372 31.3201 33.6372H26.5601C26.5325 33.6372 26.5101 33.6148 26.5101 33.5872V24.6255C26.5101 24.5979 26.5325 24.5755 26.5601 24.5755H39.9201C39.9477 24.5755 39.9701 24.5979 39.9701 24.6255V33.5872C39.9701 33.6148 39.9477 33.6372 39.9201 33.6372H35.1601C34.9668 33.6372 34.8101 33.7939 34.8101 33.9872V43.8C34.8101 43.9933 34.9668 44.15 35.1601 44.15H46.8001C46.9934 44.15 47.1501 43.9933 47.1501 43.8V33.9872C47.1501 33.7939 46.9934 33.6372 46.8001 33.6372H42.0401C42.0125 33.6372 41.9901 33.6148 41.9901 33.5872V22.9234C41.9901 22.7301 41.8334 22.5734 41.6401 22.5734H26.5601C26.5325 22.5734 26.5101 22.551 26.5101 22.5234V14.4127C26.5101 14.3851 26.5325 14.3627 26.5601 14.3627H33.0401C33.2334 14.3627 33.3901 14.206 33.3901 14.0127V4.19998C33.3901 4.00667 33.2334 3.84998 33.0401 3.84998H17.9601ZM19.6301 5.9021C19.6301 5.87449 19.6525 5.8521 19.6801 5.8521H31.3201C31.3477 5.8521 31.3701 5.87449 31.3701 5.9021V12.3106C31.3701 12.3382 31.3477 12.3606 31.3201 12.3606H25.7144C25.7107 12.3606 25.7051 12.3601 25.6971 12.3582C25.6105 12.3379 25.5203 12.3285 25.4288 12.3332C25.4072 12.3343 25.3843 12.3377 25.361 12.3445C25.3476 12.3484 25.3349 12.3526 25.3231 12.3567C25.3147 12.3597 25.3079 12.3606 25.3029 12.3606H19.6801C19.6525 12.3606 19.6301 12.3382 19.6301 12.3106V5.9021ZM5.8701 35.6893C5.8701 35.6617 5.89248 35.6393 5.9201 35.6393H14.1201C14.1477 35.6393 14.1701 35.6617 14.1701 35.6893V42.0979C14.1701 42.1255 14.1477 42.1479 14.1201 42.1479H5.9201C5.89248 42.1479 5.8701 42.1255 5.8701 42.0979V35.6893ZM21.3501 35.6893C21.3501 35.6617 21.3725 35.6393 21.4001 35.6393H29.6001C29.6277 35.6393 29.6501 35.6617 29.6501 35.6893V42.0979C29.6501 42.1255 29.6277 42.1479 29.6001 42.1479H21.4001C21.3725 42.1479 21.3501 42.1255 21.3501 42.0979V35.6893ZM36.8301 35.6893C36.8301 35.6617 36.8525 35.6393 36.8801 35.6393H45.0801C45.1077 35.6393 45.1301 35.6617 45.1301 35.6893V42.0979C45.1301 42.1255 45.1077 42.1479 45.0801 42.1479H36.8801C36.8525 42.1479 36.8301 42.1255 36.8301 42.0979V35.6893Z" fill="black"/>
<path d="M50 11.5C50 17.8513 44.8513 23 38.5 23C32.1487 23 27 17.8513 27 11.5C27 5.14873 32.1487 0 38.5 0C44.8513 0 50 5.14873 50 11.5Z" fill="#E75F63"/>
<path fill-rule="evenodd" clip-rule="evenodd" d="M38.5 21.5762C44.0649 21.5762 48.5762 17.0649 48.5762 11.5C48.5762 5.93507 44.0649 1.42381 38.5 1.42381C32.9351 1.42381 28.4238 5.93507 28.4238 11.5C28.4238 17.0649 32.9351 21.5762 38.5 21.5762ZM38.5 23C44.8513 23 50 17.8513 50 11.5C50 5.14873 44.8513 0 38.5 0C32.1487 0 27 5.14873 27 11.5C27 17.8513 32.1487 23 38.5 23Z" fill="black"/>
<path d="M41.826 10.1008C41.826 6.46963 38.875 5.50474 37.158 5.4762C33.5319 5.4762 32.4901 8.38797 32.4901 10.1008C32.4901 10.8716 32.1101 13.7117 35.307 16.2669C38.1998 18.5792 42.1842 17.1711 43.15 16.2291C43.9226 15.4754 44.1917 15.8406 44.5941 16.0578C44.9116 16.2291 45.2425 16.7429 45.5644 16.486C45.8558 16.2534 44.8843 14.7254 44.8843 14.7254L43.9185 13.3551C43.5116 12.8413 43.1047 12.3274 42.8677 12.4987C42.5853 12.7029 42.7068 13.0126 42.8677 13.5264C43.0287 14.0402 43.0332 14.7254 41.826 14.9823C40.6187 15.2392 41.037 13.774 41.1016 13.5264C41.2581 12.9269 41.826 11.471 41.826 10.1008Z" fill="white"/>
<path fill-rule="evenodd" clip-rule="evenodd" d="M34.0317 7.57605C33.4304 8.36976 33.202 9.36554 33.202 10.1007C33.202 10.1796 33.1993 10.2683 33.1964 10.3664C33.1823 10.8279 33.162 11.4971 33.387 12.3287C33.6533 13.3129 34.2748 14.5304 35.7515 15.7108C37.0066 16.714 38.5157 16.9266 39.8648 16.7617C40.5377 16.6794 41.1548 16.5044 41.6528 16.2992C42.1644 16.0886 42.5023 15.8663 42.6529 15.7194C43.0874 15.2956 43.5526 15.011 44.091 15.072C44.1594 15.0797 44.2237 15.0927 44.2837 15.1089L43.6401 14.1958C43.6196 14.3474 43.5765 14.5045 43.5007 14.6611C43.2382 15.2029 42.6931 15.5256 41.9742 15.6786C41.5555 15.7677 41.1048 15.7419 40.7459 15.4508C40.4049 15.1741 40.3068 14.784 40.2789 14.5177C40.2279 14.031 40.3696 13.5067 40.4069 13.3687C40.4094 13.3596 40.4114 13.3522 40.4129 13.3466C40.4568 13.1782 40.5182 12.9802 40.5866 12.7596C40.8124 12.0318 41.1141 11.0589 41.1141 10.1007C41.1141 8.51011 40.4829 7.57499 39.7148 7.01147C38.914 6.42402 37.9058 6.20165 37.1521 6.18806C35.5624 6.18963 34.6083 6.81506 34.0317 7.57605ZM44.8843 14.7253L45.4851 14.3434L45.476 14.3291L44.489 12.9287L44.4567 12.888C44.2686 12.6503 44.038 12.3589 43.817 12.1513C43.7057 12.0466 43.5445 11.9117 43.3463 11.8299C43.1248 11.7385 42.7742 11.6879 42.4508 11.9217C42.3816 11.9717 42.317 12.0291 42.2591 12.0943C42.4103 11.4807 42.5379 10.7758 42.5379 10.1007C42.5379 8.06023 41.6936 6.69732 40.557 5.86347C39.4551 5.05508 38.1325 4.78036 37.1699 4.76435L37.1581 4.76425C35.1252 4.76425 33.747 5.5941 32.8969 6.71624C32.0708 7.80663 31.7782 9.12314 31.7782 10.1007C31.7782 10.1479 31.776 10.2105 31.7733 10.287C31.7577 10.7305 31.7256 11.6401 32.0126 12.7006C32.3555 13.9679 33.1424 15.448 34.8625 16.823C36.5003 18.132 38.4298 18.3715 40.0376 18.175C40.843 18.0765 41.584 17.8674 42.195 17.6158C42.7925 17.3698 43.3148 17.0628 43.6471 16.7386C43.8015 16.588 43.897 16.525 43.9448 16.4998C43.9486 16.5019 43.9529 16.5043 43.9575 16.5069C43.986 16.523 44.0147 16.5407 44.0593 16.5683L44.0739 16.5774C44.1217 16.6069 44.1856 16.6462 44.2561 16.6843C44.255 16.6836 44.2645 16.6888 44.2876 16.7061C44.3105 16.7231 44.3379 16.7454 44.3747 16.7766C44.3854 16.7856 44.3978 16.7962 44.4116 16.8081C44.4756 16.8629 44.5696 16.9435 44.6602 17.0091C44.7691 17.0879 44.9551 17.2086 45.1948 17.252C45.478 17.3033 45.7672 17.2349 46.0085 17.0424C46.2856 16.8212 46.3275 16.5131 46.3307 16.3582C46.3341 16.1918 46.2992 16.035 46.2658 15.9178C46.1971 15.6764 46.0788 15.4159 45.9698 15.1989C45.857 14.9742 45.7361 14.7611 45.645 14.6064C45.599 14.5284 45.5598 14.4638 45.5318 14.4183L45.4985 14.3647L45.4891 14.3498L45.4864 14.3455L45.4851 14.3434C45.4851 14.3433 45.4851 14.3434 44.8843 14.7253ZM41.9996 13.023C41.9662 13.1318 41.9346 13.2322 41.9063 13.3226C41.855 13.4859 41.8139 13.6167 41.7905 13.7062C41.7885 13.7138 41.7864 13.7219 41.7841 13.7305C41.7659 13.7996 41.7399 13.8982 41.7191 14.0172C41.7018 14.1159 41.6923 14.207 41.6914 14.283C41.9251 14.232 42.0597 14.1692 42.1329 14.1217C42.2015 14.0771 42.2163 14.0465 42.2193 14.0403C42.2299 14.0184 42.2505 13.9371 42.1884 13.7392C42.1801 13.7125 42.171 13.6841 42.1615 13.6543C42.1031 13.4717 42.0283 13.2376 41.9996 13.023Z" fill="black"/>
<g clip-path="url(#clip0_1903_2521)">
<path d="M31 48V31H48V48H31ZM41.0984 45.0206C41.1144 45.0538 41.1247 45.0782 41.1375 45.1014C41.3569 45.503 41.6521 45.8369 42.0303 46.0957C42.4844 46.4068 42.9908 46.571 43.5351 46.6301C44.0795 46.6893 44.615 46.6554 45.1383 46.4849C46.1268 46.1628 46.6646 45.4007 46.6512 44.3595C46.6411 43.5858 46.3233 42.9811 45.6903 42.5383C45.3846 42.3244 45.0546 42.1552 44.7154 42.0028C44.3891 41.8562 44.0582 41.7194 43.7374 41.5617C43.5947 41.4915 43.4583 41.3955 43.3429 41.2861C43.0482 41.0067 43.0516 40.3136 43.6409 40.1504C44.0612 40.0339 44.4368 40.1314 44.7251 40.4775C44.8038 40.572 44.8694 40.6776 44.9469 40.7863C45.3563 40.5236 45.7675 40.2597 46.1798 39.995C46.1746 39.9793 46.173 39.9685 46.168 39.9597C45.9034 39.5 45.5567 39.1243 45.0576 38.9184C44.4555 38.67 43.8314 38.6448 43.204 38.7954C42.5859 38.9438 42.1012 39.2838 41.8015 39.8576C41.609 40.2261 41.5547 40.6215 41.583 41.0324C41.6153 41.5022 41.7615 41.9267 42.0691 42.2895C42.3553 42.6271 42.7174 42.8638 43.1115 43.0509C43.5074 43.2389 43.9139 43.4048 44.3103 43.5916C44.4722 43.6679 44.6301 43.761 44.7718 43.8697C45.021 44.0608 45.0969 44.3274 45.0248 44.6273C44.9575 44.908 44.7527 45.0741 44.4901 45.1509C43.831 45.3437 43.2368 45.2288 42.7479 44.7233C42.6179 44.5889 42.512 44.4313 42.3874 44.2749C41.9658 44.5189 41.5358 44.7676 41.0984 45.0206ZM35.457 45.1931C35.7222 45.7454 36.1042 46.1727 36.6622 46.4151C37.39 46.7313 38.1379 46.741 38.8843 46.4881C39.459 46.2935 39.8484 45.8946 40.0635 45.3275C40.1991 44.9701 40.24 44.5966 40.2401 44.2177C40.2411 42.4454 40.2406 40.6732 40.2403 38.901C40.2403 38.8698 40.2367 38.8386 40.2348 38.8076H38.6379V38.9331C38.6379 40.673 38.6385 42.4129 38.6367 44.1529C38.6367 44.2923 38.6282 44.4332 38.608 44.5711C38.575 44.7963 38.4983 45.0121 38.2799 45.1163C37.9387 45.2792 37.5922 45.2806 37.2666 45.0641C37.0993 44.9529 36.9907 44.7863 36.8875 44.6183C36.8454 44.5499 36.8054 44.4803 36.7604 44.4046C36.3254 44.6677 35.8956 44.9279 35.457 45.1931Z" fill="white"/>
<path d="M31 48V31H48V48H31ZM41.0984 45.0206C41.1144 45.0538 41.1247 45.0782 41.1375 45.1014C41.3569 45.503 41.6521 45.8369 42.0303 46.0957C42.4844 46.4068 42.9908 46.571 43.5351 46.6301C44.0795 46.6893 44.615 46.6554 45.1383 46.4849C46.1268 46.1628 46.6646 45.4007 46.6512 44.3595C46.6411 43.5858 46.3233 42.9811 45.6903 42.5383C45.3846 42.3244 45.0546 42.1552 44.7154 42.0028C44.3891 41.8562 44.0582 41.7194 43.7374 41.5617C43.5947 41.4915 43.4583 41.3955 43.3429 41.2861C43.0482 41.0067 43.0516 40.3136 43.6409 40.1504C44.0612 40.0339 44.4368 40.1314 44.7251 40.4775C44.8038 40.572 44.8694 40.6776 44.9469 40.7863C45.3563 40.5236 45.7675 40.2597 46.1798 39.995C46.1746 39.9793 46.173 39.9685 46.168 39.9597C45.9034 39.5 45.5567 39.1243 45.0576 38.9184C44.4555 38.67 43.8314 38.6448 43.204 38.7954C42.5859 38.9438 42.1012 39.2838 41.8015 39.8576C41.609 40.2261 41.5547 40.6215 41.583 41.0324C41.6153 41.5022 41.7615 41.9267 42.0691 42.2895C42.3553 42.6271 42.7174 42.8638 43.1115 43.0509C43.5074 43.2389 43.9139 43.4048 44.3103 43.5916C44.4722 43.6679 44.6301 43.761 44.7718 43.8697C45.021 44.0608 45.0969 44.3274 45.0248 44.6273C44.9575 44.908 44.7527 45.0741 44.4901 45.1509C43.831 45.3437 43.2368 45.2288 42.7479 44.7233C42.6179 44.5889 42.512 44.4313 42.3874 44.2749C41.9658 44.5189 41.5358 44.7676 41.0984 45.0206ZM35.457 45.1931C35.7222 45.7454 36.1042 46.1727 36.6622 46.4151C37.39 46.7313 38.1379 46.741 38.8843 46.4881C39.459 46.2935 39.8484 45.8946 40.0635 45.3275C40.1991 44.9701 40.24 44.5966 40.2401 44.2177C40.2411 42.4454 40.2406 40.6732 40.2403 38.901C40.2403 38.8698 40.2367 38.8386 40.2348 38.8076H38.6379V38.9331C38.6379 40.673 38.6385 42.4129 38.6367 44.1529C38.6367 44.2923 38.6282 44.4332 38.608 44.5711C38.575 44.7963 38.4983 45.0121 38.2799 45.1163C37.9387 45.2792 37.5922 45.2806 37.2666 45.0641C37.0993 44.9529 36.9907 44.7863 36.8875 44.6183C36.8454 44.5499 36.8054 44.4803 36.7604 44.4046C36.3254 44.6677 35.8956 44.9279 35.457 45.1931Z" fill="#EBB803"/>
<path d="M41.0981 45.0206C41.5357 44.7676 41.9656 44.5187 42.3872 44.2749C42.5116 44.4311 42.6176 44.5888 42.7477 44.7233C43.2366 45.2288 43.8307 45.3435 44.4899 45.1509C44.7525 45.0741 44.9572 44.908 45.0246 44.6273C45.0965 44.3274 45.0207 44.0609 44.7716 43.8697C44.6297 43.761 44.4718 43.6679 44.31 43.5916C43.9136 43.4047 43.5072 43.2389 43.1113 43.0509C42.7172 42.8638 42.355 42.6271 42.0689 42.2895C41.7613 41.9267 41.6151 41.502 41.5828 41.0324C41.5545 40.6216 41.6088 40.226 41.8013 39.8576C42.101 39.2836 42.5856 38.9436 43.2038 38.7954C43.8312 38.6448 44.4553 38.67 45.0574 38.9184C45.5564 39.1243 45.9032 39.5 46.1678 39.9597C46.1728 39.9686 46.1744 39.9793 46.1796 39.995C45.7673 40.2595 45.3562 40.5235 44.9467 40.7863C44.8692 40.6776 44.8036 40.572 44.7249 40.4775C44.4366 40.1314 44.061 40.0339 43.6407 40.1504C43.0514 40.3136 43.0478 41.0067 43.3427 41.2861C43.4581 41.3955 43.5947 41.4915 43.7372 41.5616C44.058 41.7192 44.3889 41.8562 44.7152 42.0028C45.0544 42.1552 45.3842 42.3244 45.6901 42.5383C46.3231 42.9811 46.6409 43.5858 46.6509 44.3595C46.6645 45.4007 46.1267 46.163 45.1381 46.4849C44.6148 46.6553 44.0793 46.6891 43.5349 46.6301C42.9906 46.571 42.4843 46.4068 42.0301 46.0957C41.6519 45.8369 41.3567 45.503 41.1373 45.1014C41.1245 45.0782 41.1141 45.0538 41.0981 45.0206Z" fill="black"/>
<path d="M35.457 45.1931C35.8954 44.9279 36.3255 44.6677 36.7605 44.4046C36.8054 44.4803 36.8455 44.5499 36.8875 44.6183C36.9909 44.7865 37.0993 44.9529 37.2666 45.0641C37.5921 45.2805 37.9387 45.279 38.28 45.1163C38.4984 45.0121 38.5752 44.7963 38.608 44.5711C38.6282 44.4331 38.6366 44.2923 38.6368 44.1529C38.6386 42.4129 38.6379 40.673 38.6379 38.9331V38.8076H40.2348C40.2367 38.8386 40.2403 38.8698 40.2403 38.901C40.2406 40.6732 40.2409 42.4454 40.2401 44.2177C40.24 44.5966 40.1991 44.9701 40.0635 45.3275C39.8484 45.8946 39.459 46.2935 38.8843 46.4881C38.1379 46.7408 37.3902 46.7311 36.6622 46.4151C36.1042 46.1727 35.7222 45.7456 35.457 45.1931Z" fill="black"/>
</g>
<rect x="30.15" y="30.15" width="18.7" height="18.7" stroke="black" stroke-width="1.7"/>
<defs>
<clipPath id="clip0_1903_2521">
<rect x="31" y="31" width="17" height="17" fill="white"/>
</clipPath>
</defs>
</svg>
