<svg width="50" height="50" viewBox="0 0 50 50" fill="none" xmlns="http://www.w3.org/2000/svg">
<path fill-rule="evenodd" clip-rule="evenodd" d="M25 46C36.598 46 46 36.598 46 25C46 13.402 36.598 4 25 4C13.402 4 4 13.402 4 25C4 36.598 13.402 46 25 46ZM25 48C37.7025 48 48 37.7025 48 25C48 12.2975 37.7025 2 25 2C12.2975 2 2 12.2975 2 25C2 37.7025 12.2975 48 25 48Z" fill="#0B0B0E"/>
<path d="M22 12V22C22 23.6569 23.3431 25 25 25C26.6569 25 28 23.6569 28 22V12C28 10.3431 26.6569 9 25 9C23.3431 9 22 10.3431 22 12Z" fill="#55C1F6"/>
<path fill-rule="evenodd" clip-rule="evenodd" d="M25 26C22.7909 26 21 24.2091 21 22V12C21 9.79086 22.7909 8 25 8C27.2091 8 29 9.79086 29 12V22C29 24.2091 27.2091 26 25 26ZM23 22C23 23.1046 23.8954 24 25 24C26.1046 24 27 23.1046 27 22V12C27 10.8954 26.1046 10 25 10C23.8954 10 23 10.8954 23 12V22Z" fill="#0B0B0E"/>
</svg>
