<svg width="50" height="50" viewBox="0 0 50 50" fill="none" xmlns="http://www.w3.org/2000/svg">
<path d="M11 20L1 27.5V41H43V34H36.5L30.5 29H24L20 25L15 26L11 20Z" fill="white"/>
<path d="M0 5V42H44V5H0ZM2 7H42V33H37.3203L30.3203 28H24.4141L20.3281 23.9141L15.4609 24.8906L11.1562 18.4297L2 25.5859V7ZM33.5 11C31.0273 11 29 13.0273 29 15.5C29 17.9727 31.0273 20 33.5 20C35.9727 20 38 17.9727 38 15.5C38 13.0273 35.9727 11 33.5 11ZM33.5 13C34.8906 13 36 14.1094 36 15.5C36 16.8906 34.8906 18 33.5 18C32.1094 18 31 16.8906 31 15.5C31 14.1094 32.1094 13 33.5 13ZM10.8438 21.5703L14.5391 27.1094L19.6719 26.0859L23.5859 30H29.6797L36.6797 35H42V40H2V28.4141L10.8438 21.5703Z" fill="#0B0B0E"/>
<path d="M50 36.5C50 43.9558 43.9558 50 36.5 50C29.0442 50 23 43.9558 23 36.5C23 29.0442 29.0442 23 36.5 23C43.9558 23 50 29.0442 50 36.5Z" fill="#55C1F6"/>
<path fill-rule="evenodd" clip-rule="evenodd" d="M36.5 48.3C43.017 48.3 48.3 43.017 48.3 36.5C48.3 29.983 43.017 24.7 36.5 24.7C29.983 24.7 24.7 29.983 24.7 36.5C24.7 43.017 29.983 48.3 36.5 48.3ZM36.5 50C43.9558 50 50 43.9558 50 36.5C50 29.0442 43.9558 23 36.5 23C29.0442 23 23 29.0442 23 36.5C23 43.9558 29.0442 50 36.5 50Z" fill="#0B0B0E"/>
<path d="M34.063 37.9151L37.9139 34.0643C37.981 33.9972 38.0608 33.9439 38.1485 33.9075C38.2363 33.8712 38.3303 33.8525 38.4253 33.8525C38.5203 33.8525 38.6143 33.8712 38.7021 33.9075C38.7898 33.9439 38.8696 33.9972 38.9367 34.0643C39.0039 34.1315 39.0572 34.2112 39.0935 34.299C39.1299 34.3867 39.1486 34.4808 39.1486 34.5758C39.1486 34.6707 39.1299 34.7648 39.0935 34.8525C39.0572 34.9403 39.0039 35.02 38.9367 35.0872L35.0859 38.938C34.9502 39.0736 34.7663 39.1498 34.5744 39.1498C34.3826 39.1498 34.1986 39.0736 34.063 38.938C33.9274 38.8023 33.8512 38.6184 33.8512 38.4265C33.8512 38.2347 33.9274 38.0508 34.063 37.9151ZM41.9452 31.0559C41.2675 30.3797 40.3493 30 39.3919 30C38.4346 30 37.5163 30.3797 36.8386 31.0559L35.0263 32.8664C34.8907 33.002 34.8145 33.186 34.8145 33.3778C34.8145 33.4728 34.8332 33.5668 34.8695 33.6546C34.9059 33.7423 34.9592 33.8221 35.0263 33.8892C35.0935 33.9564 35.1732 34.0097 35.261 34.046C35.3487 34.0824 35.4428 34.1011 35.5378 34.1011C35.7296 34.1011 35.9136 34.0249 36.0492 33.8892L37.8585 32.0806C38.2648 31.6742 38.8159 31.4459 39.3905 31.4458C39.9652 31.4458 40.5163 31.674 40.9226 32.0803C41.329 32.4866 41.5573 33.0376 41.5574 33.6123C41.5575 34.1869 41.3292 34.738 40.9229 35.1444L39.1112 36.9524C39.0441 37.0196 38.9908 37.0993 38.9544 37.1871C38.9181 37.2748 38.8994 37.3689 38.8994 37.4639C38.8994 37.5588 38.9181 37.6529 38.9544 37.7406C38.9908 37.8284 39.0441 37.9081 39.1112 37.9753C39.1784 38.0424 39.2581 38.0957 39.3459 38.1321C39.4336 38.1684 39.5277 38.1871 39.6227 38.1871C39.7177 38.1871 39.8117 38.1684 39.8995 38.1321C39.9872 38.0957 40.067 38.0424 40.1341 37.9753L41.944 36.1666C42.6206 35.4885 43.0003 34.5697 43 33.6118C42.9997 32.6539 42.6192 31.7353 41.9422 31.0577L41.9452 31.0559ZM36.9523 39.1113L35.143 40.9211C34.9418 41.1223 34.703 41.2819 34.4401 41.3907C34.1772 41.4996 33.8954 41.5556 33.6109 41.5556C33.3264 41.5555 33.0446 41.4995 32.7818 41.3906C32.5189 41.2817 32.2801 41.122 32.0789 40.9208C31.6726 40.5145 31.4444 39.9634 31.4445 39.3887C31.4445 38.8141 31.6728 38.263 32.0792 37.8568L33.8879 36.0475C33.9551 35.9803 34.0083 35.9006 34.0447 35.8128C34.081 35.7251 34.0998 35.631 34.0998 35.5361C34.0998 35.4411 34.081 35.347 34.0447 35.2593C34.0083 35.1715 33.9551 35.0918 33.8879 35.0246C33.8207 34.9575 33.741 34.9042 33.6533 34.8678C33.5655 34.8315 33.4714 34.8128 33.3765 34.8128C33.2815 34.8128 33.1874 34.8315 33.0997 34.8678C33.0119 34.9042 32.9322 34.9575 32.865 35.0246L31.0575 36.8357C30.7222 37.171 30.4562 37.5691 30.2748 38.0072C30.0933 38.4454 30 38.9149 30 39.3892C30.0001 40.3469 30.3806 41.2653 31.0578 41.9425C31.7351 42.6197 32.6536 43.0001 33.6113 43C34.5691 42.9999 35.4875 42.6194 36.1647 41.9422L37.9734 40.1329C38.1091 39.9973 38.1853 39.8133 38.1853 39.6215C38.1853 39.4297 38.1091 39.2457 37.9734 39.1101C37.8378 38.9744 37.6538 38.8982 37.462 38.8982C37.2702 38.8982 37.0862 38.9744 36.9505 39.1101L36.9523 39.1113Z" fill="#0B0B0E"/>
</svg>
