<svg width="50" height="50" viewBox="0 0 50 50" fill="none" xmlns="http://www.w3.org/2000/svg">
<path d="M11.5001 40.5C9.53076 39.7123 4.1681 41.7685 3.04926 42.4683C3.01715 42.4884 3.00302 42.5237 3.00772 42.5613L3.49131 46.4301C3.49655 46.472 3.52759 46.5061 3.56884 46.5153L7.98803 47.4973C7.99602 47.4991 8.00418 47.4999 8.01236 47.4997L45.9401 46.5016C45.977 46.5006 46.0104 46.4794 46.0269 46.4463L46.9895 44.5211C46.9964 44.5072 47 44.4919 47 44.4764V38.538C47 38.5135 46.9909 38.4897 46.9745 38.4714C42.9746 33.9979 36.9916 33.5064 33.0001 36.5C29.0001 39.5 28.6401 33.5 25.0001 33.5C23.0001 33.5 22.5001 38.5 21.0001 38C19.5001 37.5 19.0001 37 17.5001 39.5C16.0001 42 14.0001 41.5 11.5001 40.5Z" fill="#FF371A"/>
<path d="M17.3441 20.2C17.5361 20.2 17.6961 20.264 17.8241 20.392C17.9521 20.52 18.0161 20.68 18.0161 20.872C18.0161 21.056 17.9521 21.212 17.8241 21.34C17.6961 21.46 17.5361 21.52 17.3441 21.52H13.2641C13.0561 21.52 12.8921 21.456 12.7721 21.328C12.6521 21.2 12.5921 21.036 12.5921 20.836C12.5921 20.636 12.6641 20.46 12.8081 20.308L15.4241 17.512C15.7121 17.2 15.9441 16.884 16.1201 16.564C16.2961 16.236 16.3841 15.932 16.3841 15.652C16.3841 15.404 16.3241 15.18 16.2041 14.98C16.0841 14.78 15.9281 14.62 15.7361 14.5C15.5441 14.38 15.3361 14.32 15.1121 14.32C14.8801 14.32 14.6441 14.4 14.4041 14.56C14.1641 14.712 13.9521 14.916 13.7681 15.172C13.6721 15.3 13.5761 15.38 13.4801 15.412C13.3841 15.444 13.2961 15.46 13.2161 15.46C13.0401 15.46 12.8761 15.396 12.7241 15.268C12.5801 15.132 12.5081 14.976 12.5081 14.8C12.5081 14.664 12.5521 14.532 12.6401 14.404C12.7361 14.276 12.8521 14.144 12.9881 14.008C13.2921 13.704 13.6441 13.46 14.0441 13.276C14.4441 13.092 14.8281 13 15.1961 13C15.7401 13 16.2081 13.112 16.6001 13.336C16.9921 13.56 17.2961 13.868 17.5121 14.26C17.7281 14.652 17.8361 15.096 17.8361 15.592C17.8361 15.928 17.7721 16.272 17.6441 16.624C17.5241 16.968 17.3561 17.304 17.1401 17.632C16.9241 17.96 16.6761 18.276 16.3961 18.58L14.7761 20.308L14.6441 20.2H17.3441Z" fill="#0B0B0E"/>
<path d="M22.8656 21.52C22.6656 21.52 22.4976 21.452 22.3616 21.316C22.2256 21.172 22.1576 20.996 22.1576 20.788V15.148L22.4096 15.208L20.0936 18.076L20.0336 17.92H24.1016C24.2936 17.92 24.4536 17.984 24.5816 18.112C24.7096 18.24 24.7736 18.4 24.7736 18.592C24.7736 18.776 24.7096 18.932 24.5816 19.06C24.4536 19.18 24.2936 19.24 24.1016 19.24H19.0376C18.8696 19.24 18.7056 19.172 18.5456 19.036C18.3936 18.9 18.3176 18.732 18.3176 18.532C18.3176 18.356 18.3776 18.196 18.4976 18.052L22.2896 13.408C22.3536 13.32 22.4376 13.252 22.5416 13.204C22.6456 13.148 22.7616 13.12 22.8896 13.12C23.0976 13.12 23.2656 13.192 23.3936 13.336C23.5296 13.472 23.5976 13.644 23.5976 13.852V20.788C23.5976 20.996 23.5256 21.172 23.3816 21.316C23.2456 21.452 23.0736 21.52 22.8656 21.52Z" fill="#0B0B0E"/>
<path d="M10.836 20.2C11.028 20.2 11.188 20.264 11.316 20.392C11.444 20.52 11.508 20.68 11.508 20.872C11.508 21.056 11.444 21.212 11.316 21.34C11.188 21.46 11.028 21.52 10.836 21.52H6.756C6.548 21.52 6.384 21.456 6.264 21.328C6.144 21.2 6.084 21.036 6.084 20.836C6.084 20.636 6.156 20.46 6.3 20.308L8.916 17.512C9.204 17.2 9.436 16.884 9.612 16.564C9.788 16.236 9.876 15.932 9.876 15.652C9.876 15.404 9.816 15.18 9.696 14.98C9.576 14.78 9.42 14.62 9.228 14.5C9.036 14.38 8.828 14.32 8.604 14.32C8.372 14.32 8.136 14.4 7.896 14.56C7.656 14.712 7.444 14.916 7.26 15.172C7.164 15.3 7.068 15.38 6.972 15.412C6.876 15.444 6.788 15.46 6.708 15.46C6.532 15.46 6.368 15.396 6.216 15.268C6.072 15.132 6 14.976 6 14.8C6 14.664 6.044 14.532 6.132 14.404C6.228 14.276 6.344 14.144 6.48 14.008C6.784 13.704 7.136 13.46 7.536 13.276C7.936 13.092 8.32 13 8.688 13C9.232 13 9.7 13.112 10.092 13.336C10.484 13.56 10.788 13.868 11.004 14.26C11.22 14.652 11.328 15.096 11.328 15.592C11.328 15.928 11.264 16.272 11.136 16.624C11.016 16.968 10.848 17.304 10.632 17.632C10.416 17.96 10.168 18.276 9.888 18.58L8.268 20.308L8.136 20.2H10.836Z" fill="#0B0B0E"/>
<path fill-rule="evenodd" clip-rule="evenodd" d="M45 3.7H5C4.28203 3.7 3.7 4.28203 3.7 5V45C3.7 45.718 4.28203 46.3 5 46.3H45C45.718 46.3 46.3 45.718 46.3 45V5C46.3 4.28203 45.718 3.7 45 3.7ZM5 2C3.34315 2 2 3.34315 2 5V45C2 46.6569 3.34315 48 5 48H45C46.6569 48 48 46.6569 48 45V5C48 3.34315 46.6569 2 45 2H5Z" fill="#0B0B0E"/>
<path fill-rule="evenodd" clip-rule="evenodd" d="M21.931 38.6945C21.5777 38.8893 21.1603 38.9494 20.7312 38.8064C20.5418 38.7433 20.3934 38.6901 20.2655 38.6442C20.0907 38.5816 19.9543 38.5327 19.8037 38.4909C19.5851 38.4301 19.5008 38.4385 19.4561 38.4496C19.4143 38.4601 19.2986 38.5006 19.0858 38.7252C18.8673 38.9558 18.592 39.332 18.2289 39.9373C17.3605 41.3846 16.2534 42.078 14.928 42.1609C13.7129 42.2368 12.4213 41.784 11.1843 41.2892C10.8907 41.1718 10.3504 41.1312 9.57044 41.2252C8.82143 41.3154 7.96448 41.5146 7.11568 41.7652C6.27014 42.0149 5.45348 42.3093 4.79058 42.5805C4.10671 42.8603 3.64474 43.0918 3.47149 43.2073C3.08089 43.4677 2.55315 43.3621 2.29275 42.9715C2.03235 42.5809 2.1379 42.0532 2.5285 41.7928C2.85524 41.575 3.45578 41.2898 4.1469 41.0071C4.859 40.7157 5.72984 40.4018 6.63431 40.1348C7.5355 39.8687 8.49106 39.6429 9.36704 39.5374C10.2121 39.4355 11.1093 39.4283 11.8157 39.7108C13.0787 40.216 14.0371 40.5132 14.822 40.4642C15.4966 40.422 16.1395 40.1154 16.7711 39.0627C17.1579 38.418 17.5076 37.9192 17.8517 37.5561C18.2014 37.1869 18.5857 36.9149 19.0438 36.8004C19.4992 36.6866 19.9149 36.7574 20.2587 36.8529C20.4566 36.9079 20.6994 36.994 20.9282 37.0751C21.0098 37.104 21.0895 37.1323 21.1648 37.1583C21.198 37.1248 21.2394 37.0764 21.2885 37.0087C21.5085 36.7055 21.7247 36.2489 22.0028 35.6613C22.0165 35.6324 22.0303 35.6032 22.0443 35.5736C22.3192 34.9934 22.6517 34.3016 23.0663 33.758C23.4771 33.2194 24.1032 32.65 25 32.65C26.1741 32.65 27.067 33.1438 27.7729 33.7423C28.2502 34.1471 28.7001 34.6585 29.0834 35.0943C29.2284 35.2592 29.3639 35.4132 29.4878 35.5466C30.0007 36.0988 30.3789 36.3854 30.7533 36.466C31.0741 36.535 31.5969 36.4898 32.49 35.82C36.8729 32.5329 43.3665 33.1329 47.6353 37.9353C47.9472 38.2862 47.9156 38.8234 47.5647 39.1353C47.2138 39.4472 46.6766 39.4156 46.3647 39.0647C42.6335 34.8671 37.1271 34.4672 33.51 37.18C32.403 38.0103 31.3809 38.3401 30.3955 38.1279C29.4636 37.9272 28.7743 37.2763 28.2422 36.7035C28.0506 36.4972 27.8774 36.3 27.7119 36.1115C27.3647 35.7162 27.0515 35.3596 26.6734 35.039C26.163 34.6062 25.6459 34.35 25 34.35C24.8968 34.35 24.7104 34.4056 24.418 34.7889C24.1296 35.1672 23.8683 35.6941 23.5807 36.3014C23.5585 36.3482 23.536 36.3958 23.5133 36.444C23.2651 36.97 22.9827 37.5684 22.6646 38.007C22.4877 38.2508 22.2495 38.5188 21.931 38.6945Z" fill="#0B0B0E"/>
<path d="M11.9217 28.1667C12.0377 28.1667 12.1344 28.2037 12.2117 28.2778C12.289 28.3519 12.3277 28.4444 12.3277 28.5556C12.3277 28.662 12.289 28.7523 12.2117 28.8264C12.1344 28.8958 12.0377 28.9306 11.9217 28.9306H9.45674C9.33108 28.9306 9.232 28.8935 9.1595 28.8194C9.087 28.7454 9.05075 28.6505 9.05075 28.5347C9.05075 28.419 9.09425 28.3171 9.18125 28.2292L10.7617 26.6111C10.9357 26.4306 11.0759 26.2477 11.1822 26.0625C11.2885 25.8727 11.3417 25.6968 11.3417 25.5347C11.3417 25.3912 11.3055 25.2616 11.233 25.1458C11.1605 25.0301 11.0662 24.9375 10.9502 24.8681C10.8342 24.7986 10.7085 24.7639 10.5732 24.7639C10.4331 24.7639 10.2905 24.8102 10.1455 24.9028C10.0005 24.9907 9.8724 25.1088 9.76123 25.2569C9.70324 25.331 9.64524 25.3773 9.58724 25.3958C9.52924 25.4144 9.47607 25.4236 9.42774 25.4236C9.32141 25.4236 9.22233 25.3866 9.1305 25.3125C9.0435 25.2338 9 25.1435 9 25.0417C9 24.963 9.02658 24.8866 9.07975 24.8125C9.13775 24.7384 9.20783 24.662 9.28999 24.5833C9.47366 24.4074 9.68632 24.2662 9.92798 24.1597C10.1696 24.0532 10.4016 24 10.624 24C10.9526 24 11.2354 24.0648 11.4722 24.1944C11.709 24.3241 11.8927 24.5023 12.0232 24.7292C12.1537 24.956 12.2189 25.213 12.2189 25.5C12.2189 25.6944 12.1803 25.8935 12.1029 26.0972C12.0304 26.2963 11.9289 26.4907 11.7984 26.6806C11.6679 26.8704 11.5181 27.0532 11.349 27.2292L10.3702 28.2292L10.2905 28.1667H11.9217Z" fill="#0B0B0E"/>
<path d="M15.2577 28.9306C15.1369 28.9306 15.0354 28.8912 14.9532 28.8125C14.871 28.7292 14.8299 28.6273 14.8299 28.5069V25.2431L14.9822 25.2778L13.583 26.9375L13.5467 26.8472H16.0044C16.1204 26.8472 16.2171 26.8843 16.2944 26.9583C16.3717 27.0324 16.4104 27.125 16.4104 27.2361C16.4104 27.3426 16.3717 27.4329 16.2944 27.5069C16.2171 27.5764 16.1204 27.6111 16.0044 27.6111H12.945C12.8435 27.6111 12.7444 27.5718 12.6477 27.4931C12.5559 27.4144 12.51 27.3171 12.51 27.2014C12.51 27.0995 12.5462 27.0069 12.6187 26.9236L14.9097 24.2361C14.9484 24.1852 14.9991 24.1458 15.0619 24.1181C15.1248 24.0856 15.1949 24.0694 15.2722 24.0694C15.3978 24.0694 15.4993 24.1111 15.5767 24.1944C15.6588 24.2731 15.6999 24.3727 15.6999 24.4931V28.5069C15.6999 28.6273 15.6564 28.7292 15.5694 28.8125C15.4873 28.8912 15.3833 28.9306 15.2577 28.9306Z" fill="#0B0B0E"/>
<path d="M17.708 26.7083C17.476 26.7083 17.2706 26.6481 17.0918 26.5278C16.9129 26.4074 16.7728 26.2454 16.6713 26.0417C16.5698 25.838 16.519 25.6111 16.519 25.3611C16.519 25.1065 16.5698 24.8773 16.6713 24.6736C16.7728 24.4699 16.9129 24.3079 17.0918 24.1875C17.2706 24.0671 17.476 24.0069 17.708 24.0069C17.9448 24.0069 18.1502 24.0671 18.3242 24.1875C18.5031 24.3079 18.6408 24.4699 18.7375 24.6736C18.839 24.8773 18.8897 25.1065 18.8897 25.3611C18.8897 25.6111 18.8365 25.838 18.7302 26.0417C18.6239 26.2454 18.4813 26.4074 18.3025 26.5278C18.1285 26.6481 17.9303 26.7083 17.708 26.7083ZM17.708 26.0903C17.853 26.0903 17.9642 26.0208 18.0415 25.8819C18.1236 25.7431 18.1647 25.5694 18.1647 25.3611C18.1647 25.1528 18.1261 24.9792 18.0487 24.8403C17.9714 24.7014 17.8578 24.6319 17.708 24.6319C17.563 24.6319 17.4494 24.7014 17.3672 24.8403C17.2851 24.9792 17.244 25.1528 17.244 25.3611C17.244 25.5694 17.2827 25.7431 17.36 25.8819C17.4422 26.0208 17.5582 26.0903 17.708 26.0903ZM20.8182 29C20.5958 29 20.3953 28.9398 20.2164 28.8194C20.0376 28.6991 19.895 28.537 19.7887 28.3333C19.6824 28.1296 19.6292 27.9028 19.6292 27.6528C19.6292 27.3981 19.6799 27.169 19.7814 26.9653C19.8829 26.7616 20.0231 26.5995 20.2019 26.4792C20.3808 26.3588 20.5862 26.2986 20.8182 26.2986C21.055 26.2986 21.2604 26.3588 21.4344 26.4792C21.6132 26.5995 21.751 26.7616 21.8477 26.9653C21.9492 27.169 21.9999 27.3981 21.9999 27.6528C21.9999 27.9028 21.9467 28.1296 21.8404 28.3333C21.7341 28.537 21.5915 28.6991 21.4127 28.8194C21.2387 28.9398 21.0405 29 20.8182 29ZM20.8182 28.3819C20.9632 28.3819 21.0743 28.3125 21.1517 28.1736C21.2338 28.0347 21.2749 27.8611 21.2749 27.6528C21.2749 27.4444 21.2362 27.2708 21.1589 27.1319C21.0816 26.9931 20.968 26.9236 20.8182 26.9236C20.6732 26.9236 20.5596 26.9931 20.4774 27.1319C20.3953 27.2708 20.3542 27.4444 20.3542 27.6528C20.3542 27.8611 20.3929 28.0347 20.4702 28.1736C20.5523 28.3125 20.6683 28.3819 20.8182 28.3819ZM17.795 28.9444C17.7177 28.9444 17.6355 28.9144 17.5485 28.8542C17.4615 28.7894 17.418 28.706 17.418 28.6042C17.418 28.544 17.4422 28.4745 17.4905 28.3958L20.3759 24.2222C20.4629 24.1111 20.562 24.0556 20.6732 24.0556C20.7553 24.0556 20.8375 24.0856 20.9197 24.1458C21.0067 24.206 21.0502 24.2894 21.0502 24.3958C21.0502 24.456 21.026 24.5255 20.9777 24.6042L18.0922 28.7778C18.0052 28.8889 17.9062 28.9444 17.795 28.9444Z" fill="#0B0B0E"/>
<path d="M6 26.4C6 26.1791 6.17909 26 6.4 26H8.6C8.82091 26 9 26.1791 9 26.4C9 26.6209 8.82091 26.8 8.6 26.8H6.4C6.17909 26.8 6 26.6209 6 26.4Z" fill="#0B0B0E"/>
</svg>
