<svg width="50" height="50" viewBox="0 0 50 50" fill="none" xmlns="http://www.w3.org/2000/svg">
<path d="M47 31.5H3V45L5.5 47H42.5H45.5L47 44V31.5Z" fill="#55C1F6"/>
<path d="M19.4 42.2C19.592 42.2 19.752 42.264 19.88 42.392C20.008 42.52 20.072 42.68 20.072 42.872C20.072 43.056 20.008 43.212 19.88 43.34C19.752 43.46 19.592 43.52 19.4 43.52H15.32C15.112 43.52 14.948 43.456 14.828 43.328C14.708 43.2 14.648 43.036 14.648 42.836C14.648 42.636 14.72 42.46 14.864 42.308L17.48 39.512C17.768 39.2 18 38.884 18.176 38.564C18.352 38.236 18.44 37.932 18.44 37.652C18.44 37.404 18.38 37.18 18.26 36.98C18.14 36.78 17.984 36.62 17.792 36.5C17.6 36.38 17.392 36.32 17.168 36.32C16.936 36.32 16.7 36.4 16.46 36.56C16.22 36.712 16.008 36.916 15.824 37.172C15.728 37.3 15.632 37.38 15.536 37.412C15.44 37.444 15.352 37.46 15.272 37.46C15.096 37.46 14.932 37.396 14.78 37.268C14.636 37.132 14.564 36.976 14.564 36.8C14.564 36.664 14.608 36.532 14.696 36.404C14.792 36.276 14.908 36.144 15.044 36.008C15.348 35.704 15.7 35.46 16.1 35.276C16.5 35.092 16.884 35 17.252 35C17.796 35 18.264 35.112 18.656 35.336C19.048 35.56 19.352 35.868 19.568 36.26C19.784 36.652 19.892 37.096 19.892 37.592C19.892 37.928 19.828 38.272 19.7 38.624C19.58 38.968 19.412 39.304 19.196 39.632C18.98 39.96 18.732 40.276 18.452 40.58L16.832 42.308L16.7 42.2H19.4Z" fill="#0B0B0E"/>
<path d="M24.9215 43.52C24.7215 43.52 24.5535 43.452 24.4175 43.316C24.2815 43.172 24.2135 42.996 24.2135 42.788V37.148L24.4655 37.208L22.1495 40.076L22.0895 39.92H26.1575C26.3495 39.92 26.5095 39.984 26.6375 40.112C26.7655 40.24 26.8295 40.4 26.8295 40.592C26.8295 40.776 26.7655 40.932 26.6375 41.06C26.5095 41.18 26.3495 41.24 26.1575 41.24H21.0935C20.9255 41.24 20.7615 41.172 20.6015 41.036C20.4495 40.9 20.3735 40.732 20.3735 40.532C20.3735 40.356 20.4335 40.196 20.5535 40.052L24.3455 35.408C24.4095 35.32 24.4935 35.252 24.5975 35.204C24.7015 35.148 24.8175 35.12 24.9455 35.12C25.1535 35.12 25.3215 35.192 25.4495 35.336C25.5855 35.472 25.6535 35.644 25.6535 35.852V42.788C25.6535 42.996 25.5815 43.172 25.4375 43.316C25.3015 43.452 25.1295 43.52 24.9215 43.52Z" fill="#0B0B0E"/>
<path d="M28.9778 39.68C28.5938 39.68 28.2538 39.576 27.9578 39.368C27.6618 39.16 27.4298 38.88 27.2618 38.528C27.0938 38.176 27.0098 37.784 27.0098 37.352C27.0098 36.912 27.0938 36.516 27.2618 36.164C27.4298 35.812 27.6618 35.532 27.9578 35.324C28.2538 35.116 28.5938 35.012 28.9778 35.012C29.3698 35.012 29.7098 35.116 29.9978 35.324C30.2938 35.532 30.5218 35.812 30.6818 36.164C30.8498 36.516 30.9338 36.912 30.9338 37.352C30.9338 37.784 30.8458 38.176 30.6698 38.528C30.4938 38.88 30.2578 39.16 29.9618 39.368C29.6738 39.576 29.3458 39.68 28.9778 39.68ZM28.9778 38.612C29.2178 38.612 29.4018 38.492 29.5298 38.252C29.6658 38.012 29.7338 37.712 29.7338 37.352C29.7338 36.992 29.6698 36.692 29.5418 36.452C29.4138 36.212 29.2258 36.092 28.9778 36.092C28.7378 36.092 28.5498 36.212 28.4138 36.452C28.2778 36.692 28.2098 36.992 28.2098 37.352C28.2098 37.712 28.2738 38.012 28.4018 38.252C28.5378 38.492 28.7298 38.612 28.9778 38.612ZM34.1258 43.64C33.7578 43.64 33.4258 43.536 33.1298 43.328C32.8338 43.12 32.5978 42.84 32.4218 42.488C32.2458 42.136 32.1578 41.744 32.1578 41.312C32.1578 40.872 32.2418 40.476 32.4098 40.124C32.5778 39.772 32.8098 39.492 33.1058 39.284C33.4018 39.076 33.7418 38.972 34.1258 38.972C34.5178 38.972 34.8578 39.076 35.1458 39.284C35.4418 39.492 35.6698 39.772 35.8298 40.124C35.9978 40.476 36.0818 40.872 36.0818 41.312C36.0818 41.744 35.9938 42.136 35.8178 42.488C35.6418 42.84 35.4058 43.12 35.1098 43.328C34.8218 43.536 34.4938 43.64 34.1258 43.64ZM34.1258 42.572C34.3658 42.572 34.5498 42.452 34.6778 42.212C34.8138 41.972 34.8818 41.672 34.8818 41.312C34.8818 40.952 34.8178 40.652 34.6898 40.412C34.5618 40.172 34.3738 40.052 34.1258 40.052C33.8858 40.052 33.6978 40.172 33.5618 40.412C33.4258 40.652 33.3578 40.952 33.3578 41.312C33.3578 41.672 33.4218 41.972 33.5498 42.212C33.6858 42.452 33.8778 42.572 34.1258 42.572ZM29.1218 43.544C28.9938 43.544 28.8578 43.492 28.7138 43.388C28.5698 43.276 28.4978 43.132 28.4978 42.956C28.4978 42.852 28.5378 42.732 28.6178 42.596L33.3938 35.384C33.5378 35.192 33.7018 35.096 33.8858 35.096C34.0218 35.096 34.1578 35.148 34.2938 35.252C34.4378 35.356 34.5098 35.5 34.5098 35.684C34.5098 35.788 34.4698 35.908 34.3898 36.044L29.6138 43.256C29.4698 43.448 29.3058 43.544 29.1218 43.544Z" fill="#0B0B0E"/>
<path fill-rule="evenodd" clip-rule="evenodd" d="M46.5 32.4H3.5V30.6H46.5V32.4Z" fill="#0B0B0E"/>
<path fill-rule="evenodd" clip-rule="evenodd" d="M43.6393 9.36662C43.9891 9.71974 43.9865 10.2896 43.6333 10.6394L31.7652 22.3962C31.4497 22.7087 30.9534 22.7444 30.5964 22.4802L24.145 17.7054L18.3611 24.3735C18.2134 24.5438 18.0071 24.6525 17.7831 24.678L7.10176 25.8942C6.60789 25.9505 6.16195 25.5957 6.10571 25.1018C6.04948 24.608 6.40425 24.162 6.89812 24.1058L17.2311 22.9292L23.3311 15.8968C23.6391 15.5417 24.1685 15.4834 24.5463 15.7631L31.0468 20.5742L42.3665 9.36062C42.7197 9.01081 43.2895 9.01349 43.6393 9.36662Z" fill="#0B0B0E"/>
<path fill-rule="evenodd" clip-rule="evenodd" d="M44 3.8H6C4.78497 3.8 3.8 4.78497 3.8 6V44C3.8 45.215 4.78497 46.2 6 46.2H44C45.215 46.2 46.2 45.215 46.2 44V6C46.2 4.78497 45.215 3.8 44 3.8ZM6 2C3.79086 2 2 3.79086 2 6V44C2 46.2091 3.79086 48 6 48H44C46.2091 48 48 46.2091 48 44V6C48 3.79086 46.2091 2 44 2H6Z" fill="#0B0B0E"/>
</svg>
