<svg width="50" height="50" viewBox="0 0 50 50" fill="none" xmlns="http://www.w3.org/2000/svg">
<path d="M7 8H3V12H7V8Z" fill="#FF371A"/>
<path d="M7 18H3V22H7V18Z" fill="#FF371A"/>
<path d="M7 28H3V32H7V28Z" fill="#FF371A"/>
<path d="M7 38H3V42H7V38Z" fill="#FF371A"/>
<path d="M2.81239 7C2.33582 7.08984 1.99207 7.51172 1.99989 8V12C1.99989 12.5508 2.44911 13 2.99989 13H6.99989C7.55067 13 7.99989 12.5508 7.99989 12V8C7.99989 7.44922 7.55067 7 6.99989 7H2.99989C2.96864 7 2.93739 7 2.90614 7C2.87489 7 2.84364 7 2.81239 7ZM3.99989 9H5.99989V11H3.99989V9ZM10.7186 9C10.1679 9.07812 9.78114 9.58984 9.85926 10.1406C9.93739 10.6914 10.4491 11.0781 10.9999 11H46.9999C47.3593 11.0039 47.6952 10.8164 47.8788 10.5039C48.0585 10.1914 48.0585 9.80859 47.8788 9.49609C47.6952 9.18359 47.3593 8.99609 46.9999 9H10.9999C10.9686 9 10.9374 9 10.9061 9C10.8749 9 10.8436 9 10.8124 9C10.7811 9 10.7499 9 10.7186 9ZM2.81239 17C2.33582 17.0898 1.99207 17.5117 1.99989 18V22C1.99989 22.5508 2.44911 23 2.99989 23H6.99989C7.55067 23 7.99989 22.5508 7.99989 22V18C7.99989 17.4492 7.55067 17 6.99989 17H2.99989C2.96864 17 2.93739 17 2.90614 17C2.87489 17 2.84364 17 2.81239 17ZM3.99989 19H5.99989V21H3.99989V19ZM10.7186 19C10.1679 19.0781 9.78114 19.5898 9.85926 20.1406C9.93739 20.6914 10.4491 21.0781 10.9999 21H46.9999C47.3593 21.0039 47.6952 20.8164 47.8788 20.5039C48.0585 20.1914 48.0585 19.8086 47.8788 19.4961C47.6952 19.1836 47.3593 18.9961 46.9999 19H10.9999C10.9686 19 10.9374 19 10.9061 19C10.8749 19 10.8436 19 10.8124 19C10.7811 19 10.7499 19 10.7186 19ZM2.81239 27C2.33582 27.0898 1.99207 27.5117 1.99989 28V32C1.99989 32.5508 2.44911 33 2.99989 33H6.99989C7.55067 33 7.99989 32.5508 7.99989 32V28C7.99989 27.4492 7.55067 27 6.99989 27H2.99989C2.96864 27 2.93739 27 2.90614 27C2.87489 27 2.84364 27 2.81239 27ZM3.99989 29H5.99989V31H3.99989V29ZM10.7186 29C10.1679 29.0781 9.78114 29.5898 9.85926 30.1406C9.93739 30.6914 10.4491 31.0781 10.9999 31H46.9999C47.3593 31.0039 47.6952 30.8164 47.8788 30.5039C48.0585 30.1914 48.0585 29.8086 47.8788 29.4961C47.6952 29.1836 47.3593 28.9961 46.9999 29H10.9999C10.9686 29 10.9374 29 10.9061 29C10.8749 29 10.8436 29 10.8124 29C10.7811 29 10.7499 29 10.7186 29ZM2.81239 37C2.33582 37.0898 1.99207 37.5117 1.99989 38V42C1.99989 42.5508 2.44911 43 2.99989 43H6.99989C7.55067 43 7.99989 42.5508 7.99989 42V38C7.99989 37.4492 7.55067 37 6.99989 37H2.99989C2.96864 37 2.93739 37 2.90614 37C2.87489 37 2.84364 37 2.81239 37ZM3.99989 39H5.99989V41H3.99989V39ZM10.7186 39C10.1679 39.0781 9.78114 39.5898 9.85926 40.1406C9.93739 40.6914 10.4491 41.0781 10.9999 41H46.9999C47.3593 41.0039 47.6952 40.8164 47.8788 40.5039C48.0585 40.1914 48.0585 39.8086 47.8788 39.4961C47.6952 39.1836 47.3593 38.9961 46.9999 39H10.9999C10.9686 39 10.9374 39 10.9061 39C10.8749 39 10.8436 39 10.8124 39C10.7811 39 10.7499 39 10.7186 39Z" fill="#0B0B0E"/>
</svg>
