<svg width="50" height="50" viewBox="0 0 50 50" fill="none" xmlns="http://www.w3.org/2000/svg">
<g clip-path="url(#clip0_49_3446)">
<mask id="mask0_49_3446" style="mask-type:luminance" maskUnits="userSpaceOnUse" x="0" y="0" width="50" height="50">
<path d="M50 0H0V50H50V0Z" fill="white"/>
</mask>
<g mask="url(#mask0_49_3446)">
<path fill-rule="evenodd" clip-rule="evenodd" d="M22 42.3C33.2114 42.3 42.3 33.2114 42.3 22C42.3 10.7886 33.2114 1.7 22 1.7C10.7886 1.7 1.7 10.7886 1.7 22C1.7 33.2114 10.7886 42.3 22 42.3ZM22 44C34.1503 44 44 34.1503 44 22C44 9.84974 34.1503 0 22 0C9.84974 0 0 9.84974 0 22C0 34.1503 9.84974 44 22 44Z" fill="#0B0B0E"/>
<path d="M26.4019 10.1152L22.208 21.4386C22.1688 21.5445 22.3077 21.6241 22.3792 21.5367L29.9282 12.3102C29.9663 12.2635 29.9549 12.194 29.9038 12.162L26.5487 10.0651C26.4949 10.0315 26.4239 10.0558 26.4019 10.1152Z" fill="#55C1F6"/>
<path fill-rule="evenodd" clip-rule="evenodd" d="M26.8789 11.2739L24.5643 17.5234L28.7306 12.4312L26.8789 11.2739ZM25.6046 9.8199C25.8137 9.25536 26.4885 9.02518 26.999 9.34425L30.3541 11.4412C30.8396 11.7446 30.9484 12.4053 30.5859 12.8484L23.0369 22.0749C22.3576 22.9051 21.0382 22.1492 21.4108 21.1434L25.6046 9.8199Z" fill="#0B0B0E"/>
<path d="M23.9734 32.8787L21.6222 22.0629C21.5983 21.9533 21.4398 21.96 21.4253 22.0712L20.0145 32.8871C20.0067 32.9469 20.0533 33 20.1137 33H23.8757C23.9395 33 23.987 32.9411 23.9734 32.8787Z" fill="#55C1F6"/>
<path fill-rule="evenodd" clip-rule="evenodd" d="M20.5825 21.9613C20.7203 20.9045 22.2264 20.8409 22.4528 21.8823L24.8041 32.6982C24.9328 33.2903 24.4817 33.85 23.8758 33.85H20.1137C19.5403 33.85 19.0975 33.3458 19.1717 32.7771L20.5825 21.9613ZM21.7094 26.4653L20.9679 32.15H22.9452L21.7094 26.4653Z" fill="#0B0B0E"/>
<path d="M18.0693 5.12571L21.9034 21.5853C21.9273 21.6882 21.7961 21.7531 21.7289 21.6716L11.0786 8.77089C11.0381 8.72186 11.053 8.648 11.1094 8.61858L17.9256 5.05976C17.9835 5.02951 18.0544 5.06206 18.0693 5.12571Z" fill="#55C1F6"/>
<path fill-rule="evenodd" clip-rule="evenodd" d="M17.5322 4.30628C18.0827 4.0189 18.7563 4.32814 18.8972 4.93288L22.7313 21.3924C22.959 22.3699 21.7124 22.9868 21.0734 22.2128L10.4231 9.31203C10.0386 8.84627 10.1807 8.14464 10.7161 7.8651L17.5322 4.30628ZM17.4611 6.2612L12.3235 8.94362L20.351 18.6674L17.4611 6.2612Z" fill="#0B0B0E"/>
<path d="M33.1245 35.9057L22.5138 22.6423C22.44 22.5501 22.559 22.4286 22.6527 22.5005L35.9161 32.6691C35.9617 32.704 35.9685 32.77 35.9312 32.8135L33.2785 35.9083C33.2377 35.9559 33.1637 35.9547 33.1245 35.9057Z" fill="#55C1F6"/>
<path fill-rule="evenodd" clip-rule="evenodd" d="M27.0312 26.9283L33.2226 34.6676L34.7705 32.8618L27.0312 26.9283ZM35.3985 33.3432C35.3983 33.343 35.3987 33.3434 35.3985 33.3432ZM33.7878 35.3741C33.788 35.3743 33.7877 35.3739 33.7878 35.3741ZM21.8501 23.1733C21.1492 22.2972 22.2795 21.1432 23.1699 21.8259L22.6528 22.5005M23.1699 21.8259L36.4334 31.9945C36.8659 32.3262 36.9314 32.9529 36.5767 33.3667L33.924 36.4615C33.5363 36.9138 32.8329 36.9018 32.4609 36.4367L21.8501 23.1733" fill="#0B0B0E"/>
<path d="M8.49009 15.0661L21.7461 22.0097C21.83 22.0537 21.8114 22.1788 21.7184 22.1966L7.13681 24.974C7.06967 24.9868 7.00978 24.93 7.01901 24.8622L8.34461 15.1412C8.35397 15.0725 8.42869 15.034 8.49009 15.0661Z" fill="#55C1F6"/>
<path fill-rule="evenodd" clip-rule="evenodd" d="M7.50205 15.0263C7.59103 14.3738 8.30079 14.0076 8.88414 14.3131L22.1401 21.2567C22.9373 21.6743 22.7611 22.8631 21.8771 23.0315L7.2955 25.809C6.65775 25.9304 6.08873 25.3907 6.17645 24.7474L7.50205 15.0263ZM9.04206 16.315L8.00175 23.9439L19.4451 21.7642L9.04206 16.315Z" fill="#0B0B0E"/>
<path d="M50 36.5C50 43.9558 43.9558 50 36.5 50C29.0442 50 23 43.9558 23 36.5C23 29.0442 29.0442 23 36.5 23C43.9558 23 50 29.0442 50 36.5Z" fill="white"/>
<path fill-rule="evenodd" clip-rule="evenodd" d="M36.5 48.3C43.017 48.3 48.3 43.017 48.3 36.5C48.3 29.983 43.017 24.7 36.5 24.7C29.983 24.7 24.7 29.983 24.7 36.5C24.7 43.017 29.983 48.3 36.5 48.3ZM36.5 50C43.9558 50 50 43.9558 50 36.5C50 29.0442 43.9558 23 36.5 23C29.0442 23 23 29.0442 23 36.5C23 43.9558 29.0442 50 36.5 50Z" fill="#0B0B0E"/>
<path d="M46.76 37.6388C46.7075 37.9322 46.6678 38.2283 46.5998 38.5182C46.4181 39.293 46.1093 40.0033 45.5281 40.5614C45.112 40.961 44.6211 41.1981 44.0418 41.2091C41.3919 41.2595 38.742 41.2371 36.0922 41.2414C35.827 41.2418 35.7251 41.3952 35.812 41.6551C35.8398 41.7385 35.9015 41.7161 35.954 41.7165C36.3141 41.7185 36.6745 41.7177 37.0346 41.7177C38.3789 41.7177 39.7231 41.7204 41.0674 41.7141C41.2275 41.7133 41.2719 41.7582 41.2715 41.921C41.2696 42.745 41.2576 43.567 41.1758 44.389C41.1395 44.7547 40.9296 44.9195 40.659 45.0709C39.9362 45.476 39.1531 45.6939 38.3472 45.8355C37.617 45.9641 36.8803 46.0227 36.1392 45.992C35.3334 45.9586 34.5441 45.8343 33.7916 45.5185C32.9764 45.1763 32.5322 44.5431 32.3728 43.6802C32.0517 41.9438 32.1069 40.2243 32.5932 38.5237C32.687 38.1957 32.8313 37.892 33.0042 37.5998C33.2582 37.1715 33.6665 37.0016 34.1154 36.8974C34.8425 36.7287 35.5789 36.7243 36.3203 36.7558C37.1616 36.7912 38.0033 36.8502 38.8462 36.814C39.3541 36.792 39.8574 36.7243 40.3337 36.5293C41.187 36.18 41.6216 35.4898 41.8199 34.6139C41.999 33.8238 42.1082 33.0226 42.1677 32.2148C42.1812 32.0335 42.2298 31.9788 42.4158 31.9823C44.2545 32.0185 45.8002 33.1756 46.4084 34.9836C46.5667 35.4544 46.6863 35.9334 46.7245 36.4313C46.7272 36.4683 46.7477 36.5037 46.76 36.5395V37.6388Z" fill="#FFCC66"/>
<path d="M27 35.3226C27.0521 35.0351 27.0922 34.7448 27.1586 34.4609C27.3365 33.6975 27.6492 33.0033 28.2273 32.4613C28.6781 32.0389 29.2111 31.8037 29.8278 31.7911C32.3997 31.7384 34.972 31.7648 37.544 31.7569C37.6296 31.7569 37.7636 31.8061 37.7929 31.7207C37.8327 31.6043 37.8076 31.4631 37.8033 31.333C37.8018 31.2803 37.752 31.2842 37.7142 31.2834C37.6628 31.2822 37.6111 31.2826 37.5598 31.2826C35.8944 31.2826 34.2287 31.2803 32.5634 31.2865C32.4028 31.2873 32.3604 31.2445 32.3623 31.0816C32.3708 30.2974 32.3669 29.5143 32.4349 28.7305C32.4692 28.3329 32.6444 28.0961 32.9786 27.9172C33.7031 27.5294 34.4765 27.3079 35.2754 27.1652C36.0044 27.035 36.7416 26.9772 37.4822 27.0082C38.2873 27.0417 39.0762 27.1652 39.8303 27.4778C40.6967 27.8369 41.1182 28.524 41.2791 29.4274C41.4798 30.5562 41.4914 31.6869 41.3671 32.8236C41.2919 33.513 41.1491 34.184 40.9117 34.838C40.6323 35.6077 40.1097 36.0278 39.3147 36.1493C38.669 36.248 38.0252 36.2728 37.3749 36.2468C36.5015 36.2122 35.6278 36.1489 34.7532 36.1878C34.3105 36.2075 33.8725 36.2689 33.4487 36.4148C32.651 36.6893 32.1481 37.2493 31.9011 38.0572C31.6583 38.8517 31.5518 39.6736 31.4372 40.4937C31.4272 40.5649 31.4156 40.6357 31.4059 40.7068C31.3631 41.0199 31.3623 41.0309 31.0617 41.0105C29.7305 40.92 28.6889 40.3053 27.9421 39.1863C27.4157 38.3974 27.1362 37.5152 27.0378 36.5713C27.0324 36.5206 27.0127 36.4714 27 36.4215C27 36.0549 27 35.6891 27 35.3226Z" fill="#55C1F6"/>
</g>
</g>
<defs>
<clipPath id="clip0_49_3446">
<rect width="50" height="50" fill="white"/>
</clipPath>
</defs>
</svg>
