<svg width="50" height="50" viewBox="0 0 50 50" fill="none" xmlns="http://www.w3.org/2000/svg">
<path d="M25 2C12.3086 2 2 12.3086 2 25C2 37.6914 12.3086 48 25 48C37.6914 48 48 37.6914 48 25C48 12.3086 37.6914 2 25 2ZM25 4C36.6094 4 46 13.3906 46 25C46 36.6094 36.6094 46 25 46C13.3906 46 4 36.6094 4 25C4 13.3906 13.3906 4 25 4Z" fill="#0B0B0E"/>
<path fill-rule="evenodd" clip-rule="evenodd" d="M25 10C16.7269 10 10 16.7898 10 25.1905C10 30.6767 12.8706 35.4801 17.171 38.1505L16.116 39.8495C11.2462 36.8257 8 31.3895 8 25.1905C8 15.7076 15.6 8 25 8C34.4 8 42 15.7076 42 25.1905C42 31.3895 38.7538 36.8257 33.884 39.8495L32.8289 38.1505C37.1294 35.4801 40 30.6767 40 25.1905C40 16.7898 33.2731 10 25 10Z" fill="#0B0B0E"/>
<path d="M25 28C26.6569 28 28 26.6569 28 25C28 23.3431 26.6569 22 25 22C23.3431 22 22 23.3431 22 25C22 26.6569 23.3431 28 25 28Z" fill="#0B0B0E"/>
<path d="M32.9999 19L34.424 21.4667L19.6239 30.0115H17.1316L18.1998 27.5448L32.9999 19Z" fill="#0B0B0E"/>
<path d="M25 27C26.1046 27 27 26.1046 27 25C27 23.8954 26.1046 23 25 23C23.8954 23 23 23.8954 23 25C23 26.1046 23.8954 27 25 27Z" fill="#FF371A"/>
</svg>
