<svg width="50" height="50" viewBox="0 0 50 50" fill="none" xmlns="http://www.w3.org/2000/svg">
<path d="M10 25.5C10 24.1193 8.88071 23 7.5 23C6.11929 23 5 24.1193 5 25.5V35.5C5 36.8807 6.11929 38 7.5 38C8.88071 38 10 36.8807 10 35.5V25.5Z" fill="#FF371A"/>
<path d="M30 24.5C30 23.1193 28.8807 22 27.5 22C26.1193 22 25 23.1193 25 24.5V35.5C25 36.8807 26.1193 38 27.5 38C28.8807 38 30 36.8807 30 35.5V24.5Z" fill="#FF371A"/>
<path d="M20 15.5C20 14.1193 18.8807 13 17.5 13C16.1193 13 15 14.1193 15 15.5V35.5C15 36.8807 16.1193 38 17.5 38C18.8807 38 20 36.8807 20 35.5V15.5Z" fill="#FF371A"/>
<path d="M39 15.5C39 14.1193 37.8807 13 36.5 13C35.1193 13 34 14.1193 34 15.5V35.5C34 36.8807 35.1193 38 36.5 38C37.8807 38 39 36.8807 39 35.5V15.5Z" fill="#FF371A"/>
<path fill-rule="evenodd" clip-rule="evenodd" d="M4 25.5789C4 23.6023 5.567 22 7.5 22C9.433 22 11 23.6023 11 25.5789V35.4211C11 37.3977 9.433 39 7.5 39C5.567 39 4 37.3977 4 35.4211V25.5789ZM7.5 23.7895C6.5335 23.7895 5.75 24.5906 5.75 25.5789V35.4211C5.75 36.4094 6.5335 37.2105 7.5 37.2105C8.4665 37.2105 9.25 36.4094 9.25 35.4211V25.5789C9.25 24.5906 8.4665 23.7895 7.5 23.7895Z" fill="#0B0B0E"/>
<path fill-rule="evenodd" clip-rule="evenodd" d="M4 16.5C4 14.567 5.567 13 7.5 13C9.433 13 11 14.567 11 16.5C11 18.433 9.433 20 7.5 20C5.567 20 4 18.433 4 16.5ZM7.5 14.75C6.5335 14.75 5.75 15.5335 5.75 16.5C5.75 17.4665 6.5335 18.25 7.5 18.25C8.4665 18.25 9.25 17.4665 9.25 16.5C9.25 15.5335 8.4665 14.75 7.5 14.75Z" fill="#0B0B0E"/>
<path fill-rule="evenodd" clip-rule="evenodd" d="M4 7.5C4 5.567 5.567 4 7.5 4C9.433 4 11 5.567 11 7.5C11 9.433 9.433 11 7.5 11C5.567 11 4 9.433 4 7.5ZM7.5 5.75C6.5335 5.75 5.75 6.5335 5.75 7.5C5.75 8.4665 6.5335 9.25 7.5 9.25C8.4665 9.25 9.25 8.4665 9.25 7.5C9.25 6.5335 8.4665 5.75 7.5 5.75Z" fill="#0B0B0E"/>
<path fill-rule="evenodd" clip-rule="evenodd" d="M14 7.5C14 5.567 15.567 4 17.5 4C19.433 4 21 5.567 21 7.5C21 9.433 19.433 11 17.5 11C15.567 11 14 9.433 14 7.5ZM17.5 5.75C16.5335 5.75 15.75 6.5335 15.75 7.5C15.75 8.4665 16.5335 9.25 17.5 9.25C18.4665 9.25 19.25 8.4665 19.25 7.5C19.25 6.5335 18.4665 5.75 17.5 5.75Z" fill="#0B0B0E"/>
<path fill-rule="evenodd" clip-rule="evenodd" d="M24 7.5C24 5.567 25.567 4 27.5 4C29.433 4 31 5.567 31 7.5C31 9.433 29.433 11 27.5 11C25.567 11 24 9.433 24 7.5ZM27.5 5.75C26.5335 5.75 25.75 6.5335 25.75 7.5C25.75 8.4665 26.5335 9.25 27.5 9.25C28.4665 9.25 29.25 8.4665 29.25 7.5C29.25 6.5335 28.4665 5.75 27.5 5.75Z" fill="#0B0B0E"/>
<path fill-rule="evenodd" clip-rule="evenodd" d="M33 7.5C33 5.567 34.567 4 36.5 4C38.433 4 40 5.567 40 7.5C40 9.433 38.433 11 36.5 11C34.567 11 33 9.433 33 7.5ZM36.5 5.75C35.5335 5.75 34.75 6.5335 34.75 7.5C34.75 8.4665 35.5335 9.25 36.5 9.25C37.4665 9.25 38.25 8.4665 38.25 7.5C38.25 6.5335 37.4665 5.75 36.5 5.75Z" fill="#0B0B0E"/>
<path fill-rule="evenodd" clip-rule="evenodd" d="M24 16.5C24 14.567 25.567 13 27.5 13C29.433 13 31 14.567 31 16.5C31 18.433 29.433 20 27.5 20C25.567 20 24 18.433 24 16.5ZM27.5 14.75C26.5335 14.75 25.75 15.5335 25.75 16.5C25.75 17.4665 26.5335 18.25 27.5 18.25C28.4665 18.25 29.25 17.4665 29.25 16.5C29.25 15.5335 28.4665 14.75 27.5 14.75Z" fill="#0B0B0E"/>
<path fill-rule="evenodd" clip-rule="evenodd" d="M14 15.6C14 13.6118 15.567 12 17.5 12C19.433 12 21 13.6118 21 15.6V35.4C21 37.3882 19.433 39 17.5 39C15.567 39 14 37.3882 14 35.4V15.6ZM17.5 13.8C16.5335 13.8 15.75 14.6059 15.75 15.6V35.4C15.75 36.3941 16.5335 37.2 17.5 37.2C18.4665 37.2 19.25 36.3941 19.25 35.4V15.6C19.25 14.6059 18.4665 13.8 17.5 13.8Z" fill="#0B0B0E"/>
<path fill-rule="evenodd" clip-rule="evenodd" d="M24 24.6C24 22.6118 25.567 21 27.5 21C29.433 21 31 22.6118 31 24.6V35.4C31 37.3882 29.433 39 27.5 39C25.567 39 24 37.3882 24 35.4V24.6ZM27.5 22.8C26.5335 22.8 25.75 23.6059 25.75 24.6V35.4C25.75 36.3941 26.5335 37.2 27.5 37.2C28.4665 37.2 29.25 36.3941 29.25 35.4V24.6C29.25 23.6059 28.4665 22.8 27.5 22.8Z" fill="#0B0B0E"/>
<path fill-rule="evenodd" clip-rule="evenodd" d="M33 15.6C33 13.6118 34.567 12 36.5 12C38.433 12 40 13.6118 40 15.6V35.4C40 37.3882 38.433 39 36.5 39C34.567 39 33 37.3882 33 35.4V15.6ZM36.5 13.8C35.5335 13.8 34.75 14.6059 34.75 15.6V35.4C34.75 36.3941 35.5335 37.2 36.5 37.2C37.4665 37.2 38.25 36.3941 38.25 35.4V15.6C38.25 14.6059 37.4665 13.8 36.5 13.8Z" fill="#0B0B0E"/>
<path d="M50 36.5C50 43.9558 43.9558 50 36.5 50C29.0442 50 23 43.9558 23 36.5C23 29.0442 29.0442 23 36.5 23C43.9558 23 50 29.0442 50 36.5Z" fill="white"/>
<path fill-rule="evenodd" clip-rule="evenodd" d="M36.5 48.3C43.017 48.3 48.3 43.017 48.3 36.5C48.3 29.983 43.017 24.7 36.5 24.7C29.983 24.7 24.7 29.983 24.7 36.5C24.7 43.017 29.983 48.3 36.5 48.3ZM36.5 50C43.9558 50 50 43.9558 50 36.5C50 29.0442 43.9558 23 36.5 23C29.0442 23 23 29.0442 23 36.5C23 43.9558 29.0442 50 36.5 50Z" fill="#0B0B0E"/>
<path d="M46.76 37.6388C46.7075 37.9322 46.6678 38.2283 46.5998 38.5182C46.4181 39.293 46.1093 40.0033 45.5281 40.5614C45.112 40.961 44.6211 41.1981 44.0418 41.2091C41.3919 41.2595 38.742 41.2371 36.0922 41.2414C35.827 41.2418 35.7251 41.3952 35.812 41.6551C35.8398 41.7385 35.9015 41.7161 35.954 41.7165C36.3141 41.7185 36.6745 41.7177 37.0346 41.7177C38.3789 41.7177 39.7231 41.7204 41.0674 41.7141C41.2275 41.7133 41.2719 41.7582 41.2715 41.921C41.2696 42.745 41.2576 43.567 41.1758 44.389C41.1395 44.7547 40.9296 44.9195 40.659 45.0709C39.9362 45.476 39.1531 45.6939 38.3472 45.8355C37.617 45.9641 36.8803 46.0227 36.1392 45.992C35.3334 45.9586 34.5441 45.8343 33.7916 45.5185C32.9764 45.1763 32.5322 44.5431 32.3728 43.6802C32.0517 41.9438 32.1069 40.2243 32.5932 38.5237C32.687 38.1957 32.8313 37.892 33.0042 37.5998C33.2582 37.1715 33.6665 37.0016 34.1154 36.8974C34.8425 36.7287 35.5789 36.7243 36.3203 36.7558C37.1616 36.7912 38.0033 36.8502 38.8462 36.814C39.3541 36.792 39.8574 36.7243 40.3337 36.5293C41.187 36.18 41.6216 35.4898 41.8199 34.6139C41.999 33.8238 42.1082 33.0226 42.1677 32.2148C42.1812 32.0335 42.2298 31.9788 42.4158 31.9823C44.2545 32.0185 45.8002 33.1756 46.4084 34.9836C46.5667 35.4544 46.6863 35.9334 46.7245 36.4313C46.7272 36.4683 46.7477 36.5037 46.76 36.5395V37.6388Z" fill="#FFCC66"/>
<path d="M27 35.3226C27.0521 35.0351 27.0922 34.7448 27.1586 34.4609C27.3365 33.6975 27.6492 33.0033 28.2273 32.4613C28.6781 32.0389 29.2111 31.8037 29.8278 31.7911C32.3997 31.7384 34.972 31.7648 37.544 31.7569C37.6296 31.7569 37.7636 31.8061 37.7929 31.7207C37.8327 31.6043 37.8076 31.4631 37.8033 31.333C37.8018 31.2803 37.752 31.2842 37.7142 31.2834C37.6628 31.2822 37.6111 31.2826 37.5598 31.2826C35.8944 31.2826 34.2287 31.2803 32.5634 31.2865C32.4028 31.2873 32.3604 31.2445 32.3623 31.0816C32.3708 30.2974 32.3669 29.5143 32.4349 28.7305C32.4692 28.3329 32.6444 28.0961 32.9786 27.9172C33.7031 27.5294 34.4765 27.3079 35.2754 27.1652C36.0044 27.035 36.7416 26.9772 37.4822 27.0082C38.2873 27.0417 39.0762 27.1652 39.8303 27.4778C40.6967 27.8369 41.1182 28.524 41.2791 29.4274C41.4798 30.5562 41.4914 31.6869 41.3671 32.8236C41.2919 33.513 41.1491 34.184 40.9117 34.838C40.6323 35.6077 40.1097 36.0278 39.3147 36.1493C38.669 36.248 38.0252 36.2728 37.3749 36.2468C36.5015 36.2122 35.6278 36.1489 34.7532 36.1878C34.3105 36.2075 33.8725 36.2689 33.4487 36.4148C32.651 36.6893 32.1481 37.2493 31.9011 38.0572C31.6583 38.8517 31.5518 39.6736 31.4372 40.4937C31.4272 40.5649 31.4156 40.6357 31.4059 40.7068C31.3631 41.0199 31.3623 41.0309 31.0617 41.0105C29.7305 40.92 28.6889 40.3053 27.9421 39.1863C27.4157 38.3974 27.1362 37.5152 27.0378 36.5713C27.0324 36.5206 27.0127 36.4714 27 36.4215C27 36.0549 27 35.6891 27 35.3226Z" fill="#55C1F6"/>
</svg>
