<svg width="50" height="50" viewBox="0 0 50 50" fill="none" xmlns="http://www.w3.org/2000/svg">
<path fill-rule="evenodd" clip-rule="evenodd" d="M44 20.7H7C4.62518 20.7 2.7 22.6252 2.7 25C2.7 27.3748 4.62518 29.3 7 29.3H44C46.3748 29.3 48.3 27.3748 48.3 25C48.3 22.6252 46.3748 20.7 44 20.7ZM7 19C3.68629 19 1 21.6863 1 25C1 28.3137 3.68629 31 7 31H44C47.3137 31 50 28.3137 50 25C50 21.6863 47.3137 19 44 19H7Z" fill="#0B0B0E"/>
<path d="M1 25C1 21.6863 3.68629 19 7 19H24C27.3137 19 30 21.6863 30 25C30 28.3137 27.3137 31 24 31H7C3.68629 31 1 28.3137 1 25Z" fill="#FF371A"/>
<path fill-rule="evenodd" clip-rule="evenodd" d="M24 20.7H7C4.62518 20.7 2.7 22.6252 2.7 25C2.7 27.3748 4.62518 29.3 7 29.3H24C26.3748 29.3 28.3 27.3748 28.3 25C28.3 22.6252 26.3748 20.7 24 20.7ZM7 19C3.68629 19 1 21.6863 1 25C1 28.3137 3.68629 31 7 31H24C27.3137 31 30 28.3137 30 25C30 21.6863 27.3137 19 24 19H7Z" fill="#0B0B0E"/>
</svg>
