<svg width="50" height="50" viewBox="0 0 50 50" fill="none" xmlns="http://www.w3.org/2000/svg">
<path d="M27 24.5C27 18.1 21 14.1667 18 13L34 11.5C39.1667 12 49.5 15.3 49.5 24.5C49.5 33.7 41.1667 37.6667 37 38.5C29.8333 38.3333 15.5 37.9 15.5 37.5C24.3 37.5 26.8333 28.8333 27 24.5Z" fill="#55C1F6"/>
<path d="M14 11C6.28125 11 0 17.2812 0 25C0 32.7188 6.28125 39 14 39H36C43.7188 39 50 32.7188 50 25C50 17.2812 43.7188 11 36 11H14ZM14 13C20.6406 13 26 18.3594 26 25C26 31.6406 20.6406 37 14 37C7.35938 37 2 31.6406 2 25C2 18.3594 7.35938 13 14 13ZM21.1562 13H36C42.6406 13 48 18.3594 48 25C48 31.6406 42.6406 37 36 37H21.1562C25.2422 34.5508 28 30.0977 28 25C28 19.9023 25.2422 15.4492 21.1562 13Z" fill="#0B0B0E"/>
</svg>
