<svg width="50" height="50" viewBox="0 0 50 50" fill="none" xmlns="http://www.w3.org/2000/svg">
<path d="M28 26.5C25.2 28.9 23.1666 27.5 22.5 26.5C21.3 24.9 22.6666 23.1667 23.5 22.5L39 16.5C36.5 18.8333 30.8 24.1 28 26.5Z" fill="#E75F63"/>
<path d="M25 2C12.3545 2 2 12.3545 2 25C2 37.6455 12.3545 48 25 48C37.6455 48 48 37.6455 48 25C48 12.3545 37.6455 2 25 2ZM25 4C36.5545 4 46 13.4455 46 25C46 36.5545 36.5545 46 25 46C13.4455 46 4 36.5545 4 25C4 13.4455 13.4455 4 25 4ZM24.9844 5.87891C24.8531 5.88096 24.7234 5.90885 24.6029 5.961C24.4823 6.01315 24.3732 6.08853 24.2818 6.18284C24.1904 6.27715 24.1185 6.38854 24.0701 6.51065C24.0218 6.63277 23.9979 6.76321 24 6.89453V8.95312C23.9981 9.08564 24.0226 9.2172 24.072 9.34017C24.1214 9.46314 24.1948 9.57506 24.2878 9.66943C24.3809 9.7638 24.4918 9.83873 24.614 9.88988C24.7363 9.94103 24.8675 9.96737 25 9.96737C25.1325 9.96737 25.2637 9.94103 25.386 9.88988C25.5082 9.83873 25.6191 9.7638 25.7122 9.66943C25.8052 9.57506 25.8786 9.46314 25.928 9.34017C25.9774 9.2172 26.0019 9.08564 26 8.95312V6.89453C26.0021 6.76058 25.9773 6.62757 25.927 6.5034C25.8767 6.37923 25.8019 6.26644 25.7072 6.17171C25.6125 6.07698 25.4997 6.00224 25.3755 5.95195C25.2513 5.90165 25.1183 5.87681 24.9844 5.87891ZM15.8926 8.30078C15.7193 8.31035 15.5515 8.36484 15.4057 8.45888C15.2599 8.55293 15.141 8.68329 15.0609 8.83717C14.9807 8.99105 14.9419 9.16314 14.9483 9.33654C14.9548 9.50994 15.0063 9.67868 15.0977 9.82617L16.1719 11.6172C16.2386 11.7316 16.3273 11.8316 16.4329 11.9114C16.5386 11.9913 16.659 12.0493 16.7873 12.0822C16.9155 12.1152 17.0491 12.1223 17.1801 12.1032C17.3111 12.0841 17.4371 12.0392 17.5506 11.971C17.6641 11.9029 17.763 11.8129 17.8415 11.7062C17.9199 11.5996 17.9764 11.4784 18.0077 11.3497C18.039 11.221 18.0444 11.0874 18.0236 10.9567C18.0028 10.8259 17.9563 10.7005 17.8867 10.5879L16.8125 8.79688C16.7198 8.63739 16.5849 8.50665 16.4225 8.4191C16.2602 8.33154 16.0767 8.2906 15.8926 8.30078ZM34.0781 8.30078C33.8988 8.29601 33.7215 8.33955 33.5649 8.42683C33.4082 8.51411 33.2778 8.64192 33.1875 8.79688L32.1133 10.5879C32.0437 10.7005 31.9972 10.8259 31.9764 10.9567C31.9556 11.0874 31.961 11.221 31.9923 11.3497C32.0236 11.4784 32.0801 11.5996 32.1585 11.7062C32.237 11.8129 32.3359 11.9029 32.4494 11.971C32.5629 12.0392 32.6889 12.0841 32.8199 12.1032C32.9509 12.1223 33.0845 12.1152 33.2127 12.0822C33.341 12.0493 33.4614 11.9913 33.5671 11.9114C33.6727 11.8316 33.7614 11.7316 33.8281 11.6172L34.9023 9.82617C34.9948 9.67659 35.0461 9.50529 35.0512 9.32954C35.0563 9.15378 35.015 8.97979 34.9314 8.8251C34.8478 8.67041 34.7249 8.5405 34.5751 8.44844C34.4253 8.35639 34.2539 8.30546 34.0781 8.30078ZM9.35938 14.8438C9.14388 14.8541 8.93752 14.9339 8.77108 15.0711C8.60464 15.2084 8.48706 15.3958 8.43587 15.6054C8.38468 15.815 8.40264 16.0355 8.48706 16.234C8.57148 16.4326 8.71784 16.5985 8.9043 16.707L10.6953 17.7812C10.808 17.8541 10.9342 17.9036 11.0665 17.9266C11.1987 17.9497 11.3342 17.9459 11.4649 17.9155C11.5956 17.8851 11.7189 17.8287 11.8274 17.7496C11.9358 17.6706 12.0273 17.5705 12.0962 17.4554C12.1652 17.3402 12.2103 17.2124 12.2288 17.0795C12.2474 16.9465 12.2389 16.8112 12.2041 16.6816C12.1692 16.552 12.1086 16.4308 12.0259 16.3251C11.9432 16.2194 11.8401 16.1314 11.7227 16.0664L9.93164 14.9922C9.7602 14.8862 9.56073 14.8344 9.35938 14.8438ZM40.0273 15C39.8953 14.9964 39.7639 15.019 39.6406 15.0664L23.6523 21.2285C23.4626 21.3019 23.2998 21.4313 23.1855 21.5996C21.9319 22.2669 21 23.4746 21 25C21 27.2098 22.7902 29 25 29C25.6909 29 26.2581 28.6809 26.8203 28.3809C27.0722 28.3905 27.3184 28.3047 27.5098 28.1406L40.6543 16.7559C40.8067 16.6239 40.9157 16.449 40.9669 16.2541C41.0182 16.0591 41.0094 15.8532 40.9416 15.6634C40.8738 15.4736 40.7502 15.3087 40.5871 15.1903C40.424 15.0719 40.2288 15.0056 40.0273 15ZM35.0176 18.9922L26.3184 26.5273C26.2908 26.5443 26.2641 26.5625 26.2383 26.582C25.8981 26.8447 25.4901 27 25 27C23.8098 27 23 26.1902 23 25C23 24.0571 23.5305 23.3841 24.3301 23.1191C24.3826 23.1013 24.4336 23.0791 24.4824 23.0527L35.0176 18.9922ZM7 23.8945C6.86749 23.8927 6.73593 23.9171 6.61296 23.9666C6.48999 24.016 6.37807 24.0893 6.2837 24.1824C6.18933 24.2754 6.11439 24.3863 6.06324 24.5085C6.0121 24.6308 5.98576 24.762 5.98576 24.8945C5.98576 25.0271 6.0121 25.1583 6.06324 25.2805C6.11439 25.4028 6.18933 25.5136 6.2837 25.6067C6.37807 25.6997 6.48999 25.7731 6.61296 25.8225C6.73593 25.8719 6.86749 25.8964 7 25.8945H9.06055C9.19306 25.8964 9.32462 25.8719 9.44759 25.8225C9.57056 25.7731 9.68248 25.6997 9.77685 25.6067C9.87122 25.5136 9.94615 25.4028 9.9973 25.2805C10.0484 25.1583 10.0748 25.0271 10.0748 24.8945C10.0748 24.762 10.0484 24.6308 9.9973 24.5085C9.94615 24.3863 9.87122 24.2754 9.77685 24.1824C9.68248 24.0893 9.57056 24.016 9.44759 23.9666C9.32462 23.9171 9.19306 23.8927 9.06055 23.8945H7ZM40.9395 23.8945C40.8069 23.8927 40.6754 23.9171 40.5524 23.9666C40.4294 24.016 40.3175 24.0893 40.2232 24.1824C40.1288 24.2754 40.0538 24.3863 40.0027 24.5085C39.9515 24.6308 39.9252 24.762 39.9252 24.8945C39.9252 25.0271 39.9515 25.1583 40.0027 25.2805C40.0538 25.4028 40.1288 25.5136 40.2232 25.6067C40.3175 25.6997 40.4294 25.7731 40.5524 25.8225C40.6754 25.8719 40.8069 25.8964 40.9395 25.8945H43C43.1325 25.8964 43.2641 25.8719 43.387 25.8225C43.51 25.7731 43.6219 25.6997 43.7163 25.6067C43.8107 25.5136 43.8856 25.4028 43.9368 25.2805C43.9879 25.1583 44.0142 25.0271 44.0142 24.8945C44.0142 24.762 43.9879 24.6308 43.9368 24.5085C43.8856 24.3863 43.8107 24.2754 43.7163 24.1824C43.6219 24.0893 43.51 24.016 43.387 23.9666C43.2641 23.9171 43.1325 23.8927 43 23.8945H40.9395ZM11.2363 31.8574C11.0455 31.8543 10.8578 31.9058 10.6953 32.0059L8.9043 33.082C8.7899 33.1487 8.68988 33.2375 8.61005 33.3431C8.53022 33.4487 8.47216 33.5692 8.43924 33.6974C8.40633 33.8257 8.39921 33.9592 8.4183 34.0902C8.43739 34.2213 8.48231 34.3472 8.55046 34.4607C8.6186 34.5743 8.70861 34.6731 8.81527 34.7516C8.92193 34.8301 9.04311 34.8866 9.17178 34.9179C9.30045 34.9491 9.43405 34.9545 9.56482 34.9338C9.6956 34.913 9.82094 34.8665 9.93359 34.7969L11.7246 33.7207C11.913 33.6105 12.0602 33.4417 12.1437 33.2401C12.2273 33.0384 12.2425 32.815 12.1872 32.6039C12.1319 32.3927 12.009 32.2055 11.8373 32.0707C11.6656 31.936 11.4546 31.861 11.2363 31.8574ZM38.7344 31.8574C38.5186 31.867 38.3117 31.9462 38.1446 32.0832C37.9776 32.2202 37.8594 32.4076 37.8077 32.6173C37.7561 32.8271 37.7737 33.0479 37.858 33.2468C37.9423 33.4457 38.0887 33.612 38.2754 33.7207L40.0664 34.7969C40.1791 34.8665 40.3044 34.913 40.4352 34.9338C40.566 34.9545 40.6996 34.9491 40.8282 34.9179C40.9569 34.8866 41.0781 34.8301 41.1847 34.7516C41.2914 34.6731 41.3814 34.5743 41.4495 34.4607C41.5177 34.3472 41.5626 34.2213 41.5817 34.0902C41.6008 33.9592 41.5937 33.8257 41.5608 33.6974C41.5278 33.5692 41.4698 33.4487 41.3899 33.3431C41.3101 33.2375 41.2101 33.1487 41.0957 33.082L39.3047 32.0059C39.1338 31.9002 38.9351 31.8485 38.7344 31.8574Z" fill="black"/>
</svg>
