<svg width="50" height="50" viewBox="0 0 50 50" fill="none" xmlns="http://www.w3.org/2000/svg">
<path d="M48 15H1V35H48V15Z" fill="#55C1F6"/>
<path d="M2 14C0.906937 14 0 14.9069 0 16V34C0 35.0931 0.906937 36 2 36H48C49.0931 36 50 35.0931 50 34V16C50 14.9069 49.0931 14 48 14H2ZM2 16H48V34H2V16ZM8 26C7.46957 26 6.96086 26.2107 6.58579 26.5858C6.21071 26.9609 6 27.4696 6 28C6 28.5304 6.21071 29.0391 6.58579 29.4142C6.96086 29.7893 7.46957 30 8 30C8.53043 30 9.03914 29.7893 9.41421 29.4142C9.78929 29.0391 10 28.5304 10 28C10 27.4696 9.78929 26.9609 9.41421 26.5858C9.03914 26.2107 8.53043 26 8 26ZM16 26C15.4696 26 14.9609 26.2107 14.5858 26.5858C14.2107 26.9609 14 27.4696 14 28C14 28.5304 14.2107 29.0391 14.5858 29.4142C14.9609 29.7893 15.4696 30 16 30C16.5304 30 17.0391 29.7893 17.4142 29.4142C17.7893 29.0391 18 28.5304 18 28C18 27.4696 17.7893 26.9609 17.4142 26.5858C17.0391 26.2107 16.5304 26 16 26ZM24 26C23.4696 26 22.9609 26.2107 22.5858 26.5858C22.2107 26.9609 22 27.4696 22 28C22 28.5304 22.2107 29.0391 22.5858 29.4142C22.9609 29.7893 23.4696 30 24 30C24.5304 30 25.0391 29.7893 25.4142 29.4142C25.7893 29.0391 26 28.5304 26 28C26 27.4696 25.7893 26.9609 25.4142 26.5858C25.0391 26.2107 24.5304 26 24 26Z" fill="#0B0B0E"/>
</svg>
