<svg width="50" height="50" viewBox="0 0 50 50" fill="none" xmlns="http://www.w3.org/2000/svg">
<path d="M5 21V35.9677V37H38.5802L45 28.7419L38.5802 21H5Z" fill="#FF371A"/>
<path d="M3.49977 35.5002C3.49977 37.1452 4.8548 38.5002 6.49977 38.5002H23.4998V46.5002H21.4998V48.5002H27.4998V46.5002H25.4998V38.5002H39.4998C39.6552 38.5003 39.8085 38.4641 39.9475 38.3946C40.0865 38.3251 40.2073 38.2242 40.3005 38.0998L46.3005 30.0998C46.4302 29.9268 46.5002 29.7164 46.5002 29.5002C46.5002 29.284 46.4302 29.0737 46.3005 28.9006L40.3005 20.9006C40.2073 20.7762 40.0865 20.6753 39.9475 20.6058C39.8085 20.5363 39.6552 20.5002 39.4998 20.5002H25.4998V4.50023H27.4998V2.50023H21.4998V4.50023H23.4998V20.5002H6.49976C4.85479 20.5002 3.49976 21.8553 3.49976 23.5002L3.49977 35.5002ZM5.49977 35.5002L5.49976 23.5002C5.49976 22.9352 5.93473 22.5002 6.49976 22.5002H38.9998L44.2498 29.5002L38.9998 36.5002H6.49977C5.93474 36.5002 5.49977 36.0653 5.49977 35.5002Z" fill="#0B0B0E"/>
</svg>
