<svg width="50" height="50" viewBox="0 0 50 50" fill="none" xmlns="http://www.w3.org/2000/svg">
<path fill-rule="evenodd" clip-rule="evenodd" d="M9.8499 2.85002V47.15H40.1499V15.6591L27.2782 2.85002H9.8499ZM8.1499 2.10002C8.1499 1.57535 8.57524 1.15002 9.0999 1.15002H27.5878C27.839 1.15002 28.0799 1.24948 28.2579 1.42664L41.57 14.674C41.7492 14.8523 41.8499 15.0946 41.8499 15.3474V47.9C41.8499 48.4247 41.4246 48.85 40.8999 48.85H9.0999C8.57524 48.85 8.1499 48.4247 8.1499 47.9V2.10002Z" fill="black"/>
<path fill-rule="evenodd" clip-rule="evenodd" d="M27.8499 14.15V2H26.1499V14.9C26.1499 15.4247 26.5752 15.85 27.0999 15.85H40.9999V14.15H27.8499Z" fill="black"/>
<path d="M17 38C17 37.4477 17.4477 37 18 37H32C32.5523 37 33 37.4477 33 38V40C33 40.5523 32.5523 41 32 41H18C17.4477 41 17 40.5523 17 40V38Z" fill="#8EB0FC"/>
<path fill-rule="evenodd" clip-rule="evenodd" d="M16.1499 38C16.1499 36.9783 16.9782 36.15 17.9999 36.15H31.9999C33.0216 36.15 33.8499 36.9783 33.8499 38V40C33.8499 41.0218 33.0216 41.85 31.9999 41.85H17.9999C16.9782 41.85 16.1499 41.0218 16.1499 40V38ZM17.9999 37.85C17.9171 37.85 17.8499 37.9172 17.8499 38V40C17.8499 40.0829 17.9171 40.15 17.9999 40.15H31.9999C32.0827 40.15 32.1499 40.0829 32.1499 40V38C32.1499 37.9172 32.0827 37.85 31.9999 37.85H17.9999Z" fill="black"/>
<path d="M26.6777 20H23.3221C23.2669 20 23.2221 20.0448 23.2221 20.1V28.6019C23.2221 28.688 23.1206 28.7339 23.056 28.6769L19.2923 25.356C19.2528 25.3212 19.1931 25.323 19.1557 25.3601L17.0735 27.427C17.0333 27.4669 17.0342 27.5322 17.0756 27.5709L24.9315 34.9359C24.97 34.9719 25.0299 34.9719 25.0683 34.9359L32.9243 27.5709C32.9656 27.5322 32.9666 27.4669 32.9264 27.427L30.8441 25.3601C30.8068 25.323 30.747 25.3212 30.7075 25.356L26.9439 28.6769C26.8793 28.7339 26.7777 28.688 26.7777 28.6019V20.1C26.7777 20.0448 26.7329 20 26.6777 20Z" fill="#8EB0FC"/>
<path fill-rule="evenodd" clip-rule="evenodd" d="M22.3721 20.1C22.3721 19.5754 22.7974 19.15 23.3221 19.15H26.6776C27.2023 19.15 27.6276 19.5754 27.6276 20.1V26.94L30.145 24.7187L30.7074 25.3561L30.1451 24.7187C30.5202 24.3877 31.0878 24.4044 31.4429 24.7568L30.844 25.3601L31.4429 24.7568L33.5251 26.8237C33.9069 27.2028 33.8981 27.823 33.5056 28.191L25.6496 35.556L25.6496 35.556C25.2841 35.8986 24.7155 35.8986 24.3501 35.556L24.9314 34.9359L24.3501 35.556L16.4941 28.191C16.1016 27.823 16.0927 27.2028 16.4746 26.8237L18.5568 24.7568L18.5568 24.7568C18.9119 24.4044 19.4795 24.3877 19.8546 24.7187L19.3009 25.3463L19.8546 24.7187L22.3721 26.94V20.1ZM24.0721 20.85V28.602C24.0721 29.42 23.1069 29.8556 22.4935 29.3143L19.2562 26.4579L18.224 27.4825L24.9998 33.8349L31.7757 27.4825L30.7434 26.4579L27.5062 29.3143L26.9438 28.6769L27.5061 29.3143C26.8927 29.8556 25.9276 29.42 25.9276 28.602V20.85H24.0721ZM32.3267 28.0295C32.327 28.0298 32.3272 28.03 32.3274 28.0303L32.8558 27.498L32.3274 28.0303L32.3267 28.0295ZM17.6728 28.0297L17.6722 28.0303L17.1438 27.498L17.6722 28.0303C17.6724 28.0301 17.6726 28.0299 17.6728 28.0297Z" fill="black"/>
</svg>
