<svg width="50" height="50" viewBox="0 0 50 50" fill="none" xmlns="http://www.w3.org/2000/svg">
<g clip-path="url(#clip0_1713_1993)">
<path fill-rule="evenodd" clip-rule="evenodd" d="M22 42.3C33.2114 42.3 42.3 33.2114 42.3 22C42.3 10.7886 33.2114 1.7 22 1.7C10.7886 1.7 1.7 10.7886 1.7 22C1.7 33.2114 10.7886 42.3 22 42.3ZM22 44C34.1503 44 44 34.1503 44 22C44 9.84974 34.1503 0 22 0C9.84974 0 0 9.84974 0 22C0 34.1503 9.84974 44 22 44Z" fill="black"/>
<path d="M26.4019 10.1152L22.208 21.4386C22.1688 21.5445 22.3077 21.6241 22.3792 21.5367L29.9282 12.3102C29.9663 12.2635 29.9549 12.194 29.9038 12.162L26.5487 10.0651C26.4949 10.0315 26.4239 10.0558 26.4019 10.1152Z" fill="#8EB0FC"/>
<path fill-rule="evenodd" clip-rule="evenodd" d="M26.8789 11.2739L24.5643 17.5234L28.7306 12.4312L26.8789 11.2739ZM25.6046 9.8199C25.8137 9.25536 26.4885 9.02518 26.999 9.34425L30.3541 11.4412C30.8396 11.7446 30.9484 12.4053 30.5859 12.8484L29.928 12.3101L30.5858 12.8484L23.0369 22.0749L22.379 21.5366L23.0369 22.0749C22.3576 22.9051 21.0382 22.1492 21.4108 21.1434L25.6046 9.8199Z" fill="black"/>
<path d="M23.9734 32.8787L21.6222 22.0629C21.5983 21.9533 21.4398 21.96 21.4253 22.0712L20.0145 32.8871C20.0067 32.9469 20.0533 33 20.1137 33H23.8757C23.9395 33 23.987 32.9411 23.9734 32.8787Z" fill="#8EB0FC"/>
<path fill-rule="evenodd" clip-rule="evenodd" d="M20.5825 21.9613C20.7203 20.9045 22.2264 20.8409 22.4528 21.8823L24.8041 32.6982C24.9328 33.2903 24.4817 33.85 23.8758 33.85H20.1137C19.5403 33.85 19.0975 33.3458 19.1717 32.7771L20.5825 21.9613ZM21.7094 26.4653L20.9679 32.15H22.9452L21.7094 26.4653Z" fill="black"/>
<path d="M18.0693 5.12571L21.9034 21.5853C21.9273 21.6882 21.7961 21.7531 21.7289 21.6716L11.0786 8.77089C11.0381 8.72186 11.053 8.648 11.1094 8.61858L17.9256 5.05976C17.9835 5.02951 18.0544 5.06206 18.0693 5.12571Z" fill="#8EB0FC"/>
<path fill-rule="evenodd" clip-rule="evenodd" d="M17.5322 4.30628C18.0827 4.0189 18.7563 4.32814 18.8972 4.93288L18.0765 5.12404L18.8972 4.93288L22.7313 21.3924C22.959 22.3699 21.7124 22.9868 21.0734 22.2128L10.4231 9.31203C10.0386 8.84627 10.1807 8.14464 10.7161 7.8651L10.7161 7.8651L17.5322 4.30628ZM17.4611 6.2612L12.3235 8.94362L20.351 18.6674L17.4611 6.2612Z" fill="black"/>
<path d="M33.1245 35.9057L22.5138 22.6423C22.44 22.5501 22.559 22.4286 22.6527 22.5005L35.9161 32.6691C35.9617 32.704 35.9685 32.77 35.9312 32.8135L33.2785 35.9083C33.2377 35.9559 33.1637 35.9547 33.1245 35.9057Z" fill="#8EB0FC"/>
<path fill-rule="evenodd" clip-rule="evenodd" d="M27.0312 26.9283L33.2226 34.6676L34.7705 32.8618L27.0312 26.9283ZM35.3985 33.3432C35.3987 33.3434 35.3989 33.3435 35.3991 33.3437L35.8554 32.7485L35.3991 33.3437L35.3985 33.3432ZM33.7878 35.3741L33.7883 35.3747L33.2027 35.8433L33.7883 35.3747C33.7882 35.3745 33.788 35.3743 33.7878 35.3741ZM21.8501 23.1733C21.1492 22.2972 22.2795 21.1432 23.1699 21.8259L22.6528 22.5005M23.1699 21.8259L36.4334 31.9945C36.8659 32.3262 36.9314 32.9529 36.5767 33.3667L33.924 36.4615C33.924 36.4615 33.924 36.4615 33.924 36.4615C33.5363 36.9138 32.8329 36.9018 32.4609 36.4367L21.8501 23.1733" fill="black"/>
<path d="M8.49009 15.0661L21.7461 22.0097C21.83 22.0537 21.8114 22.1788 21.7184 22.1966L7.13681 24.974C7.06967 24.9868 7.00978 24.93 7.01901 24.8622L8.34461 15.1412C8.35397 15.0725 8.42869 15.034 8.49009 15.0661Z" fill="#8EB0FC"/>
<path fill-rule="evenodd" clip-rule="evenodd" d="M7.50205 15.0263C7.59103 14.3738 8.30079 14.0076 8.88414 14.3131L22.1401 21.2567C22.9373 21.6743 22.7611 22.8631 21.8771 23.0315L7.2955 25.809L7.13645 24.974L7.29549 25.809C6.65774 25.9304 6.08873 25.3907 6.17645 24.7474L7.50205 15.0263ZM9.04206 16.315L8.00175 23.9439L19.4451 21.7642L9.04206 16.315Z" fill="black"/>
<path d="M50 36.5C50 43.9558 43.9558 50 36.5 50C29.0442 50 23 43.9558 23 36.5C23 29.0442 29.0442 23 36.5 23C43.9558 23 50 29.0442 50 36.5Z" fill="white"/>
<path fill-rule="evenodd" clip-rule="evenodd" d="M36.5 48.3C43.017 48.3 48.3 43.017 48.3 36.5C48.3 29.983 43.017 24.7 36.5 24.7C29.983 24.7 24.7 29.983 24.7 36.5C24.7 43.017 29.983 48.3 36.5 48.3ZM36.5 50C43.9558 50 50 43.9558 50 36.5C50 29.0442 43.9558 23 36.5 23C29.0442 23 23 29.0442 23 36.5C23 43.9558 29.0442 50 36.5 50Z" fill="black"/>
<path d="M44.9393 39.9483L44.9394 39.9482C45.3608 39.5436 45.6123 39.006 45.7723 38.3242C45.8126 38.1521 45.8386 37.994 45.8691 37.8083C45.8816 37.7326 45.8948 37.6522 45.91 37.5645V36.6847C45.8959 36.6333 45.8825 36.5687 45.8769 36.4956M44.9393 39.9483L46.7245 36.4313M44.9393 39.9483C44.6514 40.2248 44.3574 40.353 44.0257 40.3593C42.0972 40.3959 40.1723 40.3938 38.2374 40.3918C37.5235 40.391 36.8082 40.3902 36.0909 40.3914M44.9393 39.9483L36.0909 40.3914M45.8769 36.4956C45.8769 36.4948 45.8768 36.494 45.8768 36.4933L46.7245 36.4313M45.8769 36.4956C45.877 36.4959 45.877 36.4961 45.877 36.4964L46.7245 36.4313M45.8769 36.4956C45.8458 36.0908 45.7472 35.6842 45.6027 35.2544M46.7245 36.4313C46.6863 35.9334 46.5667 35.4544 46.4084 34.9836M45.6027 35.2544C45.6027 35.2545 45.6028 35.2546 45.6028 35.2546L46.4084 34.9836M45.6027 35.2544L46.4084 34.9836M45.6027 35.2544C45.1691 33.9658 44.1753 33.109 42.9609 32.888C42.8937 33.5272 42.793 34.166 42.6489 34.8017L46.4084 34.9836M36.0909 40.3914C36.0909 40.3914 36.0908 40.3914 36.0908 40.3914L36.0915 40.8671L36.0909 40.3914ZM33.2087 43.5257L33.2087 43.5258C33.3238 44.1488 33.6067 44.519 34.1206 44.7348C34.7497 44.9988 35.4308 45.1119 36.1744 45.1428L33.2087 43.5257ZM33.2087 43.5257C32.9098 41.9093 32.9627 40.3232 33.4104 38.7574L33.4104 38.7574M33.2087 43.5257L33.4104 38.7574M33.4104 38.7574C33.4788 38.5181 33.5882 38.2822 33.7355 38.0331M33.4104 38.7574L33.7355 38.0331M36.2845 37.6051L36.2842 37.605C35.5623 37.5744 34.9194 37.5834 34.3076 37.7254L36.2845 37.6051ZM36.2845 37.6051C36.441 37.6116 36.6009 37.6193 36.7634 37.6271C37.441 37.6595 38.1646 37.6941 38.8827 37.6632L38.8831 37.6632M36.2845 37.6051L38.8831 37.6632M38.8831 37.6632C39.4365 37.6392 40.0503 37.5638 40.6556 37.3159L38.8831 37.6632ZM33.7355 38.0331C33.8107 37.9064 33.9351 37.8119 34.3075 37.7254L33.7355 38.0331ZM35.0058 41.9244C35.0458 42.0445 35.1215 42.1958 35.2645 42.3267C35.4134 42.4631 35.5791 42.526 35.7142 42.5518C35.8315 42.5742 35.9296 42.5689 35.9587 42.5673L35.96 42.5672C35.9641 42.567 35.9678 42.5668 35.971 42.5666C36.2467 42.568 36.5232 42.5679 36.7967 42.5677C36.8763 42.5677 36.9556 42.5677 37.0346 42.5677C37.3473 42.5677 37.6604 42.5678 37.9737 42.568C38.787 42.5684 39.6019 42.5687 40.4168 42.5665C40.4087 43.1473 40.3876 43.7139 40.3328 44.2757C40.313 44.289 40.2849 44.3062 40.2439 44.3292L40.2435 44.3294C39.6355 44.6701 38.9554 44.8656 38.2001 44.9983L38.1998 44.9984C37.5224 45.1177 36.8472 45.1706 36.1745 45.1428L35.0058 41.9244ZM41.0715 42.5641C41.0736 42.5641 41.0727 42.5642 41.0693 42.5641C41.07 42.5641 41.0707 42.5641 41.0713 42.5641L41.0715 42.5641ZM40.6559 37.3158C41.8399 36.8311 42.4095 35.8588 42.6489 34.8018L40.6559 37.3158Z" fill="#EBB803" stroke="black" stroke-width="1.7"/>
<path d="M27.85 35.3979C27.865 35.3127 27.8781 35.2345 27.8904 35.1607C27.9208 34.9789 27.9468 34.8234 27.9863 34.6543L27.9864 34.6538C28.1406 33.9924 28.3923 33.4718 28.8085 33.0816L27.85 35.3979ZM27.85 35.3979V35.3995V35.4016V35.4038V35.4059V35.4081V35.4102V35.4124V35.4145V35.4167V35.4188V35.421V35.4231V35.4253V35.4274V35.4296V35.4317V35.4339V35.436V35.4382V35.4403V35.4424V35.4446V35.4467V35.4489V35.451V35.4532V35.4553V35.4575V35.4596V35.4618V35.4639V35.4661V35.4682V35.4704V35.4725V35.4747V35.4768V35.479V35.4811V35.4832V35.4854V35.4875V35.4897V35.4918V35.494V35.4961V35.4983V35.5004V35.5026V35.5047V35.5069V35.509V35.5112V35.5133V35.5155V35.5176V35.5197V35.5219V35.524V35.5262V35.5283V35.5305V35.5326V35.5348V35.5369V35.5391V35.5412V35.5434V35.5455V35.5477V35.5498V35.552V35.5541V35.5562V35.5584V35.5605V35.5627V35.5648V35.567V35.5691V35.5713V35.5734V35.5756V35.5777V35.5799V35.582V35.5842V35.5863V35.5885V35.5906V35.5927V35.5949V35.597V35.5992V35.6013V35.6035V35.6056V35.6078V35.6099V35.6121V35.6142V35.6164V35.6185V35.6207V35.6228V35.6249V35.6271V35.6292V35.6314V35.6335V35.6357V35.6378V35.64V35.6421V35.6443V35.6464V35.6486V35.6507V35.6529V35.655V35.6572V35.6593V35.6614V35.6636V35.6657V35.6679V35.67V35.6722V35.6743V35.6765V35.6786V35.6808V35.6829V35.6851V35.6872V35.6894V35.6915V35.6936V35.6958V35.6979V35.7001V35.7022V35.7044V35.7065V35.7087V35.7108V35.713V35.7151V35.7173V35.7194V35.7216V35.7237V35.7258V35.728V35.7301V35.7323V35.7344V35.7366V35.7387V35.7409V35.743V35.7452V35.7473V35.7495V35.7516V35.7538V35.7559V35.758V35.7602V35.7623V35.7645V35.7666V35.7688V35.7709V35.7731V35.7752V35.7774V35.7795V35.7817V35.7838V35.786V35.7881V35.7902V35.7924V35.7945V35.7967V35.7988V35.801V35.8031V35.8053V35.8074V35.8096V35.8117V35.8139V35.816V35.8182V35.8203V35.8224V35.8246V35.8267V35.8289V35.831V35.8332V35.8353V35.8375V35.8396V35.8418V35.8439V35.8461V35.8482V35.8504V35.8525V35.8546V35.8568V35.8589V35.8611V35.8632V35.8654V35.8675V35.8697V35.8718V35.874V35.8761V35.8783V35.8804V35.8826V35.8847V35.8868V35.889V35.8911V35.8933V35.8954V35.8976V35.8997V35.9019V35.904V35.9062V35.9083V35.9105V35.9126V35.9148V35.9169V35.919V35.9212V35.9233V35.9255V35.9276V35.9298V35.9319V35.9341V35.9362V35.9384V35.9405V35.9427V35.9448V35.947V35.9491V35.9512V35.9534V35.9555V35.9577V35.9598V35.962V35.9641V35.9663V35.9684V35.9706V35.9727V35.9749V35.977V35.9792V35.9813V35.9834V35.9856V35.9877V35.9899V35.992V35.9942V35.9963V35.9985V36.0006V36.0028V36.0049V36.0071V36.0092V36.0114V36.0135V36.0156V36.0178V36.0199V36.0221V36.0242V36.0264V36.0285V36.0307V36.0328V36.035V36.0371V36.0393V36.0414V36.0436V36.0457V36.0478V36.05V36.0521V36.0543V36.0564V36.0586V36.0607V36.0629V36.065V36.0672V36.0693V36.0715V36.0736V36.0758V36.0779V36.08V36.0822V36.0843V36.0865V36.0886V36.0908V36.0929V36.0951V36.0972V36.0994V36.1015V36.1037V36.1058V36.108V36.1101V36.1123V36.1144V36.1165V36.1187V36.1208V36.123V36.1251V36.1273V36.1294V36.1316V36.1337V36.1359V36.138V36.1402V36.1423V36.1445V36.1466V36.1487V36.1509V36.153V36.1552V36.1573V36.1595V36.1616V36.1638V36.1659V36.1681V36.1702V36.1724V36.1745V36.1767V36.1788V36.181V36.1831V36.1852V36.1874V36.1895V36.1917V36.1938V36.196V36.1981V36.2003V36.2024V36.2046V36.2067V36.2089V36.211V36.2132V36.2153V36.2175V36.2196V36.2217V36.2239V36.226V36.2282V36.2303V36.2325V36.2346V36.2368V36.2389V36.2411V36.2432V36.2454V36.2475V36.2497V36.2518V36.254V36.2561V36.2582V36.2604V36.2625V36.2647V36.2668V36.269V36.2711V36.2733V36.2754V36.2776V36.2797V36.2819V36.284V36.2862V36.2883V36.2905V36.2926V36.2948V36.2969V36.299V36.3012V36.3027C27.8614 36.3467 27.8754 36.4092 27.883 36.4813L27.8832 36.4832C27.9698 37.3137 28.2116 38.0587 28.6491 38.7145C29.1574 39.4761 29.8078 39.9303 30.6341 40.098C30.7354 39.3714 30.8522 38.581 31.0882 37.8088L31.0882 37.8086C31.4078 36.7634 32.0953 35.9816 33.172 35.6111L27.85 35.3979ZM37.5116 32.607C36.7389 32.6093 35.9694 32.6086 35.2019 32.6078C33.4111 32.6061 31.6308 32.6044 29.8452 32.641L29.8451 32.641C29.4558 32.6489 29.1195 32.7902 28.8086 33.0815L37.5116 32.607ZM37.5116 32.607C37.5339 32.61 37.5962 32.6182 37.6608 32.6204C37.7273 32.6226 37.8924 32.6242 38.0763 32.5488C38.3028 32.4559 38.5038 32.2674 38.5968 31.997L38.5973 31.9954C38.6661 31.7938 38.6671 31.6093 38.6643 31.5085C38.6628 31.4564 38.6594 31.407 38.6572 31.3755L38.657 31.3729C38.6544 31.3355 38.6533 31.319 38.6529 31.3053C38.648 31.1555 38.6045 30.9609 38.4655 30.7819C38.328 30.6047 38.1571 30.5204 38.0375 30.4811C37.9258 30.4444 37.8308 30.4376 37.7918 30.4354C37.7654 30.4339 37.7143 30.4332 37.7267 30.4335M37.5116 32.607L37.7318 30.4336C37.7295 30.4335 37.7279 30.4335 37.7267 30.4335M37.7267 30.4335C37.6762 30.4324 37.6243 30.4325 37.5847 30.4326C37.5757 30.4326 37.5674 30.4326 37.5598 30.4326C37.2035 30.4326 36.847 30.4325 36.4904 30.4324C35.4007 30.4321 34.3095 30.4317 33.2184 30.4345C33.2242 29.8757 33.2352 29.3405 33.2817 28.8039L33.2817 28.8036C33.2856 28.7586 33.2921 28.7346 33.2951 28.7252C33.2956 28.7237 33.296 28.7226 33.2964 28.7217C33.3039 28.7143 33.3266 28.695 33.3798 28.6665L37.7267 30.4335ZM37.4469 27.8575L37.4466 27.8575C36.774 27.8293 36.0991 27.8815 35.4249 28.0019L37.4469 27.8575ZM37.4469 27.8575C38.1902 27.8884 38.8724 28.0009 39.5047 28.263L39.5049 28.2631M37.4469 27.8575L39.5049 28.2631M39.5049 28.2631C40.0357 28.483 40.3178 28.8777 40.4422 29.5762L39.5049 28.2631ZM40.5221 32.7313L40.5222 32.7312C40.6391 31.6613 40.6266 30.6131 40.4423 29.5765L40.5221 32.7313ZM40.5221 32.7313C40.4531 33.3641 40.3234 33.9673 40.1127 34.548L40.5221 32.7313ZM39.1862 35.3091L39.1862 35.3091C39.4641 35.2666 39.6434 35.1808 39.7688 35.0784C39.8939 34.9762 40.0151 34.8168 40.1127 34.5481L39.1862 35.3091ZM39.1862 35.3091C38.6035 35.3981 38.0151 35.4217 37.4088 35.3975L37.4086 35.3975M39.1862 35.3091L37.4086 35.3975M37.4086 35.3975C37.2308 35.3905 37.0485 35.3819 36.8629 35.3732M37.4086 35.3975L36.8629 35.3732M36.8629 35.3732C36.1755 35.3409 35.4413 35.3064 34.7155 35.3387L36.8629 35.3732ZM30.5836 40.5943C30.6086 40.5387 30.6507 40.4655 30.7193 40.3933L31.1 40.4465L31.1 40.4465L31.4372 40.4937L31.1001 40.4462L31.1 40.4461L30.5836 40.5943ZM37.4891 32.6042C37.4891 32.6042 37.49 32.6043 37.492 32.6045L37.4891 32.6042ZM33.2933 28.725C33.2933 28.725 33.2937 28.7245 33.2947 28.7234C33.2938 28.7245 33.2933 28.725 33.2933 28.725ZM32.5592 30.4366C32.5562 30.4366 32.5571 30.4364 32.5612 30.4365C32.5608 30.4365 32.5605 30.4365 32.5602 30.4365L32.5592 30.4366ZM33.3799 28.6665C34.0004 28.3343 34.6806 28.1349 35.4248 28.0019L33.3799 28.6665ZM34.7154 35.3387C34.2212 35.3606 33.6968 35.4304 33.1721 35.611L34.7154 35.3387Z" fill="#8EB0FC" stroke="black" stroke-width="1.7"/>
</g>
<defs>
<clipPath id="clip0_1713_1993">
<rect width="50" height="50" fill="white"/>
</clipPath>
</defs>
</svg>
