<svg width="50" height="50" viewBox="0 0 50 50" fill="none" xmlns="http://www.w3.org/2000/svg">
<rect x="5" y="23" width="5" height="15" rx="2.5" fill="#EBB803"/>
<rect x="25" y="22" width="5" height="16" rx="2.5" fill="#EBB803"/>
<rect x="15" y="13" width="5" height="25" rx="2.5" fill="#EBB803"/>
<rect x="34" y="13" width="5" height="25" rx="2.5" fill="#EBB803"/>
<path fill-rule="evenodd" clip-rule="evenodd" d="M4 25.5789C4 23.6023 5.567 22 7.5 22C9.433 22 11 23.6023 11 25.5789V35.4211C11 37.3977 9.433 39 7.5 39C5.567 39 4 37.3977 4 35.4211V25.5789ZM7.5 23.7895C6.5335 23.7895 5.75 24.5906 5.75 25.5789V35.4211C5.75 36.4094 6.5335 37.2105 7.5 37.2105C8.4665 37.2105 9.25 36.4094 9.25 35.4211V25.5789C9.25 24.5906 8.4665 23.7895 7.5 23.7895Z" fill="black"/>
<path fill-rule="evenodd" clip-rule="evenodd" d="M4 16.5C4 14.567 5.567 13 7.5 13C9.433 13 11 14.567 11 16.5C11 18.433 9.433 20 7.5 20C5.567 20 4 18.433 4 16.5ZM7.5 14.75C6.5335 14.75 5.75 15.5335 5.75 16.5C5.75 17.4665 6.5335 18.25 7.5 18.25C8.4665 18.25 9.25 17.4665 9.25 16.5C9.25 15.5335 8.4665 14.75 7.5 14.75Z" fill="black"/>
<path fill-rule="evenodd" clip-rule="evenodd" d="M4 7.5C4 5.567 5.567 4 7.5 4C9.433 4 11 5.567 11 7.5C11 9.433 9.433 11 7.5 11C5.567 11 4 9.433 4 7.5ZM7.5 5.75C6.5335 5.75 5.75 6.5335 5.75 7.5C5.75 8.4665 6.5335 9.25 7.5 9.25C8.4665 9.25 9.25 8.4665 9.25 7.5C9.25 6.5335 8.4665 5.75 7.5 5.75Z" fill="black"/>
<path fill-rule="evenodd" clip-rule="evenodd" d="M14 7.5C14 5.567 15.567 4 17.5 4C19.433 4 21 5.567 21 7.5C21 9.433 19.433 11 17.5 11C15.567 11 14 9.433 14 7.5ZM17.5 5.75C16.5335 5.75 15.75 6.5335 15.75 7.5C15.75 8.4665 16.5335 9.25 17.5 9.25C18.4665 9.25 19.25 8.4665 19.25 7.5C19.25 6.5335 18.4665 5.75 17.5 5.75Z" fill="black"/>
<path fill-rule="evenodd" clip-rule="evenodd" d="M24 7.5C24 5.567 25.567 4 27.5 4C29.433 4 31 5.567 31 7.5C31 9.433 29.433 11 27.5 11C25.567 11 24 9.433 24 7.5ZM27.5 5.75C26.5335 5.75 25.75 6.5335 25.75 7.5C25.75 8.4665 26.5335 9.25 27.5 9.25C28.4665 9.25 29.25 8.4665 29.25 7.5C29.25 6.5335 28.4665 5.75 27.5 5.75Z" fill="black"/>
<path fill-rule="evenodd" clip-rule="evenodd" d="M33 7.5C33 5.567 34.567 4 36.5 4C38.433 4 40 5.567 40 7.5C40 9.433 38.433 11 36.5 11C34.567 11 33 9.433 33 7.5ZM36.5 5.75C35.5335 5.75 34.75 6.5335 34.75 7.5C34.75 8.4665 35.5335 9.25 36.5 9.25C37.4665 9.25 38.25 8.4665 38.25 7.5C38.25 6.5335 37.4665 5.75 36.5 5.75Z" fill="black"/>
<path fill-rule="evenodd" clip-rule="evenodd" d="M24 16.5C24 14.567 25.567 13 27.5 13C29.433 13 31 14.567 31 16.5C31 18.433 29.433 20 27.5 20C25.567 20 24 18.433 24 16.5ZM27.5 14.75C26.5335 14.75 25.75 15.5335 25.75 16.5C25.75 17.4665 26.5335 18.25 27.5 18.25C28.4665 18.25 29.25 17.4665 29.25 16.5C29.25 15.5335 28.4665 14.75 27.5 14.75Z" fill="black"/>
<path fill-rule="evenodd" clip-rule="evenodd" d="M14 15.6C14 13.6118 15.567 12 17.5 12C19.433 12 21 13.6118 21 15.6V35.4C21 37.3882 19.433 39 17.5 39C15.567 39 14 37.3882 14 35.4V15.6ZM17.5 13.8C16.5335 13.8 15.75 14.6059 15.75 15.6V35.4C15.75 36.3941 16.5335 37.2 17.5 37.2C18.4665 37.2 19.25 36.3941 19.25 35.4V15.6C19.25 14.6059 18.4665 13.8 17.5 13.8Z" fill="black"/>
<path fill-rule="evenodd" clip-rule="evenodd" d="M24 24.6C24 22.6118 25.567 21 27.5 21C29.433 21 31 22.6118 31 24.6V35.4C31 37.3882 29.433 39 27.5 39C25.567 39 24 37.3882 24 35.4V24.6ZM27.5 22.8C26.5335 22.8 25.75 23.6059 25.75 24.6V35.4C25.75 36.3941 26.5335 37.2 27.5 37.2C28.4665 37.2 29.25 36.3941 29.25 35.4V24.6C29.25 23.6059 28.4665 22.8 27.5 22.8Z" fill="black"/>
<path fill-rule="evenodd" clip-rule="evenodd" d="M33 15.6C33 13.6118 34.567 12 36.5 12C38.433 12 40 13.6118 40 15.6V35.4C40 37.3882 38.433 39 36.5 39C34.567 39 33 37.3882 33 35.4V15.6ZM36.5 13.8C35.5335 13.8 34.75 14.6059 34.75 15.6V35.4C34.75 36.3941 35.5335 37.2 36.5 37.2C37.4665 37.2 38.25 36.3941 38.25 35.4V15.6C38.25 14.6059 37.4665 13.8 36.5 13.8Z" fill="black"/>
<path d="M50 36.5C50 43.9558 43.9558 50 36.5 50C29.0442 50 23 43.9558 23 36.5C23 29.0442 29.0442 23 36.5 23C43.9558 23 50 29.0442 50 36.5Z" fill="white"/>
<path fill-rule="evenodd" clip-rule="evenodd" d="M36.5 48.3C43.017 48.3 48.3 43.017 48.3 36.5C48.3 29.983 43.017 24.7 36.5 24.7C29.983 24.7 24.7 29.983 24.7 36.5C24.7 43.017 29.983 48.3 36.5 48.3ZM36.5 50C43.9558 50 50 43.9558 50 36.5C50 29.0442 43.9558 23 36.5 23C29.0442 23 23 29.0442 23 36.5C23 43.9558 29.0442 50 36.5 50Z" fill="black"/>
<path d="M46.76 37.6388C46.7075 37.9322 46.6678 38.2283 46.5998 38.5182C46.4181 39.293 46.1093 40.0033 45.5281 40.5614C45.112 40.961 44.6211 41.1981 44.0418 41.2091C41.3919 41.2595 38.742 41.2371 36.0922 41.2414C35.827 41.2418 35.7251 41.3952 35.812 41.6551C35.8398 41.7385 35.9015 41.7161 35.954 41.7165C36.3141 41.7185 36.6745 41.7177 37.0346 41.7177C38.3789 41.7177 39.7231 41.7204 41.0674 41.7141C41.2275 41.7133 41.2719 41.7582 41.2715 41.921C41.2696 42.745 41.2576 43.567 41.1758 44.389C41.1395 44.7547 40.9296 44.9195 40.659 45.0709C39.9362 45.476 39.1531 45.6939 38.3472 45.8355C37.617 45.9641 36.8803 46.0227 36.1392 45.992C35.3334 45.9586 34.5441 45.8343 33.7916 45.5185C32.9764 45.1763 32.5322 44.5431 32.3728 43.6802C32.0517 41.9438 32.1069 40.2243 32.5932 38.5237C32.687 38.1957 32.8313 37.892 33.0042 37.5998C33.2582 37.1715 33.6665 37.0016 34.1154 36.8974C34.8425 36.7287 35.5789 36.7243 36.3203 36.7558C37.1616 36.7912 38.0033 36.8502 38.8462 36.814C39.3541 36.792 39.8574 36.7243 40.3337 36.5293C41.187 36.18 41.6216 35.4898 41.8199 34.6139C41.999 33.8238 42.1082 33.0226 42.1677 32.2148C42.1812 32.0335 42.2298 31.9788 42.4158 31.9823C44.2545 32.0185 45.8002 33.1756 46.4084 34.9836C46.5667 35.4544 46.6863 35.9334 46.7245 36.4313C46.7272 36.4683 46.7477 36.5037 46.76 36.5395V37.6388Z" fill="#EBB803"/>
<path d="M27 35.3226C27.0521 35.0351 27.0922 34.7448 27.1586 34.4609C27.3365 33.6975 27.6492 33.0033 28.2273 32.4613C28.6781 32.0389 29.2111 31.8037 29.8278 31.7911C32.3997 31.7384 34.972 31.7648 37.544 31.7569C37.6296 31.7569 37.7636 31.8061 37.7929 31.7207C37.8327 31.6043 37.8076 31.4631 37.8033 31.333C37.8018 31.2803 37.752 31.2842 37.7142 31.2834C37.6628 31.2822 37.6111 31.2826 37.5598 31.2826C35.8944 31.2826 34.2287 31.2803 32.5634 31.2865C32.4028 31.2873 32.3604 31.2445 32.3623 31.0816C32.3708 30.2974 32.3669 29.5143 32.4349 28.7305C32.4692 28.3329 32.6444 28.0961 32.9786 27.9172C33.7031 27.5294 34.4765 27.3079 35.2754 27.1652C36.0044 27.035 36.7416 26.9772 37.4822 27.0082C38.2873 27.0417 39.0762 27.1652 39.8303 27.4778C40.6967 27.8369 41.1182 28.524 41.2791 29.4274C41.4798 30.5562 41.4914 31.6869 41.3671 32.8236C41.2919 33.513 41.1491 34.184 40.9117 34.838C40.6323 35.6077 40.1097 36.0278 39.3147 36.1493C38.669 36.248 38.0252 36.2728 37.3749 36.2468C36.5015 36.2122 35.6278 36.1489 34.7532 36.1878C34.3105 36.2075 33.8725 36.2689 33.4487 36.4148C32.651 36.6893 32.1481 37.2493 31.9011 38.0572C31.6583 38.8517 31.5518 39.6736 31.4372 40.4937C31.4272 40.5649 31.4156 40.6357 31.4059 40.7068C31.3631 41.0199 31.3623 41.0309 31.0617 41.0105C29.7305 40.92 28.6889 40.3053 27.9421 39.1863C27.4157 38.3974 27.1362 37.5152 27.0378 36.5713C27.0324 36.5206 27.0127 36.4714 27 36.4215C27 36.0549 27 35.6887 27 35.3222V35.3226Z" fill="#8EB0FC"/>
<path d="M36.0911 40.3914C35.8217 40.3918 35.3877 40.4718 35.1154 40.876C34.8534 41.2648 34.9259 41.6847 35.006 41.9244M36.0911 40.3914L35.0058 41.9239C35.0059 41.9241 35.0059 41.9242 35.006 41.9244M36.0911 40.3914C36.8085 40.3902 37.5237 40.391 38.2377 40.3918C40.1725 40.3938 42.0975 40.3959 44.0259 40.3593C44.3577 40.353 44.6516 40.2248 44.9395 39.9483L44.9396 39.9482C45.3611 39.5435 45.6126 39.0059 45.7726 38.324C45.8129 38.1519 45.8389 37.9939 45.8694 37.8083C45.8818 37.7326 45.895 37.6522 45.9103 37.5645V36.6847C45.8962 36.6334 45.8828 36.5691 45.8772 36.4964M36.0911 40.3914C36.0911 40.3914 36.0911 40.3914 36.091 40.3914L36.0918 40.8671L45.8772 36.4964M35.006 41.9244C35.0461 42.0445 35.1217 42.1958 35.2647 42.3267C35.4136 42.4631 35.5793 42.526 35.7144 42.5518C35.8318 42.5742 35.9298 42.5689 35.9589 42.5673L35.9602 42.5672C35.9644 42.567 35.968 42.5668 35.9712 42.5666C36.247 42.568 36.5234 42.5679 36.7969 42.5677C36.8765 42.5677 36.9559 42.5677 37.0349 42.5677C37.3476 42.5677 37.6606 42.5678 37.9738 42.568C38.7871 42.5684 39.6021 42.5687 40.417 42.5665M35.006 41.9244L40.417 42.5665M40.417 42.5665C40.4089 43.1473 40.3878 43.7139 40.3331 44.2757C40.3133 44.289 40.2852 44.3062 40.2441 44.3292L40.2437 44.3294C39.6358 44.6701 38.9557 44.8656 38.2004 44.9983L38.2 44.9984C37.5226 45.1177 36.8475 45.1706 36.1747 45.1428C35.431 45.1119 34.7499 44.9988 34.1207 44.7347C33.6069 44.519 33.324 44.1487 33.2089 43.5258L33.2089 43.5257C32.91 41.9093 32.9629 40.3232 33.4107 38.7574L33.4107 38.7574C33.4791 38.5181 33.5884 38.2822 33.7358 38.033C33.811 37.9063 33.9354 37.8119 34.3077 37.7254C34.9196 37.5834 35.5625 37.5744 36.2845 37.605L36.2848 37.6051C36.4413 37.6116 36.6012 37.6193 36.7637 37.6271C37.4412 37.6595 38.1649 37.6941 38.8829 37.6632L38.8833 37.6632C39.4368 37.6392 40.0505 37.5638 40.6559 37.3159L40.417 42.5665ZM37.3413 37.0962C37.3412 37.0962 37.3411 37.0962 37.341 37.0962L37.3527 36.8029C37.1756 36.7956 36.9986 36.7872 36.8215 36.7787H36.8215H36.8215H36.8215H36.8214C36.6544 36.7708 36.4875 36.7628 36.3205 36.7558C35.804 36.7339 35.29 36.7293 34.7798 36.7856C34.7798 36.7856 34.7798 36.7856 34.7798 36.7856C34.5576 36.8102 34.3362 36.8462 34.1156 36.8974C33.9584 36.9339 33.8062 36.9785 33.6638 37.0394C33.6637 37.0394 33.6637 37.0394 33.6637 37.0394C33.3996 37.1524 33.1695 37.3216 33.0045 37.5998L37.3413 37.0962ZM37.3413 37.0962L37.3529 36.8029C37.8505 36.8235 38.3483 36.8354 38.8465 36.814C39.035 36.8058 39.2229 36.7914 39.409 36.7664M37.3413 37.0962L39.409 36.7664M37.3413 37.0962C37.8435 37.1162 38.3481 37.1081 38.8571 37.0611C38.8571 37.0611 38.8572 37.0611 38.8572 37.0611C39.0518 37.0432 39.2471 37.0195 39.4431 36.9895L39.409 36.7664M37.3413 37.0962L39.409 36.7664M27.85 36.3027C27.8614 36.3467 27.8754 36.4092 27.883 36.4813L27.8832 36.4832C27.9698 37.3137 28.2116 38.0587 28.6491 38.7145L27.85 36.3027ZM27.85 36.3027V36.3012V36.2991V36.2969V36.2948V36.2926V36.2905V36.2883V36.2862V36.284V36.2819V36.2797V36.2776V36.2754V36.2733V36.2711V36.269V36.2669V36.2647V36.2626V36.2604V36.2583V36.2561V36.254V36.2518V36.2497V36.2475V36.2454V36.2432V36.2411V36.239V36.2368V36.2347V36.2325V36.2304V36.2282V36.2261V36.2239V36.2218V36.2196V36.2175V36.2153V36.2132V36.211V36.2089V36.2068V36.2046V36.2025V36.2003V36.1982V36.196V36.1939V36.1917V36.1896V36.1874V36.1853V36.1831V36.181V36.1789V36.1767V36.1746V36.1724V36.1703V36.1681V36.166V36.1638V36.1617V36.1595V36.1574V36.1552V36.1531V36.151V36.1488V36.1467V36.1445V36.1424V36.1402V36.1381V36.1359V36.1338V36.1316V36.1295V36.1273V36.1252V36.1231V36.1209V36.1188V36.1166V36.1145V36.1123V36.1102V36.108V36.1059V36.1037V36.1016V36.0995V36.0973V36.0952V36.093V36.0909V36.0887V36.0866V36.0844V36.0823V36.0801V36.078V36.0758V36.0737V36.0716V36.0694V36.0673V36.0651V36.063V36.0608V36.0587V36.0565V36.0544V36.0522V36.0501V36.048V36.0458V36.0437V36.0415V36.0394V36.0372V36.0351V36.0329V36.0308V36.0286V36.0265V36.0243V36.0222V36.0201V36.0179V36.0158V36.0136V36.0115V36.0093V36.0072V36.005V36.0029V36.0007V35.9986V35.9965V35.9943V35.9922V35.99V35.9879V35.9857V35.9836V35.9814V35.9793V35.9771V35.975V35.9729V35.9707V35.9686V35.9664V35.9643V35.9621V35.96V35.9578V35.9557V35.9535V35.9514V35.9493V35.9471V35.945V35.9428V35.9407V35.9385V35.9364V35.9342V35.9321V35.9299V35.9278V35.9257V35.9235V35.9214V35.9192V35.9171V35.9149V35.9128V35.9106V35.9085V35.9063V35.9042V35.9021V35.8999V35.8978V35.8956V35.8935V35.8913V35.8892V35.887V35.8849V35.8827V35.8806V35.8785V35.8763V35.8742V35.872V35.8699V35.8677V35.8656V35.8634V35.8613V35.8591V35.857V35.8549V35.8527V35.8506V35.8484V35.8463V35.8441V35.842V35.8398V35.8377V35.8355V35.8334V35.8313V35.8291V35.827V35.8248V35.8227V35.8205V35.8184V35.8162V35.8141V35.8119V35.8098V35.8077V35.8055V35.8034V35.8012V35.7991V35.7969V35.7948V35.7926V35.7905V35.7883V35.7862V35.7841V35.7819V35.7798V35.7776V35.7755V35.7733V35.7712V35.769V35.7669V35.7647V35.7626V35.7604V35.7583V35.7562V35.754V35.7519V35.7497V35.7476V35.7454V35.7433V35.7411V35.739V35.7368V35.7347V35.7326V35.7304V35.7283V35.7261V35.724V35.7218V35.7197V35.7175V35.7154V35.7132V35.7111V35.709V35.7068V35.7047V35.7025V35.7004V35.6982V35.6961V35.6939V35.6918V35.6896V35.6875V35.6854V35.6832V35.6811V35.6789V35.6768V35.6746V35.6725V35.6703V35.6682V35.666V35.6639V35.6617V35.6596V35.6575V35.6553V35.6532V35.651V35.6489V35.6467V35.6446V35.6424V35.6403V35.6381V35.636V35.6339V35.6317V35.6296V35.6274V35.6253V35.6231V35.621V35.6188V35.6167V35.6145V35.6124V35.6102V35.6081V35.606V35.6038V35.6017V35.5995V35.5974V35.5952V35.5931V35.5909V35.5888V35.5866V35.5845V35.5823V35.5802V35.5781V35.5759V35.5738V35.5716V35.5695V35.5673V35.5652V35.563V35.5609V35.5587V35.5566V35.5544V35.5523V35.5502V35.548V35.5459V35.5437V35.5416V35.5394V35.5373V35.5351V35.533V35.5308V35.5287V35.5265V35.5244V35.5223V35.5201V35.518V35.5158V35.5137V35.5115V35.5094V35.5072V35.5051V35.5029V35.5008V35.4986V35.4965V35.4943V35.4922V35.4901V35.4879V35.4858V35.4836V35.4815V35.4793V35.4772V35.475V35.4729V35.4707V35.4686V35.4664V35.4643V35.4621V35.46V35.4579V35.4557V35.4536V35.4514V35.4493V35.4471V35.445V35.4428V35.4407V35.4385V35.4364V35.4342V35.4321V35.4299V35.4278V35.4257V35.4235V35.4214V35.4192V35.4171V35.4149V35.4128V35.4106V35.4085V35.4063V35.4042V35.402V35.3999V35.3979C27.865 35.3127 27.8781 35.2345 27.8904 35.1607C27.9208 34.9789 27.9468 34.8234 27.9863 34.6543L27.9864 34.6538C28.1406 33.9924 28.3923 33.4718 28.8085 33.0816L27.85 36.3027ZM37.5116 32.607C36.7389 32.6093 35.9694 32.6086 35.2019 32.6078C33.4111 32.6061 31.6308 32.6044 29.8452 32.641L29.8451 32.641C29.4558 32.6489 29.1195 32.7902 28.8086 33.0815L37.5116 32.607ZM37.5116 32.607C37.5339 32.61 37.5962 32.6182 37.6608 32.6204C37.7273 32.6226 37.8924 32.6242 38.0763 32.5488C38.3028 32.4559 38.5038 32.2674 38.5968 31.997L38.5973 31.9954C38.6661 31.7938 38.6671 31.6093 38.6643 31.5085C38.6628 31.4564 38.6594 31.4071 38.6572 31.3756L38.657 31.3729C38.6544 31.3355 38.6533 31.319 38.6529 31.3052C38.648 31.1555 38.6045 30.9609 38.4655 30.7819C38.328 30.6047 38.1571 30.5204 38.0375 30.4811C37.9258 30.4444 37.8308 30.4376 37.7918 30.4354C37.7654 30.4339 37.7144 30.4332 37.7267 30.4335M37.5116 32.607L35.2243 30.9078C35.9991 30.9085 36.7719 30.9093 37.5414 30.9069L37.544 30.9069C37.5493 30.9069 37.5545 30.907 37.5598 30.9071C37.6344 30.9082 37.7016 30.9173 37.7214 30.92C37.7215 30.92 37.7216 30.92 37.7217 30.92L37.7318 30.4336C37.7296 30.4335 37.7279 30.4335 37.7267 30.4335M37.7267 30.4335C37.6762 30.4324 37.6243 30.4325 37.5847 30.4326C37.5757 30.4326 37.5674 30.4326 37.5598 30.4326C37.2035 30.4326 36.847 30.4325 36.4904 30.4324C35.4007 30.4321 34.3095 30.4317 33.2184 30.4345M37.7267 30.4335C37.7291 30.4335 37.7314 30.4336 37.7337 30.4336L37.7225 30.9201C37.7235 30.9202 37.7243 30.9204 37.725 30.9204C37.7405 30.9225 37.7465 30.9231 37.7465 30.9232L33.2184 30.4345M33.2184 30.4345C33.2242 29.8757 33.2352 29.3405 33.2817 28.8039L33.2817 28.8036C33.2856 28.7586 33.2921 28.7346 33.2951 28.7252C33.2956 28.7237 33.296 28.7226 33.2964 28.7217C33.3039 28.7143 33.3266 28.695 33.3798 28.6665L33.2184 30.4345ZM45.8772 36.4964C45.8462 36.0913 45.7475 35.6845 45.603 35.2544C45.1694 33.9658 44.1756 33.109 42.9612 32.888C42.8939 33.5272 42.7932 34.166 42.6492 34.8017L45.8772 36.4964ZM37.4469 27.8575L37.4466 27.8575C36.774 27.8293 36.0991 27.8815 35.4249 28.0019L37.4469 27.8575ZM37.4469 27.8575C38.1902 27.8884 38.8724 28.0009 39.5047 28.263L39.5049 28.2631M37.4469 27.8575L39.5049 28.2631M39.5049 28.2631C40.0357 28.483 40.3178 28.8777 40.4422 29.5762L39.5049 28.2631ZM40.5221 32.7313L40.5222 32.7312C40.6391 31.6613 40.6266 30.6131 40.4423 29.5765L40.5221 32.7313ZM40.5221 32.7313C40.4531 33.3641 40.3234 33.9673 40.1127 34.548L40.5221 32.7313ZM41.0718 42.5641C41.0739 42.5641 41.073 42.5642 41.0695 42.5641C41.0702 42.5641 41.0709 42.5641 41.0716 42.5641L41.0718 42.5641ZM36.8629 35.3732C36.1755 35.3409 35.4413 35.3064 34.7155 35.3387L40.1127 34.5481C40.0151 34.8168 39.8939 34.9762 39.7688 35.0784C39.6434 35.1808 39.4641 35.2666 39.1862 35.3091L39.1862 35.3091C38.6035 35.3981 38.0151 35.4217 37.4088 35.3975L37.4086 35.3975C37.2308 35.3905 37.0485 35.3819 36.8629 35.3732ZM34.7154 35.3387C34.2212 35.3606 33.6968 35.4304 33.1721 35.611L34.7154 35.3387ZM33.172 35.6111C32.0953 35.9816 31.4078 36.7634 31.0882 37.8086L31.0882 37.8088C30.8522 38.581 30.7354 39.3714 30.6341 40.098C29.8079 39.9303 29.1575 39.4762 28.6491 38.7146L33.172 35.6111ZM36.8009 36.2213C36.6486 36.2142 36.4963 36.2071 36.3441 36.2006L41.0446 34.4381C41.0446 34.4382 41.0446 34.4382 41.0446 34.4382C41.004 34.5722 40.9598 34.7055 40.9117 34.838C40.7338 35.3281 40.4574 35.6764 40.0748 35.8961C40.0747 35.8962 40.0747 35.8962 40.0746 35.8962C39.8563 36.0216 39.6035 36.1051 39.3147 36.1493C39.1499 36.1745 38.9853 36.1949 38.8206 36.2108L38.81 35.9648C38.8099 35.9648 38.8098 35.9648 38.8097 35.9648L38.8203 36.2108C38.3398 36.2574 37.8592 36.2662 37.3749 36.2468C37.1836 36.2393 36.9923 36.2303 36.801 36.2213L36.801 36.2213L36.8009 36.2213H36.8009H36.8009ZM37.4891 32.6042C37.489 32.6042 37.49 32.6043 37.492 32.6045L37.4891 32.6042ZM33.2933 28.725C33.2933 28.725 33.2937 28.7245 33.2947 28.7234C33.2938 28.7245 33.2933 28.725 33.2933 28.725ZM32.5612 30.4365C32.5608 30.4365 32.5605 30.4365 32.5602 30.4365L32.5592 30.4366C32.5562 30.4366 32.5571 30.4364 32.5612 30.4365ZM40.6561 37.3158C41.8401 36.8311 42.4097 35.8588 42.6492 34.8018L40.6561 37.3158ZM33.3799 28.6665C34.0004 28.3343 34.6806 28.1349 35.4248 28.0019L33.3799 28.6665Z" stroke="black" stroke-width="1.7"/>
</svg>
