<svg width="50" height="50" viewBox="0 0 50 50" fill="none" xmlns="http://www.w3.org/2000/svg">
<path d="M11 4C7.14453 4 4 7.14453 4 11V39C4 42.8555 7.14453 46 11 46H39C42.8555 46 46 42.8555 46 39V11C46 7.14453 42.8555 4 39 4H11ZM11 6H39C41.7734 6 44 8.22656 44 11V39C44 41.7734 41.7734 44 39 44H11C8.22656 44 6 41.7734 6 39V11C6 8.22656 8.22656 6 11 6Z" fill="white"/>
<path fill-rule="evenodd" clip-rule="evenodd" d="M38.906 17.6174L23.257 36.061L12.8457 26.8746L16.1538 23.1254L22.7426 28.939L35.0935 14.3826L38.906 17.6174Z" fill="#3B9281"/>
<path fill-rule="evenodd" clip-rule="evenodd" d="M34.9783 12.9731L40.3158 17.5019L23.3602 37.4854L11.4346 26.9628L16.0659 21.7139L22.64 27.5146L34.9783 12.9731ZM35.2093 15.792L22.8458 30.3634L16.2424 24.5369L14.2575 26.7864L23.1544 34.6366L37.4969 17.733L35.2093 15.792Z" fill="white"/>
</svg>
