<svg width="50" height="50" fill="none" xmlns="http://www.w3.org/2000/svg"><path d="M1 31.026a4.974 4.974 0 014.974-4.973h27.078a4.974 4.974 0 110 9.947H5.975A4.974 4.974 0 011 31.026z" fill="#4A6BB7"/><path fill-rule="evenodd" clip-rule="evenodd" d="M.15 31.026a5.824 5.824 0 015.824-5.823h27.078a5.824 5.824 0 110 11.647H5.975A5.824 5.824 0 01.15 31.026zm5.824-4.123a4.124 4.124 0 100 8.247h27.079a4.124 4.124 0 100-8.247H5.973z" fill="#fff"/><path d="M24.763 17.974A4.974 4.974 0 0129.737 13h14.368a4.974 4.974 0 110 9.947H29.737a4.974 4.974 0 01-4.974-4.973z" fill="#4A6BB7"/><path fill-rule="evenodd" clip-rule="evenodd" d="M23.913 17.974a5.824 5.824 0 015.824-5.824h14.368a5.824 5.824 0 010 11.647H29.737a5.824 5.824 0 01-5.824-5.823zm5.824-4.124a4.124 4.124 0 000 8.247h14.368a4.124 4.124 0 000-8.247H29.737z" fill="#fff"/><path d="M7.67 32.865v.846H4.481c.035-.32.138-.622.31-.907.174-.287.515-.667 1.024-1.14.41-.382.662-.641.755-.777a1 1 0 00.187-.557c0-.203-.055-.358-.165-.466-.108-.11-.258-.165-.45-.165a.606.606 0 00-.453.171c-.112.115-.177.305-.195.57l-.906-.09c.054-.501.223-.86.508-1.079.285-.218.641-.327 1.069-.327.468 0 .836.126 1.104.379.268.253.401.567.401.942 0 .214-.038.418-.116.612a2.451 2.451 0 01-.363.606c-.11.14-.308.342-.596.605-.287.264-.47.438-.547.525-.075.086-.137.17-.184.252H7.67zm2.947.845h-.91v-3.429a3.132 3.132 0 01-1.175.69v-.826c.237-.077.495-.224.774-.44a1.69 1.69 0 00.573-.76h.738v4.766zM6.926 20.658h-.91v-3.43a3.11 3.11 0 01-1.176.69v-.825c.238-.078.496-.225.774-.44a1.69 1.69 0 00.573-.761h.739v4.766zm1.363-3.838v-.844H11.4v.66c-.257.253-.518.616-.784 1.088a6.389 6.389 0 00-.609 1.51 5.61 5.61 0 00-.204 1.424h-.877c.015-.656.15-1.326.405-2.008a6.722 6.722 0 011.026-1.83h-2.07zm10.986 16.045v.846h-3.19c.035-.32.14-.622.312-.907.173-.287.514-.667 1.023-1.14.41-.382.662-.641.754-.777a1 1 0 00.188-.557c0-.203-.055-.358-.165-.466-.108-.11-.258-.165-.45-.165a.606.606 0 00-.453.171c-.113.115-.177.305-.195.57l-.906-.09c.054-.501.223-.86.508-1.079.285-.218.641-.327 1.069-.327.468 0 .836.126 1.104.379.268.253.401.567.401.942 0 .214-.038.418-.116.612a2.453 2.453 0 01-.363.606c-.11.14-.308.342-.596.605-.287.264-.47.438-.547.525-.075.086-.137.17-.184.252h1.806zm3.692 0v.846h-3.19a2.2 2.2 0 01.311-.907c.173-.287.514-.667 1.023-1.14.41-.382.662-.641.755-.777a1 1 0 00.188-.557c0-.203-.055-.358-.165-.466-.108-.11-.258-.165-.45-.165a.606.606 0 00-.454.171c-.112.115-.177.305-.194.57l-.907-.09c.054-.501.224-.86.509-1.079.284-.218.64-.327 1.068-.327.469 0 .837.126 1.104.379.268.253.402.567.402.942 0 .214-.039.418-.117.612a2.453 2.453 0 01-.362.606c-.11.14-.31.342-.596.605-.287.264-.47.438-.547.525-.076.086-.137.17-.185.252h1.807zM18.53 20.658h-.91v-3.43a3.106 3.106 0 01-1.175.69v-.825c.238-.078.496-.225.774-.44a1.69 1.69 0 00.573-.761h.739v4.766zm2.144-2.561c-.235-.1-.407-.236-.515-.408a1.087 1.087 0 01-.158-.573c0-.355.123-.647.369-.878.248-.231.6-.346 1.055-.346.452 0 .801.115 1.05.346.25.23.375.523.375.878 0 .22-.057.416-.171.589-.115.17-.276.3-.483.392.264.105.463.26.6.463.137.203.207.437.207.702 0 .439-.14.795-.422 1.069-.278.274-.65.411-1.113.411-.432 0-.791-.113-1.079-.34-.339-.268-.508-.635-.508-1.1 0-.258.064-.493.191-.707.127-.216.328-.382.602-.498zm.188-.917c0 .182.05.323.152.424a.563.563 0 00.412.153c.172 0 .31-.051.414-.153a.578.578 0 00.155-.427.545.545 0 00-.155-.408.541.541 0 00-.405-.155.565.565 0 00-.418.155.556.556 0 00-.155.411zm-.084 2.034c0 .25.064.446.191.586.13.14.29.21.482.21a.606.606 0 00.467-.2c.123-.136.184-.332.184-.586 0-.223-.062-.401-.188-.535a.619.619 0 00-.476-.204c-.222 0-.388.077-.498.23a.849.849 0 00-.162.499zM30.88 32.865v.846h-3.189a2.2 2.2 0 01.311-.907c.173-.287.514-.667 1.024-1.14.41-.382.661-.641.754-.777a1 1 0 00.188-.557c0-.203-.055-.358-.165-.466-.108-.11-.258-.165-.45-.165a.606.606 0 00-.454.171c-.112.115-.177.305-.194.57l-.907-.09c.054-.501.224-.86.509-1.079.285-.218.64-.327 1.068-.327.469 0 .837.126 1.104.379.268.253.402.567.402.942 0 .214-.039.418-.117.612a2.45 2.45 0 01-.362.606c-.11.14-.309.342-.596.605-.287.264-.47.438-.547.525a1.63 1.63 0 00-.185.252h1.807zm.587-.415l.88-.106c.029.225.104.396.227.515a.62.62 0 00.447.178.609.609 0 00.473-.214c.13-.142.194-.334.194-.576 0-.229-.061-.41-.184-.544a.589.589 0 00-.45-.2c-.117 0-.256.022-.418.067l.1-.741c.246.006.434-.047.564-.159a.575.575 0 00.194-.453.517.517 0 00-.142-.382.512.512 0 00-.38-.143.549.549 0 00-.398.162c-.11.108-.177.265-.2.473l-.839-.143c.058-.287.146-.516.262-.686a1.19 1.19 0 01.492-.405c.212-.1.448-.149.71-.149.447 0 .805.143 1.075.428.222.233.333.496.333.79 0 .416-.228.749-.683.997.272.058.489.189.65.392.165.203.247.448.247.735 0 .416-.152.771-.457 1.065-.304.294-.683.44-1.136.44-.43 0-.786-.122-1.069-.369a1.463 1.463 0 01-.492-.971zm-1.331-11.792h-.91v-3.43a3.106 3.106 0 01-1.175.69v-.825c.237-.078.495-.225.774-.44a1.69 1.69 0 00.573-.761h.738v4.766zm1.383-1.098l.88-.097c.022.18.078.312.169.398a.5.5 0 00.36.13c.187 0 .347-.087.479-.26.131-.172.216-.53.252-1.074a1.086 1.086 0 01-.858.398 1.29 1.29 0 01-.968-.43c-.27-.29-.405-.666-.405-1.127 0-.482.143-.87.428-1.163.287-.296.651-.444 1.094-.444.481 0 .877.187 1.185.56.309.372.463.984.463 1.837 0 .867-.16 1.494-.482 1.878-.322.384-.74.576-1.257.576-.37 0-.671-.098-.9-.295-.229-.198-.375-.494-.44-.887zm2.06-1.988c0-.293-.069-.521-.205-.683-.134-.162-.289-.243-.466-.243a.528.528 0 00-.421.2c-.11.132-.165.35-.165.652 0 .306.06.532.181.676a.57.57 0 00.453.214.558.558 0 00.44-.207c.122-.138.182-.341.182-.609zm8.907 15.293v.846h-3.19a2.2 2.2 0 01.311-.907c.173-.287.514-.667 1.023-1.14.41-.382.662-.641.755-.777a1 1 0 00.188-.557c0-.203-.055-.358-.165-.466-.108-.11-.258-.165-.45-.165a.606.606 0 00-.454.171c-.112.115-.177.305-.194.57l-.907-.09c.054-.501.224-.86.509-1.079.285-.218.64-.327 1.068-.327.469 0 .837.126 1.104.379.268.253.402.567.402.942 0 .214-.039.418-.117.612a2.45 2.45 0 01-.362.606c-.11.14-.309.342-.596.605-.287.264-.47.438-.547.525-.076.086-.137.17-.185.252h1.807zm2.403.845v-.955h-1.943v-.796l2.06-3.015h.763v3.012h.59v.8h-.59v.955h-.88zm0-1.755v-1.622l-1.092 1.623h1.092zm-2.403-12.142v.845h-3.19a2.2 2.2 0 01.311-.907c.173-.287.514-.667 1.023-1.14.41-.382.662-.64.755-.777a1 1 0 00.188-.557c0-.203-.055-.358-.165-.466-.108-.11-.258-.165-.45-.165a.606.606 0 00-.454.172c-.112.114-.177.304-.194.57l-.907-.091c.054-.501.224-.86.509-1.079.285-.218.64-.326 1.068-.326.469 0 .837.126 1.104.378.268.253.402.567.402.943 0 .213-.039.417-.117.612a2.449 2.449 0 01-.362.605c-.11.14-.309.342-.596.606-.287.263-.47.438-.547.524-.076.087-.137.17-.185.253h1.807zm2.156-3.921c.46 0 .82.163 1.079.492.308.388.463 1.033.463 1.933 0 .898-.156 1.543-.466 1.936-.257.324-.616.486-1.076.486a1.36 1.36 0 01-1.117-.531c-.282-.356-.424-.99-.424-1.9 0-.895.156-1.538.466-1.93.257-.325.616-.486 1.075-.486zm0 .754a.45.45 0 00-.294.107c-.087.069-.154.194-.201.375-.063.236-.094.632-.094 1.189s.028.94.084 1.15c.056.207.127.345.21.414a.461.461 0 00.295.103.46.46 0 00.295-.103c.087-.072.153-.198.2-.38.063-.232.095-.627.095-1.184 0-.557-.028-.94-.084-1.146-.056-.21-.128-.35-.214-.418a.438.438 0 00-.291-.107z" fill="#fff"/></svg>