<svg width="50" height="50" fill="none" xmlns="http://www.w3.org/2000/svg"><path fill="#4A6BB7" d="M12 19h6v12h-6zm21 0h7v12h-7z"/><path fill-rule="evenodd" clip-rule="evenodd" d="M32.468 23.989v-4c0-1.645 1.356-3 3-3h2c1.645 0 3 1.355 3 3v4h7a1 1 0 011 .781c.012.04.024.082.032.125a1 1 0 01-1.032 1.094h-7v4c0 1.645-1.355 3-3 3h-2c-1.644 0-3-1.355-3-3v-4h-13.48v4c0 1.645-1.355 3-3 3h-2c-1.644 0-3-1.355-3-3v-4H8.177a.754.754 0 01-.187 0h-5a1.006 1.006 0 01-.88-.496 1.01 1.01 0 010-1.008c.184-.313.52-.5.88-.496h5a.745.745 0 01.187 0h2.813v-4c0-1.645 1.355-3 3-3h2c1.644 0 3 1.355 3 3v4h13.48zm-15.48 6v-10c0-.567-.433-1-1-1h-2c-.566 0-1 .433-1 1v10c0 .566.434 1 1 1h2c.567 0 1-.434 1-1zm21.48-10v10c0 .566-.433 1-1 1h-2c-.566 0-1-.434-1-1v-10c0-.566.434-1 1-1h2c.567 0 1 .434 1 1z" fill="#fff"/></svg>