<svg width="50" height="50" fill="none" xmlns="http://www.w3.org/2000/svg"><path fill-rule="evenodd" clip-rule="evenodd" d="M25 46c11.598 0 21-9.402 21-21S36.598 4 25 4 4 13.402 4 25s9.402 21 21 21zm0 2c12.703 0 23-10.297 23-23S37.703 2 25 2 2 12.297 2 25s10.297 23 23 23z" fill="#fff"/><rect x="22" y="25" width="16" height="6" rx="3" transform="rotate(-90 22 25)" fill="#C89000"/><path fill-rule="evenodd" clip-rule="evenodd" d="M25 26a4 4 0 01-4-4V12a4 4 0 018 0v10a4 4 0 01-4 4zm-2-4a2 2 0 104 0V12a2 2 0 10-4 0v10z" fill="#fff"/></svg>