<svg width="50" height="50" fill="none" xmlns="http://www.w3.org/2000/svg"><path d="M14.5 17.5v-3H35v3h-8V35h-4.5V17.5h-8z" fill="#4A6BB7"/><path d="M4.813 7A1 1 0 004 8v14H2.906A.996.996 0 002 23v4c0 .55.45 1 1 1h1v14c0 .55.45 1 1 1h40c.55 0 1-.45 1-1V28h1c.55 0 1-.45 1-1v-4c0-.55-.45-1-1-1h-1V8c0-.55-.45-1-1-1H4.813zM6 9h38v13h-1.094A.996.996 0 0042 23v4c0 .55.45 1 1 1h1v13H6V28h1c.55 0 1-.45 1-1v-4c0-.55-.45-1-1-1H6V9zm8.813 4A1 1 0 0014 14v4c0 .55.45 1 1 1h7v17c0 .55.45 1 1 1h4c.55 0 1-.45 1-1V19h7c.55 0 1-.45 1-1v-4c0-.55-.45-1-1-1H14.812zM16 15h18v2h-7c-.55 0-1 .45-1 1v17h-2V18c0-.55-.45-1-1-1h-7v-2zM4 24h2v2H4v-2zm40 0h2v2h-.813a1.018 1.018 0 00-.406 0H44v-2z" fill="#fff"/></svg>