<svg width="50" height="50" fill="none" xmlns="http://www.w3.org/2000/svg"><g clip-path="url(#clip0_2104_3496)"><path fill-rule="evenodd" clip-rule="evenodd" d="M22 42.3c11.211 0 20.3-9.089 20.3-20.3S33.211 1.7 22 1.7 1.7 10.789 1.7 22 10.789 42.3 22 42.3zm0 1.7c12.15 0 22-9.85 22-22S34.15 0 22 0 0 9.85 0 22s9.85 22 22 22z" fill="#fff"/><path d="M26.402 10.115L22.208 21.44c-.04.105.1.185.171.098l7.55-9.227a.1.1 0 00-.025-.148l-3.355-2.097a.1.1 0 00-.147.05z" fill="#4A6BB7"/><path fill-rule="evenodd" clip-rule="evenodd" d="M26.879 11.274l-2.315 6.25 4.167-5.093-1.852-1.157zM25.605 9.82a.95.95 0 011.394-.476l3.355 2.097a.95.95 0 01.232 1.407l-.658-.538.658.538-7.55 9.227-.657-.538.658.538c-.68.83-1.999.074-1.626-.932L25.605 9.82z" fill="#fff"/><path d="M23.973 32.879l-2.35-10.816c-.025-.11-.183-.103-.198.008l-1.41 10.816a.1.1 0 00.099.113h3.762a.1.1 0 00.097-.121z" fill="#4A6BB7"/><path fill-rule="evenodd" clip-rule="evenodd" d="M20.583 21.961c.138-1.056 1.644-1.12 1.87-.079l2.352 10.816a.95.95 0 01-.929 1.152h-3.762a.95.95 0 01-.942-1.073l1.411-10.816zm1.127 4.504l-.742 5.685h1.978l-1.236-5.685z" fill="#fff"/><path d="M18.07 5.126l3.833 16.46c.024.102-.107.167-.174.086L11.079 8.77a.1.1 0 01.03-.152l6.817-3.56a.1.1 0 01.143.067z" fill="#4A6BB7"/><path fill-rule="evenodd" clip-rule="evenodd" d="M17.532 4.306a.95.95 0 011.365.627l-.82.191.82-.191 3.834 16.46c.228.977-1.019 1.594-1.658.82L10.423 9.312a.95.95 0 01.293-1.447l6.816-3.559zm-.07 1.955l-5.139 2.683 8.028 9.723-2.89-12.406z" fill="#fff"/><path d="M33.124 35.906l-10.61-13.264c-.074-.092.045-.213.139-.142l13.263 10.17a.1.1 0 01.015.143l-2.652 3.095a.1.1 0 01-.155-.002z" fill="#4A6BB7"/><path fill-rule="evenodd" clip-rule="evenodd" d="M27.031 26.928l6.192 7.74 1.547-1.806-7.739-5.934zm8.367 6.415h.001l.456-.595-.456.596zm-1.61 2.031l-.585.47.585-.47zm-11.938-12.2c-.7-.877.43-2.03 1.32-1.348l-.517.674m.517-.674l13.263 10.168a.95.95 0 01.144 1.373l-2.653 3.095a.95.95 0 01-1.463-.025L21.85 23.173" fill="#fff"/><path d="M8.49 15.066l13.256 6.944a.1.1 0 01-.028.187L7.136 24.974a.1.1 0 01-.117-.112l1.325-9.72a.1.1 0 01.146-.076z" fill="#4A6BB7"/><path fill-rule="evenodd" clip-rule="evenodd" d="M7.503 15.026a.95.95 0 011.382-.713l13.256 6.944c.797.417.62 1.606-.263 1.774L7.296 25.81l-.16-.835.16.835a.95.95 0 01-1.12-1.062l1.327-9.72zm1.54 1.289l-1.04 7.629 11.443-2.18-10.403-5.449z" fill="#fff"/><path d="M50 36.5C50 43.956 43.956 50 36.5 50S23 43.956 23 36.5 29.044 23 36.5 23 50 29.044 50 36.5z" fill="#404258"/><path fill-rule="evenodd" clip-rule="evenodd" d="M36.5 48.3c6.517 0 11.8-5.283 11.8-11.8s-5.283-11.8-11.8-11.8-11.8 5.283-11.8 11.8 5.283 11.8 11.8 11.8zm0 1.7C43.956 50 50 43.956 50 36.5S43.956 23 36.5 23 23 29.044 23 36.5 29.044 50 36.5 50z" fill="#fff"/><path d="M45.078 40.093h0c.46-.441.724-1.02.89-1.723.041-.179.069-.347.1-.537l.043-.251v-.926a.811.811 0 01-.034-.176m-.999 3.613l1.647-3.662m-1.647 3.662c-.318.305-.658.459-1.048.466-1.93.037-3.859.035-5.794.033-.714-.001-1.428-.002-2.144 0m8.986-.5l-8.986.5m9.985-4.112v-.001l.648-.048m-.648.05s0 0 0 0l.648-.05m-.648.05a5.327 5.327 0 00-.284-1.29m.932 1.24a5.973 5.973 0 00-.316-1.447m-.616.207s0 0 0 0l.616-.207m-.616.207l.616-.207m-.616.207c-.481-1.43-1.625-2.364-3.01-2.532a16.453 16.453 0 01-.329 2.099l3.955.226M36.167 45.343a9.611 9.611 0 002.068-.148h0c.767-.135 1.472-.335 2.107-.691h0a.668.668 0 00.17-.117.033.033 0 00.007-.01.19.19 0 00.01-.052h0a21.75 21.75 0 00.09-1.96c-.882.004-1.764.003-2.644.003h-1.178c-.276 0-.554 0-.83-.002l-.017.002h-.001a.72.72 0 01-.753-.507l.97 3.482zm0 0c-.759-.032-1.465-.148-2.123-.424-.585-.245-.906-.677-1.031-1.357h0c-.305-1.645-.251-3.262.206-4.86h0c.074-.26.192-.512.345-.77.117-.199.308-.31.699-.401l1.904 7.812zm-.075-4.752c-.238 0-.591.07-.81.397-.212.313-.158.659-.086.873l.896-1.27zm.201-3.186h0c-.726-.03-1.391-.023-2.03.126l2.03-.126zm0 0l.485.022c.676.033 1.389.067 2.097.036h0m-2.582-.058l2.582.058m0 0c.543-.023 1.13-.097 1.706-.332m-1.706.332l1.706-.332m0 0c1.106-.453 1.644-1.36 1.873-2.373l-1.873 2.373zm1.83-4.898l-.008.399h-.006l.014-.4zm-1.335 10.131h-.003.003zm-.454-.447v-.003.003z" fill="#C89000" stroke="#fff" stroke-width="1.3"/><path d="M27.65 35.38l.042-.245c.031-.186.059-.351.1-.526h0c.16-.686.425-1.247.88-1.673L27.65 35.38zm0 0v.95c.01.038.026.1.034.173v.002c.09.857.34 1.635.799 2.322.58.867 1.342 1.363 2.32 1.504l.011-.077c.107-.763.22-1.585.465-2.386h0c.303-.99.947-1.719 1.958-2.067l-5.587-.42zm2.191-2.939h0c-.443.009-.825.172-1.17.494l1.17-.494zm0 0c1.788-.037 3.572-.035 5.364-.033.771 0 1.544.001 2.32-.001m-7.684.034l7.683-.034m0 0h.007l.004.001c.02.003.076.01.133.012a.804.804 0 00.332-.056.716.716 0 00.408-.432v-.001a1.18 1.18 0 00.056-.417c-.001-.048-.004-.094-.006-.125v-.002a2.247 2.247 0 01-.005-.075s0 0 0 0l-.65.021m-.279 1.074l.018-1.124h.048a5.09 5.09 0 01.133 0c.037 0 .079.001.08.05m0 0l.006.096c.007.1.014.203-.016.292l.01-.388zm-.348-3.675h0a9.472 9.472 0 00-2.065.147l2.065-.147zm0 0c.758.031 1.465.146 2.126.42h0m-2.126-.42l2.126.42m0 0c.61.253.925.717 1.058 1.463.188 1.059.2 2.126.082 3.212h0m-1.14-4.675l1.14 4.675m0 0a7.954 7.954 0 01-.42 1.863c-.108.296-.248.488-.406.617-.158.13-.373.227-.678.274h0m1.504-2.754l-1.505 2.754m0 0a9.452 9.452 0 01-1.815.09h0m1.815-.09l-1.815.09m0 0l-.553-.024m.553.024l-.553-.024m0 0c-.686-.032-1.408-.066-2.124-.035l2.124.035zm-6.054 5.05a.538.538 0 01.197-.192l.109.016h0l.337.047-.337-.048h0l-.306.177zm6.93-9.99a5.58 5.58 0 00-.138 0H36.49c-1.157-.001-2.315-.001-3.474.002.006-.633.014-1.24.066-1.848h0c.01-.113.035-.158.049-.178a.416.416 0 01.154-.119l4.44 2.144zm-5.17.004h.003-.003zm.458.456v.003-.003zm.273-2.603c.645-.345 1.348-.55 2.105-.685l-2.105.685zm1.44 7.049a5.25 5.25 0 00-1.488.261l1.487-.261z" fill="#4A6BB7" stroke="#fff" stroke-width="1.3"/></g><defs><clipPath id="clip0_2104_3496"><path fill="#fff" d="M0 0h50v50H0z"/></clipPath></defs></svg>