<svg width="50" height="50" fill="none" xmlns="http://www.w3.org/2000/svg"><path d="M2 14c-1.093 0-2 .907-2 2v18c0 1.093.907 2 2 2h46c1.093 0 2-.907 2-2V16c0-1.093-.907-2-2-2H2zm0 2h46v18H2V16z" fill="#fff"/><path d="M24 19h1v12h-1V19zM9.723 29H8.076v-6.205a5.677 5.677 0 01-2.127 1.248v-1.494c.43-.14.897-.406 1.4-.797.505-.395.85-.854 1.038-1.377h1.336V29zm2.777-1.646h1.646v1.177c0 .477-.04.852-.123 1.125a1.672 1.672 0 01-.468.744c-.227.22-.516.391-.867.516l-.323-.68c.332-.109.569-.26.71-.45.14-.192.214-.454.222-.786H12.5v-1.646zm8.59.116V29h-5.772c.063-.578.25-1.125.563-1.64.312-.52.93-1.208 1.851-2.063.743-.692 1.198-1.16 1.366-1.406.226-.34.34-.676.34-1.008 0-.367-.1-.649-.3-.844-.195-.2-.466-.299-.814-.299-.344 0-.617.104-.82.31-.203.208-.32.552-.352 1.032l-1.64-.164c.097-.906.404-1.557.92-1.951.515-.395 1.16-.592 1.933-.592.848 0 1.514.229 1.998.686.485.457.727 1.025.727 1.705 0 .386-.07.756-.211 1.107a4.438 4.438 0 01-.656 1.096c-.2.254-.559.619-1.078 1.095-.52.477-.85.793-.99.95a2.933 2.933 0 00-.335.457h3.27z" fill="#fff"/><path d="M47.653 37.19l-13.32-11.892a.2.2 0 00-.333.149v17.612a.2.2 0 00.332.15l3.502-3.064a.2.2 0 01.294.035l2.267 3.173a.2.2 0 00.262.057l3.17-1.81a.2.2 0 00.074-.274l-1.745-3.053a.2.2 0 01.157-.3l5.223-.434a.2.2 0 00.117-.349z" fill="#C89000"/><path fill-rule="evenodd" clip-rule="evenodd" d="M33.15 25.447c0-.907 1.073-1.388 1.75-.784l13.319 11.893c.688.614.307 1.753-.612 1.83l-4.207.35 1.239 2.169a1.05 1.05 0 01-.391 1.432l-3.17 1.811a1.05 1.05 0 01-1.375-.301l-1.85-2.59-2.962 2.593c-.679.593-1.741.111-1.741-.79V25.446zm1.7 1.451v14.729l2.424-2.121a1.05 1.05 0 011.546.18l1.925 2.695 2.095-1.197-1.422-2.49.738-.422-.738.422a1.05 1.05 0 01.824-1.567l.07.847-.07-.847 3.717-.31-11.11-9.919zm5.385 15.774h.001z" fill="#fff"/></svg>