<svg width="50" height="50" viewBox="0 0 50 50" fill="none" xmlns="http://www.w3.org/2000/svg">
<path d="M9.5 8.5C5.5 10.9 3.5 18.8333 3 22.5L23 23L22.5 3C21 3 14.5 5.5 9.5 8.5Z" fill="#4A6BB7"/>
<path d="M23 2C11.4136 2 2 11.4136 2 23V24H24V23V2H23ZM22 4.09961V22H4.09961C4.61114 12.3088 12.3088 4.61114 22 4.09961ZM27 6C26.662 6 26.334 6.03478 26 6.05078V8.05078C26.333 8.03278 26.662 8 27 8C37.477 8 46 16.523 46 27C46 37.477 37.477 46 27 46C16.523 46 8 37.477 8 27C8 26.662 8.03278 26.333 8.05078 26H6.05078C6.03478 26.334 6 26.662 6 27C6 38.58 15.42 48 27 48C38.58 48 48 38.58 48 27C48 15.42 38.58 6 27 6Z" fill="white"/>
</svg>
