<svg width="50" height="50" fill="none" xmlns="http://www.w3.org/2000/svg"><path fill="#E75F63" d="M15 41h20v4H15z"/><circle cx="25" cy="27" r="4" fill="#E75F63"/><path d="M24.984 3.986a1.001 1.001 0 00-.17.018 22.865 22.865 0 00-11.14 2.984 1 1 0 00-.34.196 23.137 23.137 0 00-8.147 8.146 1 1 0 00-.2.348 22.868 22.868 0 00-2.983 11.127 1 1 0 00.004.4c.044 5 1.683 9.63 4.439 13.387a1 1 0 101.613-1.184c-.233-.318-.448-.65-.664-.98l1.75-1.028a1 1 0 10-1.013-1.724l-1.754 1.031A20.855 20.855 0 014.04 28H6a1 1 0 100-2H4.025c.145-3.1.97-6.014 2.315-8.62l1.705.985a1 1 0 101-1.73L7.34 15.65a21.043 21.043 0 016.31-6.31l.984 1.705a1.002 1.002 0 001.857-.226 1 1 0 00-.126-.774l-.984-1.705A20.882 20.882 0 0124 6.025V8a1 1 0 102 0V6.025c3.1.145 6.015.972 8.619 2.315l-.984 1.705a1.002 1.002 0 001.123 1.495 1 1 0 00.607-.495l.984-1.705a21.028 21.028 0 016.31 6.31l-1.704.985a1 1 0 101 1.73l1.705-.984A20.885 20.885 0 0145.974 26H44a1 1 0 100 2h1.959a20.856 20.856 0 01-2.338 8.707l-1.754-1.031a1 1 0 10-1.014 1.724l1.75 1.028c-.215.33-.43.662-.664.98a1.001 1.001 0 001.614 1.184 22.908 22.908 0 004.439-13.381 1 1 0 00.004-.395 22.87 22.87 0 00-2.99-11.154l-.002-.004a1.001 1.001 0 00-.18-.308 23.129 23.129 0 00-8.164-8.17l-.004-.004a1 1 0 00-.324-.184 22.87 22.87 0 00-11.145-2.988h-.004a1 1 0 00-.199-.018zm13.791 14.657l-11.049 4.18A4.954 4.954 0 0025 22c-2.752 0-5 2.252-5 5s2.248 5 5 5c2.751 0 5-2.252 5-5 0-.03-.004-.058-.004-.088L39 19l-.225-.357zM25 24c1.67 0 3 1.33 3 3 0 1.668-1.33 3-3 3s-3-1.332-3-3 1.33-3 3-3zM14.998 40a1 1 0 00-1 1v3.998a1 1 0 001 1h20.004a1 1 0 001-1V41a1 1 0 00-1-1H14.998zm1 2h18.004v1.998H15.998V42z" fill="#fff"/></svg>