<svg width="50" height="50" fill="none" xmlns="http://www.w3.org/2000/svg"><path d="M27 24.5c0-6.4-6-10.333-9-11.5l16-1.5c5.167.5 15.5 3.8 15.5 13s-8.333 13.167-12.5 14c-7.167-.167-21.5-.6-21.5-1 8.8 0 11.333-8.667 11.5-13z" fill="#3B9281"/><path d="M14 11C6.281 11 0 17.281 0 25s6.281 14 14 14h22c7.719 0 14-6.281 14-14s-6.281-14-14-14H14zm0 2c6.64 0 12 5.36 12 12s-5.36 12-12 12S2 31.64 2 25s5.36-12 12-12zm7.156 0H36c6.64 0 12 5.36 12 12s-5.36 12-12 12H21.156C25.242 34.55 28 30.098 28 25s-2.758-9.55-6.844-12z" fill="#fff"/></svg>