<svg width="50" height="50" fill="none" xmlns="http://www.w3.org/2000/svg"><path d="M2 14c-1.093 0-2 .907-2 2v18c0 1.093.907 2 2 2h46c1.093 0 2-.907 2-2V16c0-1.093-.907-2-2-2H2zm0 2h46v18H2V16z" fill="#fff"/><path d="M13.62 29h-1.888l-.75-1.951H7.55L6.839 29H5l3.346-8.59h1.834L13.62 29zm-3.194-3.398l-1.184-3.188-1.16 3.188h2.344zM16 19h1v12h-1V19z" fill="#fff"/><path d="M46.653 37.19l-13.32-11.892a.2.2 0 00-.333.149v17.612a.2.2 0 00.332.15l3.502-3.064a.2.2 0 01.294.035l2.267 3.173a.2.2 0 00.262.057l3.17-1.81a.2.2 0 00.074-.274l-1.745-3.053a.2.2 0 01.157-.3l5.223-.434a.2.2 0 00.117-.349z" fill="#E75F63"/><path fill-rule="evenodd" clip-rule="evenodd" d="M32.15 25.447c0-.907 1.073-1.388 1.75-.784l13.319 11.893c.688.614.307 1.753-.612 1.83l-4.207.35 1.239 2.169a1.05 1.05 0 01-.391 1.432l-3.17 1.811a1.05 1.05 0 01-1.375-.301l-1.85-2.59-2.962 2.593c-.679.593-1.741.111-1.741-.79V25.446zm1.7 1.451v14.729l2.424-2.121a1.05 1.05 0 011.546.18l1.925 2.695 2.095-1.197-1.422-2.49.738-.422-.738.422a1.05 1.05 0 01.824-1.567l.07.847-.07-.847 3.717-.31-11.11-9.919zm5.385 15.774h.001z" fill="#fff"/></svg>