<svg width="50" height="50" viewBox="0 0 50 50" fill="none" xmlns="http://www.w3.org/2000/svg">
<path d="M25 11.5886C25.6836 11.5886 26.3672 12.2722 26.3672 12.9557V22.0134L30.0415 25.6877C30.5542 26.2004 30.5542 27.1403 30.0415 27.653C29.5288 28.1657 28.5889 28.1657 28.0762 27.653L23.9746 23.5515C23.7183 23.2951 23.5474 22.9533 23.5474 22.5261V12.9557C23.5474 12.2722 24.231 11.5886 24.9146 11.5886H25ZM25 3.38544C35.5103 3.38544 44.1406 12.0158 44.1406 22.5261V41.6667C44.1406 44.7429 41.6626 47.1354 38.6719 47.1354H11.3281C8.25195 47.1354 5.85938 44.7429 5.85938 41.6667V22.5261C5.85938 12.0158 14.4043 3.38544 25 3.38544ZM25 6.11981C15.8569 6.11981 8.59375 13.4684 8.59375 22.5261C8.59375 31.5837 15.8569 38.9323 25 38.9323C34.0576 38.9323 41.4062 31.5837 41.4062 22.5261C41.4062 13.4684 34.0576 6.11981 25 6.11981ZM41.4062 32.4382C37.9883 37.9924 31.9214 41.6667 25 41.6667C17.9932 41.6667 11.9263 37.9924 8.59375 32.4382V41.6667C8.59375 43.2048 9.79004 44.4011 11.3281 44.4011H38.6719C40.1245 44.4011 41.4062 43.2048 41.4062 41.6667V32.4382Z" fill="black"/>
</svg>
