<svg width="50" height="50" viewBox="0 0 50 50" fill="none" xmlns="http://www.w3.org/2000/svg">
<path fill-rule="evenodd" clip-rule="evenodd" d="M32.4883 29.8566L34.9834 23.8683C35.1329 23.5265 34.962 23.1206 34.6202 22.9711C34.2571 22.8215 33.8726 22.9924 33.723 23.3342L30.9459 30.0206L28.1475 23.3342C27.9979 22.9924 27.6134 22.8215 27.2502 22.9711C26.9084 23.1206 26.7375 23.5265 26.8871 23.8683L30.084 31.541C30.8025 30.8778 31.6104 30.3096 32.4883 29.8566ZM26.9042 42.3177H11.9792C10.4412 42.3177 9.24487 41.1214 9.24487 39.5833H6.5105C6.5105 42.6595 8.90308 45.0521 11.9792 45.0521H28.0163C27.5293 44.2062 27.1522 43.2884 26.9042 42.3177ZM27.0183 17.7083C24.7112 17.7083 22.9167 15.9139 22.9167 13.6068V4.03644H11.9792C10.4412 4.03644 9.24487 5.31818 9.24487 6.77081V20.4427H6.5105V6.77081C6.5105 3.78009 8.90308 1.30206 11.9792 1.30206H25.3093C26.3347 1.30206 27.4456 1.81476 28.2146 2.5838L38.0413 12.4105C38.8103 13.1795 39.323 14.2903 39.323 15.3157V20.4427H36.5886V17.7083H27.0183ZM36.1614 14.3758L26.2493 4.46368C26.1187 4.33313 25.9383 4.25244 25.7842 4.18353C25.7366 4.16223 25.6915 4.14206 25.6511 4.12189V13.6068C25.6511 14.3758 26.2493 14.9739 27.0183 14.9739H36.5032C36.483 14.9336 36.4628 14.8885 36.4415 14.8409L36.4415 14.8409C36.3726 14.6868 36.2919 14.5063 36.1614 14.3758ZM24.9004 32.0928C25.5626 31.7296 25.9685 31.1101 26.0967 30.3411C26.5026 28.0766 24.4304 27.4785 22.9137 27.0513C21.0979 26.5172 20.5425 26.2181 20.7134 25.2995C20.7561 25.0005 20.927 24.7655 21.1833 24.5732C21.632 24.2955 22.5719 24.0819 24.5159 24.5946C24.879 24.68 25.2422 24.4664 25.349 24.1033C25.4344 23.7401 25.2208 23.3769 24.8577 23.2701C22.9137 22.7574 21.4183 22.8002 20.457 23.441C19.8589 23.8042 19.4744 24.4023 19.3676 25.0859C18.9617 27.329 21.0338 27.9271 22.5505 28.3544C24.3663 28.8884 24.9218 29.1875 24.7509 30.1061C24.6868 30.4692 24.5372 30.7256 24.2382 30.8965C23.4691 31.3024 21.9097 31.1528 20.2648 30.4692C19.9016 30.3197 19.5171 30.4906 19.3676 30.8537C19.218 31.1955 19.3889 31.6014 19.7307 31.7296C20.4143 32.0073 21.7815 32.4986 23.106 32.4986C23.7468 32.4986 24.3663 32.3918 24.9004 32.0928ZM18.6199 30.5974C18.6199 30.3411 18.4276 29.9138 17.9576 29.9138C17.6994 29.9138 17.496 30.0845 17.2416 30.2982C16.8225 30.65 16.2648 31.1182 15.0951 31.1315C12.9802 31.1315 11.7839 29.2943 11.7839 27.7135C11.7839 26.1113 13.0016 24.2955 15.0951 24.2955C16.252 24.2955 16.8046 24.7673 17.2219 25.1236C17.4749 25.3396 17.6782 25.5132 17.9363 25.5132C18.4062 25.5132 18.6199 25.0859 18.6199 24.8296C18.6199 24.3596 17.2313 22.9283 15.0951 22.9283C12.1257 22.9283 10.4167 25.4918 10.4167 27.7135C10.4167 29.9779 12.1685 32.4986 15.0951 32.4986C17.1886 32.4986 18.6199 31.0887 18.6199 30.5974Z" fill="black"/>
<path fill-rule="evenodd" clip-rule="evenodd" d="M37.4999 30.7292C32.5886 30.7292 28.6458 34.7072 28.6458 39.5834C28.6458 44.4934 32.5899 48.4375 37.4999 48.4375C42.3761 48.4375 46.3541 44.4947 46.3541 39.5834C46.3541 34.7059 42.3774 30.7292 37.4999 30.7292ZM30.7291 39.5834C30.7291 35.8656 33.7526 32.8125 37.4999 32.8125C41.2162 32.8125 44.2708 35.8671 44.2708 39.5834C44.2708 43.3307 41.2177 46.3542 37.4999 46.3542C33.7511 46.3542 30.7291 43.3322 30.7291 39.5834ZM35.018 35.6203C35.418 35.356 35.9566 35.3597 36.3528 35.6316L41.0211 38.4845C41.3933 38.7007 41.6666 39.1235 41.6666 39.5834C41.6666 40.0636 41.4041 40.4924 41.0211 40.7148L36.326 43.5837C35.9912 43.7751 35.4557 43.8674 35.0182 43.5791C34.5716 43.3381 34.3749 42.8849 34.3749 42.4479V36.7188C34.3749 36.3011 34.581 35.8563 35.018 35.6203ZM36.4583 41.0591V38.1335L38.8465 39.5864L36.4583 41.0591Z" fill="black"/>
</svg>
