<svg width="50" height="50" viewBox="0 0 50 50" fill="none" xmlns="http://www.w3.org/2000/svg">
<path fill-rule="evenodd" clip-rule="evenodd" d="M34.3356 32.5063L37.0666 25.9516C37.2162 25.6098 37.0453 25.204 36.7035 25.0544C36.3403 24.9049 35.9558 25.0758 35.8063 25.4176L33.0292 32.104L30.2307 25.4176C30.0812 25.0758 29.6967 24.9049 29.3335 25.0544C28.9917 25.204 28.8208 25.6098 28.9703 25.9516L32.0193 33.2691C32.7335 32.9407 33.5063 32.6767 34.3356 32.5063ZM28.017 47.1354C27.1749 46.2256 26.5013 45.2716 25.9919 44.4011H14.0625C12.5244 44.4011 11.3281 43.2048 11.3281 41.6667H8.59375C8.59375 44.7429 10.9863 47.1354 14.0625 47.1354H28.017ZM25 15.6901C25 17.9973 26.7944 19.7917 29.1016 19.7917H38.6719V22.5261H41.4062V17.3991C41.4062 16.3737 40.8936 15.2629 40.1245 14.4938L30.2979 4.66718C29.5288 3.89813 28.418 3.38544 27.3926 3.38544H14.0625C10.9863 3.38544 8.59375 5.86346 8.59375 8.85419V22.5261H11.3281V8.85419C11.3281 7.40155 12.5244 6.11981 14.0625 6.11981H25V15.6901ZM28.3325 6.54706L38.2446 16.4592C38.3752 16.5897 38.4559 16.7701 38.5248 16.9242L38.5248 16.9243C38.5461 16.9719 38.5663 17.017 38.5864 17.0573H29.1016C28.3325 17.0573 27.7344 16.4592 27.7344 15.6901V6.20526C27.7747 6.22543 27.8198 6.2456 27.8674 6.2669C28.0215 6.33582 28.202 6.4165 28.3325 6.54706ZM28.1799 32.4244C28.0518 33.1935 27.6459 33.813 26.9836 34.1761C26.4496 34.4752 25.8301 34.582 25.1892 34.582C23.8647 34.582 22.4976 34.0907 21.814 33.813C21.4722 33.6848 21.3013 33.2789 21.4508 32.9371C21.6003 32.574 21.9849 32.4031 22.348 32.5526C23.9929 33.2362 25.5524 33.3857 26.3214 32.9798C26.6205 32.8089 26.77 32.5526 26.8341 32.1894C27.005 31.2709 26.4496 30.9718 24.6338 30.4377C23.1171 30.0105 21.0449 29.4123 21.4508 27.1693C21.5576 26.4857 21.9421 25.8876 22.5403 25.5244C23.5016 24.8835 24.9969 24.8408 26.9409 25.3535C27.3041 25.4603 27.5177 25.8235 27.4323 26.1866C27.3254 26.5498 26.9623 26.7634 26.5991 26.678C24.6552 26.1653 23.7152 26.3789 23.2666 26.6566C23.0103 26.8489 22.8394 27.0838 22.7966 27.3829C22.6257 28.3015 23.1812 28.6006 24.9969 29.1346C26.5137 29.5619 28.5858 30.16 28.1799 32.4244ZM20.0409 31.9972C20.5109 31.9972 20.7031 32.4244 20.7031 32.6808C20.7031 33.1721 19.2719 34.582 17.1783 34.582C14.2517 34.582 12.5 32.0613 12.5 29.7969C12.5 27.5752 14.209 25.0117 17.1783 25.0117C19.3146 25.0117 20.7031 26.443 20.7031 26.913C20.7031 27.1693 20.4895 27.5965 20.0195 27.5965C19.7615 27.5965 19.5582 27.423 19.3051 27.2069C18.8879 26.8507 18.3352 26.3789 17.1783 26.3789C15.0848 26.3789 13.8672 28.1947 13.8672 29.7969C13.8672 31.3777 15.0635 33.2148 17.1783 33.2148C18.348 33.2015 18.9057 32.7334 19.3248 32.3815C19.5793 32.1679 19.7826 31.9972 20.0409 31.9972Z" fill="black"/>
<path fill-rule="evenodd" clip-rule="evenodd" d="M36.4584 33.8542C33.654 33.8542 31.4177 35.1364 29.8221 36.6295C28.229 38.0878 27.1802 39.8459 26.6677 41.0757L26.6674 41.0756L26.6608 41.0932C26.519 41.4715 26.519 41.8944 26.6608 42.2727L26.6603 42.2729L26.6698 42.295C27.1818 43.4897 28.2294 45.2454 29.8199 46.7344C31.4197 48.232 33.657 49.4792 36.4584 49.4792C39.2283 49.4792 41.4655 48.2312 43.0644 46.7344C44.6549 45.2454 45.7025 43.4897 46.2145 42.295L46.215 42.2952L46.2234 42.2727C46.3653 41.8944 46.3653 41.4715 46.2234 41.0932L46.2237 41.0931L46.2165 41.0757C45.7041 39.8459 44.6553 38.0878 43.0622 36.6295C41.4675 35.1373 39.2312 33.8542 36.4584 33.8542ZM31.2467 38.1418C32.5812 36.9004 34.3159 35.9375 36.4584 35.9375C38.5673 35.9375 40.302 36.8995 41.6375 38.1418C42.8855 39.3027 43.7571 40.6846 44.2197 41.6667C43.7571 42.6488 42.8855 44.0307 41.6375 45.1916C40.302 46.4339 38.5673 47.3959 36.4584 47.3959C34.3159 47.3959 32.5812 46.4329 31.2467 45.1916C29.9932 44.0255 29.1229 42.6399 28.691 41.6667C29.1229 40.6934 29.9932 39.3078 31.2467 38.1418ZM36.4584 36.9792C33.8569 36.9792 31.7709 39.103 31.7709 41.6667C31.7709 44.2655 33.8596 46.3542 36.4584 46.3542C39.0221 46.3542 41.1459 44.2682 41.1459 41.6667C41.1459 39.1004 39.0247 36.9792 36.4584 36.9792ZM33.8542 41.6667C33.8542 40.2255 34.9918 39.0625 36.4584 39.0625C37.896 39.0625 39.0626 40.2291 39.0626 41.6667C39.0626 43.1043 37.896 44.2709 36.4584 44.2709C34.9918 44.2709 33.8542 43.1079 33.8542 41.6667Z" fill="black"/>
</svg>
