<svg width="50" height="50" viewBox="0 0 50 50" fill="none" xmlns="http://www.w3.org/2000/svg">
<path fill-rule="evenodd" clip-rule="evenodd" d="M8.59375 8.85419C8.59375 5.86346 10.9863 3.38544 14.0625 3.38544H27.3926C28.418 3.38544 29.5288 3.89813 30.2979 4.66718L40.1245 14.4938C40.8936 15.2629 41.4062 16.3737 41.4062 17.3991V33.5345C40.5788 33.0985 39.6657 32.746 38.6719 32.5292V19.7917H29.1016C26.7944 19.7917 25 17.9973 25 15.6901V6.11981H14.0625C12.5244 6.11981 11.3281 7.40155 11.3281 8.85419V41.6667C11.3281 43.2048 12.5244 44.4011 14.0625 44.4011H25.9919C26.5013 45.2716 27.1749 46.2256 28.017 47.1354H14.0625C10.9863 47.1354 8.59375 44.7429 8.59375 41.6667V8.85419ZM38.2446 16.4592L28.3325 6.54706C28.202 6.4165 28.0215 6.33582 27.8674 6.2669C27.8198 6.2456 27.7747 6.22543 27.7344 6.20526V15.6901C27.7344 16.4592 28.3325 17.0573 29.1016 17.0573H38.5864C38.5663 17.017 38.5461 16.9719 38.5248 16.9243L38.5248 16.9242C38.4559 16.7701 38.3752 16.5897 38.2446 16.4592Z" fill="black"/>
<path fill-rule="evenodd" clip-rule="evenodd" d="M36.4584 33.8542C33.654 33.8542 31.4177 35.1364 29.8221 36.6295C28.229 38.0878 27.1802 39.8459 26.6677 41.0757L26.6674 41.0756L26.6608 41.0932C26.519 41.4715 26.519 41.8944 26.6608 42.2727L26.6603 42.2729L26.6698 42.295C27.1818 43.4897 28.2294 45.2454 29.8199 46.7344C31.4197 48.232 33.657 49.4792 36.4584 49.4792C39.2283 49.4792 41.4655 48.2312 43.0644 46.7344C44.6549 45.2454 45.7025 43.4897 46.2145 42.295L46.215 42.2952L46.2234 42.2727C46.3653 41.8944 46.3653 41.4715 46.2234 41.0932L46.2237 41.0931L46.2165 41.0757C45.7041 39.8459 44.6553 38.0878 43.0622 36.6295C41.4675 35.1373 39.2312 33.8542 36.4584 33.8542ZM31.2467 38.1418C32.5812 36.9004 34.3159 35.9375 36.4584 35.9375C38.5673 35.9375 40.302 36.8995 41.6375 38.1418C42.8855 39.3027 43.7571 40.6846 44.2197 41.6667C43.7571 42.6488 42.8855 44.0307 41.6375 45.1916C40.302 46.4339 38.5673 47.3959 36.4584 47.3959C34.3159 47.3959 32.5812 46.4329 31.2467 45.1916C29.9932 44.0255 29.1229 42.6399 28.691 41.6667C29.1229 40.6934 29.9932 39.3078 31.2467 38.1418ZM36.4584 36.9792C33.8569 36.9792 31.7709 39.103 31.7709 41.6667C31.7709 44.2655 33.8596 46.3542 36.4584 46.3542C39.0221 46.3542 41.1459 44.2682 41.1459 41.6667C41.1459 39.1004 39.0247 36.9792 36.4584 36.9792ZM33.8542 41.6667C33.8542 40.2255 34.9918 39.0625 36.4584 39.0625C37.896 39.0625 39.0626 40.2291 39.0626 41.6667C39.0626 43.1043 37.896 44.2709 36.4584 44.2709C34.9918 44.2709 33.8542 43.1079 33.8542 41.6667Z" fill="black"/>
</svg>
