<svg width="50" height="50" viewBox="0 0 50 50" fill="none" xmlns="http://www.w3.org/2000/svg">
<path d="M31.8359 19.7917C31.8359 23.6369 28.7598 26.6276 25 26.6276C21.1548 26.6276 18.1641 23.6369 18.1641 19.7917C18.1641 16.0319 21.1548 12.9557 25 12.9557C28.7598 12.9557 31.8359 16.0319 31.8359 19.7917ZM25 23.8932C27.2217 23.8932 29.1016 22.0988 29.1016 19.7917C29.1016 17.57 27.2217 15.6901 25 15.6901C22.6929 15.6901 20.8984 17.57 20.8984 19.7917C20.8984 22.0988 22.6929 23.8932 25 23.8932ZM41.4062 19.7917C41.4062 27.3112 31.4087 40.5558 26.9653 46.11C25.9399 47.3918 23.9746 47.3918 22.9492 46.11C18.5059 40.5558 8.59375 27.3112 8.59375 19.7917C8.59375 10.7341 15.8569 3.38544 25 3.38544C34.0576 3.38544 41.4062 10.7341 41.4062 19.7917ZM25 6.11981C17.395 6.11981 11.3281 12.2722 11.3281 19.7917C11.3281 21.1589 11.7554 22.9533 12.6953 25.2604C13.6353 27.4821 14.917 29.8747 16.4551 32.2673C19.3604 36.967 22.7783 41.4958 25 44.2302C27.1362 41.4958 30.5542 36.967 33.4595 32.2673C34.9976 29.8747 36.2793 27.4821 37.2192 25.2604C38.1592 22.9533 38.6719 21.1589 38.6719 19.7917C38.6719 12.2722 32.5195 6.11981 25 6.11981Z" fill="black"/>
</svg>
