<svg width="50" height="50" viewBox="0 0 50 50" fill="none" xmlns="http://www.w3.org/2000/svg">
<path d="M41.4062 41.6667C41.4062 44.7429 38.9282 47.1354 35.9375 47.1354H14.0625C10.9863 47.1354 8.59375 44.7429 8.59375 41.6667H11.3281C11.3281 43.2048 12.5244 44.4011 14.0625 44.4011H35.9375C37.3901 44.4011 38.6719 43.2048 38.6719 41.6667H41.4062ZM29.1016 19.7917C26.7944 19.7917 25 17.9973 25 15.6901V6.11981H14.0625C12.5244 6.11981 11.3281 7.40155 11.3281 8.85419V22.5261H8.59375V8.85419C8.59375 5.86346 10.9863 3.38544 14.0625 3.38544H27.3926C28.418 3.38544 29.5288 3.89813 30.2979 4.66718L40.1245 14.4938C40.8936 15.2629 41.4062 16.3737 41.4062 17.3991V22.5261H38.6719V19.7917H29.1016ZM38.2446 16.4592L28.3325 6.54706C28.1616 6.37616 27.9053 6.29071 27.7344 6.20526V15.6901C27.7344 16.4592 28.3325 17.0573 29.1016 17.0573H38.5864C38.501 16.8864 38.4155 16.6301 38.2446 16.4592Z" fill="black"/>
<path d="M16.4236 32.8302V37.3969C16.4236 38.9133 15.1541 40.1652 13.6024 40.1652C12.0331 40.1652 10.7812 38.9133 10.7812 37.3969V36.7622C10.7812 36.4624 11.0281 36.1979 11.3455 36.1979C11.6452 36.1979 11.9097 36.4624 11.9097 36.7622V37.3969C11.9097 38.2962 12.6679 39.0368 13.6024 39.0368C14.5193 39.0368 15.2951 38.2962 15.2951 37.3969V32.8302C15.2951 32.5128 15.542 32.2659 15.8594 32.2659C16.1591 32.2659 16.4236 32.5128 16.4236 32.8302Z" fill="black"/>
<path d="M23.0287 38.3844C22.9229 39.0191 22.5879 39.5305 22.0413 39.8302C21.6005 40.0771 21.0891 40.1652 20.5602 40.1652C19.467 40.1652 18.3385 39.7597 17.7743 39.5305C17.4921 39.4247 17.3511 39.0897 17.4745 38.8075C17.5979 38.5078 17.9153 38.3667 18.2151 38.4902C19.5728 39.0544 20.8599 39.1778 21.4947 38.8428C21.7415 38.7017 21.865 38.4902 21.9179 38.1904C22.0589 37.4322 21.6005 37.1854 20.1017 36.7445C18.8498 36.3919 17.1395 35.8982 17.4745 34.0468C17.5627 33.4826 17.88 32.9889 18.3738 32.6891C19.1672 32.1601 20.4015 32.1249 22.006 32.548C22.3058 32.6362 22.4821 32.936 22.4116 33.2357C22.3234 33.5355 22.0237 33.7118 21.7239 33.6412C20.1194 33.2181 19.3435 33.3944 18.9733 33.6236C18.7617 33.7823 18.6206 33.9763 18.5853 34.2231C18.4443 34.9813 18.9027 35.2282 20.4015 35.669C21.6534 36.0216 23.3637 36.5153 23.0287 38.3844Z" fill="black"/>
<path d="M28.0469 32.2659C25.8605 32.2659 24.0972 34.0292 24.0972 36.2156C24.0972 38.3844 25.8605 40.1652 28.0469 40.1652C30.2157 40.1652 31.9965 38.3844 31.9965 36.2156C31.9965 34.0292 30.2157 32.2659 28.0469 32.2659ZM28.0469 39.0191C26.4776 39.0191 25.2257 37.7672 25.2257 36.1979C25.2257 34.6463 26.4776 33.3944 28.0469 33.3944C29.5985 33.3944 30.8681 34.6639 30.8681 36.1979C30.8681 37.7496 29.5985 39.0191 28.0469 39.0191Z" fill="black"/>
<path d="M39.2188 32.8302V39.601C39.2188 39.8302 39.0601 40.0418 38.8308 40.13C38.7779 40.1476 38.7074 40.1476 38.6545 40.1476C38.4782 40.1476 38.3195 40.0771 38.2137 39.9536L33.5764 34.3818V39.5834C33.5764 39.9007 33.3119 40.1476 33.0122 40.1476C32.6948 40.1476 32.4479 39.9007 32.4479 39.5834V32.8125C32.4479 32.5833 32.589 32.3717 32.8182 32.2836C33.0298 32.213 33.2766 32.2836 33.4353 32.4599L38.0903 38.0317V32.8125C38.0903 32.5128 38.3371 32.2483 38.6545 32.2483C38.9543 32.2483 39.2188 32.5128 39.2188 32.8302Z" fill="black"/>
<path fill-rule="evenodd" clip-rule="evenodd" d="M38.6547 32.3525C38.3969 32.3525 38.1946 32.5682 38.1946 32.8126V38.3189L33.3568 32.5282C33.2242 32.3819 33.0217 32.3267 32.8535 32.3817C32.6655 32.455 32.5522 32.6276 32.5522 32.8126V39.5834C32.5522 39.8433 32.7525 40.0435 33.0123 40.0435C33.2567 40.0435 33.4724 39.8412 33.4724 39.5834V34.0939L38.293 39.8859C38.2928 39.8857 38.2931 39.8861 38.293 39.8859C38.3774 39.9841 38.5066 40.0435 38.6547 40.0435C38.7113 40.0435 38.7624 40.0424 38.796 40.0318C38.9891 39.9565 39.1147 39.7808 39.1147 39.601V32.8302C39.1147 32.5683 38.8948 32.3525 38.6547 32.3525ZM37.9863 32.8126C37.9863 32.4574 38.2777 32.1442 38.6547 32.1442C39.014 32.1442 39.3231 32.4574 39.3231 32.8302V39.601C39.3231 39.8789 39.1324 40.1257 38.8684 40.2272L38.864 40.2289C38.7947 40.252 38.7098 40.2519 38.6606 40.2518L38.6547 40.2518C38.4504 40.2518 38.2619 40.1698 38.1348 40.0215L33.6807 34.6698V39.5834C33.6807 39.9604 33.3675 40.2518 33.0123 40.2518C32.6374 40.2518 32.3439 39.9583 32.3439 39.5834V32.8126C32.3439 32.5398 32.5119 32.2899 32.781 32.1864L32.7854 32.1847C33.0394 32.1 33.3288 32.1856 33.5129 32.3902L33.5155 32.3931L37.9863 37.7446V32.8126ZM21.9781 32.6484C20.3815 32.2276 19.1862 32.2728 18.4317 32.7758L18.428 32.7783C17.9617 33.0614 17.6612 33.5277 17.5776 34.0629L17.5772 34.0654C17.4964 34.5115 17.54 34.8685 17.6636 35.159C17.7875 35.4501 17.995 35.6826 18.2549 35.8738C18.7791 36.2595 19.5002 36.4669 20.1301 36.6443C20.8751 36.8634 21.385 37.0401 21.6871 37.2649C21.842 37.3802 21.9483 37.512 22.0031 37.6731C22.0574 37.8324 22.0576 38.0094 22.0205 38.209C21.9636 38.5312 21.8263 38.7734 21.5465 38.9333L21.5435 38.935C21.1994 39.1166 20.6944 39.1677 20.1153 39.1073C19.5329 39.0466 18.8619 38.8717 18.1754 38.5864C17.9314 38.4861 17.6735 38.5982 17.571 38.8472L17.5701 38.8493C17.4702 39.0777 17.5857 39.3485 17.811 39.433L17.8136 39.434C18.3757 39.6623 19.4884 40.0611 20.5603 40.0611C21.0787 40.0611 21.5705 39.9746 21.9906 39.7394C22.5061 39.4566 22.825 38.9741 22.9261 38.3673C23.0069 37.9166 22.9635 37.5549 22.8398 37.2617C22.7159 36.9681 22.5082 36.734 22.2484 36.5418C21.7243 36.1541 21.0034 35.9467 20.3734 35.7693C19.6284 35.5502 19.1185 35.3735 18.8165 35.1487C18.6616 35.0334 18.5553 34.9016 18.5004 34.7405C18.4463 34.5816 18.4459 34.4051 18.4827 34.2062C18.4826 34.207 18.4825 34.2077 18.4824 34.2084L18.5855 34.2232L18.4831 34.2041C18.483 34.2048 18.4828 34.2055 18.4827 34.2062C18.5235 33.9257 18.6847 33.71 18.9109 33.5403L18.9184 33.5347C19.3245 33.2833 20.1348 33.1146 21.7492 33.5402C21.9927 33.5968 22.2372 33.4547 22.311 33.2091C22.3108 33.21 22.3106 33.211 22.3103 33.2119L22.4117 33.2357L22.3118 33.2064C22.3115 33.2073 22.3113 33.2082 22.311 33.2091C22.3668 32.9656 22.2241 32.7215 21.9781 32.6484ZM18.318 32.6012C19.1502 32.0476 20.4222 32.0226 22.0327 32.4474L22.0356 32.4481C22.3874 32.5516 22.5966 32.905 22.5131 33.2596L22.5118 33.2652C22.4084 33.6169 22.0548 33.8261 21.7002 33.7427L21.6975 33.742C20.1099 33.3234 19.3684 33.5038 19.0322 33.7098C18.8381 33.8564 18.7187 34.0272 18.6886 34.2379L18.6879 34.2422C18.6546 34.4215 18.6588 34.5595 18.6976 34.6734C18.7359 34.7856 18.8114 34.8852 18.9408 34.9815C19.2073 35.1799 19.677 35.3473 20.4304 35.5689C21.0523 35.7441 21.8122 35.9599 22.3723 36.3743C22.6547 36.5832 22.89 36.845 23.0317 37.1807C23.1735 37.5167 23.2181 37.9187 23.1315 38.4022C23.021 39.0644 22.6692 39.6047 22.092 39.9214C21.6304 40.1797 21.0998 40.2694 20.5603 40.2694C19.4467 40.2694 18.3033 39.8577 17.7365 39.6275C17.3987 39.5 17.2328 39.1021 17.3788 38.7669C17.5234 38.4172 17.8997 38.2476 18.2549 38.3939C18.926 38.6728 19.5777 38.8418 20.1369 38.9001C20.6986 38.9587 21.154 38.9043 21.4447 38.7515C21.6575 38.6294 21.7667 38.4488 21.8154 38.1723C21.8488 37.993 21.8447 37.8541 21.8059 37.7403C21.7677 37.628 21.6921 37.5284 21.5627 37.4321C21.2962 37.2337 20.8265 37.0663 20.073 36.8447C19.4512 36.6695 18.6915 36.4537 18.1314 36.0416C17.8492 35.8339 17.6137 35.5738 17.4719 35.2406C17.3301 34.9072 17.2855 34.5085 17.3719 34.0295C17.4648 33.4375 17.7983 32.9175 18.318 32.6012ZM15.8595 32.3701C15.5997 32.3701 15.3995 32.5703 15.3995 32.8302V37.397C15.3995 38.3573 14.5734 39.141 13.6026 39.141C12.6134 39.141 11.8057 38.3566 11.8057 37.397V36.7622C11.8057 36.52 11.5879 36.3022 11.3456 36.3022C11.0879 36.3022 10.8856 36.5179 10.8856 36.7622V37.397C10.8856 38.8546 12.0896 40.0611 13.6026 40.0611C15.0984 40.0611 16.3196 38.8541 16.3196 37.397V32.8302C16.3196 32.5724 16.1039 32.3701 15.8595 32.3701ZM15.1911 32.8302C15.1911 32.4553 15.4846 32.1618 15.8595 32.1618C16.2147 32.1618 16.5279 32.4532 16.5279 32.8302V37.397C16.5279 38.9726 15.2101 40.2694 13.6026 40.2694C11.9771 40.2694 10.6772 38.9722 10.6772 37.397V36.7622C10.6772 36.4071 10.9686 36.0938 11.3456 36.0938C11.7029 36.0938 12.0141 36.4049 12.0141 36.7622V37.397C12.0141 38.2359 12.7227 38.9326 13.6026 38.9326C14.4656 38.9326 15.1911 38.2352 15.1911 37.397V32.8302ZM23.9932 36.2156C23.9932 33.9717 25.8031 32.1618 28.047 32.1618C30.273 32.1618 32.1009 33.9714 32.1009 36.2156C32.1009 38.4419 30.2734 40.2694 28.047 40.2694C25.8028 40.2694 23.9932 38.4416 23.9932 36.2156ZM28.047 32.3701C25.9182 32.3701 24.2016 34.0867 24.2016 36.2156C24.2016 38.3272 25.9185 40.0611 28.047 40.0611C30.1583 40.0611 31.8925 38.3269 31.8925 36.2156C31.8925 34.087 30.1586 32.3701 28.047 32.3701ZM28.047 33.4986C26.5349 33.4986 25.33 34.7043 25.33 36.198C25.33 37.7097 26.5353 38.915 28.047 38.915C29.5412 38.915 30.764 37.6921 30.764 36.198C30.764 34.7219 29.5416 33.4986 28.047 33.4986ZM25.1217 36.198C25.1217 34.5884 26.4207 33.2903 28.047 33.2903C29.6558 33.2903 30.9724 34.606 30.9724 36.198C30.9724 37.8072 29.6562 39.1233 28.047 39.1233C26.4202 39.1233 25.1217 37.8248 25.1217 36.198Z" fill="black"/>
<path d="M29.3551 22.1249C29.3499 22.4278 29.2376 22.6524 29.0183 22.7986C28.8042 22.9396 28.5692 23.0101 28.3133 23.0101C28.1567 23.0101 27.9791 22.9839 27.7807 22.9317C27.5823 22.8743 27.4256 22.8273 27.3107 22.7907C27.0757 22.9996 26.8016 23.3077 26.4883 23.715C26.1802 24.1223 25.8878 24.5714 25.611 25.0623C25.7363 25.5583 25.8486 25.9839 25.9478 26.339C26.047 26.6889 26.1541 27.0414 26.269 27.3964C26.3682 27.715 26.5222 27.9709 26.7311 28.1641C26.9452 28.3521 27.2246 28.446 27.5692 28.446C27.6945 28.446 27.8669 28.4304 28.0862 28.399C28.3055 28.3625 28.4752 28.3233 28.5953 28.2816L28.4543 28.7985C27.953 29.0074 27.5744 29.1432 27.3186 29.2058C27.0679 29.2685 26.7964 29.2998 26.5039 29.2998C26.1384 29.2998 25.8355 29.2163 25.5953 29.0492C25.3604 28.8821 25.1698 28.5374 25.0235 28.0152C24.9191 27.634 24.8329 27.3155 24.7651 27.0596C24.7024 26.7985 24.6397 26.5401 24.5771 26.2842C24.3369 26.6445 24.1384 26.9526 23.9818 27.2085C23.8251 27.4591 23.564 27.8064 23.1985 28.2502C22.88 28.6366 22.5875 28.9108 22.3212 29.0727C22.0549 29.2346 21.7834 29.3155 21.5066 29.3155C21.2612 29.3155 21.0601 29.245 20.9035 29.104C20.7416 28.9578 20.6606 28.7567 20.6606 28.5009C20.6606 28.2554 20.7546 28.0466 20.9426 27.8742C21.1306 27.6967 21.3891 27.6079 21.7181 27.6079C21.8852 27.6079 22.0471 27.6393 22.2037 27.7019C22.3656 27.7594 22.5327 27.8142 22.705 27.8664C22.9034 27.6784 23.1645 27.386 23.4883 26.9891C23.8173 26.5923 24.1228 26.1406 24.4047 25.6341C24.3055 25.2633 24.1959 24.856 24.0758 24.4121C23.9609 23.9683 23.8512 23.5792 23.7468 23.245C23.611 22.8221 23.4544 22.5505 23.2768 22.4304C23.0993 22.3103 22.8721 22.2503 22.5954 22.2503C22.4439 22.2503 22.282 22.2712 22.1097 22.3129C21.9426 22.3547 21.786 22.3965 21.6398 22.4383L21.7886 21.9213C22.1907 21.7542 22.551 21.6184 22.8695 21.514C23.1933 21.4043 23.4126 21.3495 23.5275 21.3495C23.8878 21.3495 24.1854 21.4383 24.4204 21.6158C24.6606 21.7881 24.8512 22.1249 24.9922 22.6262C25.1541 23.2059 25.2481 23.561 25.2742 23.6915C25.3055 23.8168 25.363 24.0675 25.4465 24.4435C25.6972 24.057 25.9008 23.7307 26.0575 23.4644C26.2141 23.198 26.47 22.8456 26.8251 22.4069C27.1541 21.9944 27.4569 21.7124 27.7337 21.561C28.0157 21.4043 28.2846 21.326 28.5405 21.326C28.7703 21.326 28.9635 21.4017 29.1201 21.5531C29.282 21.6994 29.3603 21.89 29.3551 22.1249Z" fill="black"/>
</svg>
