<svg width="50" height="50" viewBox="0 0 50 50" fill="none" xmlns="http://www.w3.org/2000/svg">
<path fill-rule="evenodd" clip-rule="evenodd" d="M39.7827 14.152L30.6396 5.00897C29.6143 3.98358 28.2471 3.38544 26.7944 3.38544H14.0625C10.9863 3.38544 8.59375 5.86346 8.59375 8.85419V41.6667C8.59375 44.7429 10.9863 47.1354 14.0625 47.1354H28.017C27.1749 46.2256 26.5013 45.2716 25.9919 44.4011H14.0625C12.5244 44.4011 11.3281 43.2048 11.3281 41.6667V8.85419C11.3281 7.40155 12.5244 6.11981 14.0625 6.11981H25V15.6901C25 17.9973 26.7944 19.7917 29.1016 19.7917H38.6719V32.5292C39.6657 32.746 40.5788 33.0985 41.4062 33.5345V17.9973C41.4062 16.5446 40.8081 15.1774 39.7827 14.152ZM32.9264 32.9C32.4692 33.0624 32.0328 33.2524 31.6176 33.4636H18.1641C17.395 33.4636 16.7969 32.8654 16.7969 32.0964C16.7969 31.4128 17.395 30.7292 18.1641 30.7292H31.8359C32.5195 30.7292 33.2031 31.4128 33.2031 32.0964C33.2031 32.3995 33.0969 32.6761 32.9264 32.9ZM28.0362 36.1979C27.1892 37.0973 26.5115 38.0512 25.9984 38.9323H18.1641C17.395 38.9323 16.7969 38.3342 16.7969 37.5651C16.7969 36.8815 17.395 36.1979 18.1641 36.1979H28.0362ZM27.7344 6.37616C28.0762 6.46161 28.418 6.63251 28.7598 6.9743L37.8174 16.0319C38.1592 16.3737 38.3301 16.7155 38.4155 17.0573H29.1016C28.3325 17.0573 27.7344 16.4592 27.7344 15.6901V6.37616ZM16.7969 26.6276C16.7969 27.3967 17.395 27.9948 18.1641 27.9948H31.8359C32.5195 27.9948 33.2031 27.3967 33.2031 26.6276C33.2031 25.944 32.5195 25.2604 31.8359 25.2604H18.1641C17.395 25.2604 16.7969 25.944 16.7969 26.6276Z" fill="black"/>
<path fill-rule="evenodd" clip-rule="evenodd" d="M36.4584 33.8542C33.654 33.8542 31.4177 35.1364 29.8221 36.6295C28.229 38.0878 27.1802 39.8459 26.6677 41.0757L26.6674 41.0756L26.6608 41.0932C26.519 41.4715 26.519 41.8944 26.6608 42.2727L26.6603 42.2729L26.6698 42.295C27.1818 43.4897 28.2294 45.2454 29.8199 46.7344C31.4197 48.232 33.657 49.4792 36.4584 49.4792C39.2283 49.4792 41.4655 48.2312 43.0644 46.7344C44.6549 45.2454 45.7025 43.4897 46.2145 42.295L46.215 42.2952L46.2234 42.2727C46.3653 41.8944 46.3653 41.4715 46.2234 41.0932L46.2237 41.0931L46.2165 41.0757C45.7041 39.8459 44.6553 38.0878 43.0622 36.6295C41.4675 35.1373 39.2312 33.8542 36.4584 33.8542ZM31.2467 38.1418C32.5812 36.9004 34.3159 35.9375 36.4584 35.9375C38.5673 35.9375 40.302 36.8995 41.6375 38.1418C42.8855 39.3027 43.7571 40.6846 44.2197 41.6667C43.7571 42.6488 42.8855 44.0307 41.6375 45.1916C40.302 46.4339 38.5673 47.3959 36.4584 47.3959C34.3159 47.3959 32.5812 46.4329 31.2467 45.1916C29.9932 44.0255 29.1229 42.6399 28.691 41.6667C29.1229 40.6934 29.9932 39.3078 31.2467 38.1418ZM36.4584 36.9792C33.8569 36.9792 31.7709 39.103 31.7709 41.6667C31.7709 44.2655 33.8596 46.3542 36.4584 46.3542C39.0221 46.3542 41.1459 44.2682 41.1459 41.6667C41.1459 39.1004 39.0247 36.9792 36.4584 36.9792ZM33.8542 41.6667C33.8542 40.2255 34.9918 39.0625 36.4584 39.0625C37.896 39.0625 39.0626 40.2291 39.0626 41.6667C39.0626 43.1043 37.896 44.2709 36.4584 44.2709C34.9918 44.2709 33.8542 43.1079 33.8542 41.6667Z" fill="black"/>
</svg>
