<svg width="50" height="50" viewBox="0 0 50 50" fill="none" xmlns="http://www.w3.org/2000/svg">
<path d="M36.8409 24.528C40.533 24.528 43.6199 27.6148 43.6199 31.307C43.6199 31.9728 43.4988 32.578 43.3172 33.1833C45.7988 34.5149 47.4936 37.057 47.4936 40.0228C47.4936 44.3202 43.983 47.7702 39.7462 47.7702H17.4724C12.6303 47.7702 8.75659 43.8965 8.75659 39.0544C8.75659 35.3017 11.1777 32.0333 14.5671 30.8833C14.8092 25.1938 19.4698 20.6543 25.2198 20.6543C28.7909 20.6543 31.9988 22.4701 33.9356 25.1938C34.783 24.7701 35.7514 24.528 36.8409 24.528ZM34.7225 26.9491C33.8751 27.3727 32.8462 27.0701 32.3014 26.3438C30.7277 24.1043 28.1251 22.5911 25.2198 22.5911C20.4987 22.5911 16.6856 26.2833 16.504 30.9438C16.4435 31.7307 15.9592 32.3964 15.1724 32.6991C12.5698 33.607 10.6934 36.1491 10.6934 39.0544C10.6934 42.807 13.7198 45.8333 17.4724 45.8333H39.7462C42.9541 45.8333 45.5567 43.2307 45.5567 40.0228C45.5567 37.8438 44.2857 35.907 42.4093 34.9386C41.6225 34.4543 41.1988 33.5464 41.4409 32.6385C41.562 32.2149 41.683 31.7912 41.683 31.307C41.683 28.6438 39.5041 26.4648 36.8409 26.4648C36.0541 26.4648 35.3883 26.6464 34.7225 26.9491Z" fill="black"/>
<path fill-rule="evenodd" clip-rule="evenodd" d="M25.2196 20.8627C19.5825 20.8627 15.0125 25.313 14.7751 30.8922L14.7691 31.0347L14.6339 31.0806C11.3283 32.2021 8.96476 35.3917 8.96476 39.0544C8.96476 43.7815 12.7452 47.5619 17.4722 47.5619H39.746C43.8689 47.5619 47.2851 44.2041 47.2851 40.0228C47.2851 37.1401 45.6383 34.6653 43.2186 33.3669L43.0686 33.2864L43.1175 33.1234C43.2953 32.5308 43.4114 31.9465 43.4114 31.307C43.4114 27.7299 40.4178 24.7363 36.8407 24.7363C35.7831 24.7363 34.8467 24.9711 34.0286 25.3801L33.8691 25.4599L33.7657 25.3145C31.8655 22.6424 28.7192 20.8627 25.2196 20.8627ZM14.3658 30.7328C14.6832 24.9995 19.4046 20.446 25.2196 20.446C28.7995 20.446 32.0189 22.2346 34.002 24.9304C34.8399 24.54 35.7869 24.3197 36.8407 24.3197C40.6479 24.3197 43.828 27.4998 43.828 31.307C43.828 31.9387 43.723 32.5155 43.5638 33.0812C46.0265 34.4666 47.7017 37.0335 47.7017 40.0228C47.7017 44.4363 44.0969 47.9785 39.746 47.9785H17.4722C12.5151 47.9785 8.5481 44.0116 8.5481 39.0544C8.5481 35.2615 10.9629 31.9512 14.3658 30.7328ZM16.2958 30.9317C16.4838 26.1611 20.3881 22.3828 25.2196 22.3828C28.1974 22.3828 30.8604 23.9327 32.4698 26.2213C32.9602 26.8728 33.8809 27.1369 34.6291 26.7627L34.636 26.7593L34.6361 26.7594C35.3232 26.4471 36.0184 26.2565 36.8407 26.2565C39.619 26.2565 41.8912 28.5288 41.8912 31.307C41.8912 31.8204 41.7633 32.2679 41.6439 32.6858L41.6421 32.6923C41.4269 33.4989 41.7986 34.3147 42.512 34.7572C44.4493 35.7604 45.7649 37.7641 45.7649 40.0228C45.7649 43.3458 43.069 46.0417 39.746 46.0417H17.4722C13.6045 46.0417 10.4849 42.9221 10.4849 39.0544C10.4849 36.0608 12.4166 33.4413 15.1004 32.5035C15.8102 32.2293 16.2404 31.6346 16.2958 30.9317ZM25.2196 22.7995C20.6104 22.7995 16.8892 26.4033 16.712 30.9519L16.7117 30.9598L16.7115 30.9598C16.6448 31.8279 16.1079 32.5624 15.247 32.8935L15.2409 32.8959L15.2409 32.8958C12.721 33.7748 10.9016 36.2386 10.9016 39.0544C10.9016 42.692 13.8347 45.625 17.4722 45.625H39.746C42.8389 45.625 45.3482 43.1157 45.3482 40.0228C45.3482 37.9265 44.1249 36.0586 42.3136 35.1237L42.2997 35.1165L42.3 35.116C41.4438 34.5891 40.971 33.5916 41.2395 32.5849L41.2404 32.5813L41.2404 32.5813C41.3623 32.1547 41.4745 31.7579 41.4745 31.307C41.4745 28.7589 39.3889 26.6732 36.8407 26.6732C36.0907 26.6732 35.4553 26.8452 34.8119 27.1372C33.8671 27.6073 32.7334 27.2672 32.1346 26.4688L32.1307 26.4636L32.1308 26.4636C30.5927 24.2747 28.0513 22.7995 25.2196 22.7995Z" fill="black"/>
<path d="M25.206 34.375C25.206 33.0078 26.3168 31.8685 27.7125 31.8685C29.0797 31.8685 30.219 33.0078 30.219 34.375C30.219 35.7707 29.0797 36.8815 27.7125 36.8815C26.3168 36.8815 25.206 35.7707 25.206 34.375ZM27.7125 32.7799C26.8295 32.7799 26.1174 33.5205 26.1174 34.375C26.1174 35.258 26.8295 35.97 27.7125 35.97C28.567 35.97 29.3075 35.258 29.3075 34.375C29.3075 33.5205 28.567 32.7799 27.7125 32.7799ZM22.2722 33.6629L21.1329 32.609C20.8196 32.3242 20.7341 31.8685 20.962 31.4982L21.8165 29.9886C22.0159 29.6183 22.4716 29.4474 22.8704 29.5898L24.3515 30.0456C24.7502 29.7607 25.1775 29.5044 25.6047 29.3335L25.9465 27.8239C26.032 27.3966 26.4023 27.0833 26.8295 27.0833H28.567C28.9942 27.0833 29.3645 27.3966 29.4499 27.8239L29.7917 29.3335C30.219 29.5044 30.6462 29.7607 31.045 30.0456L32.5261 29.5898C32.9249 29.4474 33.3806 29.6183 33.58 29.9886L34.4345 31.4982C34.6623 31.8685 34.5769 32.3242 34.2636 32.609L33.1243 33.6629C33.1527 33.8908 33.1812 34.1471 33.1812 34.375C33.1812 34.6313 33.1527 34.8877 33.1243 35.1155L34.2636 36.1694C34.5769 36.4542 34.6623 36.91 34.4345 37.2803L33.58 38.7899C33.3806 39.1601 32.9249 39.331 32.5261 39.1886L31.045 38.7329C30.6462 39.0177 30.219 39.2456 29.7917 39.445L29.4499 40.9546C29.3645 41.3818 28.9942 41.6666 28.567 41.6666H26.8295C26.4023 41.6666 26.032 41.3818 25.9465 40.9546L25.6047 39.445C25.1775 39.2456 24.7502 39.0177 24.3515 38.7329L22.8704 39.1886C22.4716 39.331 22.0159 39.1601 21.8165 38.7899L20.962 37.2803C20.7341 36.91 20.8196 36.4542 21.1329 36.1694L22.2722 35.1155C22.2437 34.8877 22.2437 34.6313 22.2437 34.375C22.2437 34.1471 22.2437 33.8908 22.2722 33.6629ZM24.9211 30.7861L24.5509 31.0709L22.614 30.4443L21.731 31.9539L23.2406 33.3211L23.1837 33.7768C23.1552 33.9762 23.1552 34.1756 23.1552 34.375C23.1552 34.6028 23.1552 34.8022 23.1837 35.0016L23.2406 35.4573L21.731 36.8245L22.614 38.3341L24.5509 37.7075L24.9211 37.9923C25.2345 38.2487 25.5762 38.4481 25.975 38.5905L26.4023 38.7899L26.8295 40.7552H28.567L28.9942 38.7899L29.4215 38.5905C29.8202 38.4481 30.162 38.2487 30.4753 37.9923L30.8456 37.7075L32.7825 38.3341L33.6654 36.8245L32.1558 35.4573L32.2128 35.0016C32.2413 34.8022 32.2698 34.6028 32.2698 34.375C32.2698 34.1756 32.2413 33.9762 32.2128 33.7768L32.1558 33.3211L33.6654 31.9539L32.7825 30.4443L30.8456 31.0709L30.4753 30.7861C30.162 30.5298 29.8202 30.3304 29.4215 30.1595L28.9942 29.9886L28.567 27.9948H26.8295L26.4023 29.9886L25.975 30.1595C25.5762 30.3304 25.2345 30.5298 24.9211 30.7861Z" fill="black"/>
<path fill-rule="evenodd" clip-rule="evenodd" d="M25.4372 27.7146C25.5719 27.0585 26.1453 26.5625 26.8295 26.5625H28.5669C29.2511 26.5625 29.8246 27.0585 29.9592 27.7146L30.2415 28.9613C30.5504 29.1059 30.8507 29.2833 31.1336 29.4734L32.3631 29.095C32.9942 28.8763 33.7122 29.1421 34.0356 29.7363L34.8835 31.2343C35.2452 31.8317 35.096 32.5546 34.6158 32.9927L33.6719 33.8658C33.6889 34.0307 33.702 34.2072 33.702 34.375C33.702 34.5612 33.6888 34.7445 33.6718 34.9126L34.6158 35.7858C35.096 36.2238 35.2452 36.9468 34.8835 37.5442L34.0356 39.0422C33.7122 39.6364 32.9942 39.9021 32.3631 39.6834L31.1316 39.3045C30.8397 39.4957 30.5401 39.6599 30.244 39.8057L29.9592 41.0639C29.8198 41.7434 29.2268 42.1875 28.5669 42.1875H26.8295C26.1696 42.1875 25.5766 41.7434 25.4372 41.0639L25.1524 39.8057C24.8563 39.6599 24.5567 39.4957 24.2648 39.3045L23.0333 39.6834C22.4022 39.9021 21.6842 39.6364 21.3608 39.0422L20.5129 37.5442C20.1512 36.9468 20.3005 36.2238 20.7806 35.7857L21.732 34.9057C21.7228 34.7293 21.7229 34.552 21.7229 34.3916L21.7229 34.3609C21.7229 34.2176 21.7228 34.0467 21.732 33.8727L20.7806 32.9927C20.3005 32.5547 20.1512 31.8317 20.5129 31.2343L21.3608 29.7363C21.6842 29.1421 22.4022 28.8763 23.0333 29.095L24.2628 29.4734C24.5457 29.2833 24.8461 29.1059 25.155 28.9613L25.4372 27.7146ZM27.2505 28.5156L26.8533 30.3691L26.1744 30.6407C25.8158 30.7949 25.5193 30.9696 25.2509 31.1892L25.2388 31.1991L24.6512 31.6509L22.8521 31.0688L22.3941 31.8518L23.791 33.1169L23.6993 33.8505C23.6769 34.0072 23.676 34.1696 23.676 34.375C23.676 34.6101 23.6769 34.7717 23.6992 34.928L23.7005 34.937L23.791 35.6616L22.3941 36.9267L22.8521 37.7097L24.6512 37.1276L25.2511 37.5891C25.5209 37.8098 25.8107 37.9788 26.1502 38.1L26.1731 38.1082L26.8563 38.427L27.2492 40.2344H28.1472L28.5401 38.427L29.2233 38.1082L29.2463 38.1C29.5857 37.9788 29.8757 37.81 30.1455 37.5892L30.1576 37.5793L30.7452 37.1276L32.5443 37.7097L33.0023 36.9267L31.6054 35.6616L31.6971 34.928C31.726 34.7258 31.7489 34.5609 31.7489 34.375C31.7489 34.2189 31.7266 34.0564 31.6972 33.8505L31.6959 33.8415L31.6054 33.1169L33.0023 31.8518L32.5443 31.0688L30.7452 31.6509L30.1453 31.1894C29.8769 30.9698 29.5806 30.7949 29.222 30.6407L28.5431 30.3691L28.1459 28.5156H27.2505ZM24.6851 34.375C24.6851 32.724 26.0253 31.3477 27.7124 31.3477C29.3673 31.3477 30.7398 32.7202 30.7398 34.375C30.7398 36.0622 29.3634 37.4023 27.7124 37.4023C26.0291 37.4023 24.6851 36.0583 24.6851 34.375ZM27.7124 33.3008C27.1231 33.3008 26.6382 33.8021 26.6382 34.375C26.6382 34.9703 27.1171 35.4492 27.7124 35.4492C28.2853 35.4492 28.7867 34.9643 28.7867 34.375C28.7867 33.8082 28.2793 33.3008 27.7124 33.3008Z" fill="black"/>
<path d="M10.856 22.1354C5.99967 22.1354 2.08325 20.7647 2.08325 19.0023V5.21645C2.08325 3.49323 5.99967 2.08331 10.856 2.08331C15.6732 2.08331 19.6288 3.49323 19.6288 5.21645V19.0023C19.6288 20.7647 15.6732 22.1354 10.856 22.1354ZM18.3756 5.25562C18.3364 5.21645 18.2972 5.13812 18.1014 4.98147C17.8273 4.74648 17.3181 4.47233 16.6132 4.19818C15.2033 3.68905 13.1667 3.33657 10.856 3.33657C8.50618 3.33657 6.46965 3.68905 5.05973 4.19818C4.35478 4.47233 3.84564 4.74648 3.57149 4.98147C3.37567 5.13812 3.33651 5.21645 3.33651 5.25562V9.25037C3.88481 9.64201 4.78558 10.0337 5.99967 10.347C7.37042 10.6603 9.01532 10.8561 10.856 10.8561C12.6576 10.8561 14.3025 10.6603 15.6732 10.347C16.8873 10.0337 17.7881 9.64201 18.3756 9.25037V5.25562ZM18.3756 10.6994C17.6706 11.0519 16.8482 11.3261 15.9474 11.5611C14.4983 11.9135 12.7359 12.1094 10.856 12.1094C8.93699 12.1094 7.1746 11.9135 5.72552 11.5611C4.82475 11.3261 4.0023 11.0519 3.33651 10.6994V14.2634C3.88481 14.655 4.78558 15.0467 5.99967 15.36C7.37042 15.6733 9.01532 15.8691 10.856 15.8691C12.6576 15.8691 14.3025 15.6733 15.6732 15.36C16.8873 15.0467 17.7881 14.655 18.3756 14.2634V10.6994ZM3.57149 19.2764C3.84564 19.5114 4.35478 19.7855 5.05973 20.0597C6.46965 20.5688 8.50618 20.8821 10.856 20.8821C13.1667 20.8821 15.2033 20.5688 16.6132 20.0597C17.3181 19.7855 17.8273 19.5114 18.1014 19.2764C18.2972 19.1198 18.3364 19.0414 18.3756 19.0023V15.7125C17.6706 16.0649 16.8482 16.3391 15.9474 16.5741C14.4983 16.9266 12.7359 17.1224 10.856 17.1224C8.93699 17.1224 7.1746 16.9266 5.72552 16.5741C4.82475 16.3391 4.0023 16.0649 3.33651 15.7125V19.0023C3.33651 19.0414 3.37567 19.1198 3.57149 19.2764Z" fill="black"/>
<path fill-rule="evenodd" clip-rule="evenodd" d="M17.8304 5.29786C17.6116 5.11028 17.1576 4.85729 16.4671 4.5884C15.1121 4.09996 13.1271 3.75328 10.8562 3.75328C8.5457 3.75328 6.56083 4.10009 5.20617 4.5884C4.51565 4.85729 4.06166 5.11028 3.84282 5.29786L3.83209 5.30706C3.79849 5.33394 3.77267 5.35594 3.75334 5.37378V9.02757C4.25803 9.34244 5.04264 9.66923 6.09834 9.94211C7.4352 10.2472 9.0468 10.4395 10.8562 10.4395C12.6261 10.4395 14.2377 10.2473 15.5749 9.94211C16.6294 9.66954 17.4204 9.34143 17.9591 9.0205V5.41085C17.9342 5.38576 17.8972 5.35159 17.8413 5.30687L17.8304 5.29786ZM18.3757 5.25566C18.3659 5.24586 18.3562 5.23363 18.3439 5.21833C18.3072 5.17243 18.2484 5.099 18.1016 4.98151C17.8274 4.74652 17.3183 4.47237 16.6133 4.19822C15.2034 3.68909 13.1669 3.33661 10.8562 3.33661C8.50635 3.33661 6.46981 3.68909 5.0599 4.19822C4.35494 4.47237 3.8458 4.74652 3.57166 4.98151C3.37583 5.13816 3.33667 5.21649 3.33667 5.25566V9.25041C3.88497 9.64205 4.78575 10.0337 5.99984 10.347C7.37059 10.6603 9.01548 10.8561 10.8562 10.8561C12.6578 10.8561 14.3027 10.6603 15.6734 10.347C16.8875 10.0337 17.7883 9.64205 18.3757 9.25041V5.25566ZM16.046 11.966C14.5589 12.3277 12.7627 12.5261 10.8562 12.5261C8.91088 12.5261 7.11461 12.3278 5.62721 11.966L5.6205 11.9643C4.95698 11.7912 4.32229 11.594 3.75334 11.3553V14.0406C4.25803 14.3555 5.04265 14.6823 6.09835 14.9551C7.43521 15.2602 9.04681 15.4525 10.8562 15.4525C12.6261 15.4525 14.2377 15.2603 15.5749 14.9551C16.6294 14.6826 17.4204 14.3545 17.9591 14.0335V11.3454C17.3708 11.5875 16.7286 11.788 16.0527 11.9643L16.046 11.966ZM17.9591 10.8932C18.1021 10.8313 18.241 10.7668 18.3757 10.6995V14.2634C17.7883 14.6551 16.8875 15.0467 15.6734 15.36C14.3027 15.6733 12.6578 15.8692 10.8562 15.8692C9.01548 15.8692 7.37059 15.6733 5.99984 15.36C4.78575 15.0467 3.88497 14.6551 3.33667 14.2634V10.6995C3.46953 10.7698 3.60862 10.837 3.75334 10.9014C4.33382 11.1598 5.00466 11.373 5.72569 11.5611C7.17476 11.9136 8.93715 12.1094 10.8562 12.1094C12.7361 12.1094 14.4985 11.9136 15.9476 11.5611C16.6762 11.371 17.3536 11.1553 17.9591 10.8932ZM3.84282 18.9601C4.06167 19.1477 4.51567 19.4007 5.20623 19.6696C6.55643 20.1562 8.53947 20.4655 10.8562 20.4655C13.1333 20.4655 15.1165 20.1563 16.467 19.6696C17.1576 19.4007 17.6116 19.1477 17.8304 18.9601L17.8411 18.9509C17.897 18.9062 17.9342 18.8722 17.9591 18.8471V16.3585C17.3708 16.6006 16.7286 16.801 16.0527 16.9773L16.046 16.979C14.5589 17.3408 12.7627 17.5391 10.8562 17.5391C8.91088 17.5391 7.11461 17.3408 5.62721 16.979L5.6205 16.9773C4.95698 16.8043 4.32229 16.607 3.75334 16.3683V18.8842C3.77267 18.902 3.79834 18.9242 3.83194 18.9511L3.84282 18.9601ZM3.33667 19.0023C3.33667 19.0415 3.37583 19.1198 3.57166 19.2764C3.8458 19.5114 4.35494 19.7856 5.0599 20.0597C6.46981 20.5689 8.50635 20.8822 10.8562 20.8822C13.1669 20.8822 15.2034 20.5689 16.6133 20.0597C17.3183 19.7856 17.8274 19.5114 18.1016 19.2764C18.2484 19.159 18.3072 19.0855 18.3439 19.0396C18.3562 19.0243 18.3659 19.0121 18.3757 19.0023V15.7125C18.241 15.7798 18.1021 15.8443 17.9591 15.9062C17.3536 16.1683 16.6762 16.384 15.9476 16.5741C14.4985 16.9266 12.7361 17.1224 10.8562 17.1224C8.93715 17.1224 7.17476 16.9266 5.72569 16.5741C5.00466 16.386 4.33382 16.1728 3.75334 15.9145C3.60862 15.8501 3.46953 15.7828 3.33667 15.7125V19.0023ZM2.50148 20.5529C2.00649 20.1324 1.66675 19.6105 1.66675 19.0023V5.21649C1.66675 4.61544 2.00932 4.09842 2.50225 3.68174C2.99724 3.26333 3.68906 2.90471 4.50822 2.61143C6.15016 2.02358 8.39304 1.66669 10.8562 1.66669C13.3001 1.66669 15.5427 2.02366 17.1891 2.61129C18.0105 2.90445 18.7057 3.26285 19.2036 3.68083C19.699 4.09672 20.0457 4.6139 20.0457 5.21649V19.0023C20.0457 19.6121 19.7018 20.1341 19.2043 20.5538C18.7057 20.9745 18.0096 21.3319 17.188 21.6226C15.5413 22.2053 13.2988 22.5521 10.8562 22.5521C8.39437 22.5521 6.15161 22.2053 4.5093 21.6224C3.68992 21.3316 2.99722 20.974 2.50148 20.5529ZM2.08341 19.0023C2.08341 20.7647 5.99984 22.1354 10.8562 22.1354C15.6734 22.1354 19.629 20.7647 19.629 19.0023V5.21649C19.629 3.49327 15.6734 2.08335 10.8562 2.08335C5.99984 2.08335 2.08341 3.49327 2.08341 5.21649V19.0023Z" fill="black"/>
<path fill-rule="evenodd" clip-rule="evenodd" d="M28.9048 11.2098C27.2029 9.84226 24.8664 9.35102 22.9301 9.3759C22.3548 9.38329 21.8825 8.92296 21.8751 8.34771C21.8677 7.77246 22.328 7.30013 22.9033 7.29274C25.1336 7.26408 28.0054 7.81448 30.2098 9.58584C32.0976 11.1028 33.3837 13.4252 33.4459 16.7306L34.8385 15.8012C35.317 15.4819 35.9638 15.611 36.2831 16.0895C36.6025 16.568 36.4734 17.2148 35.9949 17.5341L32.8699 19.6196C32.5198 19.8532 32.0635 19.8532 31.7135 19.6196L28.5885 17.5341C28.1099 17.2148 27.9809 16.568 28.3002 16.0895C28.6196 15.611 29.2664 15.4819 29.7449 15.8012L31.3653 16.8826C31.3422 14.0652 30.2746 12.3105 28.9048 11.2098Z" fill="black"/>
</svg>
