<svg width="50" height="50" viewBox="0 0 50 50" fill="none" xmlns="http://www.w3.org/2000/svg">
<path d="M42.1877 40.4948C42.1877 41.214 41.6047 41.7969 40.8856 41.7969C40.1665 41.7969 39.5835 41.214 39.5835 40.4948C39.5835 39.7757 40.1665 39.1927 40.8856 39.1927C41.6047 39.1927 42.1877 39.7757 42.1877 40.4948Z" fill="black"/>
<path d="M38.8022 40.4948C38.8022 41.214 38.2192 41.7969 37.5001 41.7969C36.781 41.7969 36.198 41.214 36.198 40.4948C36.198 39.7757 36.781 39.1927 37.5001 39.1927C38.2192 39.1927 38.8022 39.7757 38.8022 40.4948Z" fill="black"/>
<path d="M35.4167 40.4948C35.4167 41.214 34.8337 41.7969 34.1146 41.7969C33.3955 41.7969 32.8125 41.214 32.8125 40.4948C32.8125 39.7757 33.3955 39.1927 34.1146 39.1927C34.8337 39.1927 35.4167 39.7757 35.4167 40.4948Z" fill="black"/>
<path d="M19.7917 9.24477C19.7917 9.96389 19.2087 10.5469 18.4896 10.5469C17.7705 10.5469 17.1875 9.96389 17.1875 9.24477C17.1875 8.52565 17.7705 7.94269 18.4896 7.94269C19.2087 7.94269 19.7917 8.52565 19.7917 9.24477Z" fill="black"/>
<path d="M15.8854 9.24477C15.8854 9.96389 15.3025 10.5469 14.5833 10.5469C13.8642 10.5469 13.2812 9.96389 13.2812 9.24477C13.2812 8.52565 13.8642 7.94269 14.5833 7.94269C15.3025 7.94269 15.8854 8.52565 15.8854 9.24477Z" fill="black"/>
<path d="M11.9792 9.24477C11.9792 9.96389 11.3962 10.5469 10.6771 10.5469C9.95796 10.5469 9.375 9.96389 9.375 9.24477C9.375 8.52565 9.95796 7.94269 10.6771 7.94269C11.3962 7.94269 11.9792 8.52565 11.9792 9.24477Z" fill="black"/>
<path fill-rule="evenodd" clip-rule="evenodd" d="M5.625 13.1511C5.625 12.5183 6.13801 12.0052 6.77083 12.0052H43.2292C43.862 12.0052 44.375 12.5183 44.375 13.1511C44.375 13.7839 43.862 14.2969 43.2292 14.2969H6.77083C6.13801 14.2969 5.625 13.7839 5.625 13.1511Z" fill="black"/>
<path fill-rule="evenodd" clip-rule="evenodd" d="M26.3021 22.4219C26.9349 22.4219 27.4479 22.9349 27.4479 23.5677V41.7969C27.4479 42.4297 26.9349 42.9427 26.3021 42.9427C25.6693 42.9427 25.1562 42.4297 25.1562 41.7969V23.5677C25.1562 22.9349 25.6693 22.4219 26.3021 22.4219Z" fill="black"/>
<path d="M9.37508 6.3281H40.6251C42.2359 6.3281 43.5418 7.63394 43.5418 9.24477V27.4739C43.5418 29.0848 42.2359 30.3906 40.6251 30.3906H30.6771C30.0442 30.3906 29.5312 30.9036 29.5312 31.5364C29.5312 32.1693 30.0442 32.6823 30.6771 32.6823H40.6251C43.5016 32.6823 45.8334 30.3504 45.8334 27.4739V9.24477C45.8334 6.36829 43.5016 4.03644 40.6251 4.03644H9.37508C6.4986 4.03644 4.16675 6.36829 4.16675 9.24477V27.4739C4.16675 30.3504 6.4986 32.6823 9.37508 32.6823H21.9271C22.5599 32.6823 23.0729 32.1693 23.0729 31.5364C23.0729 30.9036 22.5599 30.3906 21.9271 30.3906H9.37508C7.76425 30.3906 6.45842 29.0848 6.45842 27.4739V9.24477C6.45842 7.63394 7.76425 6.3281 9.37508 6.3281Z" fill="black"/>
<path d="M23.0729 35.1302C23.0729 34.4974 22.5599 33.9844 21.9271 33.9844H6.77092C5.33267 33.9844 4.16675 35.1503 4.16675 36.5885V44.401C4.16675 45.8393 5.33267 47.0052 6.77092 47.0052H43.2293C44.6675 47.0052 45.8334 45.8393 45.8334 44.401V36.5885C45.8334 35.1503 44.6675 33.9844 43.2293 33.9844H30.6771C30.0442 33.9844 29.5312 34.4974 29.5312 35.1302C29.5312 35.763 30.0442 36.276 30.6771 36.276H43.2293C43.4018 36.276 43.5418 36.416 43.5418 36.5885V44.401C43.5418 44.5736 43.4018 44.7135 43.2293 44.7135H27.6897C27.6897 44.7135 26.7976 44.7135 26.3009 44.7135H24.9144H6.77092C6.59833 44.7135 6.45842 44.5736 6.45842 44.401V36.5885C6.45842 36.416 6.59833 36.276 6.77092 36.276H21.9271C22.5599 36.276 23.0729 35.763 23.0729 35.1302Z" fill="black"/>
<path fill-rule="evenodd" clip-rule="evenodd" d="M25.4919 21.4554C25.9393 21.0079 26.6648 21.0079 27.1123 21.4554L31.0186 25.3616C31.466 25.8091 31.466 26.5346 31.0186 26.9821C30.5711 27.4295 29.8456 27.4295 29.3981 26.9821L26.3021 23.886L23.2061 26.9821C22.7586 27.4295 22.0331 27.4295 21.5856 26.9821C21.1381 26.5346 21.1381 25.8091 21.5856 25.3616L25.4919 21.4554Z" fill="black"/>
<path fill-rule="evenodd" clip-rule="evenodd" d="M21.5856 37.6012C22.0331 37.1538 22.7586 37.1538 23.2061 37.6012L26.3021 40.6973L29.3981 37.6012C29.8456 37.1538 30.5711 37.1538 31.0186 37.6012C31.466 38.0487 31.466 38.7742 31.0186 39.2217L27.1123 43.1279C26.6648 43.5754 25.9393 43.5754 25.4919 43.1279L21.5856 39.2217C21.1381 38.7742 21.1381 38.0487 21.5856 37.6012Z" fill="black"/>
</svg>
