<svg width="50" height="50" viewBox="0 0 50 50" fill="none" xmlns="http://www.w3.org/2000/svg">
<path d="M45 6H5V17H45V6Z" fill="#FF371A"/>
<path d="M24.9846 3.98634C24.9361 3.98739 24.8878 3.99195 24.84 4.00001H5.0002C4.73499 4.00003 4.48066 4.1054 4.29313 4.29293C4.1056 4.48046 4.00023 4.7348 4.0002 5.00001V17.832C3.98235 17.94 3.98235 18.0502 4.0002 18.1582V31.832C3.98235 31.94 3.98235 32.0502 4.0002 32.1582V45C4.00023 45.2652 4.1056 45.5195 4.29313 45.7071C4.48066 45.8946 4.73499 46 5.0002 46H24.8322C24.9402 46.0178 25.0504 46.0178 25.1584 46H45.0002C45.2654 46 45.5197 45.8946 45.7073 45.7071C45.8948 45.5195 46.0002 45.2652 46.0002 45V32.168C46.0181 32.06 46.0181 31.9498 46.0002 31.8418V18.168C46.0181 18.06 46.0181 17.9498 46.0002 17.8418V5.00001C46.0002 4.7348 45.8948 4.48046 45.7073 4.29293C45.5197 4.1054 45.2654 4.00003 45.0002 4.00001H25.1545C25.0984 3.99062 25.0415 3.98605 24.9846 3.98634ZM6.0002 6.00001H24.0002V17H6.0002V6.00001ZM26.0002 6.00001H44.0002V17H26.0002V6.00001ZM6.0002 19H24.0002V31H6.0002V19ZM26.0002 19H44.0002V31H26.0002V19ZM6.0002 33H24.0002V44H6.0002V33ZM26.0002 33H44.0002V44H26.0002V33Z" fill="white"/>
</svg>
