<svg width="50" height="50" viewBox="0 0 50 50" fill="none" xmlns="http://www.w3.org/2000/svg">
<path d="M48 14H1V36H48V14Z" fill="#55C1F6"/>
<path d="M4 12C1.80078 12 0 13.8008 0 16V34C0 36.1992 1.80078 38 4 38H46C48.1992 38 50 36.1992 50 34V16C50 13.8008 48.1992 12 46 12H4ZM4 14H46C47.1172 14 48 14.8828 48 16V34C48 35.1172 47.1172 36 46 36H4C2.88281 36 2 35.1172 2 34V16C2 14.8828 2.88281 14 4 14Z" fill="white"/>
<path d="M30.7461 25.2773C30.7461 23.4453 31.8359 22.3086 33.5273 22.3086C35.2188 22.3086 36.2969 23.4453 36.2969 25.2773C36.2969 27.1133 35.2188 28.25 33.5273 28.25C31.8242 28.25 30.7461 27.1133 30.7461 25.2773Z" fill="#0B0B0E"/>
<path d="M6.91406 28.0977V22.4648H9.54297C10.668 22.4648 11.3281 22.9922 11.3281 23.8672C11.3281 24.4727 10.8789 24.9844 10.2812 25.0664V25.1406C11.0156 25.1797 11.5898 25.7539 11.5898 26.4727C11.5898 27.4609 10.8242 28.0977 9.61719 28.0977H6.91406Z" fill="#0B0B0E"/>
<path d="M13.0156 26.1523V22.4648H14.4492V26C14.4492 26.6562 14.8086 27.0469 15.4453 27.0469C16.082 27.0469 16.4375 26.6562 16.4375 26V22.4648H17.8711V26.1523C17.8711 27.418 16.9102 28.25 15.4453 28.25C13.9805 28.25 13.0156 27.418 13.0156 26.1523Z" fill="#0B0B0E"/>
<path d="M19.2969 23.6133V22.4648H23.9805V23.6133H22.3477V28.0977H20.9219V23.6133H19.2969Z" fill="#0B0B0E"/>
<path d="M25.0898 23.6133V22.4648H29.7734V23.6133H28.1445V28.0977H26.7148V23.6133H25.0898Z" fill="#0B0B0E"/>
<path d="M37.7617 28.0977V22.4648H38.9062L41.2539 25.6367H41.3281V22.4648H42.6875V28.0977H41.5508L39.1953 24.8945H39.1211V28.0977H37.7617Z" fill="#0B0B0E"/>
<path d="M34.8398 25.2773C34.8398 24.1914 34.3125 23.4961 33.5234 23.4961C32.7305 23.4961 32.2031 24.1914 32.2031 25.2773C32.2031 26.3672 32.7227 27.0625 33.5234 27.0625C34.3164 27.0625 34.8398 26.3672 34.8398 25.2773Z" fill="#55C1F6"/>
<path d="M9.16016 23.4727H8.34766V24.7617H9.10547C9.62891 24.7617 9.93359 24.5156 9.93359 24.1172C9.93359 23.7148 9.64844 23.4727 9.16016 23.4727Z" fill="#55C1F6"/>
<path d="M9.20312 25.6289H8.34766V27.0898H9.21484C9.80859 27.0898 10.1328 26.8242 10.1328 26.3477C10.1328 25.8867 9.80078 25.6289 9.20312 25.6289Z" fill="#55C1F6"/>
</svg>
