<svg width="50" height="50" viewBox="0 0 50 50" fill="none" xmlns="http://www.w3.org/2000/svg">
<path d="M25 47C37.1503 47 47 37.1503 47 25C47 12.8497 37.1503 3 25 3C12.8497 3 3 12.8497 3 25C3 37.1503 12.8497 47 25 47Z" fill="#55C1F6"/>
<path d="M24.2825 7.28957C24.4671 7.09953 24.7195 6.99047 24.9844 6.98633C25.1182 6.98424 25.251 7.00902 25.375 7.05919C25.4991 7.10937 25.6118 7.18393 25.7065 7.27845C25.8012 7.37297 25.876 7.48553 25.9264 7.60947C25.9768 7.73341 26.0018 7.86621 26 8V22.1758C26.5842 22.3823 27.0902 22.7647 27.4483 23.2704C27.8064 23.7761 27.9991 24.3803 28 25C28 25.7956 27.6839 26.5587 27.1213 27.1213C26.5587 27.6839 25.7956 28 25 28C24.5531 27.9991 24.112 27.8983 23.709 27.7051L17.707 33.707C17.6149 33.803 17.5045 33.8796 17.3824 33.9324C17.2603 33.9852 17.1288 34.0131 16.9958 34.0144C16.8627 34.0158 16.7308 33.9906 16.6076 33.9403C16.4844 33.89 16.3725 33.8156 16.2784 33.7216C16.1844 33.6275 16.11 33.5156 16.0597 33.3924C16.0094 33.2692 15.9842 33.1373 15.9856 33.0042C15.9869 32.8712 16.0148 32.7397 16.0676 32.6176C16.1204 32.4955 16.197 32.3851 16.293 32.293L22.2949 26.291C22.1017 25.888 22.0009 25.4469 22 25C22.0005 24.38 22.193 23.7754 22.5512 23.2693C22.9093 22.7632 23.4155 22.3805 24 22.1738V8C23.9964 7.73512 24.098 7.47962 24.2825 7.28957Z" fill="#0B0B0E"/>
<path d="M25 2C12.3093 2 2 12.3093 2 25C2 37.6907 12.3093 48 25 48C37.6907 48 48 37.6907 48 25C48 12.3093 37.6907 2 25 2ZM25 4C36.6098 4 46 13.3902 46 25C46 36.6098 36.6098 46 25 46C13.3902 46 4 36.6098 4 25C4 13.3902 13.3902 4 25 4Z" fill="white"/>
</svg>
