<svg width="50" height="50" viewBox="0 0 50 50" fill="none" xmlns="http://www.w3.org/2000/svg">
<path d="M27.5 27.5L24 22L23 22.5L14 36.5L27.5 27.5Z" fill="#FF371A"/>
<path d="M24.9844 1.98628C24.9274 1.98728 24.8705 1.99316 24.8145 2.00386C12.2749 2.10382 2.10915 12.2663 2.00395 24.8046C1.9798 24.9297 1.9798 25.0584 2.00395 25.1835C2.10286 37.724 12.2657 47.8908 24.8047 47.996C24.9299 48.0201 25.0585 48.0201 25.1836 47.996C37.7241 47.8971 47.8909 37.7342 47.9961 25.1952C48.0203 25.0701 48.0203 24.9415 47.9961 24.8163C47.8972 12.2719 37.728 2.1028 25.1836 2.00386C25.118 1.99136 25.0512 1.98547 24.9844 1.98628ZM24 4.02534V4.99995C23.9982 5.13246 24.0226 5.26403 24.0721 5.387C24.1215 5.50996 24.1948 5.62188 24.2879 5.71625C24.3809 5.81062 24.4918 5.88556 24.6141 5.93671C24.7363 5.98786 24.8675 6.0142 25 6.0142C25.1326 6.0142 25.2638 5.98786 25.386 5.93671C25.5083 5.88556 25.6192 5.81062 25.7122 5.71625C25.8052 5.62188 25.8786 5.50996 25.928 5.387C25.9774 5.26403 26.0019 5.13246 26 4.99995V4.02534C36.8128 4.53077 45.4692 13.1871 45.9747 23.9999H45C44.8675 23.998 44.736 24.0225 44.613 24.0719C44.49 24.1213 44.3781 24.1947 44.2837 24.2878C44.1894 24.3808 44.1144 24.4917 44.0633 24.6139C44.0121 24.7362 43.9858 24.8674 43.9858 24.9999C43.9858 25.1324 44.0121 25.2636 44.0633 25.3859C44.1144 25.5082 44.1894 25.619 44.2837 25.7121C44.3781 25.8051 44.49 25.8785 44.613 25.9279C44.736 25.9773 44.8675 26.0018 45 25.9999H45.9747C45.4692 36.8127 36.8128 45.4691 26 45.9745V44.9999C26.0019 44.8661 25.9768 44.7333 25.9264 44.6094C25.876 44.4854 25.8012 44.3729 25.7065 44.2784C25.6118 44.1838 25.4991 44.1093 25.3751 44.0591C25.251 44.0089 25.1182 43.9841 24.9844 43.9862C24.7195 43.9904 24.4671 44.0994 24.2826 44.2895C24.098 44.4795 23.9964 44.735 24 44.9999V45.9745C13.1873 45.4691 4.53086 36.8127 4.02543 25.9999H5.00004C5.13255 26.0018 5.26412 25.9773 5.38708 25.9279C5.51005 25.8785 5.62197 25.8051 5.71634 25.7121C5.81071 25.619 5.88565 25.5082 5.9368 25.3859C5.98795 25.2636 6.01428 25.1324 6.01428 24.9999C6.01428 24.8674 5.98795 24.7362 5.9368 24.6139C5.88565 24.4917 5.81071 24.3808 5.71634 24.2878C5.62197 24.1947 5.51005 24.1213 5.38708 24.0719C5.26412 24.0225 5.13255 23.998 5.00004 23.9999H4.02543C4.53086 13.1871 13.1873 4.53077 24 4.02534ZM36.9649 11.9999C36.7771 12.0067 36.595 12.0663 36.4395 12.1718L22.1172 21.8476C22.0109 21.9193 21.9194 22.0108 21.8477 22.1171L12.1719 36.4394C12.0418 36.6318 11.9827 36.8636 12.0049 37.0948C12.027 37.3261 12.129 37.5424 12.2932 37.7067C12.4575 37.871 12.6738 37.973 12.9051 37.9951C13.1364 38.0172 13.3681 37.9582 13.5606 37.828L27.8848 28.1523C27.9911 28.0805 28.0826 27.989 28.1543 27.8827L37.8282 13.5605C37.9318 13.4076 37.991 13.229 37.9994 13.0445C38.0077 12.8601 37.9648 12.6769 37.8754 12.5153C37.786 12.3537 37.6536 12.22 37.4929 12.129C37.3322 12.0381 37.1494 11.9934 36.9649 11.9999ZM23.3965 23.3964L26.6036 26.6034L16.7188 33.2812L23.3965 23.3964Z" fill="white"/>
</svg>
