<svg width="50" height="50" viewBox="0 0 50 50" fill="none" xmlns="http://www.w3.org/2000/svg">
<path d="M18 19H12V31H18V19Z" fill="#FF371A"/>
<path d="M40 19H33V31H40V19Z" fill="#FF371A"/>
<path fill-rule="evenodd" clip-rule="evenodd" d="M32.4685 23.989V19.989C32.4685 18.3444 33.824 16.989 35.4685 16.989H37.4685C39.1131 16.989 40.4685 18.3444 40.4685 19.989V23.989H47.4685C47.9451 23.9773 48.3631 24.3054 48.4685 24.7702C48.4802 24.8093 48.492 24.8523 48.4998 24.8952C48.5271 25.1804 48.4295 25.4655 48.2302 25.6765C48.0349 25.8835 47.7576 26.0007 47.4685 25.989H40.4685V29.989C40.4685 31.6335 39.1131 32.989 37.4685 32.989H35.4685C33.824 32.989 32.4685 31.6335 32.4685 29.989V25.989H18.9888V29.989C18.9888 31.6335 17.6333 32.989 15.9888 32.989H13.9888C12.3442 32.989 10.9888 31.6335 10.9888 29.989V25.989H8.17627C8.11377 25.9968 8.05128 25.9968 7.98878 25.989H2.98878C2.6294 25.9929 2.29347 25.8054 2.10987 25.4929C1.93018 25.1804 1.93018 24.7975 2.10987 24.485C2.29347 24.1725 2.6294 23.985 2.98878 23.989H7.98878C8.05128 23.9811 8.11377 23.9811 8.17627 23.989H10.9888V19.989C10.9888 18.3444 12.3442 16.989 13.9888 16.989H15.9888C17.6333 16.989 18.9888 18.3444 18.9888 19.989V23.989H32.4685ZM16.9888 29.989V19.989C16.9888 19.4225 16.5552 18.989 15.9888 18.989H13.9888C13.4224 18.989 12.9888 19.4225 12.9888 19.989V29.989C12.9888 30.5554 13.4224 30.989 13.9888 30.989H15.9888C16.5552 30.989 16.9888 30.5554 16.9888 29.989ZM38.4684 19.989V29.989C38.4684 30.5554 38.0348 30.989 37.4684 30.989H35.4684C34.902 30.989 34.4684 30.5554 34.4684 29.989V19.989C34.4684 19.4226 34.902 18.989 35.4684 18.989H37.4684C38.0348 18.989 38.4684 19.4226 38.4684 19.989Z" fill="white"/>
</svg>
