<svg width="50" height="50" viewBox="0 0 50 50" fill="none" xmlns="http://www.w3.org/2000/svg">
<circle cx="25" cy="25" r="22" fill="#C89000"/>
<path d="M25 2C12.3093 2 2 12.3093 2 25C2 37.6907 12.3093 48 25 48C37.6907 48 48 37.6907 48 25C48 12.3093 37.6907 2 25 2ZM25 4C36.6098 4 46 13.3902 46 25C46 36.6098 36.6098 46 25 46C13.3902 46 4 36.6098 4 25C4 13.3902 13.3902 4 25 4ZM25 11C24.2044 11 23.4413 11.3161 22.8787 11.8787C22.3161 12.4413 22 13.2044 22 14C22 14.7956 22.3161 15.5587 22.8787 16.1213C23.4413 16.6839 24.2044 17 25 17C25.7956 17 26.5587 16.6839 27.1213 16.1213C27.6839 15.5587 28 14.7956 28 14C28 13.2044 27.6839 12.4413 27.1213 11.8787C26.5587 11.3161 25.7956 11 25 11ZM21 21V23H22H23V36H22H21V38H22H23H27H28H29V36H28H27V21H26H22H21Z" fill="white"/>
</svg>
