<svg width="50" height="50" viewBox="0 0 50 50" fill="none" xmlns="http://www.w3.org/2000/svg">
<path d="M25 47C37.1503 47 47 37.1503 47 25C47 12.8497 37.1503 3 25 3C12.8497 3 3 12.8497 3 25C3 37.1503 12.8497 47 25 47Z" fill="#55C1F6"/>
<path d="M22.8787 11.8787C23.4413 11.3161 24.2044 11 25 11C25.7956 11 26.5587 11.3161 27.1213 11.8787C27.6839 12.4413 28 13.2044 28 14C28 14.7956 27.6839 15.5587 27.1213 16.1213C26.5587 16.6839 25.7956 17 25 17C24.2044 17 23.4413 16.6839 22.8787 16.1213C22.3161 15.5587 22 14.7956 22 14C22 13.2044 22.3161 12.4413 22.8787 11.8787Z" fill="#0B0B0E"/>
<path d="M21 23V21H22H26H27V36H28H29V38H28H27H23H22H21V36H22H23V23H22H21Z" fill="#0B0B0E"/>
<path d="M25 2C12.3093 2 2 12.3093 2 25C2 37.6907 12.3093 48 25 48C37.6907 48 48 37.6907 48 25C48 12.3093 37.6907 2 25 2ZM25 4C36.6098 4 46 13.3902 46 25C46 36.6098 36.6098 46 25 46C13.3902 46 4 36.6098 4 25C4 13.3902 13.3902 4 25 4Z" fill="white"/>
</svg>
