<svg width="50" height="50" viewBox="0 0 50 50" fill="none" xmlns="http://www.w3.org/2000/svg">
<path d="M47 31.5H3V45L5.5 47H42.5H45.5L47 44V31.5Z" fill="#55C1F6"/>
<path d="M19.4 42.2C19.592 42.2 19.752 42.264 19.88 42.392C20.008 42.52 20.072 42.68 20.072 42.872C20.072 43.056 20.008 43.212 19.88 43.34C19.752 43.46 19.592 43.52 19.4 43.52H15.32C15.112 43.52 14.948 43.456 14.828 43.328C14.708 43.2 14.648 43.036 14.648 42.836C14.648 42.636 14.72 42.46 14.864 42.308L17.48 39.512C17.768 39.2 18 38.884 18.176 38.564C18.352 38.236 18.44 37.932 18.44 37.652C18.44 37.404 18.38 37.18 18.26 36.98C18.14 36.78 17.984 36.62 17.792 36.5C17.6 36.38 17.392 36.32 17.168 36.32C16.936 36.32 16.7 36.4 16.46 36.56C16.22 36.712 16.008 36.916 15.824 37.172C15.728 37.3 15.632 37.38 15.536 37.412C15.44 37.444 15.352 37.46 15.272 37.46C15.096 37.46 14.932 37.396 14.78 37.268C14.636 37.132 14.564 36.976 14.564 36.8C14.564 36.664 14.608 36.532 14.696 36.404C14.792 36.276 14.908 36.144 15.044 36.008C15.348 35.704 15.7 35.46 16.1 35.276C16.5 35.092 16.884 35 17.252 35C17.796 35 18.264 35.112 18.656 35.336C19.048 35.56 19.352 35.868 19.568 36.26C19.784 36.652 19.892 37.096 19.892 37.592C19.892 37.928 19.828 38.272 19.7 38.624C19.58 38.968 19.412 39.304 19.196 39.632C18.98 39.96 18.732 40.276 18.452 40.58L16.832 42.308L16.7 42.2H19.4Z" fill="#0B0B0E"/>
<path d="M24.9217 43.52C24.7217 43.52 24.5537 43.452 24.4177 43.316C24.2817 43.172 24.2137 42.996 24.2137 42.788V37.148L24.4657 37.208L22.1497 40.076L22.0897 39.92H26.1577C26.3497 39.92 26.5097 39.984 26.6377 40.112C26.7657 40.24 26.8297 40.4 26.8297 40.592C26.8297 40.776 26.7657 40.932 26.6377 41.06C26.5097 41.18 26.3497 41.24 26.1577 41.24H21.0937C20.9257 41.24 20.7617 41.172 20.6017 41.036C20.4497 40.9 20.3737 40.732 20.3737 40.532C20.3737 40.356 20.4337 40.196 20.5537 40.052L24.3457 35.408C24.4097 35.32 24.4937 35.252 24.5977 35.204C24.7017 35.148 24.8177 35.12 24.9457 35.12C25.1537 35.12 25.3217 35.192 25.4497 35.336C25.5857 35.472 25.6537 35.644 25.6537 35.852V42.788C25.6537 42.996 25.5817 43.172 25.4377 43.316C25.3017 43.452 25.1297 43.52 24.9217 43.52Z" fill="#0B0B0E"/>
<path d="M28.9776 39.68C28.5936 39.68 28.2536 39.576 27.9576 39.368C27.6616 39.16 27.4296 38.88 27.2616 38.528C27.0936 38.176 27.0096 37.784 27.0096 37.352C27.0096 36.912 27.0936 36.516 27.2616 36.164C27.4296 35.812 27.6616 35.532 27.9576 35.324C28.2536 35.116 28.5936 35.012 28.9776 35.012C29.3696 35.012 29.7096 35.116 29.9976 35.324C30.2936 35.532 30.5216 35.812 30.6816 36.164C30.8496 36.516 30.9336 36.912 30.9336 37.352C30.9336 37.784 30.8456 38.176 30.6696 38.528C30.4936 38.88 30.2576 39.16 29.9616 39.368C29.6736 39.576 29.3456 39.68 28.9776 39.68ZM28.9776 38.612C29.2176 38.612 29.4016 38.492 29.5296 38.252C29.6656 38.012 29.7336 37.712 29.7336 37.352C29.7336 36.992 29.6696 36.692 29.5416 36.452C29.4136 36.212 29.2256 36.092 28.9776 36.092C28.7376 36.092 28.5496 36.212 28.4136 36.452C28.2776 36.692 28.2096 36.992 28.2096 37.352C28.2096 37.712 28.2736 38.012 28.4016 38.252C28.5376 38.492 28.7296 38.612 28.9776 38.612ZM34.1256 43.64C33.7576 43.64 33.4256 43.536 33.1296 43.328C32.8336 43.12 32.5976 42.84 32.4216 42.488C32.2456 42.136 32.1576 41.744 32.1576 41.312C32.1576 40.872 32.2416 40.476 32.4096 40.124C32.5776 39.772 32.8096 39.492 33.1056 39.284C33.4016 39.076 33.7416 38.972 34.1256 38.972C34.5176 38.972 34.8576 39.076 35.1456 39.284C35.4416 39.492 35.6696 39.772 35.8296 40.124C35.9976 40.476 36.0816 40.872 36.0816 41.312C36.0816 41.744 35.9936 42.136 35.8176 42.488C35.6416 42.84 35.4056 43.12 35.1096 43.328C34.8216 43.536 34.4936 43.64 34.1256 43.64ZM34.1256 42.572C34.3656 42.572 34.5496 42.452 34.6776 42.212C34.8136 41.972 34.8816 41.672 34.8816 41.312C34.8816 40.952 34.8176 40.652 34.6896 40.412C34.5616 40.172 34.3736 40.052 34.1256 40.052C33.8856 40.052 33.6976 40.172 33.5616 40.412C33.4256 40.652 33.3576 40.952 33.3576 41.312C33.3576 41.672 33.4216 41.972 33.5496 42.212C33.6856 42.452 33.8776 42.572 34.1256 42.572ZM29.1216 43.544C28.9936 43.544 28.8576 43.492 28.7136 43.388C28.5696 43.276 28.4976 43.132 28.4976 42.956C28.4976 42.852 28.5376 42.732 28.6176 42.596L33.3936 35.384C33.5376 35.192 33.7016 35.096 33.8856 35.096C34.0216 35.096 34.1576 35.148 34.2936 35.252C34.4376 35.356 34.5096 35.5 34.5096 35.684C34.5096 35.788 34.4696 35.908 34.3896 36.044L29.6136 43.256C29.4696 43.448 29.3056 43.544 29.1216 43.544Z" fill="#0B0B0E"/>
<path fill-rule="evenodd" clip-rule="evenodd" d="M46.5 32.4H3.5V30.6H46.5V32.4Z" fill="white"/>
<path fill-rule="evenodd" clip-rule="evenodd" d="M43.6391 9.36662C43.9889 9.71974 43.9862 10.2896 43.6331 10.6394L31.7649 22.3962C31.4494 22.7087 30.9531 22.7444 30.5961 22.4802L24.1448 17.7054L18.3609 24.3735C18.2131 24.5438 18.0069 24.6525 17.7828 24.678L7.10151 25.8942C6.60765 25.9505 6.1617 25.5957 6.10547 25.1018C6.04924 24.608 6.40401 24.162 6.89787 24.1058L17.2309 22.9292L23.3308 15.8968C23.6388 15.5417 24.1682 15.4834 24.5461 15.7631L31.0465 20.5742L42.3663 9.36062C42.7194 9.01081 43.2893 9.01349 43.6391 9.36662Z" fill="white"/>
<path fill-rule="evenodd" clip-rule="evenodd" d="M44 3.8H6C4.78497 3.8 3.8 4.78497 3.8 6V44C3.8 45.215 4.78497 46.2 6 46.2H44C45.215 46.2 46.2 45.215 46.2 44V6C46.2 4.78497 45.215 3.8 44 3.8ZM6 2C3.79086 2 2 3.79086 2 6V44C2 46.2091 3.79086 48 6 48H44C46.2091 48 48 46.2091 48 44V6C48 3.79086 46.2091 2 44 2H6Z" fill="white"/>
</svg>
