<svg width="50" height="50" viewBox="0 0 50 50" fill="none" xmlns="http://www.w3.org/2000/svg">
<g clip-path="url(#clip0_2_554)">
<mask id="mask0_2_554" style="mask-type:luminance" maskUnits="userSpaceOnUse" x="0" y="0" width="50" height="50">
<path d="M50 0H0V50H50V0Z" fill="white"/>
</mask>
<g mask="url(#mask0_2_554)">
<path fill-rule="evenodd" clip-rule="evenodd" d="M22 42.3C33.2114 42.3 42.3 33.2114 42.3 22C42.3 10.7886 33.2114 1.7 22 1.7C10.7886 1.7 1.7 10.7886 1.7 22C1.7 33.2114 10.7886 42.3 22 42.3ZM22 44C34.1503 44 44 34.1503 44 22C44 9.84974 34.1503 0 22 0C9.84974 0 0 9.84974 0 22C0 34.1503 9.84974 44 22 44Z" fill="white"/>
<path d="M26.4019 10.1151L22.208 21.4386C22.1688 21.5445 22.3077 21.624 22.3792 21.5367L29.9282 12.3101C29.9663 12.2635 29.9549 12.194 29.9038 12.162L26.5487 10.0651C26.4949 10.0315 26.4239 10.0557 26.4019 10.1151Z" fill="#55C1F6"/>
<path fill-rule="evenodd" clip-rule="evenodd" d="M26.8789 11.274L24.5643 17.5234L28.7306 12.4313L26.8789 11.274ZM25.6046 9.81993C25.8137 9.2554 26.4885 9.02521 26.999 9.34428L30.3541 11.4412C30.8396 11.7446 30.9484 12.4053 30.5859 12.8484L23.0369 22.0749C22.3576 22.9051 21.0382 22.1492 21.4108 21.1434L25.6046 9.81993Z" fill="white"/>
<path d="M23.9734 32.8787L21.6222 22.0629C21.5983 21.9533 21.4398 21.96 21.4253 22.0712L20.0145 32.8871C20.0067 32.9469 20.0533 33 20.1137 33H23.8757C23.9395 33 23.987 32.9411 23.9734 32.8787Z" fill="#55C1F6"/>
<path fill-rule="evenodd" clip-rule="evenodd" d="M20.583 21.9613C20.7208 20.9045 22.2269 20.8409 22.4533 21.8823L24.8046 32.6982C24.9333 33.2903 24.4822 33.85 23.8762 33.85H20.1142C19.5408 33.85 19.098 33.3458 19.1722 32.7771L20.583 21.9613ZM21.7099 26.4653L20.9684 32.15H22.9457L21.7099 26.4653Z" fill="white"/>
<path d="M18.0693 5.12568L21.9034 21.5852C21.9273 21.6881 21.7961 21.7531 21.7289 21.6716L11.0786 8.77086C11.0381 8.72183 11.053 8.64797 11.1094 8.61855L17.9256 5.05973C17.9835 5.02948 18.0544 5.06203 18.0693 5.12568Z" fill="#55C1F6"/>
<path fill-rule="evenodd" clip-rule="evenodd" d="M17.5322 4.30625C18.0827 4.01887 18.7563 4.32811 18.8972 4.93285L22.7313 21.3924C22.959 22.3699 21.7124 22.9868 21.0734 22.2127L10.4231 9.312C10.0386 8.84624 10.1807 8.14461 10.7161 7.86507L17.5322 4.30625ZM17.4611 6.26117L12.3235 8.94359L20.351 18.6673L17.4611 6.26117Z" fill="white"/>
<path d="M33.1245 35.9057L22.5138 22.6423C22.44 22.55 22.559 22.4286 22.6527 22.5004L35.9161 32.6691C35.9617 32.704 35.9685 32.7699 35.9312 32.8135L33.2785 35.9083C33.2377 35.9559 33.1637 35.9547 33.1245 35.9057Z" fill="#55C1F6"/>
<path fill-rule="evenodd" clip-rule="evenodd" d="M27.0312 26.9283L33.2226 34.6676L34.7705 32.8617L27.0312 26.9283ZM35.3985 33.3432C35.3983 33.3431 35.3987 33.3433 35.3985 33.3432ZM33.7878 35.3741C33.788 35.3743 33.7877 35.3739 33.7878 35.3741ZM21.8501 23.1733C21.1492 22.2972 22.2795 21.1432 23.1699 21.8259L22.6528 22.5004M23.1699 21.8259L36.4334 31.9945C36.8659 32.3261 36.9314 32.9529 36.5767 33.3667L33.924 36.4615C33.5363 36.9137 32.8329 36.9018 32.4609 36.4367L21.8501 23.1733" fill="white"/>
<path d="M8.4896 15.0661L21.7456 22.0097C21.8295 22.0537 21.8109 22.1788 21.7179 22.1966L7.13632 24.974C7.06918 24.9868 7.00929 24.93 7.01852 24.8622L8.34412 15.1412C8.35349 15.0725 8.4282 15.034 8.4896 15.0661Z" fill="#55C1F6"/>
<path fill-rule="evenodd" clip-rule="evenodd" d="M7.50254 15.0264C7.59152 14.3738 8.30127 14.0076 8.88463 14.3132L22.1406 21.2568C22.9378 21.6744 22.7616 22.8632 21.8776 23.0315L7.29599 25.809C6.65824 25.9305 6.08922 25.3907 6.17694 24.7474L7.50254 15.0264ZM9.04255 16.315L8.00224 23.9439L19.4456 21.7642L9.04255 16.315Z" fill="white"/>
<path d="M50 36.5C50 43.9558 43.9558 50 36.5 50C29.0442 50 23 43.9558 23 36.5C23 29.0442 29.0442 23 36.5 23C43.9558 23 50 29.0442 50 36.5Z" fill="#0B0B0E"/>
<path d="M46.7605 37.6387C46.708 37.9321 46.6683 38.2283 46.6003 38.5181C46.4186 39.2929 46.1098 40.0032 45.5286 40.5613C45.1125 40.9609 44.6216 41.1981 44.0423 41.2091C41.3924 41.2594 38.7425 41.237 36.0926 41.2414C35.8275 41.2417 35.7256 41.3951 35.8125 41.6551C35.8402 41.7385 35.902 41.7161 35.9545 41.7165C36.3146 41.7184 36.675 41.7176 37.0351 41.7176C38.3794 41.7176 39.7236 41.7204 41.0678 41.7141C41.228 41.7133 41.2724 41.7581 41.272 41.921C41.2701 42.7449 41.2581 43.5669 41.1763 44.3889C41.14 44.7547 40.9301 44.9195 40.6595 45.0709C39.9366 45.476 39.1536 45.6939 38.3477 45.8355C37.6175 45.9641 36.8807 46.0227 36.1397 45.992C35.3339 45.9586 34.5446 45.8343 33.792 45.5185C32.9769 45.1763 32.5327 44.5431 32.3733 43.6802C32.0522 41.9438 32.1074 40.2243 32.5937 38.5237C32.6875 38.1956 32.8318 37.892 33.0047 37.5998C33.2587 37.1715 33.667 37.0016 34.1158 36.8974C34.843 36.7286 35.5793 36.7243 36.3207 36.7558C37.1621 36.7912 38.0038 36.8502 38.8467 36.814C39.3546 36.792 39.8579 36.7243 40.3342 36.5292C41.1875 36.18 41.6221 35.4897 41.8204 34.6139C41.9995 33.8237 42.1087 33.0226 42.1682 32.2147C42.1817 32.0334 42.2303 31.9788 42.4163 31.9823C44.255 32.0185 45.8007 33.1756 46.4089 34.9836C46.5671 35.4544 46.6868 35.9334 46.725 36.4313C46.7277 36.4683 46.7482 36.5037 46.7605 36.5395V37.6387Z" fill="#FFCC66"/>
<path d="M27 35.3226C27.0521 35.0351 27.0922 34.7448 27.1586 34.4609C27.3365 33.6975 27.6492 33.0033 28.2273 32.4613C28.6781 32.0389 29.2111 31.8037 29.8278 31.7911C32.3997 31.7384 34.972 31.7648 37.544 31.7569C37.6296 31.7569 37.7636 31.8061 37.7929 31.7207C37.8327 31.6043 37.8076 31.4631 37.8033 31.333C37.8018 31.2803 37.752 31.2842 37.7142 31.2834C37.6628 31.2822 37.6111 31.2826 37.5598 31.2826C35.8944 31.2826 34.2287 31.2803 32.5634 31.2865C32.4028 31.2873 32.3604 31.2445 32.3623 31.0816C32.3708 30.2974 32.3669 29.5143 32.4349 28.7305C32.4692 28.3329 32.6444 28.0961 32.9786 27.9172C33.7031 27.5294 34.4765 27.3079 35.2754 27.1652C36.0044 27.035 36.7416 26.9772 37.4822 27.0082C38.2873 27.0417 39.0762 27.1652 39.8303 27.4778C40.6967 27.8369 41.1182 28.524 41.2791 29.4274C41.4798 30.5562 41.4914 31.6869 41.3671 32.8236C41.2919 33.513 41.1491 34.184 40.9117 34.838C40.6323 35.6077 40.1097 36.0278 39.3147 36.1493C38.669 36.248 38.0252 36.2728 37.3749 36.2468C36.5015 36.2122 35.6278 36.1489 34.7532 36.1878C34.3105 36.2075 33.8725 36.2689 33.4487 36.4148C32.651 36.6893 32.1481 37.2493 31.9011 38.0572C31.6583 38.8517 31.5518 39.6736 31.4372 40.4937C31.4272 40.5649 31.4156 40.6357 31.4059 40.7068C31.3631 41.0199 31.3623 41.0309 31.0617 41.0105C29.7305 40.92 28.6889 40.3053 27.9421 39.1863C27.4157 38.3974 27.1362 37.5152 27.0378 36.5713C27.0324 36.5206 27.0127 36.4714 27 36.4215C27 36.0549 27 35.6891 27 35.3226Z" fill="#55C1F6"/>
<path fill-rule="evenodd" clip-rule="evenodd" d="M36.5 48.3C43.017 48.3 48.3 43.017 48.3 36.5C48.3 29.983 43.017 24.7 36.5 24.7C29.983 24.7 24.7 29.983 24.7 36.5C24.7 43.017 29.983 48.3 36.5 48.3ZM36.5 50C43.9558 50 50 43.9558 50 36.5C50 29.0442 43.9558 23 36.5 23C29.0442 23 23 29.0442 23 36.5C23 43.9558 29.0442 50 36.5 50Z" fill="white"/>
</g>
</g>
<defs>
<clipPath id="clip0_2_554">
<rect width="50" height="50" fill="white"/>
</clipPath>
</defs>
</svg>
