<svg width="50" height="50" viewBox="0 0 50 50" fill="none" xmlns="http://www.w3.org/2000/svg">
<rect x="5" y="23" width="5" height="15" rx="2.5" fill="#C89000"/>
<rect x="25" y="22" width="5" height="16" rx="2.5" fill="#C89000"/>
<rect x="15" y="13" width="5" height="25" rx="2.5" fill="#C89000"/>
<rect x="34" y="13" width="5" height="25" rx="2.5" fill="#C89000"/>
<path fill-rule="evenodd" clip-rule="evenodd" d="M4 25.5789C4 23.6023 5.567 22 7.5 22C9.433 22 11 23.6023 11 25.5789V35.4211C11 37.3977 9.433 39 7.5 39C5.567 39 4 37.3977 4 35.4211V25.5789ZM7.5 23.7895C6.5335 23.7895 5.75 24.5906 5.75 25.5789V35.4211C5.75 36.4094 6.5335 37.2105 7.5 37.2105C8.4665 37.2105 9.25 36.4094 9.25 35.4211V25.5789C9.25 24.5906 8.4665 23.7895 7.5 23.7895Z" fill="white"/>
<path fill-rule="evenodd" clip-rule="evenodd" d="M4 16.5C4 14.567 5.567 13 7.5 13C9.433 13 11 14.567 11 16.5C11 18.433 9.433 20 7.5 20C5.567 20 4 18.433 4 16.5ZM7.5 14.75C6.5335 14.75 5.75 15.5335 5.75 16.5C5.75 17.4665 6.5335 18.25 7.5 18.25C8.4665 18.25 9.25 17.4665 9.25 16.5C9.25 15.5335 8.4665 14.75 7.5 14.75Z" fill="white"/>
<path fill-rule="evenodd" clip-rule="evenodd" d="M4 7.5C4 5.567 5.567 4 7.5 4C9.433 4 11 5.567 11 7.5C11 9.433 9.433 11 7.5 11C5.567 11 4 9.433 4 7.5ZM7.5 5.75C6.5335 5.75 5.75 6.5335 5.75 7.5C5.75 8.4665 6.5335 9.25 7.5 9.25C8.4665 9.25 9.25 8.4665 9.25 7.5C9.25 6.5335 8.4665 5.75 7.5 5.75Z" fill="white"/>
<path fill-rule="evenodd" clip-rule="evenodd" d="M14 7.5C14 5.567 15.567 4 17.5 4C19.433 4 21 5.567 21 7.5C21 9.433 19.433 11 17.5 11C15.567 11 14 9.433 14 7.5ZM17.5 5.75C16.5335 5.75 15.75 6.5335 15.75 7.5C15.75 8.4665 16.5335 9.25 17.5 9.25C18.4665 9.25 19.25 8.4665 19.25 7.5C19.25 6.5335 18.4665 5.75 17.5 5.75Z" fill="white"/>
<path fill-rule="evenodd" clip-rule="evenodd" d="M24 7.5C24 5.567 25.567 4 27.5 4C29.433 4 31 5.567 31 7.5C31 9.433 29.433 11 27.5 11C25.567 11 24 9.433 24 7.5ZM27.5 5.75C26.5335 5.75 25.75 6.5335 25.75 7.5C25.75 8.4665 26.5335 9.25 27.5 9.25C28.4665 9.25 29.25 8.4665 29.25 7.5C29.25 6.5335 28.4665 5.75 27.5 5.75Z" fill="white"/>
<path fill-rule="evenodd" clip-rule="evenodd" d="M33 7.5C33 5.567 34.567 4 36.5 4C38.433 4 40 5.567 40 7.5C40 9.433 38.433 11 36.5 11C34.567 11 33 9.433 33 7.5ZM36.5 5.75C35.5335 5.75 34.75 6.5335 34.75 7.5C34.75 8.4665 35.5335 9.25 36.5 9.25C37.4665 9.25 38.25 8.4665 38.25 7.5C38.25 6.5335 37.4665 5.75 36.5 5.75Z" fill="white"/>
<path fill-rule="evenodd" clip-rule="evenodd" d="M24 16.5C24 14.567 25.567 13 27.5 13C29.433 13 31 14.567 31 16.5C31 18.433 29.433 20 27.5 20C25.567 20 24 18.433 24 16.5ZM27.5 14.75C26.5335 14.75 25.75 15.5335 25.75 16.5C25.75 17.4665 26.5335 18.25 27.5 18.25C28.4665 18.25 29.25 17.4665 29.25 16.5C29.25 15.5335 28.4665 14.75 27.5 14.75Z" fill="white"/>
<path fill-rule="evenodd" clip-rule="evenodd" d="M14 15.6C14 13.6118 15.567 12 17.5 12C19.433 12 21 13.6118 21 15.6V35.4C21 37.3882 19.433 39 17.5 39C15.567 39 14 37.3882 14 35.4V15.6ZM17.5 13.8C16.5335 13.8 15.75 14.6059 15.75 15.6V35.4C15.75 36.3941 16.5335 37.2 17.5 37.2C18.4665 37.2 19.25 36.3941 19.25 35.4V15.6C19.25 14.6059 18.4665 13.8 17.5 13.8Z" fill="white"/>
<path fill-rule="evenodd" clip-rule="evenodd" d="M24 24.6C24 22.6118 25.567 21 27.5 21C29.433 21 31 22.6118 31 24.6V35.4C31 37.3882 29.433 39 27.5 39C25.567 39 24 37.3882 24 35.4V24.6ZM27.5 22.8C26.5335 22.8 25.75 23.6059 25.75 24.6V35.4C25.75 36.3941 26.5335 37.2 27.5 37.2C28.4665 37.2 29.25 36.3941 29.25 35.4V24.6C29.25 23.6059 28.4665 22.8 27.5 22.8Z" fill="white"/>
<path fill-rule="evenodd" clip-rule="evenodd" d="M33 15.6C33 13.6118 34.567 12 36.5 12C38.433 12 40 13.6118 40 15.6V35.4C40 37.3882 38.433 39 36.5 39C34.567 39 33 37.3882 33 35.4V15.6ZM36.5 13.8C35.5335 13.8 34.75 14.6059 34.75 15.6V35.4C34.75 36.3941 35.5335 37.2 36.5 37.2C37.4665 37.2 38.25 36.3941 38.25 35.4V15.6C38.25 14.6059 37.4665 13.8 36.5 13.8Z" fill="white"/>
<path d="M50 36.5C50 43.9558 43.9558 50 36.5 50C29.0442 50 23 43.9558 23 36.5C23 29.0442 29.0442 23 36.5 23C43.9558 23 50 29.0442 50 36.5Z" fill="#404258"/>
<path fill-rule="evenodd" clip-rule="evenodd" d="M36.5 48.3C43.017 48.3 48.3 43.017 48.3 36.5C48.3 29.983 43.017 24.7 36.5 24.7C29.983 24.7 24.7 29.983 24.7 36.5C24.7 43.017 29.983 48.3 36.5 48.3ZM36.5 50C43.9558 50 50 43.9558 50 36.5C50 29.0442 43.9558 23 36.5 23C29.0442 23 23 29.0442 23 36.5C23 43.9558 29.0442 50 36.5 50Z" fill="white"/>
<path d="M46.7605 37.6387C46.708 37.9321 46.6683 38.2283 46.6003 38.5181C46.4186 39.2929 46.1098 40.0032 45.5286 40.5613C45.1125 40.9609 44.6216 41.1981 44.0423 41.2091C41.3924 41.2594 38.7425 41.237 36.0926 41.2414C35.8275 41.2417 35.7256 41.3951 35.8125 41.6551C35.8402 41.7385 35.902 41.7161 35.9545 41.7165C36.3146 41.7184 36.675 41.7176 37.0351 41.7176C38.3794 41.7176 39.7236 41.7204 41.0678 41.7141C41.228 41.7133 41.2724 41.7581 41.272 41.921C41.2701 42.7449 41.2581 43.5669 41.1763 44.3889C41.14 44.7547 40.9301 44.9195 40.6595 45.0709C39.9366 45.476 39.1536 45.6939 38.3477 45.8355C37.6175 45.9641 36.8807 46.0227 36.1397 45.992C35.3339 45.9586 34.5446 45.8343 33.792 45.5185C32.9769 45.1763 32.5327 44.5431 32.3733 43.6802C32.0522 41.9438 32.1074 40.2243 32.5937 38.5237C32.6875 38.1956 32.8318 37.892 33.0047 37.5998C33.2587 37.1715 33.667 37.0016 34.1158 36.8974C34.843 36.7286 35.5793 36.7243 36.3207 36.7558C37.1621 36.7912 38.0038 36.8502 38.8467 36.814C39.3546 36.792 39.8579 36.7243 40.3342 36.5292C41.1875 36.18 41.6221 35.4897 41.8204 34.6139C41.9995 33.8237 42.1087 33.0226 42.1682 32.2147C42.1817 32.0334 42.2303 31.9788 42.4163 31.9823C44.255 32.0185 45.8007 33.1756 46.4089 34.9836C46.5671 35.4544 46.6868 35.9334 46.725 36.4313C46.7277 36.4683 46.7482 36.5037 46.7605 36.5395V37.6387Z" fill="#C89000"/>
<path d="M27 35.3226C27.0521 35.0351 27.0922 34.7448 27.1586 34.4609C27.3365 33.6975 27.6492 33.0033 28.2273 32.4613C28.6781 32.0389 29.2111 31.8037 29.8278 31.7911C32.3997 31.7384 34.972 31.7648 37.544 31.7569C37.6296 31.7569 37.7636 31.8061 37.7929 31.7207C37.8327 31.6043 37.8076 31.4631 37.8033 31.333C37.8018 31.2803 37.752 31.2842 37.7142 31.2834C37.6628 31.2822 37.6111 31.2826 37.5598 31.2826C35.8944 31.2826 34.2287 31.2803 32.5634 31.2865C32.4028 31.2873 32.3604 31.2445 32.3623 31.0816C32.3708 30.2974 32.3669 29.5143 32.4349 28.7305C32.4692 28.3329 32.6444 28.0961 32.9786 27.9172C33.7031 27.5294 34.4765 27.3079 35.2754 27.1652C36.0044 27.035 36.7416 26.9772 37.4822 27.0082C38.2873 27.0417 39.0762 27.1652 39.8303 27.4778C40.6967 27.8369 41.1182 28.524 41.2791 29.4274C41.4798 30.5562 41.4914 31.6869 41.3671 32.8236C41.2919 33.513 41.1491 34.184 40.9117 34.838C40.6323 35.6077 40.1097 36.0278 39.3147 36.1493C38.669 36.248 38.0252 36.2728 37.3749 36.2468C36.5015 36.2122 35.6278 36.1489 34.7532 36.1878C34.3105 36.2075 33.8725 36.2689 33.4487 36.4148C32.651 36.6893 32.1481 37.2493 31.9011 38.0572C31.6583 38.8517 31.5518 39.6736 31.4372 40.4937C31.4272 40.5649 31.4156 40.6357 31.4059 40.7068C31.3631 41.0199 31.3623 41.0309 31.0617 41.0105C29.7305 40.92 28.6889 40.3053 27.9421 39.1863C27.4157 38.3974 27.1362 37.5152 27.0378 36.5713C27.0324 36.5206 27.0127 36.4714 27 36.4215C27 36.0549 27 35.6887 27 35.3222V35.3226Z" fill="#4A6BB7"/>
<path d="M45.0781 40.0926L45.0781 40.0925C45.5372 39.6517 45.8022 39.0735 45.9673 38.3697C46.0091 38.1912 46.0367 38.0231 46.068 37.833C46.081 37.7539 46.0947 37.6709 46.1103 37.5818V36.6563C46.0964 36.6111 46.0817 36.5497 46.0765 36.4787L46.7248 36.4313M45.0781 40.0926L42.4541 34.7575C42.6118 34.0616 42.717 33.3608 42.783 32.6588C44.1674 32.827 45.3114 33.7606 45.7926 35.1909C45.9403 35.6305 46.0439 36.0542 46.0767 36.4811L46.7248 36.4313M45.0781 40.0926C44.76 40.398 44.4197 40.5518 44.0297 40.5592C42.0991 40.5959 40.1711 40.5938 38.2356 40.5918C37.5221 40.591 36.8075 40.5902 36.0914 40.5914L45.0781 40.0926ZM46.7248 36.4313C46.6865 35.9334 46.5669 35.4544 46.4087 34.9836L46.7603 36.5395C46.7587 36.535 46.757 36.5306 46.7553 36.5261C46.7527 36.5195 46.75 36.5129 46.7472 36.5063C46.7369 36.4816 46.7266 36.4568 46.7248 36.4313ZM36.1664 45.3426C36.8552 45.3711 37.5449 45.3169 38.2347 45.1954L38.235 45.1953C39.0022 45.0605 39.7065 44.8598 40.3415 44.5039L40.3418 44.5037C40.4607 44.4372 40.4983 44.4033 40.5123 44.387C40.5163 44.3823 40.5173 44.3802 40.5185 44.3774C40.52 44.3739 40.5258 44.3589 40.5292 44.3248L40.5292 44.3246C40.5934 43.6798 40.6132 43.0305 40.6194 42.3659C39.7373 42.3688 38.8551 42.3684 37.9744 42.368C37.661 42.3678 37.3478 42.3677 37.0349 42.3677C36.9556 42.3677 36.8761 42.3677 36.7963 42.3677C36.5209 42.3679 36.2432 42.368 35.9661 42.3666C35.9621 42.3668 35.9566 42.3671 35.9493 42.3675L35.9486 42.3675C35.9237 42.3689 35.8452 42.3732 35.752 42.3554C35.6457 42.3351 35.5161 42.2857 35.3998 42.1792C35.288 42.0768 35.228 41.9578 35.1957 41.8611C35.1956 41.8609 35.1956 41.8608 35.1956 41.8606L35.8122 41.6551L36.1664 45.3426ZM36.1664 45.3426C35.4081 45.3111 34.7016 45.1954 34.0433 44.9191C33.4586 44.6737 33.1377 44.2415 33.0123 43.5622L33.0122 43.562C32.7081 41.9174 32.7616 40.2999 33.2184 38.7024L33.2184 38.7024C33.2928 38.4423 33.4103 38.1904 33.5637 37.9312C33.6809 37.7335 33.872 37.6213 34.2625 37.5306M36.1664 45.3426L34.2625 37.5306M40.3007 34.6162C40.1932 34.9123 40.0534 35.1042 39.8954 35.2333C39.7371 35.3626 39.5225 35.46 39.2165 35.5068L39.2164 35.5068C38.6189 35.5981 38.0175 35.622 37.4008 35.5973L37.4007 35.5973C37.2198 35.5902 37.0354 35.5815 36.8484 35.5727C36.162 35.5405 35.4401 35.5066 34.7244 35.5385L40.3007 34.6162ZM40.3007 34.6162C40.5177 34.0183 40.6504 33.3992 40.721 32.753M40.3007 34.6162L40.721 32.753M37.5244 32.407C36.749 32.4093 35.976 32.4086 35.2045 32.4078C33.4127 32.4061 31.6289 32.4044 29.8411 32.441L29.8411 32.441C29.3982 32.45 29.0156 32.6135 28.6718 32.9355L37.5244 32.407ZM37.5244 32.407C37.5262 32.4072 37.5283 32.4075 37.5306 32.4078C37.5319 32.408 37.5335 32.4082 37.5353 32.4084C37.5557 32.4112 37.6109 32.4185 37.6675 32.4205C37.7241 32.4224 37.8555 32.4232 38.0004 32.3638C38.1779 32.291 38.3348 32.1438 38.4076 31.932L38.408 31.9308C38.4654 31.7629 38.4669 31.6067 38.4644 31.514C38.463 31.4662 38.4598 31.4204 38.4576 31.3887L38.4575 31.3869C38.455 31.3507 38.4536 31.3303 38.453 31.3122C38.453 31.3121 38.453 31.3119 38.453 31.3118L37.8033 31.333M37.5244 32.407L33.2854 28.4902C33.1819 28.5457 33.1458 28.5869 33.1306 28.609C33.117 28.6289 33.0922 28.6739 33.0824 28.7864L33.0824 28.7866C33.0297 29.3952 33.022 30.0023 33.0164 30.635C34.1746 30.6317 35.333 30.632 36.4901 30.6324C36.8468 30.6325 37.2034 30.6326 37.5598 30.6326C37.5679 30.6326 37.5767 30.6326 37.5861 30.6326C37.6263 30.6325 37.6761 30.6324 37.7247 30.6335C37.7262 30.6335 37.7276 30.6335 37.7291 30.6336L37.7179 31.1212C37.7221 31.1217 37.7238 31.1219 37.7238 31.1219C37.7238 31.1219 37.7214 31.1217 37.7179 31.1215L37.7142 31.2834M37.8033 31.333C37.8019 31.2844 37.7595 31.2839 37.7232 31.2835L37.7142 31.2834M37.8033 31.333C37.8043 31.3643 37.8066 31.3964 37.8088 31.4285L37.8088 31.4286C37.8159 31.5298 37.8231 31.6324 37.7929 31.7207L37.8033 31.333ZM37.7142 31.2834C37.6731 31.2825 37.6318 31.2825 37.5906 31.2826L37.5598 31.2826L37.544 31.2826H37.5425L37.3224 31.2826C37.3836 31.2229 37.4494 31.1847 37.507 31.1611C37.519 31.1561 37.5307 31.1518 37.5421 31.148C37.5427 31.1478 37.5433 31.1476 37.544 31.1474C37.5493 31.1456 37.5546 31.144 37.5598 31.1424C37.6404 31.1185 37.7007 31.1208 37.7108 31.1212L37.7116 31.1212C37.7137 31.1213 37.7158 31.1214 37.7175 31.1215L37.7142 31.2834ZM34.2625 37.5306C34.9015 37.3823 35.5664 37.3744 36.2929 37.4052L36.2932 37.4052C36.4521 37.4119 36.6136 37.4196 36.7772 37.4275C37.4542 37.4598 38.1663 37.4938 38.8744 37.4634L38.8747 37.4634C39.4174 37.4399 40.0051 37.3663 40.5801 37.1308C41.6865 36.678 42.2243 35.772 42.4541 34.7576L34.2625 37.5306ZM37.4552 27.6577L37.455 27.6577C36.7664 27.6288 36.0768 27.6823 35.3897 27.805L37.4552 27.6577ZM37.4552 27.6577C38.2131 27.6891 38.9204 27.8042 39.5813 28.0783L39.5814 28.0783M37.4552 27.6577L39.5814 28.0783M39.5814 28.0783C40.1913 28.331 40.5062 28.7946 40.6392 29.5414C40.8273 30.5997 40.8397 31.6674 40.721 32.7529L40.721 32.753M39.5814 28.0783L40.721 32.753M42.4111 32.2329L42.4033 32.6319C42.4015 32.632 42.4 32.6321 42.3989 32.6322C42.3971 32.6322 42.3963 32.6322 42.3964 32.6322L42.4111 32.2329ZM37.3492 36.8963C37.8471 36.9162 38.3462 36.908 38.8485 36.8611C38.8485 36.8611 38.8485 36.8611 38.8485 36.8611C39.0362 36.8436 39.2242 36.8207 39.4129 36.7918L37.3492 36.8963ZM34.7243 35.5385C34.2422 35.5599 33.7381 35.6277 33.2372 35.8001C32.2261 36.1481 31.582 36.8777 31.2795 37.8671L31.2795 37.8672C31.0348 38.6681 30.9205 39.4902 30.8144 40.2534C30.8108 40.2791 30.8072 40.3047 30.8037 40.3302C29.8252 40.1894 29.0621 39.6935 28.4828 38.8256C28.0243 38.1385 27.7737 37.3612 27.6843 36.5039L27.6842 36.5025C27.6764 36.4293 27.6607 36.3674 27.65 36.3293V36.3291V36.327V36.3248V36.3227V36.3205V36.3184V36.3162V36.3141V36.3119V36.3098V36.3076V36.3055V36.3034V36.3012V36.2991V36.2969V36.2948V36.2926V36.2905V36.2883V36.2862V36.284V36.2819V36.2797V36.2776V36.2754V36.2733V36.2711V36.269V36.2669V36.2647V36.2626V36.2604V36.2583V36.2561V36.254V36.2518V36.2497V36.2475V36.2454V36.2432V36.2411V36.239V36.2368V36.2347V36.2325V36.2304V36.2282V36.2261V36.2239V36.2218V36.2196V36.2175V36.2153V36.2132V36.211V36.2089V36.2068V36.2046V36.2025V36.2003V36.1982V36.196V36.1939V36.1917V36.1896V36.1874V36.1853V36.1831V36.181V36.1789V36.1767V36.1746V36.1724V36.1703V36.1681V36.166V36.1638V36.1617V36.1595V36.1574V36.1552V36.1531V36.151V36.1488V36.1467V36.1445V36.1424V36.1402V36.1381V36.1359V36.1338V36.1316V36.1295V36.1273V36.1252V36.1231V36.1209V36.1188V36.1166V36.1145V36.1123V36.1102V36.108V36.1059V36.1037V36.1016V36.0995V36.0973V36.0952V36.093V36.0909V36.0887V36.0866V36.0844V36.0823V36.0801V36.078V36.0758V36.0737V36.0716V36.0694V36.0673V36.0651V36.063V36.0608V36.0587V36.0565V36.0544V36.0522V36.0501V36.048V36.0458V36.0437V36.0415V36.0394V36.0372V36.0351V36.0329V36.0308V36.0286V36.0265V36.0243V36.0222V36.0201V36.0179V36.0158V36.0136V36.0115V36.0093V36.0072V36.005V36.0029V36.0007V35.9986V35.9965V35.9943V35.9922V35.99V35.9879V35.9857V35.9836V35.9814V35.9793V35.9771V35.975V35.9729V35.9707V35.9686V35.9664V35.9643V35.9621V35.96V35.9578V35.9557V35.9535V35.9514V35.9493V35.9471V35.945V35.9428V35.9407V35.9385V35.9364V35.9342V35.9321V35.9299V35.9278V35.9257V35.9235V35.9214V35.9192V35.9171V35.9149V35.9128V35.9106V35.9085V35.9063V35.9042V35.9021V35.8999V35.8978V35.8956V35.8935V35.8913V35.8892V35.887V35.8849V35.8827V35.8806V35.8785V35.8763V35.8742V35.872V35.8699V35.8677V35.8656V35.8634V35.8613V35.8591V35.857V35.8549V35.8527V35.8506V35.8484V35.8463V35.8441V35.842V35.8398V35.8377V35.8355V35.8334V35.8313V35.8291V35.827V35.8248V35.8227V35.8205V35.8184V35.8162V35.8141V35.8119V35.8098V35.8077V35.8055V35.8034V35.8012V35.7991V35.7969V35.7948V35.7926V35.7905V35.7883V35.7862V35.7841V35.7819V35.7798V35.7776V35.7755V35.7733V35.7712V35.769V35.7669V35.7647V35.7626V35.7604V35.7583V35.7562V35.754V35.7519V35.7497V35.7476V35.7454V35.7433V35.7411V35.739V35.7368V35.7347V35.7326V35.7304V35.7283V35.7261V35.724V35.7218V35.7197V35.7175V35.7154V35.7132V35.7111V35.709V35.7068V35.7047V35.7025V35.7004V35.6982V35.6961V35.6939V35.6918V35.6896V35.6875V35.6854V35.6832V35.6811V35.6789V35.6768V35.6746V35.6725V35.6703V35.6682V35.666V35.6639V35.6617V35.6596V35.6575V35.6553V35.6532V35.651V35.6489V35.6467V35.6446V35.6424V35.6403V35.6381V35.636V35.6339V35.6317V35.6296V35.6274V35.6253V35.6231V35.621V35.6188V35.6167V35.6145V35.6124V35.6102V35.6081V35.606V35.6038V35.6017V35.5995V35.5974V35.5952V35.5931V35.5909V35.5888V35.5866V35.5845V35.5823V35.5802V35.5781V35.5759V35.5738V35.5716V35.5695V35.5673V35.5652V35.563V35.5609V35.5587V35.5566V35.5544V35.5523V35.5502V35.548V35.5459V35.5437V35.5416V35.5394V35.5373V35.5351V35.533V35.5308V35.5287V35.5265V35.5244V35.5223V35.5201V35.518V35.5158V35.5137V35.5115V35.5094V35.5072V35.5051V35.5029V35.5008V35.4986V35.4965V35.4943V35.4922V35.4901V35.4879V35.4858V35.4836V35.4815V35.4793V35.4772V35.475V35.4729V35.4707V35.4686V35.4664V35.4643V35.4621V35.46V35.4579V35.4557V35.4536V35.4514V35.4493V35.4471V35.445V35.4428V35.4407V35.4385V35.4364V35.4342V35.4321V35.4299V35.4278V35.4257V35.4235V35.4214V35.4192V35.4171V35.4149V35.4128V35.4106V35.4085V35.4063V35.4042V35.402V35.3999V35.3977V35.3956V35.3934V35.3913V35.3892V35.387V35.3849V35.3827V35.3806V35.3803C27.6654 35.2935 27.6789 35.2125 27.6919 35.1351C27.723 34.949 27.7506 34.7839 27.7916 34.6088L27.7917 34.6084C27.9514 33.923 28.2174 33.3616 28.6717 32.9356L34.7243 35.5385ZM32.5545 30.6365C32.5545 30.6364 32.5556 30.6364 32.5575 30.6365L32.5545 30.6365ZM33.0122 31.0928C33.0123 31.0947 33.0123 31.0957 33.0123 31.0957L33.0122 31.0928ZM30.9915 40.4314L31.1 40.4465L31.1 40.4465L31.4372 40.4937L31.1001 40.4462L31.1 40.4461L30.9923 40.431L30.9915 40.4314ZM41.0755 42.3642C41.0755 42.3642 41.0745 42.3642 41.0725 42.3641L41.0755 42.3642ZM40.6217 41.9166C40.6216 41.9148 40.6216 41.9138 40.6217 41.9138L40.6217 41.9166ZM33.2855 28.4902C33.9304 28.1449 34.6326 27.9403 35.3897 27.805L33.2855 28.4902Z" stroke="white" stroke-width="1.3"/>
</svg>
