<svg width="50" height="50" viewBox="0 0 50 50" fill="none" xmlns="http://www.w3.org/2000/svg">
<path d="M25 47C37.1503 47 47 37.1503 47 25C47 12.8497 37.1503 3 25 3C12.8497 3 3 12.8497 3 25C3 37.1503 12.8497 47 25 47Z" fill="#55C1F6"/>
<path d="M25 2C12.3093 2 2 12.3093 2 25C2 37.6907 12.3093 48 25 48C37.6907 48 48 37.6907 48 25C48 12.3093 37.6907 2 25 2ZM25 4C36.6098 4 46 13.3902 46 25C46 36.6098 36.6098 46 25 46C13.3902 46 4 36.6098 4 25C4 13.3902 13.3902 4 25 4Z" fill="white"/>
<path fill-rule="evenodd" clip-rule="evenodd" d="M16.8066 15.998C11.7696 15.998 11.319 20.523 11.293 21.623H13.4219C13.4539 20.865 13.8096 17.9141 16.8066 17.9141C19.6136 17.9141 20 19.8282 20 20.7852C20 21.2642 19.7093 23.6582 16.6113 23.6582H15.7402V25.4766C16.126 25.3809 16.5116 25.3809 16.9935 25.3809H16.998C17.481 25.3809 20.7734 25.4774 20.7734 28.7324C20.7734 31.8914 17.3853 32.1797 16.9023 32.1797C15.1863 32.1797 13.1987 31.148 13.1387 28.373H11C11.019 29.755 11.4443 34 16.9023 34C17.9673 34 23 33.7137 23 28.6387C23 25.4797 20.8706 24.5201 19.8066 24.3281V24.2324C20.4846 23.8504 22.2266 22.7005 22.2266 20.6895C22.2266 19.9235 22.0336 15.998 16.8066 15.998ZM26 16V34H31.5059C36.8579 34 40 30.6701 40 24.9941C40 19.3311 36.8449 16 31.5059 16H26ZM28 18H31.5059C36.8739 18 38 21.8031 38 24.9941C38 28.1901 36.8739 32 31.5059 32H28V18Z" fill="#0B0B0E"/>
</svg>
