<svg width="50" height="50" viewBox="0 0 50 50" fill="none" xmlns="http://www.w3.org/2000/svg">
<path fill-rule="evenodd" clip-rule="evenodd" d="M2.90628 9C2.39065 9.0469 1.99612 9.4805 2.00003 10V14C2.00003 14.5508 2.44925 15 3.00003 15H4.00003H6.00003H7.00003C7.55081 15 8.00003 14.5508 8.00003 14V10C8.00003 9.4492 7.55081 9 7.00003 9H2.90628ZM4 11H6V13H4V11Z" fill="white"/>
<path fill-rule="evenodd" clip-rule="evenodd" d="M4.00003 22H2.90628C2.39065 22.0469 1.99612 22.4805 2.00003 23V27C2.00003 27.5508 2.44925 28 3.00003 28H4.00003H6.00003H7.00003C7.55081 28 8.00003 27.5508 8.00003 27V23C8.00003 22.4492 7.55081 22 7.00003 22H6.00003H4.00003ZM4 24H6V26H4V24Z" fill="white"/>
<path fill-rule="evenodd" clip-rule="evenodd" d="M44 22H42.9063C42.3907 22.0469 41.9961 22.4805 42 23V27C42 27.5508 42.4493 28 43 28H44H46H47C47.5508 28 48 27.5508 48 27V23C48 22.4492 47.5508 22 47 22H46H44ZM44 24H46V26H44V24Z" fill="white"/>
<path fill-rule="evenodd" clip-rule="evenodd" d="M42.9063 9C42.3907 9.0469 41.9961 9.4805 42 10V14C42 14.5508 42.4493 15 43 15H44H46H47C47.5508 15 48 14.5508 48 14V10C48 9.4492 47.5508 9 47 9H42.9063ZM44 11H46V13H44V11Z" fill="white"/>
<path fill-rule="evenodd" clip-rule="evenodd" d="M44 35H42.9063C42.3907 35.0469 41.9961 35.4805 42 36V40C42 40.5508 42.4493 41 43 41H47C47.5508 41 48 40.5508 48 40V36C48 35.4492 47.5508 35 47 35H46H44ZM44 37H46V39H44V37Z" fill="white"/>
<path fill-rule="evenodd" clip-rule="evenodd" d="M4.00003 35H2.90628C2.39065 35.0469 1.99612 35.4805 2.00003 36V40C2.00003 40.5508 2.44925 41 3.00003 41H7.00003C7.55081 41 8.00003 40.5508 8.00003 40V36C8.00003 35.4492 7.55081 35 7.00003 35H6.00003H4.00003ZM4 37H6V39H4V37Z" fill="white"/>
<path fill-rule="evenodd" clip-rule="evenodd" d="M8 39V37H42V39H8Z" fill="white"/>
<path fill-rule="evenodd" clip-rule="evenodd" d="M8 13V11H42V13H8Z" fill="white"/>
<path fill-rule="evenodd" clip-rule="evenodd" d="M44 15H46V22H44V15Z" fill="white"/>
<path fill-rule="evenodd" clip-rule="evenodd" d="M4.00003 15H6.00003V22H4.00003V15Z" fill="white"/>
<path fill-rule="evenodd" clip-rule="evenodd" d="M44 28H46V35H44V28Z" fill="white"/>
<path fill-rule="evenodd" clip-rule="evenodd" d="M4.00003 28H6.00003V35H4.00003V28Z" fill="white"/>
</svg>
