<svg width="50" height="50" viewBox="0 0 50 50" fill="none" xmlns="http://www.w3.org/2000/svg">
<path d="M35 41H15V45H35V41Z" fill="#FF371A"/>
<path d="M25 31C27.2091 31 29 29.2091 29 27C29 24.7909 27.2091 23 25 23C22.7909 23 21 24.7909 21 27C21 29.2091 22.7909 31 25 31Z" fill="#FF371A"/>
<path d="M24.9842 3.98628C24.9271 3.98728 24.8703 3.99316 24.8142 4.00385C20.7652 4.03607 16.9674 5.11828 13.6736 6.98823C13.5486 7.03028 13.4331 7.09666 13.3338 7.18354C9.97735 9.1655 7.16935 11.9749 5.18728 15.3301C5.0974 15.4312 5.02897 15.5494 4.98611 15.6777C3.11822 18.9695 2.03758 22.7632 2.00369 26.8047C1.97799 26.937 1.97932 27.0731 2.0076 27.205C2.05182 32.2056 3.69122 36.8359 6.44705 40.5918C6.604 40.8057 6.83951 40.9486 7.10177 40.9888C7.36403 41.0291 7.63155 40.9635 7.84549 40.8065C8.05942 40.6496 8.20224 40.4142 8.24253 40.1519C8.28282 39.8897 8.21728 39.622 8.06033 39.4081C7.82717 39.0903 7.61165 38.7586 7.39627 38.4277L9.14627 37.4003C9.33623 37.2923 9.48558 37.125 9.57148 36.9241C9.65739 36.7231 9.67512 36.4997 9.62196 36.2877C9.56881 36.0758 9.44769 35.8871 9.27713 35.7505C9.10658 35.6138 8.89597 35.5368 8.67752 35.5312C8.48577 35.5262 8.29662 35.5763 8.1326 35.6758L6.37869 36.707C5.00663 34.0832 4.18826 31.1315 4.0408 28H5.99978C6.13229 28.0019 6.26386 27.9773 6.38683 27.9279C6.50979 27.8785 6.62171 27.8052 6.71608 27.7122C6.81045 27.6191 6.88539 27.5082 6.93654 27.386C6.98769 27.2637 7.01403 27.1325 7.01403 27C7.01403 26.8675 6.98769 26.7363 6.93654 26.614C6.88539 26.4918 6.81045 26.3809 6.71608 26.2878C6.62171 26.1948 6.50979 26.1214 6.38683 26.072C6.26386 26.0226 6.13229 25.9981 5.99978 26H4.02517C4.16997 22.9002 4.99582 19.986 6.33963 17.3809L8.0447 18.3652C8.15855 18.4372 8.28574 18.4854 8.41867 18.507C8.5516 18.5286 8.68752 18.5231 8.81828 18.4909C8.94904 18.4587 9.07195 18.4004 9.17963 18.3195C9.28731 18.2386 9.37755 18.1368 9.44493 18.0202C9.51231 17.9036 9.55545 17.7746 9.57175 17.6409C9.58806 17.5072 9.5772 17.3716 9.53983 17.2423C9.50245 17.1129 9.43933 16.9924 9.35425 16.888C9.26917 16.7836 9.16388 16.6975 9.0447 16.6348L7.33963 15.6504C8.96713 13.1205 11.1198 10.9679 13.6502 9.33979L14.6345 11.0449C14.6973 11.1641 14.7834 11.2694 14.8878 11.3545C14.9922 11.4395 15.1127 11.5027 15.2421 11.54C15.3714 11.5774 15.507 11.5883 15.6407 11.572C15.7744 11.5557 15.9034 11.5125 16.02 11.4451C16.1366 11.3778 16.2384 11.2875 16.3193 11.1798C16.4002 11.0722 16.4584 10.9493 16.4907 10.8185C16.5229 10.6877 16.5284 10.5518 16.5068 10.4189C16.4852 10.286 16.437 10.1588 16.365 10.0449L15.3806 8.33979C17.9842 6.99687 20.899 6.17025 23.9998 6.02534V7.99995C23.9979 8.13246 24.0224 8.26402 24.0718 8.38699C24.1212 8.50996 24.1946 8.62188 24.2876 8.71625C24.3807 8.81062 24.4915 8.88555 24.6138 8.9367C24.7361 8.98785 24.8673 9.01419 24.9998 9.01419C25.1323 9.01419 25.2635 8.98785 25.3858 8.9367C25.508 8.88555 25.6189 8.81062 25.7119 8.71625C25.805 8.62188 25.8783 8.50996 25.9278 8.38699C25.9772 8.26402 26.0017 8.13246 25.9998 7.99995V6.02534C29.1009 6.17017 32.0152 6.9972 34.6189 8.33979L33.6345 10.0449C33.5626 10.1588 33.5144 10.286 33.4928 10.4189C33.4712 10.5518 33.4767 10.6877 33.5089 10.8185C33.5411 10.9493 33.5994 11.0722 33.6803 11.1798C33.7612 11.2875 33.863 11.3778 33.9796 11.4451C34.0962 11.5125 34.2252 11.5557 34.3589 11.572C34.4925 11.5883 34.6281 11.5774 34.7575 11.54C34.8869 11.5027 35.0074 11.4395 35.1118 11.3545C35.2162 11.2694 35.3023 11.1641 35.365 11.0449L36.3494 9.33979C38.8803 10.9677 41.0324 13.1199 42.6599 15.6504L40.9549 16.6348C40.8357 16.6975 40.7304 16.7836 40.6453 16.888C40.5602 16.9924 40.4971 17.1129 40.4597 17.2423C40.4224 17.3716 40.4115 17.5072 40.4278 17.6409C40.4441 17.7746 40.4873 17.9036 40.5546 18.0202C40.622 18.1368 40.7123 18.2386 40.8199 18.3195C40.9276 18.4004 41.0505 18.4587 41.1813 18.4909C41.312 18.5231 41.448 18.5286 41.5809 18.507C41.7138 18.4854 41.841 18.4372 41.9549 18.3652L43.6599 17.3809C45.0028 19.9853 45.8297 22.8999 45.9744 26H43.9998C43.8673 25.9981 43.7357 26.0226 43.6127 26.072C43.4898 26.1214 43.3778 26.1948 43.2835 26.2878C43.1891 26.3809 43.1142 26.4918 43.063 26.614C43.0119 26.7363 42.9855 26.8675 42.9855 27C42.9855 27.1325 43.0119 27.2637 43.063 27.386C43.1142 27.5082 43.1891 27.6191 43.2835 27.7122C43.3778 27.8052 43.4898 27.8785 43.6127 27.9279C43.7357 27.9773 43.8673 28.0019 43.9998 28H45.9588C45.8113 31.1315 44.9929 34.0832 43.6209 36.707L41.867 35.6758C41.7234 35.5885 41.5602 35.5388 41.3924 35.5312C41.3592 35.5296 41.3259 35.5296 41.2928 35.5312C41.0767 35.5427 40.8702 35.6238 40.7042 35.7626C40.5382 35.9014 40.4217 36.0903 40.3722 36.3009C40.3227 36.5116 40.3428 36.7327 40.4296 36.9309C40.5163 37.1291 40.665 37.2937 40.8533 37.4003L42.6033 38.4277C42.3879 38.7586 42.1724 39.0903 41.9392 39.4081C41.8615 39.514 41.8054 39.6343 41.7741 39.7619C41.7428 39.8896 41.737 40.0221 41.757 40.152C41.7769 40.2818 41.8222 40.4064 41.8904 40.5187C41.9585 40.6311 42.0481 40.729 42.154 40.8067C42.2599 40.8845 42.3802 40.9405 42.5078 40.9718C42.6354 41.0031 42.7679 41.0088 42.8978 40.9888C43.0276 40.9689 43.1523 40.9235 43.2646 40.8554C43.377 40.7872 43.4748 40.6977 43.5525 40.5918C46.3073 36.8374 47.9465 32.2092 47.992 27.2108C48.0195 27.0809 48.0208 26.9469 47.9959 26.8164C47.9639 22.7631 46.8802 18.9603 45.0056 15.6621L45.0037 15.6582C44.9628 15.5454 44.9019 15.4409 44.824 15.3496C42.8402 11.9834 40.0258 9.16528 36.6599 7.17963L36.656 7.17573C36.5604 7.09476 36.4504 7.03248 36.3318 6.99213C33.0371 5.12085 29.2381 4.03641 25.1873 4.00385H25.1834C25.1177 3.99135 25.051 3.98546 24.9842 3.98628ZM38.7752 18.6426L27.7263 22.8223C26.9403 22.3064 26.0053 22 24.9998 22C22.2485 22 19.9998 24.2518 19.9998 27C19.9998 29.7482 22.2485 32 24.9998 32C27.7511 32 29.9998 29.7482 29.9998 27C29.9998 26.9704 29.9964 26.9416 29.9959 26.9121L38.9998 19L38.7752 18.6426ZM24.9998 24C26.6708 24 27.9998 25.3309 27.9998 27C27.9998 28.6678 26.6705 30 24.9998 30C23.3291 30 21.9998 28.6678 21.9998 27C21.9998 25.3322 23.3291 24 24.9998 24ZM14.9978 40C14.7326 40 14.4783 40.1054 14.2908 40.2929C14.1032 40.4804 13.9979 40.7348 13.9978 41V44.998C13.9979 45.2633 14.1032 45.5176 14.2908 45.7051C14.4783 45.8927 14.7326 45.998 14.9978 45.998H35.0017C35.2669 45.998 35.5213 45.8927 35.7088 45.7051C35.8963 45.5176 36.0017 45.2633 36.0017 44.998V41C36.0017 40.7348 35.8963 40.4804 35.7088 40.2929C35.5213 40.1054 35.2669 40 35.0017 40H14.9978ZM15.9978 42H34.0017V43.998H15.9978V42Z" fill="white"/>
</svg>
