<svg width="50" height="50" viewBox="0 0 50 50" fill="none" xmlns="http://www.w3.org/2000/svg">
<path d="M5 21V35.9677V37H38.5802L45 28.7419L38.5802 21H5Z" fill="#FF371A"/>
<path d="M3.5 35.5002C3.5 37.1452 4.85503 38.5002 6.5 38.5002H23.5V46.5002H21.5V48.5002H27.5V46.5002H25.5V38.5002H39.5C39.6554 38.5003 39.8087 38.4641 39.9477 38.3946C40.0867 38.3251 40.2076 38.2242 40.3008 38.0998L46.3008 30.0998C46.4304 29.9268 46.5005 29.7164 46.5005 29.5002C46.5005 29.284 46.4304 29.0737 46.3008 28.9006L40.3008 20.9006C40.2076 20.7762 40.0867 20.6753 39.9477 20.6058C39.8087 20.5363 39.6554 20.5002 39.5 20.5002H25.5V4.50023H27.5V2.50023H21.5V4.50023H23.5V20.5002H6.5C4.85503 20.5002 3.5 21.8553 3.5 23.5002V35.5002ZM5.5 35.5002V23.5002C5.5 22.9352 5.93497 22.5002 6.5 22.5002H39L44.25 29.5002L39 36.5002H6.5C5.93497 36.5002 5.5 36.0653 5.5 35.5002Z" fill="white"/>
</svg>
