<svg width="50" height="50" fill="none" xmlns="http://www.w3.org/2000/svg"><path fill-rule="evenodd" clip-rule="evenodd" d="M9.85 2.85v44.3h30.3V15.66L27.278 2.85H9.85zm-1.7-.75a.95.95 0 01.95-.95h18.488c.251 0 .492.1.67.277L41.57 14.674c.18.178.28.42.28.673V47.9a.95.95 0 01-.95.95H9.1a.95.95 0 01-.95-.95V2.1z" fill="#fff"/><path fill-rule="evenodd" clip-rule="evenodd" d="M27.85 14.15V2h-1.7v12.9c0 .525.425.95.95.95H41v-1.7H27.85z" fill="#fff"/><path d="M22.686 43h20.27C44.304 43 47 42.04 47 38.2c0-3.785-3.928-5.16-5.977-5.39a.1.1 0 01-.09-.097c-.06-1.402-1.51-7.713-8.76-7.713-5.85 0-8.246 3.503-8.74 5.326a.101.101 0 01-.098.074c-4.009.034-7.335 2.662-7.335 6 0 3.36 2.431 6.6 6.686 6.6z" fill="#78768B"/><path fill-rule="evenodd" clip-rule="evenodd" d="M32.174 25.85c-5.442 0-7.52 3.222-7.921 4.699a.951.951 0 01-.911.701c-3.726.032-6.492 2.443-6.492 5.15 0 2.953 2.11 5.75 5.836 5.75h20.27c.505 0 1.31-.188 1.975-.756.634-.541 1.219-1.495 1.219-3.194 0-1.543-.78-2.596-1.85-3.326-1.095-.748-2.446-1.116-3.372-1.22a.95.95 0 01-.845-.905c-.024-.558-.358-2.32-1.521-3.918-1.13-1.551-3.057-2.981-6.388-2.981zm-9.385 3.72c.856-2.202 3.614-5.42 9.385-5.42 3.918 0 6.34 1.726 7.762 3.68a10.241 10.241 0 011.777 4.223c1.062.196 2.393.63 3.546 1.417 1.408.961 2.59 2.489 2.59 4.73 0 2.14-.762 3.587-1.813 4.486-1.02.872-2.236 1.164-3.08 1.164h-20.27c-4.784 0-7.536-3.683-7.536-7.45 0-3.803 3.566-6.572 7.639-6.83zm.538-.02zm5.104 4.405l3.143-3.129a.85.85 0 011.2 0l3.142 3.129a.85.85 0 01-1.199 1.205l-1.693-1.686v5.669a.85.85 0 11-1.7 0v-5.669L29.63 35.16a.85.85 0 01-1.199-1.205z" fill="#fff"/></svg>