<svg width="50" height="50" fill="none" xmlns="http://www.w3.org/2000/svg"><path d="M31.836 19.792c0 3.845-3.076 6.836-6.836 6.836-3.845 0-6.836-2.991-6.836-6.836 0-3.76 2.99-6.836 6.836-6.836 3.76 0 6.836 3.076 6.836 6.836zM25 23.893c2.222 0 4.102-1.794 4.102-4.101 0-2.222-1.88-4.102-4.102-4.102-2.307 0-4.102 1.88-4.102 4.102 0 2.307 1.795 4.101 4.102 4.101zm16.406-4.101c0 7.52-9.997 20.764-14.44 26.318a2.578 2.578 0 01-4.017 0C18.506 40.556 8.594 27.311 8.594 19.792A16.356 16.356 0 0125 3.385c9.058 0 16.406 7.35 16.406 16.407zM25 6.12c-7.605 0-13.672 6.152-13.672 13.672 0 1.367.427 3.161 1.367 5.468.94 2.222 2.222 4.615 3.76 7.007 2.905 4.7 6.323 9.229 8.545 11.963 2.136-2.734 5.554-7.263 8.46-11.963 1.538-2.392 2.82-4.785 3.76-7.007.94-2.307 1.452-4.101 1.452-5.468C38.672 12.272 32.52 6.12 25 6.12z" fill="#fff"/></svg>