<svg width="50" height="50" fill="none" xmlns="http://www.w3.org/2000/svg"><path d="M36.84 24.528c3.693 0 6.78 3.087 6.78 6.779 0 .666-.121 1.271-.303 1.876 2.482 1.332 4.176 3.874 4.176 6.84 0 4.297-3.51 7.747-7.747 7.747H17.472a8.68 8.68 0 01-8.716-8.716c0-3.752 2.421-7.02 5.81-8.17.243-5.69 4.903-10.23 10.654-10.23 3.57 0 6.779 1.816 8.715 4.54a6.42 6.42 0 012.906-.666zm-2.118 2.421c-.847.424-1.876.121-2.42-.605-1.575-2.24-4.177-3.753-7.082-3.753a8.687 8.687 0 00-8.716 8.353c-.06.787-.545 1.452-1.332 1.755-2.603.908-4.479 3.45-4.479 6.355a6.768 6.768 0 006.78 6.78h22.273a5.812 5.812 0 005.81-5.811c0-2.18-1.27-4.116-3.147-5.084-.787-.485-1.21-1.393-.968-2.3.12-.424.242-.848.242-1.332a4.856 4.856 0 00-4.842-4.842c-.787 0-1.453.181-2.119.484z" fill="#fff"/><path fill-rule="evenodd" clip-rule="evenodd" d="M25.22 20.863c-5.637 0-10.207 4.45-10.445 10.03l-.006.142-.135.046c-3.305 1.121-5.669 4.31-5.669 7.973a8.471 8.471 0 008.508 8.508h22.273c4.123 0 7.54-3.358 7.54-7.54 0-2.882-1.647-5.357-4.067-6.655l-.15-.08.049-.164c.178-.592.294-1.176.294-1.816 0-3.577-2.994-6.57-6.571-6.57a6.212 6.212 0 00-2.812.643l-.16.08-.103-.146c-1.9-2.672-5.047-4.451-8.546-4.451zm-10.854 9.87C14.683 25 19.405 20.446 25.22 20.446c3.58 0 6.8 1.789 8.782 4.484a6.653 6.653 0 012.839-.61c3.807 0 6.987 3.18 6.987 6.987a6.44 6.44 0 01-.264 1.774c2.463 1.386 4.138 3.952 4.138 6.942 0 4.413-3.605 7.955-7.956 7.955H17.472a8.888 8.888 0 01-8.924-8.924c0-3.793 2.415-7.103 5.818-8.321zm1.93.199a8.895 8.895 0 018.924-8.55c2.978 0 5.64 1.55 7.25 3.84.49.65 1.411.915 2.16.54l.006-.003c.687-.312 1.383-.503 2.205-.503a5.065 5.065 0 015.05 5.051c0 .513-.127.96-.247 1.379l-.002.006c-.215.807.157 1.623.87 2.065 1.938 1.003 3.253 3.007 3.253 5.266a6.02 6.02 0 01-6.019 6.019H17.472a6.976 6.976 0 01-6.987-6.988c0-2.993 1.932-5.613 4.616-6.55.71-.275 1.14-.87 1.195-1.572zm8.924-8.133a8.478 8.478 0 00-8.508 8.153v.008c-.067.868-.604 1.602-1.465 1.934l-.006.002c-2.52.879-4.34 3.343-4.34 6.158a6.56 6.56 0 006.572 6.571h22.273a5.604 5.604 0 005.602-5.602c0-2.097-1.223-3.964-3.034-4.9l-.014-.006v-.001c-.856-.527-1.329-1.524-1.06-2.531v-.004c.123-.426.235-.823.235-1.274a4.648 4.648 0 00-4.634-4.634c-.75 0-1.386.172-2.029.464-.945.47-2.078.13-2.677-.668l-.004-.005c-1.538-2.19-4.08-3.665-6.911-3.665z" fill="#fff"/><path d="M25.206 34.375a2.51 2.51 0 012.507-2.506 2.529 2.529 0 012.506 2.506 2.51 2.51 0 01-2.506 2.507 2.492 2.492 0 01-2.507-2.507zm2.507-1.595a1.61 1.61 0 00-1.595 1.595c0 .883.712 1.595 1.595 1.595a1.61 1.61 0 001.595-1.595c0-.855-.74-1.595-1.595-1.595zm-5.44.883l-1.14-1.054a.871.871 0 01-.17-1.11l.854-1.51a.873.873 0 011.054-.4l1.48.457a6.138 6.138 0 011.254-.712l.342-1.51a.912.912 0 01.883-.74h1.737c.427 0 .798.313.883.74l.342 1.51c.427.17.854.427 1.253.712l1.481-.456a.872.872 0 011.054.399l.855 1.51a.871.871 0 01-.171 1.11l-1.14 1.054c.029.228.057.484.057.712 0 .256-.028.513-.056.74l1.139 1.054a.87.87 0 01.17 1.111l-.854 1.51a.872.872 0 01-1.054.399l-1.48-.456a7.856 7.856 0 01-1.254.712l-.342 1.51a.886.886 0 01-.883.712H26.83a.886.886 0 01-.883-.712l-.342-1.51a7.857 7.857 0 01-1.253-.712l-1.481.456a.873.873 0 01-1.054-.4l-.855-1.509a.871.871 0 01.171-1.11l1.14-1.055c-.029-.227-.029-.484-.029-.74 0-.228 0-.484.029-.712zm2.648-2.877l-.37.285-1.937-.627-.883 1.51 1.51 1.367-.057.456c-.029.2-.029.399-.029.598 0 .228 0 .427.029.627l.057.455-1.51 1.367.883 1.51 1.937-.627.37.285a3.49 3.49 0 001.054.599l.427.199.428 1.965h1.737l.427-1.965.428-.2a3.49 3.49 0 001.054-.598l.37-.284 1.937.626.883-1.51-1.51-1.367.057-.455c.029-.2.057-.4.057-.627 0-.2-.029-.399-.057-.598l-.057-.456 1.51-1.367-.883-1.51-1.937.627-.37-.285a4.3 4.3 0 00-1.054-.627l-.428-.17-.427-1.994H26.83l-.427 1.994-.428.17a4.3 4.3 0 00-1.054.627z" fill="#fff"/><path fill-rule="evenodd" clip-rule="evenodd" d="M25.437 27.715a1.432 1.432 0 011.392-1.152h1.738a1.43 1.43 0 011.392 1.152l.282 1.246c.31.145.61.322.893.512l1.23-.378a1.393 1.393 0 011.672.641l.847 1.498c.362.598.213 1.32-.267 1.759l-.944.873c.017.165.03.341.03.509 0 .186-.013.37-.03.538l.944.873c.48.438.63 1.16.267 1.758l-.847 1.498a1.393 1.393 0 01-1.673.641l-1.231-.379a8.332 8.332 0 01-.888.502l-.285 1.258a1.407 1.407 0 01-1.392 1.123h-1.738c-.66 0-1.252-.444-1.392-1.123l-.285-1.258a8.332 8.332 0 01-.887-.502l-1.232.38a1.393 1.393 0 01-1.672-.642l-.848-1.498c-.362-.597-.213-1.32.268-1.758l.951-.88c-.01-.177-.01-.354-.01-.514v-.031c0-.143 0-.314.01-.488l-.951-.88c-.48-.438-.63-1.161-.268-1.759l.848-1.498a1.393 1.393 0 011.672-.641l1.23.378c.283-.19.583-.367.892-.512l.282-1.246zm1.813.8l-.397 1.854-.679.272a3.775 3.775 0 00-.923.548l-.012.01-.588.452-1.799-.582-.458.783 1.397 1.265-.092.733a3.81 3.81 0 00-.023.525c0 .235 0 .397.023.553l.002.009.09.725-1.397 1.265.458.783 1.8-.582.6.461c.269.22.559.39.898.511l.023.008.683.319.393 1.807h.898l.393-1.807.683-.319.023-.008c.34-.121.63-.29.9-.51l.012-.01.587-.452 1.8.582.457-.783-1.397-1.265.092-.734a3.76 3.76 0 00.052-.553c0-.156-.022-.319-.052-.525l-.001-.008-.09-.725 1.396-1.265-.458-.783-1.799.582-.6-.462a3.774 3.774 0 00-.923-.548l-.679-.272-.397-1.853h-.896zm-2.565 5.86a3.031 3.031 0 013.027-3.027c1.655 0 3.028 1.372 3.028 3.027a3.031 3.031 0 01-3.028 3.027 3.013 3.013 0 01-3.027-3.027zm3.027-1.074a1.09 1.09 0 00-1.074 1.074c0 .595.48 1.074 1.074 1.074a1.09 1.09 0 001.075-1.074c0-.567-.508-1.074-1.075-1.074z" fill="#fff"/><path d="M10.856 22.135c-4.856 0-8.773-1.37-8.773-3.133V5.216c0-1.723 3.917-3.133 8.773-3.133 4.818 0 8.773 1.41 8.773 3.133v13.786c0 1.763-3.956 3.133-8.773 3.133zm7.52-16.88c-.04-.039-.079-.117-.274-.274-.274-.235-.784-.509-1.489-.783-1.41-.509-3.446-.861-5.757-.861-2.35 0-4.386.352-5.796.861-.705.274-1.214.548-1.488.783-.196.157-.235.235-.235.275V9.25c.548.392 1.449.784 2.663 1.097 1.37.313 3.016.51 4.856.51 1.802 0 3.447-.197 4.818-.51 1.214-.313 2.114-.705 2.702-1.097V5.256zm0 5.444c-.705.353-1.528.627-2.428.862-1.45.353-3.212.548-5.092.548-1.919 0-3.681-.195-5.13-.548-.901-.235-1.723-.51-2.39-.862v3.564c.55.392 1.45.784 2.664 1.097 1.37.313 3.016.51 4.856.51 1.802 0 3.447-.197 4.818-.51 1.214-.313 2.114-.705 2.702-1.097V10.7zM3.572 19.276c.274.235.783.51 1.488.784 1.41.509 3.446.822 5.796.822 2.311 0 4.348-.313 5.757-.822.705-.274 1.215-.549 1.489-.784.195-.156.235-.235.274-.274v-3.29c-.705.353-1.528.627-2.428.862-1.45.353-3.212.548-5.092.548-1.919 0-3.681-.195-5.13-.548-.901-.235-1.723-.51-2.39-.862v3.29c0 .04.04.118.236.274z" fill="#fff"/><path fill-rule="evenodd" clip-rule="evenodd" d="M17.83 5.298c-.219-.188-.673-.44-1.363-.71-1.355-.488-3.34-.835-5.611-.835-2.31 0-4.295.347-5.65.835-.69.27-1.145.522-1.363.71l-.011.01c-.034.026-.06.048-.079.066v3.654c.505.314 1.29.641 2.345.914 1.337.305 2.949.498 4.758.498 1.77 0 3.382-.193 4.719-.498 1.054-.272 1.845-.6 2.384-.921V5.41a1.347 1.347 0 00-.118-.104l-.01-.01zm.546-.042a1.369 1.369 0 00-.274-.274c-.275-.235-.784-.51-1.489-.784-1.41-.509-3.446-.861-5.757-.861-2.35 0-4.386.352-5.796.861-.705.274-1.214.549-1.489.784-.195.156-.235.234-.235.274V9.25c.549.392 1.45.784 2.664 1.097 1.37.313 3.015.51 4.856.51 1.802 0 3.446-.197 4.817-.51 1.214-.313 2.115-.705 2.702-1.097V5.256zm-2.33 6.71c-1.487.362-3.284.56-5.19.56-1.945 0-3.742-.198-5.229-.56l-.007-.002a14.03 14.03 0 01-1.867-.609v2.686c.505.314 1.29.641 2.345.914 1.337.305 2.949.498 4.758.498 1.77 0 3.381-.193 4.719-.498 1.054-.272 1.845-.6 2.384-.921v-2.689c-.588.242-1.23.443-1.907.62l-.006.001zm1.913-1.073a7.6 7.6 0 00.416-.194v3.564c-.587.392-1.488.784-2.702 1.097-1.37.313-3.015.51-4.817.51-1.84 0-3.486-.197-4.856-.51-1.215-.313-2.115-.705-2.664-1.097V10.7c.133.07.272.137.417.201.58.259 1.251.472 1.972.66 1.45.353 3.212.548 5.131.548 1.88 0 3.642-.195 5.091-.548.729-.19 1.406-.406 2.012-.668zM3.843 18.96c.218.188.672.44 1.363.71 1.35.486 3.333.795 5.65.795 2.277 0 4.26-.309 5.61-.795.691-.27 1.145-.522 1.364-.71l.01-.01c.057-.044.094-.078.119-.103v-2.489c-.588.243-1.23.443-1.907.62l-.006.001c-1.487.362-3.284.56-5.19.56-1.945 0-3.742-.198-5.229-.56l-.007-.002a14.016 14.016 0 01-1.867-.609v2.516c.02.018.045.04.079.067l.01.01zm-.507.042c0 .04.04.118.235.274.275.235.784.51 1.489.784 1.41.509 3.446.822 5.796.822 2.31 0 4.347-.313 5.757-.822.705-.274 1.214-.549 1.488-.784.147-.117.206-.19.243-.236a.457.457 0 01.031-.038v-3.29a8.385 8.385 0 01-.416.194c-.606.262-1.283.478-2.012.668-1.449.353-3.211.548-5.091.548-1.92 0-3.681-.195-5.13-.548-.722-.188-1.392-.401-1.973-.66a6.819 6.819 0 01-.417-.201v3.29zm-.835 1.55c-.495-.42-.834-.942-.834-1.55V5.216c0-.6.342-1.118.835-1.534.495-.419 1.187-.777 2.006-1.07 1.642-.588 3.885-.945 6.348-.945 2.444 0 4.687.357 6.333.944.821.293 1.516.652 2.014 1.07.496.416.842.933.842 1.535v13.786c0 .61-.343 1.132-.84 1.552-.5.42-1.196.778-2.017 1.069-1.647.582-3.89.93-6.332.93-2.462 0-4.705-.348-6.347-.93-.82-.291-1.512-.649-2.008-1.07zm-.418-1.55c0 1.763 3.917 3.133 8.773 3.133 4.817 0 8.773-1.37 8.773-3.133V5.216c0-1.723-3.956-3.133-8.773-3.133-4.856 0-8.773 1.41-8.773 3.133v13.786zm26.822-7.792c-1.702-1.368-4.039-1.859-5.975-1.834a1.042 1.042 0 11-.027-2.083c2.23-.029 5.102.521 7.307 2.293 1.888 1.517 3.174 3.84 3.236 7.145l1.393-.93a1.042 1.042 0 011.156 1.733L32.87 19.62c-.35.233-.806.233-1.156 0l-3.125-2.086a1.042 1.042 0 111.156-1.733l1.62 1.082c-.023-2.818-1.09-4.572-2.46-5.673z" fill="#fff"/></svg>