<svg width="50" height="50" fill="none" xmlns="http://www.w3.org/2000/svg"><path d="M25 11.589c.684 0 1.367.683 1.367 1.367v9.057l3.674 3.675c.513.512.513 1.452 0 1.965-.512.513-1.452.513-1.965 0l-4.101-4.101a1.415 1.415 0 01-.428-1.026v-9.57c0-.684.684-1.367 1.368-1.367H25zm0-8.204c10.51 0 19.14 8.63 19.14 19.141v19.14a5.452 5.452 0 01-5.468 5.47H11.328c-3.076 0-5.469-2.393-5.469-5.47v-19.14c0-10.51 8.545-19.14 19.141-19.14zm0 2.735A16.356 16.356 0 008.594 22.526 16.356 16.356 0 0025 38.932c9.058 0 16.406-7.348 16.406-16.406S34.058 6.12 25 6.12zm16.406 26.318c-3.418 5.554-9.485 9.229-16.406 9.229-7.007 0-13.074-3.675-16.406-9.229v9.229a2.7 2.7 0 002.734 2.734h27.344c1.453 0 2.734-1.196 2.734-2.734v-9.229z" fill="#000"/></svg>