<svg width="50" height="50" fill="none" xmlns="http://www.w3.org/2000/svg"><path fill-rule="evenodd" clip-rule="evenodd" d="M32.488 29.857l2.495-5.989a.683.683 0 10-1.26-.534l-2.777 6.687-2.799-6.687a.683.683 0 10-1.26.534l3.197 7.673a10.946 10.946 0 012.404-1.684zm-5.584 12.46H11.98a2.7 2.7 0 01-2.734-2.734H6.51c0 3.077 2.392 5.47 5.468 5.47h16.037a10.871 10.871 0 01-1.112-2.735zm.114-24.609c-2.307 0-4.101-1.794-4.101-4.101v-9.57H11.979c-1.538 0-2.734 1.281-2.734 2.734v13.672H6.51V6.77a5.452 5.452 0 015.468-5.469h13.33c1.026 0 2.137.513 2.906 1.282l9.826 9.827c.77.769 1.282 1.88 1.282 2.905v5.127h-2.734v-2.735h-9.57zm9.143-3.332L26.25 4.464c-.13-.13-.31-.212-.465-.28l-.133-.062v9.485a1.35 1.35 0 001.367 1.367h9.485a3.45 3.45 0 01-.062-.133c-.068-.154-.15-.335-.28-.465zm-11.26 17.717c.662-.363 1.067-.983 1.196-1.752.406-2.264-1.667-2.863-3.183-3.29-1.816-.534-2.372-.833-2.2-1.752.042-.299.213-.534.47-.726.448-.277 1.388-.491 3.332.022a.7.7 0 00.833-.492.7.7 0 00-.491-.833c-1.944-.513-3.44-.47-4.401.171a2.322 2.322 0 00-1.09 1.645c-.405 2.243 1.667 2.841 3.183 3.268 1.816.534 2.372.834 2.2 1.752-.063.363-.213.62-.512.79-.769.406-2.328.257-3.973-.427a.676.676 0 00-.897.385.66.66 0 00.363.876c.683.277 2.05.769 3.375.769.64 0 1.26-.107 1.794-.406zm-6.281-1.496c0-.256-.192-.683-.662-.683-.259 0-.462.17-.716.384-.42.352-.977.82-2.147.834-2.115 0-3.311-1.838-3.311-3.419 0-1.602 1.218-3.418 3.311-3.418 1.157 0 1.71.472 2.127.829.253.216.456.39.714.39.47 0 .684-.428.684-.684 0-.47-1.389-1.902-3.525-1.902-2.97 0-4.678 2.564-4.678 4.785 0 2.265 1.752 4.786 4.678 4.786 2.094 0 3.525-1.41 3.525-1.902zm18.88.133a8.849 8.849 0 00-8.854 8.853 8.829 8.829 0 008.854 8.855 8.85 8.85 0 008.854-8.855c0-4.877-3.977-8.854-8.854-8.854zm-6.77 8.853c0-3.717 3.023-6.77 6.77-6.77 3.716 0 6.77 3.054 6.77 6.77 0 3.748-3.052 6.771-6.77 6.771a6.759 6.759 0 01-6.77-6.77zm4.288-3.963c.4-.264.939-.26 1.335.012l4.668 2.852c.372.217.646.64.646 1.1 0 .48-.263.908-.646 1.13l-4.695 2.87c-.335.191-.87.283-1.308-.005-.446-.24-.643-.694-.643-1.131v-5.73c0-.417.206-.862.643-1.098zm1.44 5.44v-2.927l2.389 1.453-2.389 1.473z" fill="#000"/></svg>