<svg width="50" height="50" fill="none" xmlns="http://www.w3.org/2000/svg"><path d="M23.89 20.646l-5.47-6.836c-.341-.342-.427-.94-.17-1.367.256-.513.683-.854 1.281-.854H30.47c.512 0 .94.341 1.196.854.256.427.17 1.025-.17 1.367l-5.47 6.836A1.335 1.335 0 0125 21.16c-.427 0-.855-.171-1.11-.513zm1.11-2.99l2.564-3.333H22.35L25 17.655zm4.102 15.808c.512 0 .94.341 1.196.769l2.734 5.468c.171.428.171.94-.085 1.367-.257.428-.684.599-1.111.599H18.079c-.428 0-.855-.171-1.111-.599-.257-.427-.257-.94-.086-1.367l2.735-5.468c.256-.428.683-.77 1.196-.77h8.289zm.512 5.468l-1.367-2.734h-6.58L20.3 38.932h9.314zM9.961 47.135a1.35 1.35 0 01-1.367-1.367c0-.683.598-1.367 1.367-1.367h1.367v-3.76c0-2.734.855-5.383 2.478-7.52l5.982-7.86-5.982-7.776c-1.623-2.222-2.478-4.786-2.478-7.52V6.12H9.961a1.35 1.35 0 01-1.367-1.367c0-.684.598-1.368 1.367-1.368h30.078c.684 0 1.367.684 1.367 1.368 0 .769-.683 1.367-1.367 1.367h-1.367v3.845c0 2.734-.94 5.298-2.564 7.52l-5.981 7.775 5.981 7.862c1.624 2.136 2.564 4.785 2.564 7.52v3.76h1.367c.684 0 1.367.683 1.367 1.366 0 .77-.683 1.367-1.367 1.367H9.961zm25.977-6.494c0-2.136-.77-4.187-2.051-5.81l-6.58-8.716c-.427-.513-.427-1.196 0-1.624l6.58-8.715c1.282-1.624 2.05-3.675 2.05-5.811V6.12H14.064v3.845c0 2.136.683 4.187 1.965 5.81l6.58 8.716c.427.428.427 1.111 0 1.624l-6.58 8.716c-1.282 1.623-1.965 3.674-1.965 5.81v3.76h21.874v-3.76z" fill="#000"/></svg>