<svg xmlns="http://www.w3.org/2000/svg" width="649" height="307"><radialGradient id="a" cx="474.394" cy="193.77" r="8.636" gradientUnits="userSpaceOnUse"><stop offset="0" stop-color="#ffe499"/><stop offset=".579" stop-color="#f37321"/><stop offset="1" stop-color="#8e1017"/></radialGradient><circle fill="url(#a)" cx="476.203" cy="197.582" r="5.685"/><path fill="#003B72" d="M357.576 151.773v8.01h10.591v4.154h-10.591v11.004h-4.681v-27.437h16.731v4.269h-12.05zm39.226 12.651c0 1.748-.263 3.301-.785 4.66-.526 1.361-1.263 2.508-2.209 3.445-.95.934-2.103 1.645-3.463 2.133-1.36.484-2.889.729-4.585.729-3.442 0-6.121-.936-8.027-2.807-1.911-1.871-2.866-4.592-2.866-8.16v-16.919h4.68v16.583c0 2.371.549 4.137 1.646 5.297 1.1 1.16 2.646 1.74 4.644 1.74 1.972 0 3.511-.588 4.622-1.76 1.111-1.174 1.665-2.934 1.665-5.277v-16.583h4.68v16.919zm29.009 11.043l-17.182-18.117v17.592h-4.678v-27.81l.748-.15 16.956 17.854v-17.331h4.68v27.849l-.524.113zm30.804-2.658c-1.148.725-2.496 1.336-4.042 1.834-1.548.5-3.183.748-4.904.748-2.17 0-4.161-.355-5.97-1.066s-3.369-1.695-4.68-2.957a13.225 13.225 0 01-3.05-4.473c-.724-1.723-1.087-3.607-1.087-5.652 0-2.02.368-3.898 1.104-5.633s1.76-3.238 3.071-4.511c1.309-1.272 2.869-2.265 4.678-2.975 1.811-.712 3.787-1.067 5.933-1.067 1.722 0 3.332.236 4.829.712 1.496.473 2.83 1.072 4.005 1.796l-1.609 3.967a17.505 17.505 0 00-3.556-1.515 12.828 12.828 0 00-3.742-.58c-1.499 0-2.847.236-4.044.71-1.197.475-2.214 1.143-3.052 2.002-.834.861-1.478 1.896-1.928 3.107-.448 1.211-.673 2.539-.673 3.986s.231 2.77.694 3.967c.459 1.199 1.114 2.229 1.963 3.088.848.863 1.879 1.531 3.088 2.004 1.211.473 2.564.711 4.063.711 1.222 0 2.493-.199 3.817-.6a17.24 17.24 0 003.666-1.572l1.426 3.969zm16.955-21.036v23.168h-4.678v-23.168h-8.722v-4.269h22.085v4.269h-8.685zm14.299 23.168v-27.437h4.679v27.437h-4.679zm39.152-13.699c0 2.021-.354 3.898-1.065 5.633-.712 1.736-1.698 3.232-2.959 4.492a13.64 13.64 0 01-4.434 2.957c-1.697.711-3.544 1.066-5.541 1.066-1.972 0-3.798-.355-5.484-1.066-1.683-.711-3.137-1.695-4.36-2.957-1.222-1.26-2.177-2.756-2.862-4.492-.687-1.734-1.028-3.611-1.028-5.633 0-2.045.354-3.936 1.065-5.672.712-1.732 1.696-3.229 2.958-4.489a13.601 13.601 0 014.452-2.957c1.711-.712 3.551-1.067 5.521-1.067 1.998 0 3.831.355 5.503 1.067 1.673.71 3.12 1.696 4.342 2.957 1.222 1.26 2.177 2.757 2.864 4.489.685 1.737 1.028 3.627 1.028 5.672zm-5.015 0c0-1.422-.218-2.744-.654-3.967s-1.043-2.285-1.815-3.182a8.09 8.09 0 00-2.789-2.097c-1.087-.499-2.278-.748-3.575-.748s-2.496.249-3.594.748a8.083 8.083 0 00-2.808 2.097c-.771.896-1.377 1.959-1.813 3.182s-.656 2.545-.656 3.967.22 2.746.656 3.967c.437 1.223 1.043 2.279 1.813 3.164a8.392 8.392 0 006.402 2.864c1.297 0 2.488-.256 3.575-.768s2.016-1.209 2.789-2.096c.772-.885 1.379-1.941 1.815-3.164.436-1.221.654-2.545.654-3.967zm33.426 14.225L538.25 157.35v17.592h-4.679v-27.81l.749-.15 16.955 17.854v-17.331h4.681v27.849l-.524.113zm25.901-.526l-2.657-6.289h-10.854l-2.657 6.289h-4.83l12.651-27.81h.675l12.614 27.81h-4.942zm-8.085-19.164l-3.893 9.17h7.785l-3.892-9.17zm17.404 19.164v-27.437h4.68v23.169h12.052v4.268h-16.732zM375.729 211.76l-.373-16.432-8.648 13.1h-.561l-8.722-13.139-.3 16.471h-4.604l1.161-27.773.711-.076 12.166 18.191 11.864-18.191.75.076 1.16 27.773h-4.604zm38.515-13.699c0 2.021-.355 3.898-1.066 5.633-.71 1.734-1.699 3.232-2.957 4.492a13.686 13.686 0 01-4.435 2.957c-1.698.709-3.544 1.066-5.542 1.066-1.971 0-3.799-.357-5.482-1.066-1.685-.711-3.138-1.697-4.361-2.957-1.223-1.26-2.177-2.758-2.863-4.492-.688-1.734-1.029-3.611-1.029-5.633 0-2.045.355-3.938 1.067-5.672s1.696-3.23 2.957-4.49a13.606 13.606 0 014.453-2.957c1.709-.711 3.552-1.068 5.521-1.068 1.996 0 3.831.357 5.504 1.068a13.11 13.11 0 014.339 2.957c1.224 1.26 2.178 2.756 2.864 4.49.687 1.734 1.03 3.627 1.03 5.672zm-5.015 0c0-1.424-.219-2.744-.655-3.969-.437-1.221-1.042-2.283-1.816-3.182a8.108 8.108 0 00-2.786-2.096c-1.087-.5-2.279-.748-3.576-.748-1.299 0-2.496.248-3.593.748a8.075 8.075 0 00-2.808 2.096c-.773.898-1.378 1.961-1.816 3.182-.437 1.225-.655 2.545-.655 3.969 0 1.422.219 2.744.655 3.967.438 1.223 1.043 2.277 1.816 3.162a8.35 8.35 0 002.808 2.098c1.097.512 2.294.768 3.593.768 1.297 0 2.489-.256 3.576-.768a8.385 8.385 0 002.786-2.098c.774-.885 1.38-1.939 1.816-3.162s.655-2.546.655-3.967zm34.36 11.566c-1.146.723-2.494 1.336-4.042 1.832-1.546.5-3.182.75-4.904.75-2.17 0-4.161-.357-5.97-1.066-1.809-.711-3.368-1.697-4.678-2.957s-2.328-2.752-3.052-4.473c-.722-1.723-1.085-3.607-1.085-5.652 0-2.021.368-3.9 1.104-5.633a13.646 13.646 0 013.069-4.512c1.311-1.273 2.87-2.266 4.678-2.975 1.811-.711 3.787-1.068 5.933-1.068 1.723 0 3.334.238 4.831.713 1.496.473 2.83 1.072 4.003 1.797l-1.609 3.965a17.422 17.422 0 00-3.555-1.514 12.814 12.814 0 00-3.743-.58c-1.497 0-2.845.236-4.042.709-1.199.477-2.215 1.143-3.052 2.004-.836.861-1.478 1.896-1.928 3.105-.448 1.211-.675 2.541-.675 3.988s.231 2.77.694 3.967c.461 1.197 1.116 2.227 1.965 3.088s1.877 1.529 3.088 2.004c1.211.473 2.564.711 4.062.711 1.223 0 2.496-.199 3.817-.6s2.545-.924 3.668-1.572l1.423 3.969zm21.523 2.133l-11.229-13.176v13.176h-4.679v-27.438h4.679v12.354l10.78-12.354h5.651l-11.979 13.176 12.578 14.262h-5.801zm44.915-10.518c0 1.746-.261 3.299-.785 4.66-.524 1.359-1.26 2.508-2.209 3.443-.947.934-2.103 1.646-3.463 2.133s-2.889.73-4.585.73c-3.442 0-6.119-.938-8.027-2.807-1.911-1.873-2.864-4.592-2.864-8.16v-16.92h4.68v16.582c0 2.373.547 4.137 1.646 5.297 1.1 1.16 2.646 1.74 4.644 1.74 1.97 0 3.511-.586 4.622-1.76 1.109-1.172 1.665-2.932 1.665-5.277v-16.582h4.678v16.921zm25.492-7.861c0 1.398-.243 2.684-.729 3.855a8.336 8.336 0 01-2.116 3.014c-.923.836-2.066 1.49-3.426 1.965-1.36.475-2.913.711-4.659.711-.448 0-.906-.012-1.367-.037-.461-.023-.917-.051-1.365-.074v8.945h-4.68v-27.174a57.085 57.085 0 016.964-.451c1.871 0 3.518.244 4.938.73 1.424.486 2.615 1.148 3.576 1.984.96.836 1.679 1.814 2.152 2.938a9.162 9.162 0 01.712 3.594zm-4.866.15c0-.676-.119-1.316-.357-1.928a4.694 4.694 0 00-1.065-1.629c-.474-.473-1.073-.848-1.797-1.123-.724-.273-1.56-.412-2.508-.412-1.073 0-2.097.076-3.069.225v10.033c.474.051.924.086 1.348.111.425.025.849.037 1.272.037 2.121 0 3.681-.492 4.68-1.479.995-.985 1.496-2.262 1.496-3.835z"/><path fill="#F05323" d="M353.082 246.912v-27.438h4.68v27.438h-4.68zm34.213.524l-17.181-18.115v17.592h-4.68v-27.811l.749-.15 16.957 17.855v-17.332h4.677v27.85l-.522.111zm18.603-23.694v23.17h-4.68v-23.17h-8.722v-4.268h22.084v4.268h-8.682zm12.613 23.17v-27.438h16.731v4.268H423.19v7.188h10.892v4.117H423.19v7.598h12.052v4.268h-16.731zm37.88 0l-5.989-9.881a7.763 7.763 0 01-.71.035h-.75a49.7 49.7 0 01-2.732-.073v9.918h-4.678v-27.174a90.159 90.159 0 013.386-.32c1.16-.086 2.44-.131 3.839-.131 1.945 0 3.625.225 5.033.676 1.41.447 2.577 1.061 3.499 1.832.924.775 1.604 1.686 2.04 2.732.438 1.049.655 2.186.655 3.408 0 1.797-.463 3.381-1.385 4.754-.923 1.371-2.247 2.432-3.968 3.18l7.187 11.043h-5.427zm-1.346-18.752c0-1.396-.502-2.527-1.499-3.389-.997-.859-2.396-1.291-4.192-1.291-.573 0-1.124.014-1.646.037a9.431 9.431 0 00-1.499.188v9.357c.424.051.867.088 1.33.111.459.027.915.039 1.365.039 2.046 0 3.581-.451 4.604-1.348 1.025-.897 1.537-2.132 1.537-3.704zm17.067-4.418v8.01h10.592v4.154h-10.592v11.006h-4.68v-27.438h16.731v4.268h-12.051zm33.125 23.17l-2.657-6.289h-10.854l-2.657 6.289h-4.83l12.65-27.811h.675l12.614 27.811h-4.941zm-8.085-19.164l-3.894 9.17h7.786l-3.892-9.17zm40.201 17.031c-1.146.725-2.494 1.336-4.042 1.834a15.904 15.904 0 01-4.904.748c-2.17 0-4.161-.355-5.97-1.066s-3.368-1.697-4.678-2.957-2.328-2.752-3.052-4.475c-.722-1.721-1.085-3.605-1.085-5.65 0-2.021.368-3.9 1.104-5.633a13.658 13.658 0 013.068-4.512c1.312-1.273 2.871-2.266 4.681-2.977 1.809-.709 3.785-1.066 5.931-1.066 1.723 0 3.334.238 4.83.713 1.497.473 2.831 1.072 4.004 1.797l-1.609 3.965c-1.097-.621-2.282-1.127-3.555-1.514s-2.52-.582-3.743-.582c-1.497 0-2.845.238-4.042.713-1.199.475-2.216 1.143-3.052 2.002-.836.861-1.478 1.896-1.928 3.105-.448 1.213-.675 2.541-.675 3.988s.231 2.77.694 3.967c.461 1.199 1.116 2.227 1.965 3.088.848.863 1.877 1.529 3.088 2.004 1.211.473 2.564.711 4.062.711 1.222 0 2.495-.199 3.817-.6a17.301 17.301 0 003.668-1.572l1.423 3.969zm5.615 2.133v-27.438h16.731v4.268h-12.053v7.188h10.893v4.117h-10.893v7.598h12.053v4.268h-16.731z"/><radialGradient id="b" cx="185.276" cy="239.246" r="85.497" gradientTransform="matrix(1.0008 0 0 1 9.024 0)" gradientUnits="userSpaceOnUse"><stop offset="0" stop-color="#ffe499"/><stop offset=".579" stop-color="#f37321"/><stop offset="1" stop-color="#8e1017"/></radialGradient><path fill="url(#b)" d="M315.135 248.035H73.761v-17.578l10.42 9.029 10.909-9.029h92.352l10.152 9.018 10.948-9.018h85.485l10.28 9.006 10.828-9.006z"/><radialGradient id="c" cx="220.177" cy="243.222" r="141.698" gradientUnits="userSpaceOnUse"><stop offset=".399" stop-color="#009ddc"/><stop offset="1" stop-color="#1d1762"/></radialGradient><path fill="url(#c)" d="M117.621 58.965h1.335v20.854h-1.335c-10.741 0-17.543 3.729-20.407 11.187-1.495 3.933-2.242 7.554-2.242 10.83v9.582h30.904l-7.625 20.843H94.973v93.086l-10.806 8.688-10.047-8.688V132.26H41.616l7.606-20.843H74.12v-9.582c0-13.366 4.889-24.675 14.683-33.926 3.753-2.859 7.721-5.065 11.894-6.624 5.018-1.55 10.657-2.32 16.924-2.32z"/><radialGradient id="d" cx="220.178" cy="241.19" r="141.63" gradientUnits="userSpaceOnUse"><stop offset=".399" stop-color="#009ddc"/><stop offset="1" stop-color="#1d1762"/></radialGradient><path fill="url(#d)" d="M166.841 111.417c12.113 0 22.579 4.735 31.413 14.22 8.593-9.484 19.458-14.469 32.115-14.469 35.428 0 41.188 29.754 41.188 40.793v62.367h-20.854v-60.494c0-9.66-4.866-16.553-14.586-20.673-2.687-.596-4.837-.901-6.443-.901-8.536 0-15.039 4.363-19.512 13.075-1.083 2.802-1.616 6.322-1.616 10.556v69.465l-10.919 8.662-9.935-8.662v-72.682c0-7.64-3.292-20.414-20.097-20.414-18.111 0-21.793 15.485-21.793 20.593v61.476h-20.85l.093-60.061c-.001-23.074 11.439-42.851 41.796-42.851z"/><radialGradient id="e" cx="220.173" cy="240.615" r="141.685" gradientUnits="userSpaceOnUse"><stop offset=".399" stop-color="#009ddc"/><stop offset="1" stop-color="#1d1762"/></radialGradient><path fill="url(#e)" d="M294.036 146.878v78.485l10.271 8.655 10.805-8.655v-78.485z"/><radialGradient id="f" cx="197.278" cy="134.805" r="107.456" gradientUnits="userSpaceOnUse"><stop offset=".399" stop-color="#009ddc"/><stop offset="1" stop-color="#1d1762"/></radialGradient><path fill="url(#f)" d="M294.064 111.417h21.075v25.906h-21.075z"/></svg>