<svg width="50" height="50" fill="none" xmlns="http://www.w3.org/2000/svg"><path d="M41.406 41.667a5.452 5.452 0 01-5.468 5.468H14.061c-3.076 0-5.468-2.392-5.468-5.468h2.734a2.7 2.7 0 002.735 2.734h21.874c1.453 0 2.735-1.196 2.735-2.734h2.734zM29.102 19.792c-2.308 0-4.102-1.795-4.102-4.102V6.12H14.062c-1.538 0-2.734 1.282-2.734 2.734v13.672H8.594V8.854a5.452 5.452 0 015.469-5.469h13.33c1.025 0 2.136.513 2.905 1.282l9.826 9.827c.77.769 1.282 1.88 1.282 2.905v5.127h-2.734v-2.734h-9.57zm9.143-3.333l-9.912-9.912c-.171-.17-.428-.256-.599-.342v9.485c0 .77.598 1.367 1.368 1.367h9.484c-.085-.17-.17-.427-.341-.598zM16.424 32.83v4.567c0 1.516-1.27 2.768-2.822 2.768-1.569 0-2.82-1.252-2.82-2.768v-.635c0-.3.246-.564.563-.564.3 0 .565.264.565.564v.635c0 .9.758 1.64 1.692 1.64.917 0 1.693-.74 1.693-1.64V32.83c0-.317.247-.564.564-.564.3 0 .565.247.565.564zm6.605 5.554c-.106.635-.441 1.147-.988 1.446-.44.247-.952.335-1.48.335-1.094 0-2.223-.405-2.787-.634a.545.545 0 01-.3-.724c.124-.3.441-.44.741-.317 1.358.564 2.645.688 3.28.353.246-.141.37-.353.423-.653.14-.758-.317-1.005-1.816-1.445-1.252-.353-2.962-.847-2.628-2.698a1.917 1.917 0 01.9-1.358c.793-.529 2.027-.564 3.632-.141.3.088.476.388.406.688a.578.578 0 01-.688.405c-1.605-.423-2.38-.247-2.75-.017-.212.158-.353.352-.389.6-.14.757.318 1.004 1.816 1.445 1.252.353 2.963.846 2.628 2.715zm5.018-6.118a3.943 3.943 0 00-3.95 3.95 3.954 3.954 0 003.95 3.95 3.967 3.967 0 003.95-3.95 3.955 3.955 0 00-3.95-3.95zm0 6.753a2.807 2.807 0 01-2.821-2.821 2.803 2.803 0 012.82-2.804c1.553 0 2.822 1.27 2.822 2.804a2.83 2.83 0 01-2.821 2.821zm11.172-6.189v6.771c0 .23-.159.44-.388.529-.053.018-.124.018-.177.018a.573.573 0 01-.44-.194l-4.638-5.572v5.201a.568.568 0 01-.564.565.557.557 0 01-.564-.565v-6.77c0-.23.141-.441.37-.53.212-.07.459 0 .617.177l4.655 5.572v-5.22c0-.3.247-.564.564-.564.3 0 .565.265.565.582z" fill="#000"/><path fill-rule="evenodd" clip-rule="evenodd" d="M38.655 32.352a.464.464 0 00-.46.46v5.507l-4.838-5.79a.488.488 0 00-.504-.147.463.463 0 00-.3.43v6.771c0 .26.2.46.46.46.244 0 .46-.202.46-.46v-5.49l4.82 5.793a.47.47 0 00.362.157.533.533 0 00.141-.011.48.48 0 00.319-.431v-6.77a.48.48 0 00-.46-.479zm-.669.46c0-.355.292-.668.669-.668.359 0 .668.313.668.686v6.771c0 .278-.19.525-.455.626l-.004.002a.67.67 0 01-.203.023h-.006a.677.677 0 01-.52-.23L33.68 34.67v4.913a.672.672 0 01-.669.669.661.661 0 01-.668-.669v-6.77c0-.273.168-.523.437-.627l.004-.001a.696.696 0 01.728.205l.003.003 4.47 5.352v-4.932zm-16.008-.164c-1.597-.42-2.792-.375-3.546.128l-.004.002c-.466.283-.767.75-.85 1.285v.002c-.082.447-.038.803.086 1.094.123.291.331.524.59.715.525.386 1.246.593 1.876.77.745.22 1.255.396 1.557.62a.848.848 0 01.316.41c.054.158.055.335.017.535-.056.322-.194.564-.473.724l-.003.002c-.345.182-.85.233-1.429.172-.582-.06-1.253-.235-1.94-.52a.454.454 0 00-.604.26v.002c-.1.229.015.5.24.584l.003.001c.562.228 1.674.627 2.746.627.519 0 1.01-.086 1.43-.322.516-.282.835-.765.936-1.372.08-.45.038-.812-.086-1.105a1.74 1.74 0 00-.592-.72c-.524-.388-1.245-.595-1.875-.773-.745-.219-1.255-.395-1.556-.62a.849.849 0 01-.317-.409 1.048 1.048 0 01-.018-.532l.104.015-.103-.019v.002c.04-.28.202-.496.428-.666l.007-.005c.407-.252 1.217-.42 2.831.005a.474.474 0 00.562-.33v.002l.1.024-.1-.03v.003a.474.474 0 00-.333-.56zm-3.66-.047c.832-.553 2.104-.578 3.715-.154l.003.001a.682.682 0 01.477.812l-.001.005a.683.683 0 01-.812.478l-.002-.001c-1.588-.419-2.33-.238-2.666-.032-.194.146-.313.317-.343.528l-.001.004a.847.847 0 00.01.431.642.642 0 00.243.308c.266.199.736.366 1.49.588.621.175 1.381.39 1.941.805.283.21.518.471.66.807.142.336.186.738.1 1.221-.111.662-.463 1.203-1.04 1.52-.462.258-.992.347-1.532.347-1.113 0-2.257-.411-2.823-.642a.649.649 0 01-.358-.86.66.66 0 01.876-.373c.671.279 1.323.448 1.882.506.562.059 1.017.004 1.308-.148.212-.123.322-.303.37-.58a.85.85 0 00-.01-.432.641.641 0 00-.242-.308c-.267-.198-.736-.366-1.49-.587-.622-.175-1.381-.391-1.942-.803a1.942 1.942 0 01-.66-.801c-.14-.334-.186-.733-.1-1.212a2.02 2.02 0 01.947-1.428zm-2.459-.23c-.26 0-.46.2-.46.46v4.566c0 .96-.826 1.744-1.796 1.744-.99 0-1.797-.784-1.797-1.744v-.635a.476.476 0 00-.46-.46.464.464 0 00-.46.46v.635c0 1.458 1.204 2.664 2.717 2.664 1.495 0 2.717-1.207 2.717-2.664V32.83a.464.464 0 00-.46-.46zm-.668.46c0-.376.294-.67.668-.67.356 0 .669.292.669.67v4.566c0 1.576-1.318 2.872-2.925 2.872-1.626 0-2.926-1.297-2.926-2.872v-.635c0-.355.292-.668.669-.668.357 0 .668.31.668.668v.635c0 .839.709 1.536 1.589 1.536.863 0 1.588-.698 1.588-1.536V32.83zm8.802 3.385a4.047 4.047 0 014.054-4.054 4.059 4.059 0 014.054 4.054 4.07 4.07 0 01-4.054 4.053 4.059 4.059 0 01-4.054-4.053zm4.054-3.846a3.839 3.839 0 00-3.845 3.846 3.85 3.85 0 003.845 3.845 3.862 3.862 0 003.845-3.845 3.85 3.85 0 00-3.845-3.846zm0 1.129a2.7 2.7 0 00-2.717 2.699 2.703 2.703 0 002.717 2.717 2.725 2.725 0 002.717-2.717c0-1.476-1.222-2.7-2.717-2.7zm-2.925 2.699a2.907 2.907 0 012.925-2.908c1.609 0 2.925 1.316 2.925 2.908a2.934 2.934 0 01-2.925 2.925 2.911 2.911 0 01-2.925-2.925z" fill="#000"/><path d="M19.397 23.485l-.714 3.355c-.128.6-.396 1.092-.805 1.474-.409.382-.83.573-1.263.573-.238 0-.413-.046-.524-.139a.416.416 0 01-.17-.34.49.49 0 01.105-.31.365.365 0 01.305-.133c.084 0 .158.019.223.056a.693.693 0 01.167.143c.038.046.081.108.13.186.046.079.086.147.122.204.208-.017.385-.157.532-.423.149-.265.277-.644.386-1.137l.747-3.51h-.792l.085-.369h.784l.057-.276c.065-.314.168-.597.309-.849.14-.252.3-.465.479-.641a1.96 1.96 0 01.597-.407c.224-.1.44-.15.645-.15.239 0 .413.046.524.138.114.09.171.203.171.341 0 .117-.034.22-.102.309-.064.09-.167.134-.308.134a.439.439 0 01-.22-.053.656.656 0 01-.166-.146 1.34 1.34 0 01-.13-.19 2.637 2.637 0 00-.122-.2c-.187.008-.352.131-.495.37-.144.238-.274.635-.39 1.19l-.09.43h1.02l-.085.37h-1.012zm4.423-2.624l-.065.33c-.349.061-.678.244-.987.547-.306.301-.574.709-.804 1.223-.203.45-.361.967-.475 1.551a8.776 8.776 0 00-.17 1.674c0 .533.083.97.251 1.312.17.34.446.547.825.617l-.07.3c-.56-.07-.994-.322-1.303-.755-.309-.433-.463-1.017-.463-1.75 0-1.349.313-2.495.938-3.44.628-.948 1.403-1.484 2.323-1.609zm3.765 2.571c-.003.157-.06.274-.174.35a.651.651 0 01-.366.109 1.1 1.1 0 01-.276-.04 9.98 9.98 0 01-.244-.074 3.558 3.558 0 00-.426.48 6.22 6.22 0 00-.455.698c.065.257.123.478.175.662.05.182.106.364.166.548a.889.889 0 00.24.399.635.635 0 00.434.146 2.008 2.008 0 00.532-.086l-.073.268a4.44 4.44 0 01-.589.212c-.13.032-.27.048-.422.048a.806.806 0 01-.471-.13c-.122-.086-.221-.265-.297-.536a68.158 68.158 0 01-.134-.495l-.097-.402c-.125.187-.228.346-.309.479-.081.13-.217.31-.406.54-.165.2-.317.343-.455.427a.805.805 0 01-.422.125.45.45 0 01-.313-.11.4.4 0 01-.126-.312c0-.127.049-.235.146-.325a.562.562 0 01.402-.138c.087 0 .17.016.252.049.084.03.17.058.26.085a5.11 5.11 0 00.406-.455c.17-.206.33-.44.475-.702l-.17-.634c-.06-.23-.117-.432-.17-.605-.071-.22-.152-.36-.245-.423a.618.618 0 00-.353-.093c-.078 0-.162.01-.252.032a7.876 7.876 0 00-.243.066l.077-.268c.208-.087.395-.158.56-.212a1.34 1.34 0 01.341-.085c.187 0 .342.046.463.138.125.09.224.264.297.524.084.3.133.485.146.552l.09.39c.13-.2.235-.37.316-.507a4.95 4.95 0 01.398-.549c.17-.214.328-.36.471-.438a.864.864 0 01.419-.122c.119 0 .22.04.3.118a.369.369 0 01.122.296zm2.717-.065c0 1.348-.314 2.496-.942 3.444-.625.945-1.398 1.48-2.319 1.605l.065-.33c.35-.062.677-.244.983-.548.309-.3.578-.708.808-1.222.2-.45.358-.967.471-1.552a8.578 8.578 0 00.175-1.673c0-.534-.085-.97-.256-1.312a1.088 1.088 0 00-.82-.617l.069-.3c.56.07.995.321 1.303.755.309.433.463 1.016.463 1.75z" fill="#000"/></svg>