<svg width="993" height="267" viewBox="0 0 993 267" fill="none" xmlns="http://www.w3.org/2000/svg">
<path d="M447.473 86.6987V58.3054H581.165V86.6987H531.329V221.189H497.309V86.6987H447.473Z" fill="white"/>
<path d="M611.796 223.495C604.006 223.495 597.064 222.143 590.971 219.439C584.877 216.682 580.055 212.626 576.504 207.271C573.007 201.862 571.259 195.129 571.259 187.069C571.259 180.283 572.504 174.583 574.994 169.97C577.485 165.357 580.876 161.645 585.168 158.835C589.46 156.025 594.335 153.904 599.793 152.472C605.304 151.041 611.08 150.033 617.121 149.45C624.222 148.708 629.944 148.019 634.29 147.382C638.635 146.693 641.788 145.686 643.748 144.36C645.709 143.035 646.689 141.073 646.689 138.475V137.997C646.689 132.96 645.1 129.063 641.92 126.306C638.794 123.549 634.343 122.17 628.567 122.17C622.473 122.17 617.624 123.522 614.021 126.227C610.418 128.878 608.033 132.218 606.868 136.248L575.551 133.703C577.14 126.28 580.267 119.864 584.93 114.456C589.593 108.994 595.607 104.806 602.973 101.889C610.391 98.9202 618.976 97.4356 628.726 97.4356C635.508 97.4356 642 98.2309 648.199 99.8216C654.452 101.412 659.99 103.878 664.812 107.218C669.687 110.559 673.528 114.853 676.337 120.103C679.145 125.299 680.55 131.529 680.55 138.793V221.189H648.438V204.248H647.484C645.523 208.066 642.9 211.433 639.615 214.349C636.33 217.212 632.382 219.466 627.772 221.109C623.162 222.7 617.836 223.495 611.796 223.495ZM621.493 200.113C626.474 200.113 630.872 199.132 634.687 197.17C638.502 195.155 641.496 192.451 643.669 189.058C645.841 185.664 646.928 181.82 646.928 177.525V164.561C645.868 165.251 644.411 165.887 642.556 166.47C640.754 167 638.714 167.504 636.436 167.981C634.157 168.406 631.879 168.803 629.6 169.174C627.322 169.493 625.255 169.784 623.4 170.049C619.426 170.632 615.955 171.56 612.988 172.833C610.02 174.105 607.715 175.829 606.073 178.003C604.43 180.123 603.609 182.775 603.609 185.956C603.609 190.569 605.278 194.095 608.616 196.534C612.008 198.92 616.3 200.113 621.493 200.113Z" fill="white"/>
<path d="M697.866 221.189V99.0263H731.726V221.189H697.866ZM714.876 83.2787C709.842 83.2787 705.523 81.6085 701.92 78.2681C698.369 74.8747 696.594 70.8186 696.594 66.0996C696.594 61.4337 698.369 57.4305 701.92 54.0901C705.523 50.6967 709.842 49 714.876 49C719.91 49 724.202 50.6967 727.752 54.0901C731.355 57.4305 733.157 61.4337 733.157 66.0996C733.157 70.8186 731.355 74.8747 727.752 78.2681C724.202 81.6085 719.91 83.2787 714.876 83.2787Z" fill="white"/>
<path d="M749.897 267V99.0263H783.281V119.546H784.791C786.275 116.258 788.421 112.918 791.229 109.525C794.091 106.078 797.8 103.215 802.357 100.935C806.967 98.6021 812.69 97.4356 819.526 97.4356C828.428 97.4356 836.641 99.7686 844.166 104.435C851.69 109.047 857.705 116.02 862.209 125.352C866.713 134.631 868.965 146.269 868.965 160.267C868.965 173.893 866.766 185.399 862.368 194.784C858.023 204.116 852.088 211.194 844.563 216.019C837.092 220.791 828.719 223.177 819.446 223.177C812.875 223.177 807.285 222.09 802.675 219.916C798.118 217.743 794.382 215.012 791.468 211.725C788.553 208.384 786.328 205.017 784.791 201.624H783.758V267H749.897ZM783.042 160.108C783.042 167.372 784.049 173.708 786.063 179.116C788.076 184.524 790.991 188.74 794.806 191.762C798.621 194.731 803.258 196.216 808.716 196.216C814.227 196.216 818.89 194.704 822.705 191.682C826.52 188.607 829.408 184.365 831.369 178.957C833.382 173.496 834.389 167.213 834.389 160.108C834.389 153.056 833.409 146.852 831.448 141.497C829.488 136.142 826.6 131.953 822.785 128.931C818.969 125.908 814.28 124.397 808.716 124.397C803.205 124.397 798.542 125.855 794.727 128.772C790.964 131.688 788.076 135.824 786.063 141.179C784.049 146.534 783.042 152.844 783.042 160.108Z" fill="white"/>
<path d="M899.555 267C895.263 267 891.236 266.655 887.474 265.966C883.764 265.33 880.691 264.508 878.254 263.501L885.884 238.209C889.858 239.429 893.435 240.091 896.614 240.197C899.847 240.303 902.629 239.561 904.96 237.97C907.345 236.38 909.279 233.676 910.763 229.858L912.75 224.688L868.954 99.0263H904.563L929.839 188.74H931.111L956.625 99.0263H992.473L945.02 234.391C942.742 240.966 939.642 246.693 935.721 251.571C931.853 256.502 926.951 260.293 921.016 262.944C915.081 265.648 907.928 267 899.555 267Z" fill="white"/>
<path d="M19.7785 10.0475C21.8497 4.03138 27.4578 0 33.7557 0H357.066C362.159 0 365.73 5.0826 364.055 9.94761L345.167 64.8093C343.096 70.8254 337.487 74.8568 331.19 74.8568H7.87896C2.78614 74.8568 -0.784577 69.7742 0.890377 64.9092L19.7785 10.0475Z" fill="#FF371A"/>
<path d="M96.2753 103.551C98.3465 97.5703 103.883 93.5722 110.094 93.5722H237.503C242.562 93.5722 246.1 98.6829 244.413 103.554L225.401 158.45C223.33 164.431 217.793 168.429 211.582 168.429H84.1733C79.1145 168.429 75.5769 163.318 77.2638 158.447L96.2753 103.551Z" fill="#FF371A"/>
<path d="M138.796 197.087C140.848 191.125 146.299 187.143 152.41 187.143H205.573C210.569 187.143 214.058 192.268 212.38 197.142L193.482 252.056C191.43 258.019 185.98 262 179.869 262H126.705C121.71 262 118.221 256.875 119.898 252.001L138.796 197.087Z" fill="#FF371A"/>
</svg>
