<svg width="1526" height="801" viewBox="0 0 1526 801" fill="none" xmlns="http://www.w3.org/2000/svg">
<path d="M714 353.199V324.805H847.693V353.199H797.856V487.689H763.837V353.199H714Z" fill="white"/>
<path d="M878.323 489.995C870.533 489.995 863.592 488.643 857.498 485.939C851.404 483.182 846.582 479.126 843.032 473.771C839.535 468.362 837.786 461.629 837.786 453.569C837.786 446.782 839.031 441.083 841.522 436.47C844.012 431.857 847.403 428.145 851.696 425.335C855.988 422.525 860.863 420.404 866.321 418.972C871.832 417.541 877.608 416.533 883.648 415.95C890.749 415.208 896.472 414.519 900.817 413.882C905.162 413.193 908.315 412.186 910.276 410.86C912.236 409.535 913.217 407.573 913.217 404.975V404.497C913.217 399.46 911.627 395.563 908.447 392.806C905.321 390.049 900.87 388.67 895.094 388.67C889 388.67 884.152 390.022 880.548 392.727C876.945 395.378 874.561 398.718 873.395 402.748L842.078 400.203C843.668 392.78 846.794 386.364 851.457 380.956C856.12 375.494 862.135 371.306 869.5 368.389C876.919 365.42 885.503 363.936 895.253 363.936C902.036 363.936 908.527 364.731 914.727 366.322C920.98 367.912 926.517 370.378 931.339 373.718C936.214 377.059 940.056 381.353 942.864 386.603C945.673 391.799 947.077 398.029 947.077 405.293V487.689H914.965V470.748H914.011C912.051 474.566 909.428 477.933 906.142 480.849C902.857 483.712 898.909 485.966 894.299 487.609C889.689 489.2 884.364 489.995 878.323 489.995ZM888.02 466.613C893.001 466.613 897.399 465.632 901.214 463.67C905.03 461.655 908.024 458.951 910.196 455.558C912.369 452.164 913.455 448.32 913.455 444.025V431.061C912.395 431.751 910.938 432.387 909.083 432.97C907.282 433.5 905.242 434.004 902.963 434.481C900.685 434.906 898.406 435.303 896.127 435.674C893.849 435.993 891.782 436.284 889.928 436.549C885.953 437.132 882.483 438.06 879.515 439.333C876.548 440.605 874.243 442.329 872.6 444.503C870.957 446.623 870.136 449.275 870.136 452.456C870.136 457.069 871.805 460.595 875.144 463.034C878.535 465.42 882.827 466.613 888.02 466.613Z" fill="white"/>
<path d="M964.393 487.689V365.526H998.254V487.689H964.393ZM981.403 349.779C976.369 349.779 972.05 348.109 968.447 344.768C964.897 341.375 963.122 337.319 963.122 332.6C963.122 327.934 964.897 323.931 968.447 320.59C972.05 317.197 976.369 315.5 981.403 315.5C986.437 315.5 990.729 317.197 994.28 320.59C997.883 323.931 999.684 327.934 999.684 332.6C999.684 337.319 997.883 341.375 994.28 344.768C990.729 348.109 986.437 349.779 981.403 349.779Z" fill="white"/>
<path d="M1016.42 533.5V365.526H1049.81V386.046H1051.32C1052.8 382.758 1054.95 379.418 1057.76 376.025C1060.62 372.578 1064.33 369.715 1068.88 367.435C1073.49 365.102 1079.22 363.936 1086.05 363.936C1094.96 363.936 1103.17 366.269 1110.69 370.935C1118.22 375.547 1124.23 382.52 1128.74 391.852C1133.24 401.131 1135.49 412.769 1135.49 426.767C1135.49 440.393 1133.29 451.899 1128.9 461.284C1124.55 470.616 1118.62 477.694 1111.09 482.519C1103.62 487.291 1095.25 489.677 1085.97 489.677C1079.4 489.677 1073.81 488.59 1069.2 486.416C1064.65 484.243 1060.91 481.512 1058 478.225C1055.08 474.884 1052.86 471.517 1051.32 468.124H1050.29V533.5H1016.42ZM1049.57 426.608C1049.57 433.872 1050.58 440.208 1052.59 445.616C1054.6 451.024 1057.52 455.24 1061.33 458.262C1065.15 461.231 1069.79 462.716 1075.24 462.716C1080.75 462.716 1085.42 461.204 1089.23 458.182C1093.05 455.107 1095.94 450.865 1097.9 445.457C1099.91 439.996 1100.92 433.713 1100.92 426.608C1100.92 419.556 1099.94 413.352 1097.98 407.997C1096.02 402.642 1093.13 398.453 1089.31 395.431C1085.5 392.408 1080.81 390.897 1075.24 390.897C1069.73 390.897 1065.07 392.355 1061.25 395.272C1057.49 398.188 1054.6 402.324 1052.59 407.679C1050.58 413.034 1049.57 419.344 1049.57 426.608Z" fill="white"/>
<path d="M1166.08 533.5C1161.79 533.5 1157.76 533.155 1154 532.466C1150.29 531.83 1147.22 531.008 1144.78 530.001L1152.41 504.709C1156.39 505.929 1159.96 506.591 1163.14 506.697C1166.37 506.803 1169.16 506.061 1171.49 504.47C1173.87 502.88 1175.81 500.176 1177.29 496.358L1179.28 491.188L1135.48 365.526H1171.09L1196.37 455.24H1197.64L1223.15 365.526H1259L1211.55 500.891C1209.27 507.466 1206.17 513.193 1202.25 518.071C1198.38 523.002 1193.48 526.793 1187.54 529.444C1181.61 532.148 1174.46 533.5 1166.08 533.5Z" fill="white"/>
<path d="M286.306 276.548C288.377 270.531 293.985 266.5 300.283 266.5H623.594C628.686 266.5 632.257 271.583 630.582 276.448L611.694 331.309C609.623 337.325 604.015 341.357 597.717 341.357H274.406C269.313 341.357 265.743 336.274 267.418 331.409L286.306 276.548Z" fill="white"/>
<path d="M362.803 370.051C364.874 364.07 370.411 360.072 376.621 360.072H504.03C509.089 360.072 512.627 365.183 510.94 370.054L491.928 424.95C489.857 430.931 484.321 434.929 478.11 434.929H350.701C345.642 434.929 342.104 429.818 343.791 424.947L362.803 370.051Z" fill="white"/>
<path d="M405.323 463.587C407.375 457.625 412.826 453.643 418.937 453.643H472.101C477.096 453.643 480.585 458.768 478.908 463.642L460.01 518.556C457.958 524.519 452.507 528.5 446.396 528.5H393.233C388.237 528.5 384.748 523.375 386.426 518.501L405.323 463.587Z" fill="white"/>
</svg>
