<svg xmlns="http://www.w3.org/2000/svg" viewBox="0 0 365 365"><rect width="365" height="365" rx="49.35" ry="49.35" fill="#243674"/><g fill="#fff"><path d="M179.68 168.65c3.4-7.52-1.13-16.13-9.21-17.83l-.16-.03c-2.15-.46-5.02-2.58-5.49-4.46-.49-1.97.84-5.65 2.53-6.68 5.27-3.21 10.98-5.75 16.72-8.08 4.32-1.76 9.05-2.5 13.35-4.28 1.78-.74 3.41-2.77 4.3-4.6 11.23-22.93 22.29-45.95 33.45-68.91 3.47-7.14 3.51-7.04 10.41-3.41 8.25 4.34 16.53 8.6 24.85 12.8 3.88 1.96 4.01 4.62 2.23 8.14-5.39 10.63-10.66 21.31-15.96 31.98-.29.58-.44 1.22-.67 1.88 7.84-1.84 16.07-2.34 22.89-5.7 10.14-5.01 20.85-6.18 31.56-7.61 5.52-.74 11.36-.04 16.92.86 5.36.86 6.69 6.17 3.17 10.37-4.85 5.79-11.93 6.8-18.52 8.93-17.68 5.73-35.33 11.56-53 17.32-4.13 1.35-8.23 2.97-12.47 3.78-4.14.79-6.02 3.25-7.73 6.74-16.98 34.56-33.95 69.13-51.35 103.47-2.38 4.69-6.68 8.73-10.88 12.09-4.93 3.95-10.56 7.15-16.2 10.03-2.28 1.17-5.82 1.56-8.04.59-1.6-.7-1.96-4.24-2.83-6.53-.12-.31.02-.7-.02-1.04-2.15-19.12 2.57-36.27 12.18-53.06 6.74-11.77 12.33-24.2 18.01-36.77z"/><path d="M90.6 316.93c-.42.06-.85.1-1.28.12-15.67.52-22.05-11.29-22.98-23.24-.89-11.37 1.99-22.15 6.15-32.57 7.17-17.93 14.46-35.82 22.04-53.58 1.74-4.07 4.4-8.02 7.49-11.18 7.87-8.02 19.25-2.87 20.29 4.71.47 3.47-.86 7.57-2.45 10.86-5.83 12.08-12.69 23.68-18.02 35.96-3.92 9.04-6.59 18.73-8.75 28.37-.9 4-.35 11.28 1.87 12.38 3.86 1.92 9.69.94 14.39-.15 12.71-2.95 22.23-12.03 33.19-18.38 1.51-.87 2.83-2.49 4.39-2.74 2-.31 4.83-.28 6.06.9 1.15 1.1 1.53 4.31.77 5.88-6.05 12.42-15.55 21.89-27.2 28.95-7.53 4.56-15.63 8.32-23.79 11.69-3.71 1.53-8.08 1.47-12.19 2.02zM33.73 206.8c2.73-8.02 3.55-15.93 7.08-23.57 7-15.17 14.43-30.17 22.48-44.8 2.82-5.13 7.8-9.14 12.11-13.34 2.55-2.48 6.41-3.63 8.93-.72 2.16 2.5 4.29 6.61 3.74 9.51-1 5.33-3.43 10.62-6.24 15.34-10.03 16.84-18.82 34.1-23.51 53.33-1.5 6.14-3.99 12.34-9.95 16.09-7.52 4.74-13.26 2.06-14.39-6.81-.18-1.38-.2-2.79-.3-4.18-.02-.38.12-.62.05-.85zm94.55-53.6c0-.48.05-.95.11-1.42 1.01-7.82-.19-16.97 6.84-23.66 3.11-2.97 6.53-5.82 10.27-7.88 8.42-4.65 14.84 4.35 14.36 11.15-.98 13.86-11.35 26.12-24.59 29.26-4.64 1.1-7.05-1.24-7-7.44z"/></g></svg>