<?xml version="1.0" encoding="utf-8"?>
<!-- Generator: Adobe Illustrator 27.2.0, SVG Export Plug-In . SVG Version: 6.00 Build 0)  -->
<svg version="1.1" id="Layer_1" xmlns="http://www.w3.org/2000/svg" xmlns:xlink="http://www.w3.org/1999/xlink" x="0px" y="0px"
	 viewBox="0 0 536 185" style="enable-background:new 0 0 536 185;" xml:space="preserve">
<style type="text/css">
	.st0{fill:#243674;}
	.st1{fill:#FFFFFF;}
</style>
<rect class="st0" width="536" height="185"/>
<g>
	<path class="st1" d="M120.7,117.1c-5.5,4.8-10.8,9.7-16.5,14.2c-9.3,7.3-19,13.9-29.9,18.6c-4.6,1.9-9.2,3.8-14,5.1
		c-5.3,1.4-10.8,1.5-15.8-1.1c-5.4-2.8-7.1-7.9-7.2-13.6c0-7,1.9-13.6,4.5-19.9c4-9.6,9.6-18.3,16-26.4C65,85,73.3,77.4,83.1,71.5
		c5-3,10.2-5.8,15.6-8.1c2.9-1.3,6.4-1.7,9.6-1.9c6.4-0.5,7.7,2.8,9.1,7.6c1.1,4,0.5,7.6-2.3,10.9c-3,3.5-5.7,7.2-8.7,10.7
		c-0.6,0.8-1.6,1.4-2.5,1.8c-2.8,1.2-5.5,0.8-6.8-0.8c-1.4-1.8-1.3-5.5,0.5-7.7c1.8-2.2,3.7-4.3,5.6-6.4c0.6-0.6,1.1-1.3,1.6-2
		c-0.1-0.2-0.2-0.5-0.3-0.7c-1.5,0.2-3.2,0.1-4.5,0.6c-19.1,7.7-32.7,21.4-42.5,39.2c-2.6,4.8-4.5,9.9-6.5,15.1
		c-0.8,2.1-0.8,4.6-1,6.9c-0.3,4.2,2.7,7,6.9,6.5c4.8-0.5,9.7-1.6,14.2-3.4c14.1-5.5,26.3-14.3,38.2-23.4c3.2-2.4,6.1-5.2,9.1-8
		c1.5-1.4,2.7-1.9,4.1,0c0.2,0.3,0.6,0.5,1.3,0.9c1-2.7,1.9-5.2,2.8-7.8c2.7-8.3,5.3-16.6,8.2-24.8c1.5-4.2,3.2-8.3,5.3-12.1
		c1.2-2,3.3-3.7,5.4-5c1-0.7,3.3-0.8,4.1-0.1c1.1,0.9,1.9,2.9,1.8,4.3c-0.2,2.2-1.1,4.4-1.9,6.4c-3.5,9-7,18-10.5,27
		c-3.1,7.9-6.2,15.8-9.2,23.7c-0.7,1.8-1.1,3.6-1.7,5.4c0.2,0.1,0.4,0.2,0.6,0.4c2.1-2.6,4.2-5.1,6.4-7.7c5.8-6.9,12-13.6,19.6-18.6
		c2.6-1.8,5.6-3.2,8.6-4.1c4.1-1.3,7.2,2,6.5,6.3c-1.2,7.8-2.3,15.6-3.2,23.5c-0.5,4.1,0.2,5,4.2,3.9c3.9-1,7.9-2.6,11.2-4.8
		c6.6-4.6,12.9-9.7,19.1-14.8c1.9-1.6,3.3-4,4.8-6c5.2-6.8,12.1-11.6,20-14.8c2-0.8,4.4-1,6.7-1c4,0,5.8,2.6,5.4,7.1
		c-0.1,1.6,0.3,3.3,0.1,5c-0.2,1.6-0.5,3.4-1.3,4.8c-3.7,6.9-5.9,14.3-7,22c-0.3,1.7,0.5,3.6,0.8,5.5c1.7-0.6,3.8-0.9,5.2-2
		c8.5-6.4,15.5-14.3,21.7-23c0.9-1.3,1.9-2.6,2.9-3.9c6-6.7,8.4-15.4,12.6-23c3.7-6.6,7.3-13.3,12.9-18.6c0.6-0.5,1.2-1.1,2-1.3
		c1.1-0.4,2.8-1,3.4-0.5c0.9,0.7,1.5,2.3,1.4,3.5c-0.2,1.9-0.7,3.8-1.6,5.5c-4.3,8.5-9,16.8-13.2,25.3c-5.2,10.5-9.8,21.2-13,32.5
		c-0.7,2.4-0.9,5-1.2,7.6c-0.2,2,1.1,3,2.9,2.5c2.2-0.6,4.5-1.3,6.5-2.4c7.8-4.8,14.2-11.3,21.1-17.3c5.5-4.8,7.8-11.1,10.2-17.5
		c3.4-9.3,6.9-18.6,10.3-27.9c0.6-1.6,1.2-3.2,1.6-4.8c1.1-4.8,4.6-7.2,8.9-8.8c2.2-0.8,4.8,0.9,4.4,3.3c-0.4,3.1-1.4,6.3-2.6,9.2
		c-3.7,9.4-7.6,18.7-11.5,28c-2.6,6.2-5.3,12.3-7.9,18.4c-0.2,0.4-0.3,0.9-0.4,1.3c0.2,0.1,0.3,0.3,0.5,0.4
		c3.3-3.4,6.5-6.9,9.9-10.2c8-7.6,15.2-16.1,24.5-22.2c1.5-1,3.7-1.3,5.5-1.2c2.7,0.3,3.7,2.3,2.2,4.5c-2.8,3.8-5.7,7.6-9.1,10.9
		c-6,5.7-12.5,11-18.7,16.4c-2.1,1.8-2,2.4-0.1,4.2c5.9,5.4,11.8,10.7,19,14.4c3.2,1.7,6.5,2.8,10.2,2.7c0.9,0,1.8-0.1,2.7,0.1
		c2.2,0.5,3.2,2.5,1.7,4.1c-1.7,1.8-3.9,3.4-6.2,4.4c-7.1,3-13.8,1.5-20.4-1.9c-6.7-3.4-11.4-9.2-16.6-14.3c-1.7-1.7-3-1.6-4.8-0.2
		c-4,3.3-7.1,7.1-8.9,12.1c-1.1,3.2-3,6.1-6,8c-0.5,0.3-1.1,0.7-1.7,0.9c-3.9,1.1-5.7-0.3-4.6-4.2c1.5-5.3,3.6-10.5,5.5-15.7
		c0.2-0.6,0.4-1.3,0.2-2.2c-0.5,0.4-1.1,0.8-1.6,1.2c-5.8,6-12.1,11.4-19.2,15.8c-3.3,2-6.7,3.7-10.7,4c-7.5,0.6-10.7-6.3-9.6-11.9
		c0.8-4.2,2-8.3,3-12.4c0.1-0.6,0.2-1.2,0.3-1.9c-2.7,2.6-5.4,5.1-8,7.6c-4.7,4.6-9.6,8.9-15.5,11.9c-1.5,0.7-3.2,1.4-4.8,1.3
		c-5.7-0.1-7.1-2.6-7.6-8.5c-0.1-0.8,0.1-1.7-0.3-3c-0.7,0.6-1.5,1.2-2.1,1.9c-4.3,4.9-9,9.2-14.6,12.6c-5.6,3.4-11.2,2.6-13.4-2.6
		c-1-2.4-0.6-5.7-0.3-8.4c0.3-2.3,1.5-4.4,2.4-7c-0.7,0.3-1.2,0.4-1.6,0.7c-5.6,3.5-11,7.4-16.9,10.2c-3.8,1.8-8.2,3.2-12.6,1.1
		c-2.8-1.3-4.5-3.5-4.3-6.4c0.3-5.7,1-11.4,1.7-17.1c0.2-1.8,0.8-3.6,1-5.5c0.1-0.6-0.2-1.3-0.4-2c-0.6,0.2-1.5,0.2-1.9,0.6
		c-4.1,3.7-8.4,7.2-12,11.2c-6.7,7.5-13,15.3-19.5,23.1c-1.6,1.9-2.8,4.1-4.5,6c-1.3,1.4-2.7,2.8-4.4,3.7c-2.8,1.6-5.5-0.3-5.8-3.5
		c-0.4-3.8,1.6-6.9,2.8-10.2c2.9-7.9,6-15.8,9-23.7C120.6,118.4,120.6,117.7,120.7,117.1z M227.1,102.1c-0.8-0.4-1.6-1.2-2.3-1.1
		c-1.1,0.2-2.5,0.6-3.2,1.4c-3.3,3.5-6.7,6.9-9.6,10.7c-5.2,6.7-9.5,14-12.6,22c-0.4,1,0.1,2.3,0.1,3.4c1-0.2,1.9-0.4,2.8-0.8
		c0.6-0.2,1.1-0.7,1.6-1.1c9.2-7.9,16.1-17.5,21-28.6C225.8,106.4,226.3,104.6,227.1,102.1z"/>
	<path class="st1" d="M432.2,75.5c-2.7-0.3-5.2-0.4-7.7-0.9c-1-0.2-2.3-1.2-2.5-2.1c-0.2-0.9,0.4-2.6,1.2-3.1
		c2.4-1.5,5.1-2.7,7.7-3.7c2-0.8,4.2-1.2,6.2-2c0.8-0.3,1.6-1.3,2-2.1c5.2-10.6,10.3-21.2,15.5-31.8c1.6-3.3,1.6-3.3,4.8-1.6
		c3.8,2,7.6,4,11.5,5.9c1.8,0.9,1.9,2.1,1,3.8c-2.5,4.9-4.9,9.8-7.4,14.8c-0.1,0.3-0.2,0.6-0.3,0.9c3.6-0.8,7.4-1.1,10.6-2.6
		c4.7-2.3,9.6-2.9,14.6-3.5c2.5-0.3,5.2,0,7.8,0.4c2.5,0.4,3.1,2.9,1.5,4.8c-2.2,2.7-5.5,3.1-8.6,4.1c-8.2,2.6-16.3,5.3-24.5,8
		c-1.9,0.6-3.8,1.4-5.8,1.7c-1.9,0.4-2.8,1.5-3.6,3.1c-7.8,16-15.7,31.9-23.7,47.8c-1.1,2.2-3.1,4-5,5.6c-2.3,1.8-4.9,3.3-7.5,4.6
		c-1.1,0.5-2.7,0.7-3.7,0.3c-0.7-0.3-0.9-2-1.3-3c-0.1-0.1,0-0.3,0-0.5c-1-8.8,1.2-16.8,5.6-24.5C424.9,92.1,428.2,83.8,432.2,75.5z
		"/>
	<path class="st1" d="M387.3,151.4c-7.5,0.4-10.5-5.1-10.9-10.7c-0.4-5.3,0.9-10.2,2.8-15.1c3.3-8.3,6.7-16.6,10.2-24.8
		c0.8-1.9,2-3.7,3.5-5.2c3.6-3.7,8.9-1.3,9.4,2.2c0.2,1.6-0.4,3.5-1.1,5c-2.7,5.6-5.9,10.9-8.3,16.6c-1.8,4.2-3,8.7-4,13.1
		c-0.4,1.8-0.2,5.2,0.9,5.7c1.8,0.9,4.5,0.4,6.7-0.1c5.9-1.4,10.3-5.6,15.3-8.5c0.7-0.4,1.3-1.2,2-1.3c0.9-0.1,2.2-0.1,2.8,0.4
		c0.5,0.5,0.7,2,0.4,2.7c-2.8,5.7-7.2,10.1-12.6,13.4c-3.5,2.1-7.2,3.8-11,5.4C391.5,151.2,389.3,151.1,387.3,151.4z"/>
	<path class="st1" d="M360.8,100.6c1.3-3.7,2.2-7.6,3.8-11.1c3.2-7,6.7-13.9,10.4-20.7c1.3-2.4,3.6-4.2,5.6-6.2
		c1.2-1.1,3-1.7,4.1-0.3c1,1.2,2,3.1,1.7,4.4c-0.5,2.5-1.6,4.9-2.9,7.1c-4.6,7.8-8.7,15.8-10.9,24.6c-0.7,2.8-1.8,5.7-4.6,7.4
		c-3.5,2.2-6.1,1-6.7-3.1c-0.1-0.6-0.1-1.3-0.1-1.9C361.1,100.8,361,100.7,360.8,100.6z"/>
	<path class="st1" d="M405,75.3c0.6-3.7-0.1-8.1,3.2-11.3c1.4-1.4,3-2.7,4.7-3.6c3.9-2.1,6.9,2,6.6,5.2c-0.5,6.4-5.2,12.1-11.4,13.5
		C406,79.6,404.9,78.5,405,75.3z"/>
</g>
</svg>
