<svg width="50" height="50" fill="none" xmlns="http://www.w3.org/2000/svg"><path d="M19.094 7h11.718c.32 0 .586.176.844.563l1.907 2.968c.183.29.5.469.843.469H44a3 3 0 013 3v24a3 3 0 01-3 3H6a3 3 0 01-3-3V14a3 3 0 013-3h9.5c.344 0 .66-.18.844-.469l1.875-2.969.031-.03c.25-.352.54-.532.844-.532zM10 13c-1.645 0-3 1.355-3 3s1.355 3 3 3 3-1.355 3-3-1.355-3-3-3zm15 2c-6.063 0-11 4.938-11 11 0 6.063 4.938 11 11 11 6.063 0 11-4.938 11-11 0-6.063-4.938-11-11-11z" fill="#78768B"/><path d="M19.094 5c-1.082 0-1.989.625-2.532 1.438v.03L14.97 9H6c-2.746 0-5 2.254-5 5v24c0 2.746 2.254 5 5 5h38c2.746 0 5-2.254 5-5V14c0-2.746-2.254-5-5-5h-9.063l-1.593-2.531v-.032C32.8 5.625 31.894 5 30.812 5H19.095zm0 2h11.718c.32 0 .586.176.844.563l1.907 2.968c.183.29.5.469.843.469H44a3 3 0 013 3v24a3 3 0 01-3 3H6a3 3 0 01-3-3V14a3 3 0 013-3h9.5c.344 0 .66-.18.844-.469l1.875-2.969.031-.03c.25-.352.54-.532.844-.532zM10 13c-1.645 0-3 1.355-3 3s1.355 3 3 3 3-1.355 3-3-1.355-3-3-3zm0 2c.555 0 1 .445 1 1 0 .555-.445 1-1 1-.555 0-1-.445-1-1 0-.555.445-1 1-1zm15 0c-6.063 0-11 4.938-11 11 0 6.063 4.938 11 11 11 6.063 0 11-4.938 11-11 0-6.063-4.938-11-11-11zm0 2c4.98 0 9 4.02 9 9s-4.02 9-9 9-9-4.02-9-9 4.02-9 9-9z" fill="#fff"/></svg>