<svg width="50" height="50" fill="none" xmlns="http://www.w3.org/2000/svg"><path d="M11 4c-3.855 0-7 3.145-7 7v28c0 3.855 3.145 7 7 7h28c3.855 0 7-3.145 7-7V11c0-3.855-3.145-7-7-7H11zm0 2h28c2.773 0 5 2.227 5 5v28c0 2.773-2.227 5-5 5H11c-2.773 0-5-2.227-5-5V11c0-2.773 2.227-5 5-5z" fill="#fff"/><path fill-rule="evenodd" clip-rule="evenodd" d="M38.906 17.617L23.257 36.061l-10.411-9.186 3.308-3.75 6.589 5.814 12.35-14.556 3.813 3.234z" fill="#3B9281"/><path fill-rule="evenodd" clip-rule="evenodd" d="M34.978 12.973l5.338 4.529L23.36 37.485 11.435 26.963l4.63-5.25 6.575 5.802 12.338-14.542zm.231 2.819L22.846 30.363l-6.604-5.826-1.985 2.25 8.897 7.85 14.343-16.904-2.288-1.941z" fill="#fff"/></svg>