<svg width="50" height="50" fill="none" xmlns="http://www.w3.org/2000/svg"><path fill-rule="evenodd" clip-rule="evenodd" d="M17.96 3.85a.35.35 0 00-.35.35v9.813c0 .193.157.35.35.35h6.48a.05.05 0 01.05.05v8.11a.05.05 0 01-.05.05H9.36a.35.35 0 00-.35.35v10.664a.05.05 0 01-.05.05H4.2a.35.35 0 00-.35.35V43.8c0 .193.157.35.35.35h11.64a.35.35 0 00.35-.35v-9.813a.35.35 0 00-.35-.35h-4.76a.05.05 0 01-.05-.05v-8.962a.05.05 0 01.05-.05h13.36a.05.05 0 01.05.05v8.962a.05.05 0 01-.05.05h-4.76a.35.35 0 00-.35.35V43.8c0 .193.157.35.35.35h11.64a.35.35 0 00.35-.35v-9.813a.35.35 0 00-.35-.35h-4.76a.05.05 0 01-.05-.05v-8.962a.05.05 0 01.05-.05h13.36a.05.05 0 01.05.05v8.962a.05.05 0 01-.05.05h-4.76a.35.35 0 00-.35.35V43.8c0 .193.157.35.35.35H46.8a.35.35 0 00.35-.35v-9.813a.35.35 0 00-.35-.35h-4.76a.05.05 0 01-.05-.05V22.923a.35.35 0 00-.35-.35H26.56a.05.05 0 01-.05-.05v-8.11a.05.05 0 01.05-.05h6.48a.35.35 0 00.35-.35V4.2a.35.35 0 00-.35-.35H17.96zm1.67 2.052a.05.05 0 01.05-.05h11.64a.05.05 0 01.05.05v6.409a.05.05 0 01-.05.05h-5.606c-.003 0-.009 0-.017-.003a.96.96 0 00-.268-.025.296.296 0 00-.068.011.776.776 0 00-.038.013.06.06 0 01-.02.004H19.68a.05.05 0 01-.05-.05V5.902zM5.87 35.69a.05.05 0 01.05-.05h8.2a.05.05 0 01.05.05v6.409a.05.05 0 01-.05.05h-8.2a.05.05 0 01-.05-.05V35.69zm15.48 0a.05.05 0 01.05-.05h8.2a.05.05 0 01.05.05v6.409a.05.05 0 01-.05.05h-8.2a.05.05 0 01-.05-.05V35.69zm15.48 0a.05.05 0 01.05-.05h8.2a.05.05 0 01.05.05v6.409a.05.05 0 01-.05.05h-8.2a.05.05 0 01-.05-.05V35.69z" fill="#fff"/><path d="M50 11.5C50 17.851 44.851 23 38.5 23S27 17.851 27 11.5 32.149 0 38.5 0 50 5.149 50 11.5z" fill="#E75F63"/><path fill-rule="evenodd" clip-rule="evenodd" d="M38.5 21.576c5.565 0 10.076-4.511 10.076-10.076S44.065 1.424 38.5 1.424 28.424 5.935 28.424 11.5 32.935 21.576 38.5 21.576zm0 1.424C44.851 23 50 17.851 50 11.5S44.851 0 38.5 0 27 5.149 27 11.5 32.149 23 38.5 23z" fill="#fff"/><path d="M41.826 10.1c0-3.63-2.951-4.595-4.668-4.624-3.626 0-4.668 2.912-4.668 4.625 0 .77-.38 3.61 2.817 6.166 2.893 2.312 6.877.904 7.843-.038.773-.754 1.042-.388 1.444-.171.318.171.648.685.97.428.292-.233-.68-1.76-.68-1.76l-.965-1.37c-.407-.515-.814-1.029-1.051-.857-.283.204-.161.514 0 1.027.16.514.165 1.2-1.042 1.456-1.207.257-.789-1.208-.724-1.456.156-.6.724-2.055.724-3.425z" fill="#fff"/><g clip-path="url(#clip0_2104_3608)"><path d="M31 48V31h17v17H31zm10.098-2.98c.016.034.027.058.04.081.219.402.514.736.892.995.454.31.96.475 1.505.534a3.78 3.78 0 001.603-.145c.989-.322 1.527-1.084 1.513-2.126-.01-.773-.328-1.378-.96-1.82a5.902 5.902 0 00-.976-.536c-.326-.147-.657-.284-.978-.441a1.625 1.625 0 01-.394-.276c-.295-.28-.291-.972.298-1.136.42-.116.796-.019 1.084.328.079.094.144.2.222.308l1.233-.791c-.005-.016-.007-.026-.012-.035-.265-.46-.611-.836-1.11-1.042-.602-.248-1.227-.273-1.854-.123-.618.149-1.103.489-1.403 1.063-.192.368-.246.764-.218 1.174.032.47.178.895.486 1.258.286.337.648.574 1.042.76.396.189.803.355 1.2.542.161.076.32.169.46.278.25.19.326.457.254.757-.067.281-.272.447-.535.524-.659.193-1.253.078-1.742-.428-.13-.134-.236-.292-.36-.448l-1.29.746zm-5.641.173c.265.552.647.98 1.205 1.222.728.316 1.476.326 2.222.073.575-.194.964-.593 1.18-1.16.135-.358.176-.731.176-1.11V38.9c0-.031-.003-.062-.005-.093h-1.597v.125l-.001 5.22c0 .14-.009.28-.029.418-.033.225-.11.441-.328.545-.341.163-.688.165-1.013-.052-.168-.111-.276-.278-.38-.446-.042-.068-.082-.138-.127-.213l-1.303.788z" fill="#fff"/><path d="M31 48V31h17v17H31zm10.098-2.98c.016.034.027.058.04.081.219.402.514.736.892.995.454.31.96.475 1.505.534a3.78 3.78 0 001.603-.145c.989-.322 1.527-1.084 1.513-2.126-.01-.773-.328-1.378-.96-1.82a5.902 5.902 0 00-.976-.536c-.326-.147-.657-.284-.978-.441a1.625 1.625 0 01-.394-.276c-.295-.28-.291-.972.298-1.136.42-.116.796-.019 1.084.328.079.094.144.2.222.308l1.233-.791c-.005-.016-.007-.026-.012-.035-.265-.46-.611-.836-1.11-1.042-.602-.248-1.227-.273-1.854-.123-.618.149-1.103.489-1.403 1.063-.192.368-.246.764-.218 1.174.032.47.178.895.486 1.258.286.337.648.574 1.042.76.396.189.803.355 1.2.542.161.076.32.169.46.278.25.19.326.457.254.757-.067.281-.272.447-.535.524-.659.193-1.253.078-1.742-.428-.13-.134-.236-.292-.36-.448l-1.29.746zm-5.641.173c.265.552.647.98 1.205 1.222.728.316 1.476.326 2.222.073.575-.194.964-.593 1.18-1.16.135-.358.176-.731.176-1.11V38.9c0-.031-.003-.062-.005-.093h-1.597v.125l-.001 5.22c0 .14-.009.28-.029.418-.033.225-.11.441-.328.545-.341.163-.688.165-1.013-.052-.168-.111-.276-.278-.38-.446-.042-.068-.082-.138-.127-.213l-1.303.788z" fill="#C89000"/><path d="M41.098 45.02l1.29-.745c.124.156.23.314.36.448.489.506 1.083.62 1.742.428.262-.077.467-.243.535-.524.072-.3-.004-.566-.253-.757a2.553 2.553 0 00-.462-.278c-.396-.187-.803-.353-1.199-.541-.394-.187-.756-.424-1.042-.762-.308-.362-.454-.787-.486-1.257-.029-.41.026-.806.218-1.174.3-.574.785-.914 1.403-1.063.627-.15 1.251-.125 1.853.123.5.206.846.582 1.11 1.042.006.009.007.02.013.035l-1.233.791c-.078-.108-.143-.214-.222-.309-.288-.346-.664-.443-1.084-.327-.59.164-.593.857-.298 1.136.115.11.252.206.394.276.321.157.652.294.978.44.34.153.67.322.975.536.633.443.95 1.048.96 1.822.014 1.04-.523 1.803-1.512 2.125a3.791 3.791 0 01-1.603.145 3.226 3.226 0 01-1.505-.534 2.828 2.828 0 01-.893-.995c-.013-.023-.023-.047-.039-.08zm-5.641.173l1.303-.788.128.213c.103.168.211.335.379.446.325.217.672.215 1.013.052.218-.104.295-.32.328-.545.02-.138.029-.279.029-.418.002-1.74 0-3.48 0-5.22v-.125h1.598c.002.03.005.062.005.093v5.317c0 .379-.04.752-.177 1.11-.215.567-.604.965-1.179 1.16-.746.253-1.494.243-2.222-.073-.558-.242-.94-.67-1.205-1.222z" fill="#fff"/></g><path stroke="#fff" stroke-width="1.7" d="M30.15 30.15h18.7v18.7h-18.7z"/><defs><clipPath id="clip0_2104_3608"><path fill="#fff" d="M31 31h17v17H31z"/></clipPath></defs></svg>