<svg width="50" height="50" fill="none" xmlns="http://www.w3.org/2000/svg"><path fill-rule="evenodd" clip-rule="evenodd" d="M47 8.7H3A1.3 1.3 0 001.7 10v30A1.3 1.3 0 003 41.3h44a1.3 1.3 0 001.3-1.3V10A1.3 1.3 0 0047 8.7zM3 7a3 3 0 00-3 3v30a3 3 0 003 3h44a3 3 0 003-3V10a3 3 0 00-3-3H3z" fill="#fff"/><path d="M38.867 25.823V19a1 1 0 00-1-1h-1.734a1 1 0 00-1 1v6.823h-2.488c-.922 0-1.353 1.14-.662 1.75l4.355 3.843a1 1 0 001.324 0l4.355-3.843c.69-.61.26-1.75-.662-1.75h-2.488z" fill="#E75F63"/><path fill-rule="evenodd" clip-rule="evenodd" d="M36.133 18.85a.15.15 0 00-.15.15v7.674h-3.338a.138.138 0 00-.088.023.161.161 0 00-.053.073.16.16 0 00-.008.09.135.135 0 00.05.076l4.355 3.843a.15.15 0 00.198 0l4.355-3.843a.138.138 0 00.05-.076.16.16 0 00-.008-.09.161.161 0 00-.053-.073.138.138 0 00-.088-.023h-3.338V19a.15.15 0 00-.15-.15h-1.734zm-1.85.15a1.85 1.85 0 011.85-1.85h1.734a1.85 1.85 0 011.85 1.85v5.974h1.638c1.705 0 2.502 2.109 1.224 3.237l-4.355 3.843a1.85 1.85 0 01-2.448 0l-4.355-3.843c-1.278-1.128-.48-3.237 1.224-3.237h1.638V19z" fill="#fff"/><path d="M9 32h1.778a1 1 0 001-1v-4.742c0-.944 1.187-1.362 1.779-.627l2.164 2.69a1 1 0 001.558 0l2.164-2.69c.592-.735 1.78-.317 1.78.627V31a1 1 0 001 1H24a1 1 0 001-1V19a1 1 0 00-1-1h-2.323a1 1 0 00-.754.343l-3.67 4.211a1 1 0 01-1.507 0l-3.67-4.21a1 1 0 00-.753-.344H9a1 1 0 00-1 1v12a1 1 0 001 1z" fill="#E75F63"/><path fill-rule="evenodd" clip-rule="evenodd" d="M9 18.85a.15.15 0 00-.15.15v12c0 .083.067.15.15.15h1.778a.15.15 0 00.15-.15v-4.742c0-1.746 2.197-2.52 3.291-1.16l2.164 2.69a.15.15 0 00.234 0l2.164-2.69c1.094-1.36 3.291-.586 3.291 1.16V31c0 .083.067.15.15.15H24a.15.15 0 00.15-.15V19a.15.15 0 00-.15-.15h-2.323a.15.15 0 00-.113.051l-3.67 4.212a1.85 1.85 0 01-2.789 0l-3.67-4.212a.15.15 0 00-.112-.051H9zM7.15 19A1.85 1.85 0 019 17.15h2.323a1.85 1.85 0 011.394.635l3.67 4.21-.641.56.64-.56a.15.15 0 00.227 0l3.67-4.21a1.85 1.85 0 011.394-.635H24A1.85 1.85 0 0125.85 19v12A1.85 1.85 0 0124 32.85h-1.778a1.85 1.85 0 01-1.85-1.85v-4.742c0-.05-.013-.075-.024-.089a.163.163 0 00-.076-.052.163.163 0 00-.092-.007.145.145 0 00-.075.054l-2.163 2.69a1.85 1.85 0 01-2.884 0l-2.163-2.69c-.032-.04-.058-.05-.075-.054a.163.163 0 00-.092.007.163.163 0 00-.076.052.144.144 0 00-.024.09V31a1.85 1.85 0 01-1.85 1.85H9A1.85 1.85 0 017.15 31V19z" fill="#fff"/></svg>