<svg width="50" height="50" fill="none" xmlns="http://www.w3.org/2000/svg"><rect x="5" y="23" width="5" height="15" rx="2.5" fill="#4A6BB7"/><rect x="25" y="22" width="5" height="16" rx="2.5" fill="#4A6BB7"/><rect x="15" y="13" width="5" height="25" rx="2.5" fill="#4A6BB7"/><rect x="34" y="13" width="5" height="25" rx="2.5" fill="#4A6BB7"/><path fill-rule="evenodd" clip-rule="evenodd" d="M4 25.579C4 23.602 5.567 22 7.5 22s3.5 1.602 3.5 3.579v9.842C11 37.398 9.433 39 7.5 39S4 37.398 4 35.421V25.58zm3.5-1.79c-.966 0-1.75.802-1.75 1.79v9.842c0 .988.784 1.79 1.75 1.79s1.75-.802 1.75-1.79V25.58c0-.988-.784-1.79-1.75-1.79zM4 16.5a3.5 3.5 0 117 0 3.5 3.5 0 01-7 0zm3.5-1.75a1.75 1.75 0 100 3.5 1.75 1.75 0 000-3.5zM4 7.5a3.5 3.5 0 117 0 3.5 3.5 0 01-7 0zm3.5-1.75a1.75 1.75 0 100 3.5 1.75 1.75 0 000-3.5zM14 7.5a3.5 3.5 0 117 0 3.5 3.5 0 01-7 0zm3.5-1.75a1.75 1.75 0 100 3.5 1.75 1.75 0 000-3.5zM24 7.5a3.5 3.5 0 117 0 3.5 3.5 0 01-7 0zm3.5-1.75a1.75 1.75 0 100 3.5 1.75 1.75 0 000-3.5zM33 7.5a3.5 3.5 0 117 0 3.5 3.5 0 01-7 0zm3.5-1.75a1.75 1.75 0 100 3.5 1.75 1.75 0 000-3.5zM24 16.5a3.5 3.5 0 117 0 3.5 3.5 0 01-7 0zm3.5-1.75a1.75 1.75 0 100 3.5 1.75 1.75 0 000-3.5zM14 15.6c0-1.988 1.567-3.6 3.5-3.6s3.5 1.612 3.5 3.6v19.8c0 1.988-1.567 3.6-3.5 3.6S14 37.388 14 35.4V15.6zm3.5-1.8c-.966 0-1.75.806-1.75 1.8v19.8c0 .994.784 1.8 1.75 1.8s1.75-.806 1.75-1.8V15.6c0-.994-.784-1.8-1.75-1.8zM24 24.6c0-1.988 1.567-3.6 3.5-3.6s3.5 1.612 3.5 3.6v10.8c0 1.988-1.567 3.6-3.5 3.6S24 37.388 24 35.4V24.6zm3.5-1.8c-.966 0-1.75.806-1.75 1.8v10.8c0 .994.784 1.8 1.75 1.8s1.75-.806 1.75-1.8V24.6c0-.994-.784-1.8-1.75-1.8zm5.5-7.2c0-1.988 1.567-3.6 3.5-3.6s3.5 1.612 3.5 3.6v19.8c0 1.988-1.567 3.6-3.5 3.6S33 37.388 33 35.4V15.6zm3.5-1.8c-.967 0-1.75.806-1.75 1.8v19.8c0 .994.783 1.8 1.75 1.8s1.75-.806 1.75-1.8V15.6c0-.994-.783-1.8-1.75-1.8z" fill="#fff"/><g clip-path="url(#clip0_2104_3605)"><path d="M30 47V30h17v17H30zm10.098-2.98c.016.034.027.058.04.081.219.402.514.736.892.995.454.31.96.475 1.505.534a3.78 3.78 0 001.603-.145c.989-.322 1.527-1.084 1.513-2.126-.01-.773-.328-1.378-.96-1.82a5.902 5.902 0 00-.976-.536c-.326-.147-.657-.284-.978-.441a1.625 1.625 0 01-.394-.276c-.295-.28-.291-.972.298-1.136.42-.116.796-.019 1.084.328.079.094.144.2.222.308l1.233-.791c-.005-.016-.007-.026-.012-.035-.265-.46-.611-.836-1.11-1.042-.602-.248-1.227-.273-1.854-.123-.618.149-1.103.489-1.403 1.063-.192.368-.246.764-.218 1.174.032.47.178.895.486 1.258.286.337.648.574 1.042.76.396.189.803.355 1.2.542.161.076.32.169.46.278.25.19.326.457.254.757-.067.281-.272.447-.535.524-.659.193-1.253.078-1.742-.428-.13-.134-.236-.292-.36-.448l-1.29.746zm-5.641.173c.265.552.647.98 1.205 1.222.728.316 1.476.326 2.222.073.575-.194.964-.593 1.18-1.16.135-.358.176-.731.176-1.11V37.9c0-.031-.003-.062-.005-.093h-1.597v.125l-.001 5.22c0 .14-.009.28-.029.418-.033.225-.11.441-.328.545-.341.163-.688.165-1.013-.052-.168-.111-.276-.278-.38-.446-.042-.068-.082-.138-.127-.213l-1.303.788z" fill="#fff"/><path d="M30 47V30h17v17H30zm10.098-2.98c.016.034.027.058.04.081.219.402.514.736.892.995.454.31.96.475 1.505.534a3.78 3.78 0 001.603-.145c.989-.322 1.527-1.084 1.513-2.126-.01-.773-.328-1.378-.96-1.82a5.902 5.902 0 00-.976-.536c-.326-.147-.657-.284-.978-.441a1.625 1.625 0 01-.394-.276c-.295-.28-.291-.972.298-1.136.42-.116.796-.019 1.084.328.079.094.144.2.222.308l1.233-.791c-.005-.016-.007-.026-.012-.035-.265-.46-.611-.836-1.11-1.042-.602-.248-1.227-.273-1.854-.123-.618.149-1.103.489-1.403 1.063-.192.368-.246.764-.218 1.174.032.47.178.895.486 1.258.286.337.648.574 1.042.76.396.189.803.355 1.2.542.161.076.32.169.46.278.25.19.326.457.254.757-.067.281-.272.447-.535.524-.659.193-1.253.078-1.742-.428-.13-.134-.236-.292-.36-.448l-1.29.746zm-5.641.173c.265.552.647.98 1.205 1.222.728.316 1.476.326 2.222.073.575-.194.964-.593 1.18-1.16.135-.358.176-.731.176-1.11V37.9c0-.031-.003-.062-.005-.093h-1.597v.125l-.001 5.22c0 .14-.009.28-.029.418-.033.225-.11.441-.328.545-.341.163-.688.165-1.013-.052-.168-.111-.276-.278-.38-.446-.042-.068-.082-.138-.127-.213l-1.303.788z" fill="#C89000"/><path d="M40.098 44.02l1.29-.745c.124.156.23.314.36.448.489.506 1.083.62 1.742.428.262-.077.467-.243.535-.524.072-.3-.004-.566-.253-.757a2.553 2.553 0 00-.462-.278c-.396-.187-.803-.353-1.199-.541-.394-.187-.756-.424-1.042-.762-.308-.362-.454-.787-.486-1.257-.029-.41.026-.806.218-1.174.3-.574.785-.914 1.403-1.063.627-.15 1.251-.125 1.853.123.5.206.846.582 1.11 1.042.006.009.007.02.013.035l-1.233.791c-.078-.108-.143-.214-.222-.309-.288-.346-.664-.443-1.084-.327-.59.164-.593.857-.298 1.136.115.11.252.206.394.276.321.157.652.294.978.44.34.153.67.322.975.536.633.443.95 1.048.96 1.822.014 1.04-.523 1.803-1.512 2.125a3.791 3.791 0 01-1.603.145 3.226 3.226 0 01-1.505-.534 2.828 2.828 0 01-.893-.995c-.013-.023-.023-.047-.039-.08zm-5.641.173l1.303-.788.128.213c.103.168.211.335.379.446.325.217.672.215 1.013.052.218-.104.295-.32.328-.545.02-.138.029-.279.029-.418.002-1.74 0-3.48 0-5.22v-.125h1.598c.002.03.005.062.005.093v5.317c0 .379-.04.752-.177 1.11-.215.567-.604.965-1.179 1.16-.746.253-1.494.243-2.222-.073-.558-.242-.94-.67-1.205-1.222z" fill="#fff"/></g><path stroke="#fff" stroke-width="1.7" d="M29.15 29.15h18.7v18.7h-18.7z"/><defs><clipPath id="clip0_2104_3605"><path fill="#fff" d="M30 30h17v17H30z"/></clipPath></defs></svg>