<svg width="50" height="50" fill="none" xmlns="http://www.w3.org/2000/svg"><rect x="5" y="23" width="5" height="15" rx="2.5" fill="#C89000"/><rect x="25" y="22" width="5" height="16" rx="2.5" fill="#C89000"/><rect x="15" y="13" width="5" height="25" rx="2.5" fill="#C89000"/><rect x="34" y="13" width="5" height="25" rx="2.5" fill="#C89000"/><path fill-rule="evenodd" clip-rule="evenodd" d="M4 25.579C4 23.602 5.567 22 7.5 22s3.5 1.602 3.5 3.579v9.842C11 37.398 9.433 39 7.5 39S4 37.398 4 35.421V25.58zm3.5-1.79c-.966 0-1.75.802-1.75 1.79v9.842c0 .988.784 1.79 1.75 1.79s1.75-.802 1.75-1.79V25.58c0-.988-.784-1.79-1.75-1.79zM4 16.5a3.5 3.5 0 117 0 3.5 3.5 0 01-7 0zm3.5-1.75a1.75 1.75 0 100 3.5 1.75 1.75 0 000-3.5zM4 7.5a3.5 3.5 0 117 0 3.5 3.5 0 01-7 0zm3.5-1.75a1.75 1.75 0 100 3.5 1.75 1.75 0 000-3.5zM14 7.5a3.5 3.5 0 117 0 3.5 3.5 0 01-7 0zm3.5-1.75a1.75 1.75 0 100 3.5 1.75 1.75 0 000-3.5zM24 7.5a3.5 3.5 0 117 0 3.5 3.5 0 01-7 0zm3.5-1.75a1.75 1.75 0 100 3.5 1.75 1.75 0 000-3.5zM33 7.5a3.5 3.5 0 117 0 3.5 3.5 0 01-7 0zm3.5-1.75a1.75 1.75 0 100 3.5 1.75 1.75 0 000-3.5zM24 16.5a3.5 3.5 0 117 0 3.5 3.5 0 01-7 0zm3.5-1.75a1.75 1.75 0 100 3.5 1.75 1.75 0 000-3.5zM14 15.6c0-1.988 1.567-3.6 3.5-3.6s3.5 1.612 3.5 3.6v19.8c0 1.988-1.567 3.6-3.5 3.6S14 37.388 14 35.4V15.6zm3.5-1.8c-.966 0-1.75.806-1.75 1.8v19.8c0 .994.784 1.8 1.75 1.8s1.75-.806 1.75-1.8V15.6c0-.994-.784-1.8-1.75-1.8zM24 24.6c0-1.988 1.567-3.6 3.5-3.6s3.5 1.612 3.5 3.6v10.8c0 1.988-1.567 3.6-3.5 3.6S24 37.388 24 35.4V24.6zm3.5-1.8c-.966 0-1.75.806-1.75 1.8v10.8c0 .994.784 1.8 1.75 1.8s1.75-.806 1.75-1.8V24.6c0-.994-.784-1.8-1.75-1.8zm5.5-7.2c0-1.988 1.567-3.6 3.5-3.6s3.5 1.612 3.5 3.6v19.8c0 1.988-1.567 3.6-3.5 3.6S33 37.388 33 35.4V15.6zm3.5-1.8c-.967 0-1.75.806-1.75 1.8v19.8c0 .994.783 1.8 1.75 1.8s1.75-.806 1.75-1.8V15.6c0-.994-.783-1.8-1.75-1.8z" fill="#fff"/><path d="M50 36.5C50 43.956 43.956 50 36.5 50S23 43.956 23 36.5 29.044 23 36.5 23 50 29.044 50 36.5z" fill="#404258"/><path fill-rule="evenodd" clip-rule="evenodd" d="M36.5 48.3c6.517 0 11.8-5.283 11.8-11.8s-5.283-11.8-11.8-11.8-11.8 5.283-11.8 11.8 5.283 11.8 11.8 11.8zm0 1.7C43.956 50 50 43.956 50 36.5S43.956 23 36.5 23 23 29.044 23 36.5 29.044 50 36.5 50z" fill="#fff"/><path d="M46.76 37.639c-.052.293-.092.59-.16.88-.181.774-.49 1.484-1.071 2.042-.417.4-.907.637-1.487.648-2.65.05-5.3.028-7.95.032-.264 0-.366.154-.28.414.028.084.09.061.143.062h1.08c1.344 0 2.689.003 4.033-.003.16 0 .204.044.204.207-.002.824-.014 1.646-.096 2.468-.036.366-.246.53-.517.682-.722.405-1.505.623-2.311.765a10.26 10.26 0 01-2.208.156c-.806-.033-1.595-.158-2.348-.473-.815-.343-1.26-.976-1.419-1.839-.32-1.736-.266-3.456.22-5.156a3.94 3.94 0 01.412-.924c.254-.428.662-.598 1.11-.703.728-.168 1.464-.173 2.206-.141.841.035 1.683.094 2.526.058.508-.022 1.01-.09 1.487-.285.853-.349 1.288-1.04 1.486-1.915.18-.79.289-1.591.348-2.4.014-.18.062-.235.248-.232 1.839.037 3.385 1.194 3.993 3.002.158.47.278.95.316 1.447.003.037.023.073.035.108v1.1z" fill="#C89000"/><path d="M27 35.323c.052-.288.092-.578.159-.862.178-.764.49-1.458 1.068-2 .451-.422.984-.657 1.6-.67 2.573-.053 5.145-.026 7.717-.034.086 0 .22.05.249-.036.04-.117.015-.258.01-.388-.001-.053-.051-.049-.089-.05h-.154c-1.666 0-3.331-.003-4.997.003-.16.001-.203-.042-.2-.204.008-.785.004-1.568.072-2.352.034-.397.21-.634.544-.813.724-.388 1.498-.61 2.296-.752.73-.13 1.467-.188 2.207-.157.805.034 1.594.157 2.348.47.867.359 1.288 1.046 1.45 1.95.2 1.128.211 2.259.087 3.396a8.595 8.595 0 01-.455 2.014c-.28.77-.802 1.19-1.597 1.311-.646.099-1.29.124-1.94.098-.873-.035-1.747-.098-2.622-.06a4.61 4.61 0 00-1.304.228c-.798.274-1.3.834-1.548 1.642-.243.795-.35 1.617-.464 2.437l-.031.213c-.043.313-.044.324-.344.303-1.332-.09-2.373-.705-3.12-1.824-.526-.789-.806-1.67-.904-2.615-.006-.05-.025-.1-.038-.15v-1.099z" fill="#4A6BB7"/><path d="M45.078 40.093h0c.46-.441.724-1.02.89-1.723.041-.179.069-.347.1-.537l.042-.251v-.926a.81.81 0 01-.033-.177l.648-.048m-1.647 3.662l-2.624-5.336a16.45 16.45 0 00.329-2.098c1.384.168 2.528 1.102 3.01 2.532.147.44.25.863.284 1.29l.648-.05m-1.647 3.662c-.318.305-.658.459-1.048.466-1.93.037-3.859.035-5.794.033-.714-.001-1.428-.002-2.145 0l8.987-.5zm1.647-3.662a5.977 5.977 0 00-.316-1.447l.351 1.555-.005-.013a.824.824 0 00-.008-.02.245.245 0 01-.022-.075zm-10.559 8.912a9.611 9.611 0 002.069-.148h0c.767-.135 1.471-.335 2.107-.691h0a.664.664 0 00.17-.117.032.032 0 00.007-.01.187.187 0 00.01-.052h0c.064-.645.084-1.294.09-1.96a706.908 706.908 0 01-3.584.003h-.239a143.793 143.793 0 01-.847 0h0a.72.72 0 01-.753-.506v-.001l.616-.206.354 3.688zm0 0c-.758-.032-1.464-.148-2.123-.424-.584-.245-.905-.677-1.03-1.357h0c-.305-1.645-.251-3.262.205-4.86h0a3.27 3.27 0 01.346-.77c.117-.199.308-.31.699-.401m1.903 7.812l-1.903-7.812m6.038-2.915c-.108.296-.248.488-.406.617-.158.13-.373.227-.678.274h0a9.452 9.452 0 01-1.816.09h0l-.553-.024c-.686-.032-1.408-.066-2.124-.035l5.577-.922zm0 0c.217-.598.35-1.217.42-1.863m-.42 1.863l.42-1.863m-3.197-.346c-.775.002-1.548.002-2.32 0-1.791 0-3.575-.003-5.363.034h0c-.443.009-.825.172-1.17.494l8.853-.528zm0 0h.007l.004.001c.02.003.076.01.133.012a.804.804 0 00.332-.056.716.716 0 00.408-.432v-.001a1.18 1.18 0 00.056-.417c-.001-.048-.004-.094-.006-.125v-.002a2.233 2.233 0 01-.005-.075s0 0 0 0l-.65.021m-.279 1.074l-4.239-3.917a.416.416 0 00-.154.119c-.014.02-.039.065-.049.177h0c-.052.61-.06 1.216-.066 1.849 1.159-.003 2.317-.003 3.474-.003h1.096c.04 0 .09 0 .139.002h.004l-.011.487h0l-.004.162m.09.05c-.002-.049-.044-.05-.08-.05h-.01m.09.05c0 .031.003.063.005.096h0c.007.1.014.203-.016.292l.01-.388zm-.09-.05h-.392a.58.58 0 01.22-.135h.002l.016-.006a.476.476 0 01.15-.02h.007l-.003.161zm-3.451 6.248c.639-.149 1.303-.157 2.03-.126h0l.484.023c.677.032 1.39.066 2.097.035h0c.543-.023 1.131-.097 1.706-.332 1.107-.453 1.644-1.359 1.874-2.373l-8.191 2.773zm3.192-9.873h0a9.472 9.472 0 00-2.065.147l2.065-.147zm0 0c.758.031 1.465.146 2.126.42h0m-2.126-.42l2.126.42m0 0c.61.253.925.717 1.058 1.463.188 1.059.2 2.126.082 3.212h0m-1.14-4.675l1.14 4.675m1.69-.52l-.008.399h-.007l.015-.4zm-5.062 4.663c.498.02.997.012 1.5-.035 0 0 0 0 0 0a8.51 8.51 0 00.564-.07l-2.064.105zm-2.625-1.358a5.25 5.25 0 00-1.487.262c-1.01.348-1.655 1.078-1.958 2.067h0c-.244.801-.358 1.623-.465 2.386l-.01.077c-.979-.14-1.742-.636-2.321-1.504-.459-.688-.71-1.465-.799-2.322v-.002a1.057 1.057 0 00-.034-.173v0-.948 0l.042-.246c.031-.186.059-.351.1-.526h0c.16-.686.425-1.247.88-1.673l6.052 2.602zm-2.17-4.901h.003-.003zm.458.456v.003-.003zm-2.02 9.338l.108.016h0l.337.047-.337-.048h0l-.108-.015h0zm10.083 1.933h-.003.003zm-.453-.447a.01.01 0 010-.003v.003zM33.285 28.49c.645-.345 1.348-.55 2.105-.685l-2.105.685z" stroke="#fff" stroke-width="1.3"/></svg>