<svg width="50" height="50" fill="none" xmlns="http://www.w3.org/2000/svg"><circle cx="28.5" cy="40.5" r="2.5" fill="#4A6BB7"/><circle cx="16.5" cy="31.5" r="2.5" fill="#4A6BB7"/><circle cx="4.5" cy="45.5" r="2.5" fill="#4A6BB7"/><path d="M27.579 5C21.21 5 16 10.167 16 16.482c0 6.314 5.21 11.481 11.579 11.481 6.368 0 11.579-5.167 11.579-11.482C39.158 10.168 33.948 5 27.578 5zm0 2.296c5.095 0 9.263 4.134 9.263 9.186 0 5.051-4.168 9.185-9.263 9.185s-9.263-4.134-9.263-9.186c0-5.051 4.168-9.185 9.263-9.185z" fill="#fff"/><path d="M25.5 20v-7l6.5 3.5-6.5 3.5z" fill="#4A6BB7"/><path fill-rule="evenodd" clip-rule="evenodd" d="M30.158 16.463l-3.75-2.165v4.33l3.75-2.165zm2.5.866a1 1 0 000-1.732l-6.75-3.897a1 1 0 00-1.5.866v7.794a1 1 0 001.5.866l6.75-3.897zm14.999 2.499a1 1 0 011 1v5.657a1 1 0 11-2 0v-3.163L31.73 39.152a3.5 3.5 0 11-6.605.416l-6.33-5.426A3.487 3.487 0 0116.5 35c-.454 0-.887-.086-1.286-.244l-7.853 8.727a3.5 3.5 0 11-1.575-1.24l7.853-8.726a3.5 3.5 0 116.235-1.085l6.33 5.426A3.487 3.487 0 0128.5 37c.722 0 1.394.219 1.951.594l14.865-15.766H42a1 1 0 010-2h5.657zM16.5 33a1.5 1.5 0 100-3 1.5 1.5 0 000 3zm-12 14a1.5 1.5 0 100-3 1.5 1.5 0 000 3zM30 40.5a1.5 1.5 0 11-3 0 1.5 1.5 0 013 0z" fill="#fff"/></svg>