<svg width="50" height="50" fill="none" xmlns="http://www.w3.org/2000/svg"><g clip-path="url(#clip0_2104_3509)"><path d="M4 4v42h42v-2H6V4H4zm9 2a1 1 0 100 2 1 1 0 000-2zm10 0a1 1 0 100 2 1 1 0 000-2zm10 0a1 1 0 100 2 1 1 0 000-2zm10 0a1 1 0 100 2 1 1 0 000-2zm1.98 7.99a1 1 0 00-.687.303L33 25.586l-9.293-9.293a1 1 0 00-1.414 0l-14 14a1 1 0 101.414 1.414L23 18.414l9.293 9.293a1 1 0 001.414 0l12-12a1 1 0 00-.727-1.717zM13 16a1 1 0 100 2 1 1 0 000-2zm20 0a1 1 0 100 2 1 1 0 000-2zM23 26a1 1 0 100 2 1 1 0 000-2zm20 0a1 1 0 100 2 1 1 0 000-2zM13 36a1 1 0 100 2 1 1 0 000-2zm10 0a1 1 0 100 2 1 1 0 000-2zm10 0a1 1 0 100 2 1 1 0 000-2zm10 0a1 1 0 100 2 1 1 0 000-2z" fill="#fff"/><path d="M45.891 13.194a1 1 0 011.129 1.128l-1.229 8.8a1 1 0 01-1.697.568l-7.57-7.57a1 1 0 01.568-1.698l8.799-1.229z" fill="#E75F63"/><path fill-rule="evenodd" clip-rule="evenodd" d="M44.856 15.357l-5.499.768 4.731 4.73.768-5.498zm2.164-1.035a1 1 0 00-1.129-1.128l-8.799 1.228a1 1 0 00-.569 1.697l7.57 7.571a1 1 0 001.698-.569l1.229-8.799z" fill="#fff"/></g><defs><clipPath id="clip0_2104_3509"><path fill="#fff" d="M0 0h50v50H0z"/></clipPath></defs></svg>