<svg width="50" height="50" fill="none" xmlns="http://www.w3.org/2000/svg"><path d="M25 2C12.309 2 2 12.309 2 25s10.309 23 23 23 23-10.309 23-23S37.691 2 25 2zm0 2c11.61 0 21 9.39 21 21s-9.39 21-21 21S4 36.61 4 25 13.39 4 25 4zm0 12c-4.957 0-9 4.043-9 9s4.043 9 9 9 9-4.043 9-9-4.043-9-9-9zm0 2c3.879 0 7 3.121 7 7s-3.121 7-7 7-7-3.121-7-7 3.121-7 7-7z" fill="#fff"/><path d="M41 25c0 8.837-7.163 16-16 16S9 33.837 9 25 16.163 9 25 9s16 7.163 16 16z" fill="#3B9281"/><path fill-rule="evenodd" clip-rule="evenodd" d="M25 39c7.732 0 14-6.268 14-14s-6.268-14-14-14-14 6.268-14 14 6.268 14 14 14zm0 2c8.837 0 16-7.163 16-16S33.837 9 25 9 9 16.163 9 25s7.163 16 16 16z" fill="#fff"/></svg>