<svg xmlns="http://www.w3.org/2000/svg" viewBox="0 0 536 185"><path fill="none" d="M0 0h536v185H0z"/><g fill="#243674"><path d="M120.66 117.07c-5.53 4.77-10.82 9.7-16.49 14.15-9.26 7.27-18.98 13.9-29.87 18.55-4.56 1.95-9.22 3.81-14 5.07-5.29 1.39-10.82 1.54-15.85-1.09-5.38-2.81-7.12-7.9-7.16-13.62-.05-6.98 1.89-13.56 4.53-19.94 3.98-9.61 9.55-18.33 16.04-26.37 7.12-8.82 15.5-16.44 25.2-22.38 4.98-3.05 10.21-5.78 15.57-8.09 2.94-1.27 6.36-1.68 9.6-1.94 6.36-.51 7.74 2.77 9.1 7.58 1.13 4.01.46 7.63-2.28 10.89-2.95 3.51-5.73 7.17-8.67 10.69a6.71 6.71 0 01-2.51 1.83c-2.8 1.19-5.54.81-6.77-.76-1.4-1.78-1.28-5.54.47-7.75s3.71-4.26 5.57-6.38c.56-.64 1.09-1.3 1.64-1.95-.09-.25-.19-.5-.28-.74-1.52.19-3.17.07-4.54.63-19.06 7.73-32.74 21.42-42.48 39.21-2.61 4.77-4.55 9.94-6.45 15.05-.79 2.13-.82 4.58-.98 6.9-.29 4.25 2.69 6.97 6.86 6.55 4.81-.49 9.72-1.6 14.21-3.37 14.07-5.54 26.27-14.28 38.17-23.43 3.19-2.45 6.12-5.23 9.07-7.98 1.5-1.39 2.73-1.9 4.09.05.21.3.64.46 1.26.88.97-2.7 1.92-5.21 2.77-7.77 2.74-8.26 5.31-16.58 8.2-24.79 1.46-4.15 3.19-8.27 5.35-12.1 1.16-2.05 3.32-3.68 5.36-5 1.04-.67 3.29-.82 4.11-.14 1.09.9 1.88 2.89 1.78 4.34-.15 2.18-1.07 4.35-1.87 6.45-3.45 9.03-6.98 18.03-10.49 27.04-3.07 7.88-6.17 15.75-9.21 23.65-.67 1.75-1.11 3.6-1.66 5.4.21.12.42.24.63.37 2.13-2.56 4.24-5.12 6.38-7.67 5.83-6.94 12-13.55 19.56-18.63 2.63-1.76 5.6-3.22 8.62-4.14 4.14-1.25 7.19 2.04 6.54 6.34-1.19 7.81-2.32 15.64-3.25 23.48-.49 4.11.23 4.97 4.19 3.95 3.9-1.01 7.9-2.56 11.2-4.83 6.61-4.57 12.87-9.68 19.07-14.8 1.94-1.61 3.28-3.96 4.85-6 5.24-6.84 12.09-11.57 19.96-14.79 2.03-.83 4.43-1.04 6.66-1.03 4.03.01 5.8 2.62 5.39 7.14-.15 1.65.28 3.35.1 4.99-.18 1.63-.5 3.36-1.26 4.77-3.75 6.9-5.88 14.31-7 22.01-.25 1.75.51 3.64.81 5.47 1.75-.64 3.78-.91 5.2-1.98 8.51-6.44 15.52-14.34 21.69-23.01.93-1.31 1.86-2.65 2.92-3.85 5.95-6.73 8.37-15.39 12.63-23.04 3.7-6.65 7.3-13.33 12.94-18.61.58-.54 1.25-1.1 1.97-1.33 1.13-.36 2.77-1.02 3.41-.53.88.66 1.48 2.33 1.37 3.5-.17 1.87-.75 3.81-1.61 5.48-4.33 8.47-8.97 16.79-13.2 25.31-5.2 10.47-9.78 21.22-12.99 32.49-.7 2.44-.92 5.04-1.18 7.58-.2 1.98 1.06 2.99 2.86 2.53 2.22-.56 4.52-1.26 6.46-2.44 7.82-4.79 14.23-11.32 21.08-17.32 5.48-4.79 7.82-11.05 10.17-17.49 3.4-9.31 6.87-18.59 10.3-27.89.59-1.59 1.24-3.17 1.63-4.81 1.15-4.79 4.55-7.25 8.87-8.76 2.22-.78 4.77.88 4.44 3.3-.43 3.14-1.39 6.27-2.56 9.22-3.71 9.37-7.6 18.68-11.49 27.98-2.58 6.17-5.3 12.27-7.94 18.41-.19.43-.28.9-.42 1.35.16.14.33.28.49.43 3.29-3.4 6.48-6.9 9.89-10.17 7.95-7.65 15.17-16.13 24.53-22.19 1.48-.96 3.67-1.34 5.46-1.17 2.69.25 3.74 2.34 2.15 4.54-2.76 3.83-5.7 7.63-9.12 10.86-6.03 5.71-12.47 10.97-18.73 16.43-2.05 1.79-2.03 2.39-.06 4.18 5.91 5.37 11.85 10.69 19.01 14.41 3.2 1.66 6.5 2.84 10.16 2.71.89-.03 1.8-.07 2.66.11 2.23.46 3.25 2.54 1.7 4.14-1.74 1.79-3.88 3.45-6.16 4.41-7.06 2.97-13.82 1.45-20.43-1.9-6.74-3.41-11.35-9.22-16.62-14.28-1.73-1.67-2.99-1.63-4.75-.2-4.02 3.28-7.14 7.11-8.9 12.1-1.12 3.2-3 6.08-5.98 8-.54.35-1.09.73-1.69.9-3.94 1.1-5.7-.34-4.57-4.23 1.55-5.32 3.62-10.49 5.46-15.73.22-.63.44-1.27.17-2.25-.53.41-1.11.76-1.57 1.24-5.82 5.97-12.1 11.39-19.21 15.75-3.28 2.01-6.66 3.73-10.73 4.04-7.49.58-10.7-6.35-9.64-11.92.79-4.19 2.01-8.29 3.02-12.44.15-.6.21-1.22.31-1.86-2.72 2.58-5.38 5.05-7.99 7.59-4.69 4.57-9.56 8.92-15.47 11.87-1.48.74-3.23 1.36-4.84 1.32-5.66-.12-7.07-2.63-7.64-8.48-.08-.85.09-1.72-.35-2.98-.71.62-1.51 1.16-2.13 1.86-4.3 4.85-8.98 9.24-14.57 12.61-5.65 3.4-11.16 2.63-13.38-2.62-1.03-2.44-.63-5.66-.27-8.45.29-2.26 1.46-4.41 2.38-6.99-.69.29-1.16.42-1.56.67-5.6 3.45-10.96 7.41-16.87 10.22-3.76 1.79-8.19 3.17-12.65 1.09-2.79-1.3-4.49-3.45-4.32-6.4.33-5.71 1.03-11.39 1.67-17.08.21-1.84.76-3.64 1.02-5.47.09-.63-.24-1.31-.38-1.97-.65.21-1.45.23-1.91.65-4.06 3.68-8.36 7.16-11.99 11.23-6.71 7.5-13.04 15.35-19.48 23.1-1.59 1.92-2.85 4.13-4.49 5.99-1.25 1.42-2.73 2.77-4.37 3.69-2.8 1.56-5.47-.26-5.78-3.46-.38-3.79 1.56-6.87 2.79-10.16 2.95-7.92 6.01-15.8 8.99-23.7.26-.69.25-1.48.34-2.06zm106.46-14.92c-.84-.42-1.62-1.17-2.28-1.06-1.13.18-2.46.62-3.22 1.41-3.33 3.47-6.72 6.92-9.64 10.73-5.17 6.74-9.53 14.01-12.57 21.98-.37.98.05 2.26.11 3.4.95-.24 1.93-.41 2.84-.76.58-.22 1.11-.66 1.59-1.08 9.18-7.93 16.1-17.53 21.03-28.58.78-1.75 1.29-3.63 2.14-6.05zm205.03-26.66c-2.69-.3-5.23-.41-7.69-.94-.99-.21-2.32-1.19-2.54-2.06-.23-.91.39-2.61 1.17-3.09 2.43-1.48 5.08-2.66 7.73-3.74 2-.81 4.18-1.15 6.17-1.98.82-.34 1.57-1.28 1.99-2.13 5.19-10.6 10.3-21.23 15.46-31.85 1.6-3.3 1.62-3.25 4.81-1.58 3.81 2 7.64 3.98 11.48 5.92 1.79.9 1.86 2.14 1.03 3.76-2.49 4.91-4.93 9.85-7.38 14.78-.13.27-.2.56-.31.87 3.62-.85 7.43-1.08 10.58-2.64 4.69-2.31 9.63-2.85 14.58-3.51 2.55-.34 5.25-.02 7.82.4 2.48.4 3.09 2.85 1.46 4.79-2.24 2.67-5.51 3.14-8.56 4.13-8.17 2.65-16.33 5.34-24.5 8-1.91.62-3.8 1.37-5.76 1.75-1.91.37-2.78 1.5-3.57 3.12-7.85 15.97-15.69 31.95-23.73 47.82-1.1 2.17-3.09 4.03-5.03 5.59-2.28 1.83-4.88 3.3-7.49 4.64-1.05.54-2.69.72-3.71.27-.74-.32-.91-1.96-1.31-3.02-.05-.14 0-.32 0-.48-1-8.84 1.19-16.76 5.63-24.52 4.42-7.72 7.77-16.05 11.69-24.31z"/><path d="M387.33 151.38c-7.46.4-10.48-5.13-10.92-10.73-.41-5.26.92-10.24 2.84-15.05 3.31-8.29 6.68-16.55 10.19-24.76.8-1.88 2.03-3.71 3.46-5.17 3.64-3.71 8.9-1.32 9.38 2.18.22 1.6-.4 3.5-1.13 5.02-2.69 5.58-5.87 10.95-8.33 16.62-1.81 4.18-3.04 8.66-4.04 13.11-.42 1.85-.16 5.21.87 5.72 1.78.89 4.48.43 6.65-.07 5.88-1.36 10.27-5.56 15.34-8.49.7-.4 1.31-1.15 2.03-1.27.92-.15 2.23-.13 2.8.42.53.51.71 1.99.36 2.72-2.79 5.74-7.19 10.12-12.57 13.38-3.48 2.11-7.22 3.85-10.99 5.4-1.8.74-3.94.68-5.93.97zm-26.56-50.74c1.26-3.71 2.21-7.55 3.84-11.09 3.23-7.01 6.67-13.94 10.39-20.7 1.3-2.37 3.61-4.23 5.6-6.16 1.18-1.14 2.96-1.68 4.13-.33 1 1.15 1.98 3.06 1.73 4.39-.46 2.46-1.58 4.91-2.88 7.09-4.64 7.78-8.7 15.76-10.87 24.65-.69 2.84-1.84 5.7-4.6 7.44-3.47 2.19-6.13.95-6.65-3.15-.08-.64-.09-1.29-.14-1.93-.18-.07-.37-.13-.55-.2zm44.28-25.3c.55-3.68-.14-8.07 3.21-11.26 1.44-1.37 3.02-2.69 4.75-3.64 3.89-2.15 6.86 2.01 6.64 5.15-.45 6.4-5.25 12.07-11.36 13.52-2.22.53-3.34-.66-3.23-3.77z"/></g></svg>