<svg version="1.1" id="Layer_1" xmlns="http://www.w3.org/2000/svg" x="0" y="0" viewBox="0 0 536 185" xml:space="preserve"><style>.st0{fill:#fff}</style><path class="st0" d="M120.7 117.1c-5.5 4.8-10.8 9.7-16.5 14.2-9.3 7.3-19 13.9-29.9 18.6-4.6 1.9-9.2 3.8-14 5.1-5.3 1.4-10.8 1.5-15.8-1.1-5.4-2.8-7.1-7.9-7.2-13.6 0-7 1.9-13.6 4.5-19.9 4-9.6 9.6-18.3 16-26.4 7.2-9 15.5-16.6 25.3-22.5 5-3 10.2-5.8 15.6-8.1 2.9-1.3 6.4-1.7 9.6-1.9 6.4-.5 7.7 2.8 9.1 7.6 1.1 4 .5 7.6-2.3 10.9-3 3.5-5.7 7.2-8.7 10.7-.6.8-1.6 1.4-2.5 1.8-2.8 1.2-5.5.8-6.8-.8-1.4-1.8-1.3-5.5.5-7.7s3.7-4.3 5.6-6.4c.6-.6 1.1-1.3 1.6-2-.1-.2-.2-.5-.3-.7-1.5.2-3.2.1-4.5.6-19.1 7.7-32.7 21.4-42.5 39.2-2.6 4.8-4.5 9.9-6.5 15.1-.8 2.1-.8 4.6-1 6.9-.3 4.2 2.7 7 6.9 6.5 4.8-.5 9.7-1.6 14.2-3.4 14.1-5.5 26.3-14.3 38.2-23.4 3.2-2.4 6.1-5.2 9.1-8 1.5-1.4 2.7-1.9 4.1 0 .2.3.6.5 1.3.9 1-2.7 1.9-5.2 2.8-7.8 2.7-8.3 5.3-16.6 8.2-24.8 1.5-4.2 3.2-8.3 5.3-12.1 1.2-2 3.3-3.7 5.4-5 1-.7 3.3-.8 4.1-.1 1.1.9 1.9 2.9 1.8 4.3-.2 2.2-1.1 4.4-1.9 6.4l-10.5 27c-3.1 7.9-6.2 15.8-9.2 23.7-.7 1.8-1.1 3.6-1.7 5.4.2.1.4.2.6.4 2.1-2.6 4.2-5.1 6.4-7.7 5.8-6.9 12-13.6 19.6-18.6 2.6-1.8 5.6-3.2 8.6-4.1 4.1-1.3 7.2 2 6.5 6.3-1.2 7.8-2.3 15.6-3.2 23.5-.5 4.1.2 5 4.2 3.9 3.9-1 7.9-2.6 11.2-4.8 6.6-4.6 12.9-9.7 19.1-14.8 1.9-1.6 3.3-4 4.8-6 5.2-6.8 12.1-11.6 20-14.8 2-.8 4.4-1 6.7-1 4 0 5.8 2.6 5.4 7.1-.1 1.6.3 3.3.1 5-.2 1.6-.5 3.4-1.3 4.8-3.7 6.9-5.9 14.3-7 22-.3 1.7.5 3.6.8 5.5 1.7-.6 3.8-.9 5.2-2 8.5-6.4 15.5-14.3 21.7-23 .9-1.3 1.9-2.6 2.9-3.9 6-6.7 8.4-15.4 12.6-23 3.7-6.6 7.3-13.3 12.9-18.6.6-.5 1.2-1.1 2-1.3 1.1-.4 2.8-1 3.4-.5.9.7 1.5 2.3 1.4 3.5-.2 1.9-.7 3.8-1.6 5.5-4.3 8.5-9 16.8-13.2 25.3-5.2 10.5-9.8 21.2-13 32.5-.7 2.4-.9 5-1.2 7.6-.2 2 1.1 3 2.9 2.5 2.2-.6 4.5-1.3 6.5-2.4 7.8-4.8 14.2-11.3 21.1-17.3 5.5-4.8 7.8-11.1 10.2-17.5 3.4-9.3 6.9-18.6 10.3-27.9.6-1.6 1.2-3.2 1.6-4.8 1.1-4.8 4.6-7.2 8.9-8.8 2.2-.8 4.8.9 4.4 3.3-.4 3.1-1.4 6.3-2.6 9.2-3.7 9.4-7.6 18.7-11.5 28-2.6 6.2-5.3 12.3-7.9 18.4-.2.4-.3.9-.4 1.3.2.1.3.3.5.4 3.3-3.4 6.5-6.9 9.9-10.2 8-7.6 15.2-16.1 24.5-22.2 1.5-1 3.7-1.3 5.5-1.2 2.7.3 3.7 2.3 2.2 4.5-2.8 3.8-5.7 7.6-9.1 10.9-6 5.7-12.5 11-18.7 16.4-2.1 1.8-2 2.4-.1 4.2 5.9 5.4 11.8 10.7 19 14.4 3.2 1.7 6.5 2.8 10.2 2.7.9 0 1.8-.1 2.7.1 2.2.5 3.2 2.5 1.7 4.1-1.7 1.8-3.9 3.4-6.2 4.4-7.1 3-13.8 1.5-20.4-1.9-6.7-3.4-11.4-9.2-16.6-14.3-1.7-1.7-3-1.6-4.8-.2-4 3.3-7.1 7.1-8.9 12.1-1.1 3.2-3 6.1-6 8-.5.3-1.1.7-1.7.9-3.9 1.1-5.7-.3-4.6-4.2 1.5-5.3 3.6-10.5 5.5-15.7.2-.6.4-1.3.2-2.2-.5.4-1.1.8-1.6 1.2-5.8 6-12.1 11.4-19.2 15.8-3.3 2-6.7 3.7-10.7 4-7.5.6-10.7-6.3-9.6-11.9.8-4.2 2-8.3 3-12.4.1-.6.2-1.2.3-1.9-2.7 2.6-5.4 5.1-8 7.6-4.7 4.6-9.6 8.9-15.5 11.9-1.5.7-3.2 1.4-4.8 1.3-5.7-.1-7.1-2.6-7.6-8.5-.1-.8.1-1.7-.3-3-.7.6-1.5 1.2-2.1 1.9-4.3 4.9-9 9.2-14.6 12.6-5.6 3.4-11.2 2.6-13.4-2.6-1-2.4-.6-5.7-.3-8.4.3-2.3 1.5-4.4 2.4-7-.7.3-1.2.4-1.6.7-5.6 3.5-11 7.4-16.9 10.2-3.8 1.8-8.2 3.2-12.6 1.1-2.8-1.3-4.5-3.5-4.3-6.4.3-5.7 1-11.4 1.7-17.1.2-1.8.8-3.6 1-5.5.1-.6-.2-1.3-.4-2-.6.2-1.5.2-1.9.6-4.1 3.7-8.4 7.2-12 11.2-6.7 7.5-13 15.3-19.5 23.1-1.6 1.9-2.8 4.1-4.5 6-1.3 1.4-2.7 2.8-4.4 3.7-2.8 1.6-5.5-.3-5.8-3.5-.4-3.8 1.6-6.9 2.8-10.2 2.9-7.9 6-15.8 9-23.7 0-.5 0-1.2.1-1.8zm106.4-15c-.8-.4-1.6-1.2-2.3-1.1-1.1.2-2.5.6-3.2 1.4-3.3 3.5-6.7 6.9-9.6 10.7-5.2 6.7-9.5 14-12.6 22-.4 1 .1 2.3.1 3.4 1-.2 1.9-.4 2.8-.8.6-.2 1.1-.7 1.6-1.1 9.2-7.9 16.1-17.5 21-28.6.9-1.6 1.4-3.4 2.2-5.9zm205.1-26.6c-2.7-.3-5.2-.4-7.7-.9-1-.2-2.3-1.2-2.5-2.1-.2-.9.4-2.6 1.2-3.1 2.4-1.5 5.1-2.7 7.7-3.7 2-.8 4.2-1.2 6.2-2 .8-.3 1.6-1.3 2-2.1 5.2-10.6 10.3-21.2 15.5-31.8 1.6-3.3 1.6-3.3 4.8-1.6 3.8 2 7.6 4 11.5 5.9 1.8.9 1.9 2.1 1 3.8-2.5 4.9-4.9 9.8-7.4 14.8l-.3.9c3.6-.8 7.4-1.1 10.6-2.6 4.7-2.3 9.6-2.9 14.6-3.5 2.5-.3 5.2 0 7.8.4 2.5.4 3.1 2.9 1.5 4.8-2.2 2.7-5.5 3.1-8.6 4.1-8.2 2.6-16.3 5.3-24.5 8-1.9.6-3.8 1.4-5.8 1.7-1.9.4-2.8 1.5-3.6 3.1-7.8 16-15.7 31.9-23.7 47.8-1.1 2.2-3.1 4-5 5.6-2.3 1.8-4.9 3.3-7.5 4.6-1.1.5-2.7.7-3.7.3-.7-.3-.9-2-1.3-3-.1-.1 0-.3 0-.5-1-8.8 1.2-16.8 5.6-24.5 4.3-7.8 7.6-16.1 11.6-24.4z"/><path class="st0" d="M387.3 151.4c-7.5.4-10.5-5.1-10.9-10.7-.4-5.3.9-10.2 2.8-15.1 3.3-8.3 6.7-16.6 10.2-24.8.8-1.9 2-3.7 3.5-5.2 3.6-3.7 8.9-1.3 9.4 2.2.2 1.6-.4 3.5-1.1 5-2.7 5.6-5.9 10.9-8.3 16.6-1.8 4.2-3 8.7-4 13.1-.4 1.8-.2 5.2.9 5.7 1.8.9 4.5.4 6.7-.1 5.9-1.4 10.3-5.6 15.3-8.5.7-.4 1.3-1.2 2-1.3.9-.1 2.2-.1 2.8.4.5.5.7 2 .4 2.7-2.8 5.7-7.2 10.1-12.6 13.4-3.5 2.1-7.2 3.8-11 5.4-1.9 1-4.1.9-6.1 1.2zm-26.5-50.8c1.3-3.7 2.2-7.6 3.8-11.1 3.2-7 6.7-13.9 10.4-20.7 1.3-2.4 3.6-4.2 5.6-6.2 1.2-1.1 3-1.7 4.1-.3 1 1.2 2 3.1 1.7 4.4-.5 2.5-1.6 4.9-2.9 7.1-4.6 7.8-8.7 15.8-10.9 24.6-.7 2.8-1.8 5.7-4.6 7.4-3.5 2.2-6.1 1-6.7-3.1-.1-.6-.1-1.3-.1-1.9-.1 0-.2-.1-.4-.2zM405 75.3c.6-3.7-.1-8.1 3.2-11.3 1.4-1.4 3-2.7 4.7-3.6 3.9-2.1 6.9 2 6.6 5.2-.5 6.4-5.2 12.1-11.4 13.5-2.1.5-3.2-.6-3.1-3.8z"/></svg>