<svg width="52" height="52" viewBox="0 0 52 52" fill="none" xmlns="http://www.w3.org/2000/svg">
<rect width="52" height="52" rx="26" fill="#007BFF"/>
<g clip-path="url(#clip0_1928_2368)">
<path d="M33.875 28.0938H28.625V30.0625H33.875C34.2031 30.0625 34.5312 30.3906 34.5312 30.7188V34C34.5312 34.3691 34.2031 34.6562 33.875 34.6562H18.125C17.7559 34.6562 17.4688 34.3691 17.4688 34V30.7188C17.4688 30.3906 17.7559 30.0625 18.125 30.0625H23.375V28.0938H18.125C16.6484 28.0938 15.5 29.2832 15.5 30.7188V34C15.5 35.4766 16.6484 36.625 18.125 36.625H33.875C35.3105 36.625 36.5 35.4766 36.5 34V30.7188C36.5 29.2832 35.3105 28.0938 33.875 28.0938ZM21.0781 22.8848L25.0156 18.9883V30.0625C25.0156 30.6367 25.4258 31.0469 26 31.0469C26.5332 31.0469 26.9844 30.6367 26.9844 30.0625V18.9883L30.8809 22.8848C31.0449 23.0898 31.291 23.1719 31.5781 23.1719C31.8242 23.1719 32.0703 23.0898 32.2344 22.8848C32.6445 22.5156 32.6445 21.9004 32.2344 21.5312L26.6562 15.9531C26.2871 15.543 25.6719 15.543 25.3027 15.9531L19.7246 21.5312C19.3145 21.9004 19.3145 22.5156 19.7246 22.8848C20.0938 23.2949 20.709 23.2949 21.0781 22.8848ZM33.2188 32.3594C33.2188 31.8262 32.7676 31.375 32.2344 31.375C31.6602 31.375 31.25 31.8262 31.25 32.3594C31.25 32.9336 31.6602 33.3438 32.2344 33.3438C32.7676 33.3438 33.2188 32.9336 33.2188 32.3594Z" fill="white"/>
</g>
<defs>
<clipPath id="clip0_1928_2368">
<rect width="24" height="24" fill="white" transform="translate(14 14)"/>
</clipPath>
</defs>
</svg>
