<svg width="117" height="46" viewBox="0 0 117 46" fill="none" xmlns="http://www.w3.org/2000/svg">
<rect width="117" height="46" rx="23" fill="#007BFF"/>
<g clip-path="url(#clip0_1928_2172)">
<path d="M36 23.125C34.5234 23.125 33.375 24.3145 33.375 25.75C33.375 27.2266 34.5234 28.375 36 28.375C37.4355 28.375 38.625 27.2266 38.625 25.75C38.625 24.3145 37.4355 23.125 36 23.125ZM44.5723 17.957L41.127 14.5117C40.7988 14.1836 40.2656 13.9375 39.7734 13.9375H29.4375C27.9609 13.9375 26.8125 15.127 26.8125 16.5625V29.6875C26.8125 31.1641 27.9609 32.3125 29.4375 32.3125H42.5625C43.998 32.3125 45.1875 31.1641 45.1875 29.6875V19.3516C45.1875 18.8594 44.9414 18.3262 44.5723 17.957ZM32.0625 15.9062H37.9688V19.1875H32.0625V15.9062ZM43.2188 29.6875C43.2188 30.0566 42.8906 30.3438 42.5625 30.3438H29.4375C29.0684 30.3438 28.7812 30.0566 28.7812 29.6875V16.5625C28.7812 16.2344 29.0684 15.9062 29.4375 15.9062H30.0938V20.1719C30.0938 20.7461 30.5039 21.1562 31.0781 21.1562H38.9531C39.4863 21.1562 39.9375 20.7461 39.9375 20.1719V16.0703L43.1367 19.3105C43.1777 19.3516 43.2188 19.3926 43.2188 19.4746V29.6875Z" fill="white"/>
</g>
<path d="M60.7895 29.192C62.7415 29.192 64.4055 28.104 64.4055 26.008C64.4055 24.168 63.1415 23.4 61.8775 22.792L60.6455 22.216C59.7175 21.768 59.2695 21.4 59.2695 20.664C59.2695 19.8 59.9415 19.32 60.8855 19.32C61.6855 19.32 62.2935 19.656 62.9495 20.312C63.0775 20.424 63.2055 20.424 63.3175 20.28L63.9735 19.496C64.0855 19.368 64.1015 19.256 63.9735 19.128C63.1575 18.2 62.1335 17.672 60.8215 17.672C58.9975 17.672 57.5255 18.776 57.5255 20.664C57.5255 22.168 58.4695 23.016 59.6535 23.576L61.0135 24.216C61.9575 24.664 62.6615 25.048 62.6615 26.008C62.6615 26.984 61.9415 27.544 60.7735 27.544C59.7175 27.544 59.0295 27.096 58.3735 26.344C58.2615 26.232 58.1335 26.216 58.0055 26.36L57.3335 27.128C57.2215 27.256 57.2215 27.368 57.3015 27.48C57.9415 28.392 59.1095 29.192 60.7895 29.192ZM69.6511 29.192C70.9311 29.192 71.8591 28.632 72.4191 27.72L72.4511 28.76C72.4511 28.904 72.5311 29 72.6751 29H73.8431C73.9871 29 74.0671 28.904 74.0671 28.76V21.4C74.0671 21.256 73.9871 21.16 73.8431 21.16H72.6751C72.5311 21.16 72.4511 21.256 72.4511 21.4L72.4191 22.456C71.8751 21.544 70.9471 20.968 69.6511 20.968C67.4111 20.968 65.8751 22.76 65.8751 25.08C65.8751 27.416 67.4111 29.192 69.6511 29.192ZM67.5551 25.08C67.5551 23.576 68.5791 22.552 69.9871 22.552C71.3791 22.552 72.3551 23.576 72.3551 25.096C72.3551 26.6 71.3791 27.608 69.9871 27.608C68.5791 27.608 67.5551 26.6 67.5551 25.08ZM78.9646 29H80.2606C80.3886 29 80.5006 28.936 80.5486 28.808L83.4766 21.432C83.5406 21.256 83.4606 21.16 83.2846 21.16H82.0046C81.8766 21.16 81.7646 21.224 81.7166 21.352L79.6206 27.032L77.5086 21.352C77.4606 21.224 77.3646 21.16 77.2366 21.16H75.9406C75.7646 21.16 75.6846 21.256 75.7486 21.432L78.6766 28.808C78.7246 28.936 78.8366 29 78.9646 29ZM88.4116 29.192C89.5156 29.192 90.5236 28.872 91.2116 28.2C91.3396 28.072 91.3716 27.976 91.2756 27.848L90.8276 27.24C90.7636 27.144 90.6676 27.128 90.5716 27.192C89.9476 27.608 89.3236 27.8 88.5556 27.8C87.0036 27.8 86.0756 26.968 85.8676 25.72H91.1476C91.7396 25.72 91.8836 25.384 91.8836 24.696C91.8836 22.744 90.5236 20.968 88.1716 20.968C85.7876 20.968 84.1876 22.744 84.1876 25.048C84.1876 27.384 85.8516 29.192 88.4116 29.192ZM85.8516 24.472C86.0276 23.176 86.9396 22.424 88.1716 22.424C89.4036 22.424 90.2516 23.192 90.3476 24.472H85.8516Z" fill="white"/>
<defs>
<clipPath id="clip0_1928_2172">
<rect width="24" height="24" fill="white" transform="translate(24 11)"/>
</clipPath>
</defs>
</svg>
