<svg width="52" height="52" viewBox="0 0 52 52" fill="none" xmlns="http://www.w3.org/2000/svg">
<rect width="52" height="52" rx="26" fill="#007BFF"/>
<g clip-path="url(#clip0_1936_2279)">
<path d="M26.2871 31.334C26.082 31.5391 26 31.7852 26 32.0312C26 32.3184 26.082 32.5645 26.2871 32.7285C26.6562 33.1387 27.2715 33.1387 27.6406 32.7285L30.9219 29.4473C31.332 29.0781 31.332 28.4629 30.9219 28.0938L27.6406 24.8125C27.2715 24.4023 26.6562 24.4023 26.2871 24.8125C25.877 25.1816 25.877 25.7969 26.2871 26.166L27.8867 27.7656H16.4844C15.9102 27.7656 15.5 28.2168 15.5 28.75C15.5 29.3242 15.9102 29.7344 16.4844 29.7344H27.8867L26.2871 31.334ZM35.7207 19.4805L32.6445 16.4043C32.1523 15.9121 31.4961 15.625 30.7988 15.625H23.375C21.8984 15.625 20.709 16.8145 20.75 18.25V25.1406C20.75 25.7148 21.1602 26.125 21.7344 26.125C22.2676 26.125 22.7188 25.7148 22.6777 25.1406L22.7188 18.291C22.7188 17.9219 23.0059 17.6348 23.375 17.6348H29.9375V20.875C29.9375 21.6133 30.5117 22.1875 31.25 22.1875H34.4902V34C34.4902 34.3691 34.1621 34.6562 33.834 34.6562H23.375C23.0059 34.6562 22.7188 34.3691 22.7188 34L22.6777 32.3594C22.7188 31.8262 22.2676 31.375 21.7344 31.375C21.1602 31.375 20.75 31.8262 20.75 32.3594V34C20.75 35.4766 21.8984 36.625 23.375 36.625H33.875C35.3105 36.625 36.5 35.4766 36.5 34V21.3262C36.5 20.6289 36.2129 19.9727 35.7207 19.4805Z" fill="white"/>
</g>
<defs>
<clipPath id="clip0_1936_2279">
<rect width="24" height="24" fill="white" transform="translate(14 14)"/>
</clipPath>
</defs>
</svg>
