<svg width="62" height="40" viewBox="0 0 62 40" fill="none" xmlns="http://www.w3.org/2000/svg">
<path d="M0 0H42C53.0457 0 62 8.95431 62 20C62 31.0457 53.0457 40 42 40H0V0Z" fill="#007BFF"/>
<g clip-path="url(#clip0_1928_2535)">
<path d="M39.3438 24.4336C39.6602 24.7852 39.6602 25.3125 39.3438 25.6289C38.9922 25.9805 38.4648 25.9805 38.1484 25.6289L34 21.4453L29.8164 25.6289C29.4648 25.9805 28.9375 25.9805 28.6211 25.6289C28.2695 25.3125 28.2695 24.7852 28.6211 24.4336L32.8047 20.25L28.6211 16.0664C28.2695 15.7148 28.2695 15.1875 28.6211 14.8711C28.9375 14.5195 29.4648 14.5195 29.7812 14.8711L34 19.0898L38.1836 14.9062C38.5 14.5547 39.0273 14.5547 39.3438 14.9062C39.6953 15.2227 39.6953 15.75 39.3438 16.1016L35.1602 20.25L39.3438 24.4336Z" fill="white"/>
</g>
<defs>
<clipPath id="clip0_1928_2535">
<rect width="24" height="24" fill="white" transform="translate(22 8)"/>
</clipPath>
</defs>
</svg>
