<svg width="52" height="52" viewBox="0 0 52 52" fill="none" xmlns="http://www.w3.org/2000/svg">
<rect width="52" height="52" rx="26" fill="#007BFF"/>
<g clip-path="url(#clip0_1928_2173)">
<path d="M17.8789 28.9141L30.3477 16.4453C31.373 15.4199 33.0547 15.4199 34.0801 16.4453L35.6797 18.0449C35.8027 18.168 35.9258 18.332 36.0078 18.4551C36.7051 19.4805 36.582 20.875 35.6797 21.7773L23.2109 34.2461C23.1699 34.2871 23.0879 34.3281 23.0469 34.4102C22.6367 34.7383 22.1855 34.9844 21.6934 35.1484L16.7305 36.584C16.4023 36.707 16.0332 36.625 15.7871 36.3379C15.5 36.0918 15.418 35.7227 15.5 35.3945L16.9766 30.4316C17.1406 29.8574 17.4688 29.3242 17.8789 28.9141ZM18.8633 31.0059L17.9199 34.2051L21.1191 33.2617C21.3652 33.1797 21.6113 33.0566 21.8164 32.8516L31.209 23.459L28.625 20.916L19.2734 30.3086C19.2324 30.3086 19.2324 30.3496 19.1914 30.3906C19.0273 30.5547 18.9453 30.7598 18.8633 31.0059Z" fill="white"/>
</g>
<defs>
<clipPath id="clip0_1928_2173">
<rect width="24" height="24" fill="white" transform="translate(14 14)"/>
</clipPath>
</defs>
</svg>
