<?xml version="1.0" standalone="no"?>
<!DOCTYPE svg PUBLIC "-//W3C//DTD SVG 20010904//EN"
 "http://www.w3.org/TR/2001/REC-SVG-20010904/DTD/svg10.dtd">
<svg version="1.0" xmlns="http://www.w3.org/2000/svg"
 width="728.000000pt" height="728.000000pt" viewBox="0 0 728.000000 728.000000"
 preserveAspectRatio="xMidYMid meet">
<metadata>
Created by potrace 1.14, written by Peter Selinger 2001-2017
</metadata>
<g transform="translate(0.000000,728.000000) scale(0.100000,-0.100000)"
fill="#000000" stroke="none">
<path d="M590 6251 c-79 -25 -149 -82 -186 -152 -8 -17 -51 -133 -93 -257 -43
-125 -81 -234 -84 -242 -5 -15 -30 -90 -32 -100 -1 -3 -5 -12 -8 -20 -9 -22
-86 -246 -108 -315 -11 -33 -22 -67 -26 -75 -3 -8 -7 -17 -8 -20 0 -3 -11 -36
-24 -73 -35 -104 -16 -175 60 -218 20 -12 555 -14 3304 -15 3131 -1 3282 0
3328 17 27 10 57 25 66 32 9 8 26 23 39 33 31 25 65 85 90 159 11 33 41 121
67 195 52 153 52 153 53 160 0 3 6 19 12 35 18 45 100 278 104 295 2 8 16 49
30 90 74 209 106 310 106 334 0 54 -45 116 -98 137 -28 11 -6556 11 -6592 0z"/>
<path d="M2137 4384 c-2 -3 -17 -7 -33 -10 -67 -12 -169 -117 -193 -197 -5
-18 -30 -90 -56 -162 -25 -71 -48 -137 -50 -145 -6 -25 -96 -283 -105 -305 -5
-11 -21 -54 -34 -95 -14 -41 -50 -147 -80 -234 -56 -159 -66 -218 -45 -259 18
-36 69 -76 103 -82 17 -3 621 -4 1341 -3 l1310 3 45 22 c25 13 59 35 75 50 34
31 80 93 69 93 -3 0 -2 6 3 13 6 6 24 53 41 102 17 50 62 180 100 290 38 110
86 250 107 310 21 61 42 121 48 135 6 14 11 27 12 30 4 17 21 68 52 155 20 55
37 118 38 140 3 52 -28 108 -75 134 -36 20 -55 20 -1352 20 -724 0 -1318 -2
-1321 -5z"/>
<path d="M2980 2510 c-71 -13 -145 -67 -185 -134 -20 -35 -78 -186 -90 -238
-2 -9 -9 -26 -15 -37 -6 -12 -8 -21 -5 -21 3 0 0 -10 -7 -22 -6 -13 -13 -31
-15 -41 -2 -10 -10 -31 -18 -47 -9 -17 -15 -33 -15 -37 0 -10 -28 -101 -40
-128 -5 -11 -25 -69 -46 -130 -20 -60 -42 -121 -47 -135 -6 -14 -12 -34 -14
-45 -1 -11 -7 -29 -13 -40 -5 -11 -28 -76 -51 -144 -45 -136 -47 -177 -10
-229 45 -64 31 -62 663 -62 l574 1 60 28 c66 32 102 66 133 126 21 41 172 470
174 493 0 6 5 12 10 12 6 0 8 2 5 5 -3 4 19 77 49 163 30 86 56 162 57 167 2
6 6 17 9 25 36 92 104 312 103 335 -1 44 -42 108 -79 125 -27 13 -122 15 -592
16 -308 0 -576 -3 -595 -6z"/>
</g>
</svg>
