<svg width="300" height="300" viewBox="0 0 300 300" fill="none" xmlns="http://www.w3.org/2000/svg">
<g opacity="0.58">
<g clip-path="url(#clip0_2117_4594)">
<rect width="195.776" height="10.7065" transform="translate(17 25.512)" fill="#404258"/>
<path fill-rule="evenodd" clip-rule="evenodd" d="M22.7355 32.0123C23.369 32.0123 23.8826 31.4987 23.8826 30.8652C23.8826 30.2317 23.369 29.7181 22.7355 29.7181C22.102 29.7181 21.5884 30.2317 21.5884 30.8652C21.5884 31.4987 22.102 32.0123 22.7355 32.0123Z" fill="#ED6A5E"/>
<path fill-rule="evenodd" clip-rule="evenodd" d="M26.5592 32.0123C27.1928 32.0123 27.7064 31.4987 27.7064 30.8651C27.7064 30.2316 27.1928 29.718 26.5592 29.718C25.9257 29.718 25.4121 30.2316 25.4121 30.8651C25.4121 31.4987 25.9257 32.0123 26.5592 32.0123Z" fill="#F4BF4F"/>
<path fill-rule="evenodd" clip-rule="evenodd" d="M30.383 32.0123C31.0165 32.0123 31.5301 31.4987 31.5301 30.8651C31.5301 30.2316 31.0165 29.718 30.383 29.718C29.7494 29.718 29.2358 30.2316 29.2358 30.8651C29.2358 31.4987 29.7494 32.0123 30.383 32.0123Z" fill="#61C554"/>
<path d="M68.3339 30.4446C68.3339 30.0147 68.3339 29.6981 68.3544 29.4478C68.3748 29.1987 68.4148 29.0238 68.4902 28.8759C68.6276 28.6061 68.847 28.3868 69.1168 28.2493C69.2647 28.1739 69.4396 28.1339 69.6887 28.1135C69.9389 28.0931 70.2556 28.093 70.6855 28.093H157.561C157.991 28.093 158.308 28.0931 158.558 28.1135C158.807 28.1339 158.982 28.1739 159.13 28.2493C159.4 28.3868 159.619 28.6061 159.756 28.8759C159.832 29.0238 159.872 29.1987 159.892 29.4478C159.913 29.6981 159.913 30.0147 159.913 30.4446V31.2858C159.913 31.7157 159.913 32.0324 159.892 32.2826C159.872 32.5318 159.832 32.7066 159.756 32.8545C159.619 33.1243 159.4 33.3437 159.13 33.4812C158.982 33.5565 158.807 33.5966 158.558 33.6169C158.308 33.6374 157.991 33.6374 157.561 33.6374H70.6855C70.2556 33.6374 69.9389 33.6374 69.6887 33.6169C69.4396 33.5966 69.2647 33.5565 69.1168 33.4812C68.847 33.3437 68.6276 33.1243 68.4902 32.8545C68.4148 32.7066 68.3748 32.5318 68.3544 32.2826C68.3339 32.0324 68.3339 31.7157 68.3339 31.2858V30.4446Z" fill="#404258"/>
<path d="M68.3339 30.4446C68.3339 30.0147 68.3339 29.6981 68.3544 29.4478C68.3748 29.1987 68.4148 29.0238 68.4902 28.8759C68.6276 28.6061 68.847 28.3868 69.1168 28.2493C69.2647 28.1739 69.4396 28.1339 69.6887 28.1135C69.9389 28.0931 70.2556 28.093 70.6855 28.093H157.561C157.991 28.093 158.308 28.0931 158.558 28.1135C158.807 28.1339 158.982 28.1739 159.13 28.2493C159.4 28.3868 159.619 28.6061 159.756 28.8759C159.832 29.0238 159.872 29.1987 159.892 29.4478C159.913 29.6981 159.913 30.0147 159.913 30.4446V31.2858C159.913 31.7157 159.913 32.0324 159.892 32.2826C159.872 32.5318 159.832 32.7066 159.756 32.8545C159.619 33.1243 159.4 33.3437 159.13 33.4812C158.982 33.5565 158.807 33.5966 158.558 33.6169C158.308 33.6374 157.991 33.6374 157.561 33.6374H70.6855C70.2556 33.6374 69.9389 33.6374 69.6887 33.6169C69.4396 33.5966 69.2647 33.5565 69.1168 33.4812C68.847 33.3437 68.6276 33.1243 68.4902 32.8545C68.4148 32.7066 68.3748 32.5318 68.3544 32.2826C68.3339 32.0324 68.3339 31.7157 68.3339 31.2858V30.4446Z" stroke="#404258" stroke-width="0.191188"/>
<rect x="17" y="36.2185" width="195.776" height="0.191188" fill="#404258"/>
<rect x="17" y="36.4096" width="195.776" height="115.718" fill="white"/>
</g>
<rect x="17" y="25.512" width="195.776" height="126.616" rx="3.059" stroke="#404258" stroke-width="1.064"/>
<rect x="78.7119" y="79.776" width="124.488" height="61.712" rx="3.192" fill="#007BFF" fill-opacity="0.5"/>
<rect x="161.704" y="95.736" width="32.984" height="31.92" rx="3.192" fill="#007BFF"/>
</g>
<g clip-path="url(#clip1_2117_4594)">
<rect width="195.776" height="10.7065" transform="translate(87.2241 147.872)" fill="#404258"/>
<path fill-rule="evenodd" clip-rule="evenodd" d="M92.9596 154.372C93.5932 154.372 94.1068 153.859 94.1068 153.225C94.1068 152.592 93.5932 152.078 92.9596 152.078C92.3261 152.078 91.8125 152.592 91.8125 153.225C91.8125 153.859 92.3261 154.372 92.9596 154.372Z" fill="#ED6A5E"/>
<path fill-rule="evenodd" clip-rule="evenodd" d="M96.7834 154.372C97.4169 154.372 97.9305 153.859 97.9305 153.225C97.9305 152.592 97.4169 152.078 96.7834 152.078C96.1498 152.078 95.6362 152.592 95.6362 153.225C95.6362 153.859 96.1498 154.372 96.7834 154.372Z" fill="#F4BF4F"/>
<path fill-rule="evenodd" clip-rule="evenodd" d="M100.607 154.372C101.241 154.372 101.754 153.859 101.754 153.225C101.754 152.592 101.241 152.078 100.607 152.078C99.9735 152.078 99.46 152.592 99.46 153.225C99.46 153.859 99.9735 154.372 100.607 154.372Z" fill="#61C554"/>
<path d="M138.558 152.805C138.558 152.375 138.558 152.058 138.579 151.808C138.599 151.559 138.639 151.384 138.714 151.236C138.852 150.966 139.071 150.747 139.341 150.609C139.489 150.534 139.664 150.494 139.913 150.474C140.163 150.453 140.48 150.453 140.91 150.453H227.785C228.215 150.453 228.532 150.453 228.782 150.474C229.031 150.494 229.206 150.534 229.354 150.609C229.624 150.747 229.843 150.966 229.981 151.236C230.056 151.384 230.096 151.559 230.116 151.808C230.137 152.058 230.137 152.375 230.137 152.805V153.646C230.137 154.076 230.137 154.392 230.116 154.643C230.096 154.892 230.056 155.067 229.981 155.215C229.843 155.484 229.624 155.704 229.354 155.841C229.206 155.917 229.031 155.957 228.782 155.977C228.532 155.997 228.215 155.998 227.785 155.998H140.91C140.48 155.998 140.163 155.997 139.913 155.977C139.664 155.957 139.489 155.917 139.341 155.841C139.071 155.704 138.852 155.484 138.714 155.215C138.639 155.067 138.599 154.892 138.579 154.643C138.558 154.392 138.558 154.076 138.558 153.646V152.805Z" fill="#404258"/>
<path d="M138.558 152.805C138.558 152.375 138.558 152.058 138.579 151.808C138.599 151.559 138.639 151.384 138.714 151.236C138.852 150.966 139.071 150.747 139.341 150.609C139.489 150.534 139.664 150.494 139.913 150.474C140.163 150.453 140.48 150.453 140.91 150.453H227.785C228.215 150.453 228.532 150.453 228.782 150.474C229.031 150.494 229.206 150.534 229.354 150.609C229.624 150.747 229.843 150.966 229.981 151.236C230.056 151.384 230.096 151.559 230.116 151.808C230.137 152.058 230.137 152.375 230.137 152.805V153.646C230.137 154.076 230.137 154.392 230.116 154.643C230.096 154.892 230.056 155.067 229.981 155.215C229.843 155.484 229.624 155.704 229.354 155.841C229.206 155.917 229.031 155.957 228.782 155.977C228.532 155.997 228.215 155.998 227.785 155.998H140.91C140.48 155.998 140.163 155.997 139.913 155.977C139.664 155.957 139.489 155.917 139.341 155.841C139.071 155.704 138.852 155.484 138.714 155.215C138.639 155.067 138.599 154.892 138.579 154.643C138.558 154.392 138.558 154.076 138.558 153.646V152.805Z" stroke="#404258" stroke-width="0.191188"/>
<rect x="87.2241" y="158.579" width="195.776" height="0.191188" fill="#404258"/>
<rect x="87.2241" y="158.77" width="195.776" height="115.718" fill="white"/>
</g>
<rect x="87.2241" y="147.872" width="195.776" height="126.616" rx="3.059" stroke="#404258" stroke-width="1.064"/>
<mask id="mask0_2117_4594" style="mask-type:alpha" maskUnits="userSpaceOnUse" x="87" y="158" width="196" height="117">
<rect x="87.2241" y="158.77" width="195.776" height="115.718" fill="white"/>
</mask>
<g mask="url(#mask0_2117_4594)">
<rect x="87" y="158" width="196" height="62" fill="#007BFF" fill-opacity="0.5"/>
</g>
<rect x="218" y="174" width="52" height="32" rx="3.192" fill="#007BFF"/>
<path d="M235.752 126.706C235.752 110.039 223.387 99.3365 215.968 98.928C246.634 98.928 251.003 119.353 251.415 126.706H261.72L243.584 144.68L225.448 126.706H235.752Z" fill="#EBB803"/>
<defs>
<clipPath id="clip0_2117_4594">
<rect x="17" y="25.512" width="195.776" height="126.616" rx="3.059" fill="white"/>
</clipPath>
<clipPath id="clip1_2117_4594">
<rect x="87.2241" y="147.872" width="195.776" height="126.616" rx="3.059" fill="white"/>
</clipPath>
</defs>
</svg>
