<svg width="300" height="300" viewBox="0 0 300 300" fill="none" xmlns="http://www.w3.org/2000/svg">
<g opacity="0.58">
<g clip-path="url(#clip0_2117_4598)">
<rect width="195.776" height="10.7065" transform="translate(17 25.512)" fill="#404258"/>
<path fill-rule="evenodd" clip-rule="evenodd" d="M22.7355 32.0124C23.369 32.0124 23.8826 31.4988 23.8826 30.8653C23.8826 30.2317 23.369 29.7181 22.7355 29.7181C22.102 29.7181 21.5884 30.2317 21.5884 30.8653C21.5884 31.4988 22.102 32.0124 22.7355 32.0124Z" fill="#ED6A5E"/>
<path fill-rule="evenodd" clip-rule="evenodd" d="M26.5592 32.0124C27.1928 32.0124 27.7064 31.4988 27.7064 30.8653C27.7064 30.2317 27.1928 29.7181 26.5592 29.7181C25.9257 29.7181 25.4121 30.2317 25.4121 30.8653C25.4121 31.4988 25.9257 32.0124 26.5592 32.0124Z" fill="#F4BF4F"/>
<path fill-rule="evenodd" clip-rule="evenodd" d="M30.383 32.0124C31.0165 32.0124 31.5301 31.4988 31.5301 30.8653C31.5301 30.2317 31.0165 29.7181 30.383 29.7181C29.7494 29.7181 29.2358 30.2317 29.2358 30.8653C29.2358 31.4988 29.7494 32.0124 30.383 32.0124Z" fill="#61C554"/>
<path d="M68.3339 30.4447C68.3339 30.0148 68.3339 29.6981 68.3544 29.4479C68.3748 29.1987 68.4148 29.0239 68.4902 28.876C68.6276 28.6062 68.847 28.3868 69.1168 28.2493C69.2647 28.174 69.4396 28.1339 69.6887 28.1136C69.9389 28.0931 70.2556 28.0931 70.6855 28.0931H157.561C157.991 28.0931 158.308 28.0931 158.558 28.1136C158.807 28.1339 158.982 28.174 159.13 28.2493C159.4 28.3868 159.619 28.6062 159.756 28.876C159.832 29.0239 159.872 29.1987 159.892 29.4479C159.913 29.6981 159.913 30.0148 159.913 30.4447V31.2859C159.913 31.7158 159.913 32.0324 159.892 32.2827C159.872 32.5318 159.832 32.7067 159.756 32.8546C159.619 33.1244 159.4 33.3437 159.13 33.4812C158.982 33.5566 158.807 33.5966 158.558 33.617C158.308 33.6374 157.991 33.6375 157.561 33.6375H70.6855C70.2556 33.6375 69.9389 33.6374 69.6887 33.617C69.4396 33.5966 69.2647 33.5566 69.1168 33.4812C68.847 33.3437 68.6276 33.1244 68.4902 32.8546C68.4148 32.7067 68.3748 32.5318 68.3544 32.2827C68.3339 32.0324 68.3339 31.7158 68.3339 31.2859V30.4447Z" fill="#404258"/>
<path d="M68.3339 30.4447C68.3339 30.0148 68.3339 29.6981 68.3544 29.4479C68.3748 29.1987 68.4148 29.0239 68.4902 28.876C68.6276 28.6062 68.847 28.3868 69.1168 28.2493C69.2647 28.174 69.4396 28.1339 69.6887 28.1136C69.9389 28.0931 70.2556 28.0931 70.6855 28.0931H157.561C157.991 28.0931 158.308 28.0931 158.558 28.1136C158.807 28.1339 158.982 28.174 159.13 28.2493C159.4 28.3868 159.619 28.6062 159.756 28.876C159.832 29.0239 159.872 29.1987 159.892 29.4479C159.913 29.6981 159.913 30.0148 159.913 30.4447V31.2859C159.913 31.7158 159.913 32.0324 159.892 32.2827C159.872 32.5318 159.832 32.7067 159.756 32.8546C159.619 33.1244 159.4 33.3437 159.13 33.4812C158.982 33.5566 158.807 33.5966 158.558 33.617C158.308 33.6374 157.991 33.6375 157.561 33.6375H70.6855C70.2556 33.6375 69.9389 33.6374 69.6887 33.617C69.4396 33.5966 69.2647 33.5566 69.1168 33.4812C68.847 33.3437 68.6276 33.1244 68.4902 32.8546C68.4148 32.7067 68.3748 32.5318 68.3544 32.2827C68.3339 32.0324 68.3339 31.7158 68.3339 31.2859V30.4447Z" stroke="#404258" stroke-width="0.191188"/>
<rect x="17" y="36.2185" width="195.776" height="0.191188" fill="#404258"/>
<rect x="17" y="36.4097" width="195.776" height="115.718" fill="white"/>
</g>
<rect x="17" y="25.512" width="195.776" height="126.616" rx="3.059" stroke="#404258" stroke-width="1.064"/>
<rect x="78.7119" y="79.7761" width="124.488" height="61.712" rx="3.192" fill="#007BFF" fill-opacity="0.5"/>
<rect x="161.704" y="95.7361" width="32.984" height="31.92" rx="3.192" fill="#007BFF"/>
</g>
<g clip-path="url(#clip1_2117_4598)">
<rect width="195.776" height="10.7065" transform="translate(87.2241 147.872)" fill="#404258"/>
<path fill-rule="evenodd" clip-rule="evenodd" d="M92.9596 154.372C93.5932 154.372 94.1068 153.859 94.1068 153.225C94.1068 152.592 93.5932 152.078 92.9596 152.078C92.3261 152.078 91.8125 152.592 91.8125 153.225C91.8125 153.859 92.3261 154.372 92.9596 154.372Z" fill="#ED6A5E"/>
<path fill-rule="evenodd" clip-rule="evenodd" d="M96.7834 154.372C97.4169 154.372 97.9305 153.859 97.9305 153.225C97.9305 152.592 97.4169 152.078 96.7834 152.078C96.1498 152.078 95.6362 152.592 95.6362 153.225C95.6362 153.859 96.1498 154.372 96.7834 154.372Z" fill="#F4BF4F"/>
<path fill-rule="evenodd" clip-rule="evenodd" d="M100.607 154.372C101.241 154.372 101.754 153.859 101.754 153.225C101.754 152.592 101.241 152.078 100.607 152.078C99.9735 152.078 99.46 152.592 99.46 153.225C99.46 153.859 99.9735 154.372 100.607 154.372Z" fill="#61C554"/>
<path d="M138.558 152.805C138.558 152.375 138.558 152.058 138.579 151.808C138.599 151.559 138.639 151.384 138.714 151.236C138.852 150.966 139.071 150.747 139.341 150.609C139.489 150.534 139.664 150.494 139.913 150.474C140.163 150.453 140.48 150.453 140.91 150.453H227.785C228.215 150.453 228.532 150.453 228.782 150.474C229.031 150.494 229.206 150.534 229.354 150.609C229.624 150.747 229.843 150.966 229.981 151.236C230.056 151.384 230.096 151.559 230.116 151.808C230.137 152.058 230.137 152.375 230.137 152.805V153.646C230.137 154.076 230.137 154.392 230.116 154.643C230.096 154.892 230.056 155.067 229.981 155.215C229.843 155.484 229.624 155.704 229.354 155.841C229.206 155.917 229.031 155.957 228.782 155.977C228.532 155.997 228.215 155.997 227.785 155.997H140.91C140.48 155.997 140.163 155.997 139.913 155.977C139.664 155.957 139.489 155.917 139.341 155.841C139.071 155.704 138.852 155.484 138.714 155.215C138.639 155.067 138.599 154.892 138.579 154.643C138.558 154.392 138.558 154.076 138.558 153.646V152.805Z" fill="#404258"/>
<path d="M138.558 152.805C138.558 152.375 138.558 152.058 138.579 151.808C138.599 151.559 138.639 151.384 138.714 151.236C138.852 150.966 139.071 150.747 139.341 150.609C139.489 150.534 139.664 150.494 139.913 150.474C140.163 150.453 140.48 150.453 140.91 150.453H227.785C228.215 150.453 228.532 150.453 228.782 150.474C229.031 150.494 229.206 150.534 229.354 150.609C229.624 150.747 229.843 150.966 229.981 151.236C230.056 151.384 230.096 151.559 230.116 151.808C230.137 152.058 230.137 152.375 230.137 152.805V153.646C230.137 154.076 230.137 154.392 230.116 154.643C230.096 154.892 230.056 155.067 229.981 155.215C229.843 155.484 229.624 155.704 229.354 155.841C229.206 155.917 229.031 155.957 228.782 155.977C228.532 155.997 228.215 155.997 227.785 155.997H140.91C140.48 155.997 140.163 155.997 139.913 155.977C139.664 155.957 139.489 155.917 139.341 155.841C139.071 155.704 138.852 155.484 138.714 155.215C138.639 155.067 138.599 154.892 138.579 154.643C138.558 154.392 138.558 154.076 138.558 153.646V152.805Z" stroke="#404258" stroke-width="0.191188"/>
<rect x="87.2241" y="158.579" width="195.776" height="0.191188" fill="#404258"/>
<rect x="87.2241" y="158.77" width="195.776" height="115.718" fill="white"/>
</g>
<rect x="87.2241" y="147.872" width="195.776" height="126.616" rx="3.059" stroke="#404258" stroke-width="1.064"/>
<mask id="mask0_2117_4598" style="mask-type:alpha" maskUnits="userSpaceOnUse" x="87" y="158" width="196" height="117">
<rect x="87.2241" y="158.77" width="195.776" height="115.718" fill="white"/>
</mask>
<g mask="url(#mask0_2117_4598)">
<rect x="87" y="177" width="196" height="97" fill="#007BFF" fill-opacity="0.5"/>
</g>
<rect x="219" y="201" width="51" height="51" rx="3.192" fill="#007BFF"/>
<path d="M235.752 126.706C235.752 110.039 223.387 99.3365 215.968 98.928C246.634 98.928 251.003 119.353 251.415 126.706H261.72L243.584 144.68L225.448 126.706H235.752Z" fill="#EBB803"/>
<path d="M110.427 170.616V166.796C109.716 167.342 109.237 167.614 108.991 167.614C108.873 167.614 108.768 167.568 108.676 167.476C108.586 167.381 108.542 167.272 108.542 167.148C108.542 167.006 108.586 166.901 108.676 166.834C108.765 166.766 108.924 166.68 109.15 166.573C109.489 166.414 109.759 166.246 109.961 166.069C110.165 165.893 110.345 165.696 110.502 165.477C110.659 165.259 110.761 165.125 110.809 165.074C110.856 165.024 110.946 164.999 111.077 164.999C111.226 164.999 111.345 165.056 111.434 165.171C111.524 165.286 111.569 165.444 111.569 165.645V170.453C111.569 171.015 111.377 171.297 110.993 171.297C110.823 171.297 110.686 171.239 110.582 171.124C110.478 171.01 110.427 170.84 110.427 170.616Z" fill="#050038"/>
<path d="M117.024 165.784L115.848 170.625C115.809 170.784 115.774 170.91 115.743 171.003C115.715 171.095 115.67 171.166 115.609 171.217C115.55 171.27 115.463 171.297 115.349 171.297C115.063 171.297 114.92 171.173 114.92 170.927C114.92 170.863 114.948 170.702 115.004 170.444L116.176 165.603C116.237 165.346 116.296 165.17 116.352 165.074C116.408 164.979 116.517 164.932 116.68 164.932C116.819 164.932 116.926 164.965 116.999 165.032C117.074 165.1 117.112 165.192 117.112 165.309C117.112 165.396 117.083 165.554 117.024 165.784Z" fill="#050038"/>
<path d="M120.837 170.201H123.029C123.247 170.201 123.414 170.246 123.529 170.335C123.643 170.425 123.701 170.546 123.701 170.7C123.701 170.838 123.655 170.954 123.562 171.049C123.473 171.144 123.335 171.192 123.151 171.192H120.061C119.851 171.192 119.687 171.134 119.569 171.02C119.452 170.902 119.393 170.765 119.393 170.608C119.393 170.507 119.431 170.374 119.506 170.209C119.582 170.041 119.665 169.91 119.754 169.815C120.126 169.428 120.462 169.098 120.762 168.824C121.061 168.547 121.275 168.365 121.404 168.278C121.634 168.116 121.824 167.953 121.975 167.791C122.129 167.626 122.245 167.458 122.324 167.287C122.405 167.113 122.445 166.944 122.445 166.779C122.445 166.6 122.402 166.44 122.315 166.3C122.231 166.158 122.115 166.047 121.967 165.969C121.821 165.89 121.662 165.851 121.488 165.851C121.121 165.851 120.833 166.012 120.623 166.334C120.595 166.376 120.548 166.491 120.48 166.678C120.416 166.866 120.342 167.01 120.258 167.111C120.177 167.211 120.056 167.262 119.897 167.262C119.757 167.262 119.641 167.216 119.548 167.123C119.456 167.031 119.41 166.905 119.41 166.745C119.41 166.552 119.453 166.351 119.54 166.141C119.627 165.931 119.756 165.741 119.926 165.57C120.1 165.399 120.318 165.262 120.581 165.158C120.847 165.052 121.158 164.999 121.513 164.999C121.942 164.999 122.307 165.066 122.609 165.2C122.805 165.29 122.977 165.413 123.126 165.57C123.274 165.727 123.389 165.908 123.47 166.116C123.554 166.32 123.596 166.533 123.596 166.754C123.596 167.101 123.509 167.417 123.335 167.703C123.165 167.985 122.99 168.208 122.811 168.37C122.632 168.53 122.331 168.782 121.908 169.126C121.488 169.47 121.2 169.738 121.043 169.928C120.976 170.003 120.907 170.094 120.837 170.201Z" fill="#050038"/>
<path fill-rule="evenodd" clip-rule="evenodd" d="M132.52 163.449C132.785 163.184 133.215 163.184 133.48 163.449L137.551 167.52C137.816 167.785 137.816 168.215 137.551 168.48L133.48 172.551C133.215 172.816 132.785 172.816 132.52 172.551C132.255 172.286 132.255 171.857 132.52 171.592L136.112 168L132.52 164.408C132.255 164.143 132.255 163.714 132.52 163.449Z" fill="#050038"/>
<path fill-rule="evenodd" clip-rule="evenodd" d="M96.3198 168C96.3198 167.624 96.6243 167.32 96.9998 167.32H104C104.375 167.32 104.68 167.624 104.68 168C104.68 168.376 104.375 168.68 104 168.68H96.9998C96.6243 168.68 96.3198 168.376 96.3198 168Z" fill="#5F5C80"/>
<path fill-rule="evenodd" clip-rule="evenodd" d="M128.32 168C128.32 167.624 128.624 167.32 129 167.32H136C136.375 167.32 136.68 167.624 136.68 168C136.68 168.376 136.375 168.68 136 168.68H129C128.624 168.68 128.32 168.376 128.32 168Z" fill="#050038"/>
<path fill-rule="evenodd" clip-rule="evenodd" d="M100.551 163.449C100.286 163.184 99.8566 163.184 99.5916 163.449L95.5202 167.52C95.2552 167.785 95.2552 168.215 95.5202 168.48L99.5916 172.551C99.8566 172.816 100.286 172.816 100.551 172.551C100.816 172.286 100.816 171.857 100.551 171.592L96.9596 168L100.551 164.408C100.816 164.143 100.816 163.714 100.551 163.449Z" fill="#5F5C80"/>
<defs>
<clipPath id="clip0_2117_4598">
<rect x="17" y="25.512" width="195.776" height="126.616" rx="3.059" fill="white"/>
</clipPath>
<clipPath id="clip1_2117_4598">
<rect x="87.2241" y="147.872" width="195.776" height="126.616" rx="3.059" fill="white"/>
</clipPath>
</defs>
</svg>
